<?xml version="1.0" encoding="UTF-8" standalone="no"?>
<svg
   viewBox="0 0 512 512"
   version="1.1"
   id="svg1"
   sodipodi:docname="bible.svg"
   inkscape:version="1.3 (0e150ed, 2023-07-21)"
   xml:space="preserve"
   xmlns:inkscape="http://www.inkscape.org/namespaces/inkscape"
   xmlns:sodipodi="http://sodipodi.sourceforge.net/DTD/sodipodi-0.dtd"
   xmlns="http://www.w3.org/2000/svg"
   xmlns:svg="http://www.w3.org/2000/svg"><defs
     id="defs1" /><sodipodi:namedview
     id="namedview1"
     pagecolor="#ffffff"
     bordercolor="#666666"
     borderopacity="1.0"
     inkscape:showpageshadow="2"
     inkscape:pageopacity="0.0"
     inkscape:pagecheckerboard="0"
     inkscape:deskcolor="#d1d1d1"
     inkscape:zoom="0.76757812"
     inkscape:cx="364.13232"
     inkscape:cy="257.3028"
     inkscape:window-width="1366"
     inkscape:window-height="717"
     inkscape:window-x="0"
     inkscape:window-y="27"
     inkscape:window-maximized="1"
     inkscape:current-layer="svg1" /><path
     style="fill:#000000;stroke:none"
     d="m 426.83998,441.18746 c 0,-15.86667 -4.14052,-39.34268 1.55672,-54.15945 5.73192,-14.90687 20.42691,-21.31109 23.39269,-38.69977 10.20863,-59.85424 0.85,-130.30619 0.85,-191.18075 0,-25.53155 5.89951,-60.878481 -3.95549,-84.655223 C 438.87689,48.831299 417.70138,45.179106 395.88068,45.170188 H 282.36326 c -46.81486,0 -130.80432,-17.310961 -167.45532,19.623832 -26.726913,26.933889 -23.460341,64.93733 -23.460341,100.54693 v 210.29882 c 0,32.78647 -2.621653,71.71774 25.839221,93.40503 22.82378,17.39181 53.46532,13.10996 79.93837,13.10996 h 167.6962 c 20.98021,0 58.54746,7.62161 77.24695,-3.22008 23.43757,-13.58871 3.09112,-36.67962 -15.32836,-37.74722 M 246.24408,86.137489 V 198.11479 c 0.004,11.03393 -1.86526,31.93015 12.27661,34.71894 19.55065,3.8554 33.11553,-32.97071 52.22193,-33.89283 16.58699,-0.80052 45.85295,49.75224 60.5928,28.4832 7.04165,-10.16085 3.90573,-28.3571 3.90573,-40.23392 V 86.137489 c 9.06688,0 29.73913,-4.052678 36.04749,4.37912 7.24223,9.680011 2.65163,35.714821 2.65163,47.512801 v 131.09537 c 0,14.69481 7.34226,64.04092 -4.13666,73.66528 -13.53371,11.34713 -58.81787,2.80702 -75.84152,2.80702 -65.6386,0 -139.8112,-10.0257 -203.81537,5.46231 v -188.4496 c 0,-21.87973 -5.54979,-53.98775 13.1784,-69.227171 22.20597,-18.069349 75.97053,-7.24513 102.91896,-7.24513 M 388.14086,386.56438 v 54.62308 H 189.48537 c -20.73216,0 -58.36719,5.59795 -58.36719,-27.31154 0,-32.90949 37.63505,-27.31154 58.36719,-27.31154 z"
     id="path16" /><!--!Font Awesome Free 6.5.1 by @fontawesome - https://fontawesome.com License - https://fontawesome.com/license/free Copyright 2024 Fonticons, Inc.--><path
     style="fill:#ffffff;stroke:none"
     d="m 386.57591,407.78423 c 0,-15.86667 -4.14052,-39.34268 1.55672,-54.15945 5.73192,-14.90687 20.42691,-21.31109 23.39269,-38.69977 10.20863,-59.85424 0.85,-130.30619 0.85,-191.18075 0,-25.531551 5.89951,-60.878483 -3.95549,-84.655222 C 398.61282,15.42807 377.43731,11.775877 355.61661,11.766959 H 242.09919 c -46.81486,0 -130.80432,-17.3109607 -167.455317,19.623832 C 47.916953,58.324676 51.183525,96.328119 51.183525,131.93772 v 210.29882 c 0,32.78647 -2.621653,71.71774 25.839228,93.40503 22.82378,17.39181 53.465317,13.10996 79.938367,13.10996 h 167.6962 c 20.98021,0 58.54746,7.62161 77.24695,-3.22008 23.43757,-13.58871 3.09112,-36.67962 -15.32836,-37.74722 M 205.98001,52.734262 V 164.71156 c 0.004,11.03393 -1.86526,31.93015 12.27661,34.71894 19.55065,3.8554 33.11553,-32.97071 52.22193,-33.89283 16.58699,-0.80052 45.85295,49.75224 60.5928,28.4832 7.04165,-10.16085 3.90573,-28.3571 3.90573,-40.23392 V 52.734262 c 9.06688,0 29.73913,-4.05268 36.04749,4.379114 7.24223,9.680018 2.65163,35.714823 2.65163,47.512804 v 131.09537 c 0,14.69481 7.34226,64.04092 -4.13666,73.66528 -13.53371,11.34713 -58.81787,2.80702 -75.84152,2.80702 -65.6386,0 -139.8112,-10.0257 -203.815374,5.46231 v -188.4496 c 0,-21.87973 -5.549791,-53.987748 13.178404,-69.227173 22.20597,-18.069346 75.97053,-7.245125 102.91896,-7.245125 M 347.87679,353.16115 v 54.62308 H 149.2213 c -20.73216,0 -58.367195,5.59795 -58.367195,-27.31154 0,-32.90949 37.635055,-27.31154 58.367195,-27.31154 z"
     id="path15" /></svg>
