<?xml version="1.0" encoding="UTF-8" standalone="no"?>
<svg
   viewBox="0 0 512 512"
   version="1.1"
   id="svg1"
   sodipodi:docname="clothes.svg"
   inkscape:version="1.3 (0e150ed, 2023-07-21)"
   xml:space="preserve"
   xmlns:inkscape="http://www.inkscape.org/namespaces/inkscape"
   xmlns:sodipodi="http://sodipodi.sourceforge.net/DTD/sodipodi-0.dtd"
   xmlns="http://www.w3.org/2000/svg"
   xmlns:svg="http://www.w3.org/2000/svg"><defs
     id="defs1" /><sodipodi:namedview
     id="namedview1"
     pagecolor="#ffffff"
     bordercolor="#666666"
     borderopacity="1.0"
     inkscape:showpageshadow="2"
     inkscape:pageopacity="0.0"
     inkscape:pagecheckerboard="0"
     inkscape:deskcolor="#d1d1d1"
     inkscape:zoom="0.54275969"
     inkscape:cx="479.95458"
     inkscape:cy="262.54713"
     inkscape:window-width="1366"
     inkscape:window-height="717"
     inkscape:window-x="0"
     inkscape:window-y="27"
     inkscape:window-maximized="1"
     inkscape:current-layer="svg1"
     showgrid="false" /><!--!Font Awesome Free 6.5.1 by @fontawesome - https://fontawesome.com License - https://fontawesome.com/license/free Copyright 2024 Fonticons, Inc.--><path
     style="fill:#e8a881;stroke-width:1.31287"
     d="m 279.84109,350.79928 c -12.48084,-21.65023 -12.75255,-22.42813 -8.71472,-24.9498 4.10276,-2.56221 4.68811,-9.9751 1.02759,-13.01308 -1.38263,-1.14747 -4.4186,-1.86959 -6.74661,-1.60472 -3.70254,0.42126 -4.64861,-0.9092 -7.55257,-10.6212 -4.05749,-13.56989 -8.7386,-39.80283 -7.4971,-42.01377 1.56208,-2.78183 22.63439,0.50054 32.64991,5.0858 21.85237,10.00435 34.02675,28.02869 35.37558,52.37404 0.70592,12.7414 0.28356,14.99246 -4.53445,24.16652 -4.12056,7.84603 -7.54703,11.45795 -15.268,16.09424 -5.47532,3.28782 -10.44052,5.97786 -11.03381,5.97786 -0.59328,0 -4.0609,-5.17315 -7.70582,-11.49589 z m 22.78529,-29.96341 c 2.48915,-5.4631 0.38752,-13.20796 -4.39929,-16.21212 -4.11615,-2.58324 -10.68389,3.1552 -10.68389,9.33485 0,11.32639 10.81023,16.25537 15.08318,6.87727 z M 77.398386,267.27058 c 1.264542,-0.51026 3.333808,-0.51026 4.59835,0 1.264538,0.51024 0.229923,0.92774 -2.299175,0.92774 -2.529098,0 -3.563731,-0.4175 -2.299175,-0.92774 z m 356.832344,0 c 1.26455,-0.51026 3.33381,-0.51026 4.59835,0 1.26455,0.51024 0.22993,0.92774 -2.29917,0.92774 -2.5291,0 -3.56373,-0.4175 -2.29918,-0.92774 z"
     id="path21" /><path
     style="fill:#71d88a;stroke-width:1.31287"
     d="m 312.63655,420.81045 c -8.74313,-9.06966 -15.89664,-44.32725 -15.89664,-45.12705 0,-0.79979 2.62899,-2.61787 5.84221,-4.04018 9.0648,-4.01247 19.71977,-14.62557 24.9638,-24.86574 5.33009,-10.40818 7.72169,-33.57461 4.66426,-45.18059 -1.62259,-6.15934 -1.31983,-6.77664 7.00216,-14.27652 17.70728,-15.95804 19.25729,-39.63786 3.77829,-57.7216 -16.55914,-19.34562 -46.85391,-19.36051 -62.86925,-0.0308 -3.06793,3.7028 -6.06601,8.64407 -6.66242,10.9806 -0.70343,2.75587 -2.0267,3.8866 -3.76687,3.21884 -1.47539,-0.56615 -6.86696,-1.02938 -11.98128,-1.02938 h -9.29875 l 0.98932,-21.61227 c 0.54414,-11.88674 1.94405,-25.84653 3.11093,-31.02174 l 2.12159,-9.40948 10.02243,-1.03441 c 25.43647,-2.62526 46.45935,-20.77267 54.24191,-46.82277 l 2.33541,-7.81721 25.91947,0.0475 c 34.80332,0.0638 40,1.97643 86.61777,31.88027 20.23277,12.97868 38.64918,25.31963 40.92537,27.42436 7.13326,6.59589 5.41171,12.41165 -11.52893,38.94707 -8.61709,13.49761 -16.93823,25.59578 -18.49142,26.88482 -5.89054,4.8887 -12.99859,2.51832 -35.25815,-11.75793 -12.09302,-7.75589 -23.18995,-14.10162 -24.65984,-14.10162 -6.92245,0 -7.08696,2.10264 -7.08696,90.57924 l 0,113.34742 -4.51475,4.51476 c -4.24131,4.24132 -5.72929,4.51474 -24.56888,4.51474 H 328.53319 Z M 28.195985,175.82719 c 0,-0.38195 1.448481,-1.83044 3.218847,-3.21885 2.917299,-2.28791 2.982357,-2.22285 0.694454,0.69445 -2.402861,3.06388 -3.913301,4.03823 -3.913301,2.5244 z m 455.922195,-2.5244 c -2.28791,-2.9173 -2.22284,-2.98236 0.69446,-0.69445 3.06388,2.40285 4.03822,3.91329 2.52439,3.91329 -0.38195,0 -1.83044,-1.44847 -3.21885,-3.21884 z"
     id="path20"
     sodipodi:nodetypes="ssssssssssscsscsscsssssssscsscsssssssss" /><path
     style="fill:#dd8956;stroke-width:1.31287"
     d="m 234.95706,363.99809 c -4.13725,-0.99152 -11.96448,-4.47033 -17.39385,-7.7307 -7.63311,-4.58372 -11.07632,-8.22192 -15.18446,-16.04432 -4.80213,-9.14386 -5.23767,-11.44256 -4.53037,-23.91145 1.58367,-27.9187 17.44375,-48.00982 44.2734,-56.08435 l 7.88275,-2.37237 0.39147,5.77676 c 0.89947,13.27292 8.48081,44.34509 11.84368,48.54144 2.45647,3.0653 -4.02279,3.10538 -10.69317,0.0662 -4.35035,-1.98215 -5.287,-1.75631 -8.33689,2.01015 -2.61307,3.227 -2.98876,5.0787 -1.56875,7.73202 3.08754,5.76913 12.4497,9.5702 20.429,8.29425 3.89396,-0.62267 7.07991,-0.48151 7.07991,0.31367 0,0.79518 3.73347,7.99717 8.29661,16.00443 5.44576,9.55605 7.67418,15.18109 6.48521,16.37006 -2.47633,2.47635 -39.67901,3.26201 -48.97454,1.03427 z m -8.17686,-42.04752 c 4.74138,-8.85933 -1.77643,-21.72208 -8.77982,-17.32682 -8.3995,5.27144 -6.67803,20.88458 2.30269,20.88458 2.63878,0 5.37845,-1.50484 6.47713,-3.55776 z m 75.83632,-6.55862 c 0.0374,-3.03492 0.44971,-4.0538 0.91607,-2.26417 0.46634,1.78962 0.43567,4.27273 -0.0681,5.51803 -0.50383,1.24529 -0.8854,-0.21894 -0.8479,-3.25386 z m 19.87419,-37.4194 c 0,-3.31116 -18.25576,-20.36683 -27.37391,-25.57443 l -9.59668,-5.48089 4.90933,-5.83439 c 7.06742,-8.39917 14.62949,-11.79763 23.92102,-10.75034 10.64256,1.19956 18.24615,7.08791 22.06505,17.08758 3.61824,9.47421 2.00308,18.53126 -4.86083,27.25731 -3.63426,4.62021 -9.06398,6.59416 -9.06398,3.29516 z"
     id="path19" /><path
     style="fill:#be6a35;stroke-width:1.31287"
     d="m 253.97521,366.51511 c 2.27619,-0.43841 6.00085,-0.43841 8.27704,0 2.27618,0.43842 0.41385,0.79712 -4.13852,0.79712 -4.55238,0 -6.41471,-0.3587 -4.13852,-0.79712 z m -16.43912,-1.79774 c 1.32777,-0.53133 2.91421,-0.46599 3.52541,0.14522 0.6112,0.61119 -0.47516,1.04592 -2.41414,0.96605 -2.14272,-0.0882 -2.57857,-0.5241 -1.11127,-1.11127 z m 38.62619,0 c 1.32777,-0.53133 2.9142,-0.46599 3.5254,0.14522 0.6112,0.61119 -0.47516,1.04592 -2.41414,0.96605 -2.14272,-0.0882 -2.57857,-0.5241 -1.11126,-1.11127 z m -21.26739,-34.95892 c 1.77036,-0.46264 4.66733,-0.46264 6.43769,0 1.77036,0.46265 0.32189,0.84117 -3.21885,0.84117 -3.54073,0 -4.98922,-0.37852 -3.21884,-0.84117 z m -11.73051,-5.62963 c -2.2879,-2.91729 -2.22285,-2.98235 0.69445,-0.69444 3.06388,2.40285 4.03824,3.91329 2.5244,3.91329 -0.38195,0 -1.83044,-1.44847 -3.21885,-3.21885 z m 25.9854,2.5244 c 0,-0.38194 1.44848,-1.83043 3.21886,-3.21884 2.9173,-2.28791 2.98235,-2.22285 0.69444,0.69444 -2.40285,3.06388 -3.9133,4.03824 -3.9133,2.5244 z m 50.12609,-7.58258 c 0.0205,-4.04655 0.39708,-5.48539 0.83705,-3.1974 0.43995,2.28797 0.42325,5.59879 -0.0372,7.35735 -0.46037,1.75858 -0.82033,-0.11343 -0.79992,-4.15995 z m -123.34119,0 c 0.0375,-3.03492 0.44972,-4.0538 0.91606,-2.26418 0.46636,1.78963 0.43569,4.27274 -0.0681,5.51803 -0.50384,1.2453 -0.8854,-0.21895 -0.84792,-3.25385 z m 16.55408,-3.67869 c 0.0374,-3.03492 0.44971,-4.0538 0.91607,-2.26417 0.46635,1.78962 0.43569,4.27273 -0.0681,5.51803 -0.50384,1.24529 -0.8854,-0.21894 -0.84792,-3.25386 z m 14.78289,-0.91968 c 0,-3.54072 0.37853,-4.9892 0.84117,-3.21884 0.46264,1.77037 0.46264,4.66733 0,6.4377 -0.46264,1.77036 -0.84117,0.32189 -0.84117,-3.21886 z m 60.63013,0.91968 c 0.0374,-3.03492 0.44971,-4.0538 0.91607,-2.26417 0.46636,1.78962 0.43569,4.27273 -0.0681,5.51803 -0.50384,1.24529 -0.8854,-0.21894 -0.84792,-3.25386 z m -34.22219,-0.65396 c -0.53491,-0.8655 1.07166,-1.18286 3.57014,-0.70525 2.49847,0.47762 4.54268,1.18576 4.54268,1.57364 0,1.42319 -7.17093,0.65561 -8.11282,-0.86839 z m -6.94678,-3.36153 c 1.32777,-0.53133 2.9142,-0.46599 3.52539,0.14521 0.61121,0.6112 -0.47515,1.04592 -2.41413,0.96606 -2.14273,-0.0882 -2.57858,-0.5241 -1.11126,-1.11127 z m 20.23275,0 c 1.32777,-0.53133 2.91422,-0.46599 3.52541,0.14521 0.61119,0.6112 -0.47517,1.04592 -2.41414,0.96606 -2.14272,-0.0882 -2.57857,-0.5241 -1.11127,-1.11127 z m -47.82289,-7.35737 c 1.32778,-0.53133 2.91421,-0.46599 3.52541,0.14521 0.61119,0.6112 -0.47517,1.04592 -2.41413,0.96606 -2.14274,-0.0882 -2.57858,-0.5241 -1.11128,-1.11127 z m -33.11408,-27.71315 c -6.62282,-7.10075 -8.84591,-12.06251 -8.84591,-19.74335 0,-7.82148 3.32211,-14.85876 9.92748,-21.02951 6.20826,-5.79979 21.80375,-7.4282 30.09218,-3.14208 4.87441,2.52065 13.32126,11.77442 13.32126,14.59382 0,0.50599 -4.40957,3.4086 -9.79906,6.45023 -9.10294,5.13739 -26.98778,22.55891 -26.98778,26.28867 0,3.00017 -2.93665,1.69806 -7.70817,-3.41778 z m 115.13491,-0.91968 -3.50391,-4.13852 4.13851,3.50393 c 3.8892,3.29282 4.97587,4.77311 3.50392,4.77311 -0.34903,0 -2.21136,-1.86233 -4.13852,-4.13852 z m -89.03332,1.60473 c 0,-0.38195 1.44848,-1.83044 3.21885,-3.21885 2.9173,-2.2879 2.98235,-2.22284 0.69445,0.69446 -2.40286,3.06388 -3.9133,4.03824 -3.9133,2.52439 z m 98.23004,-12.64077 -3.50392,-4.13852 4.13852,3.50392 c 3.88918,3.29282 4.97585,4.77312 3.50391,4.77312 -0.34902,0 -2.21135,-1.86234 -4.13851,-4.13852 z m -19.13834,-26.21063 c 2.37597,-2.5291 4.73379,-4.59835 5.23961,-4.59835 0.50582,0 -1.0243,2.06925 -3.40027,4.59835 -2.37595,2.5291 -4.73377,4.59835 -5.23959,4.59835 -0.50582,0 1.0243,-2.06925 3.40025,-4.59835 z"
     id="path18" /><path
     style="fill:#26cb65;stroke-width:1.31287"
     d="m 142.55581,434.73813 c -3.98809,-4.24514 -3.99931,-33.37446 -3.99931,-118.87351 0,-75.49237 -0.34543,-86.08474 -2.89039,-88.62969 -1.58973,-1.58973 -3.63884,-2.8904 -4.55359,-2.8904 -0.91474,0 -10.11582,5.4676 -20.44681,12.1502 -26.075756,16.86713 -29.468498,18.34675 -35.930978,15.6699 -7.059257,-2.92404 -37.33154,-50.12807 -37.30436,-58.16925 0.02628,-7.7775 1.359372,-9.28637 17.651919,-19.9795 10.028284,-6.58177 14.498892,-10.64003 14.498892,-13.16162 0,-5.03748 13.559141,-13.83467 17.903021,-11.6155 2.38465,1.21825 7.44709,-0.93864 20.084676,-8.55726 23.10485,-13.92886 29.91945,-15.66144 61.5997,-15.66144 h 26.26574 l 2.10304,7.81721 c 2.97861,11.07174 6.44003,17.14814 15.20867,26.69824 7.62489,8.30443 26.21613,18.79424 33.41198,18.85218 7.70479,0.062 8.28009,1.89333 5.49882,17.50406 -1.43631,8.06174 -2.64034,22.31397 -2.67564,31.67163 -0.0754,19.96724 -2.09342,21.61976 -9.65558,7.90641 -15.2413,-27.63891 -56.95786,-26.21914 -71.73291,2.44133 -8.58705,16.65703 -3.77454,38.3996 11.30147,51.05937 7.36579,6.18527 7.3688,6.19329 5.42368,14.46574 -1.07043,4.55238 -1.57113,13.832 -1.11269,20.62139 1.6303,24.14449 15.48319,42.0898 39.49741,51.16569 14.72965,5.5669 42.91277,6.90493 60.10255,2.85342 7.00461,-1.65093 13.24673,-2.35943 13.87136,-1.57443 0.62464,0.78501 8.07677,37.54682 16.56025,46.39865 l 15.42453,16.09425 H 237.60818 146.55511 Z M 238.80064,161.2475 c -13.96066,-6.6807 -23.04063,-17.27219 -27.50948,-32.08892 l -1.24822,-4.13852 h 47.94684 c 37.15279,0 47.93774,0.5176 47.90645,2.29918 -0.0869,4.94715 -7.20562,17.69961 -13.25998,23.75396 -14.08803,14.08804 -36.71933,18.36508 -53.83561,10.1743 z"
     id="path17"
     sodipodi:nodetypes="sssssssssssscsssscssssssssscccssscssss" /><path
     id="path15"
     style="fill:#050906;stroke-width:1.31287"
     d="m 138.80469,109.3418 c -4.72807,1.72361 -9.50528,3.31703 -14.19968,5.1299 -7.67587,3.1865 -14.98715,7.18027 -22.18118,11.32322 -5.646454,3.33754 -11.291874,6.73075 -16.46103,10.78442 -1.561666,1.31373 -3.402538,2.70384 -3.761239,4.85001 -0.955903,4.16358 1.548692,8.97889 5.696877,10.24057 1.878478,0.27218 3.669776,-0.63816 5.391366,-1.26369 7.101526,-2.98629 13.670266,-7.04815 20.282316,-10.96285 7.51389,-4.37525 15.33756,-8.5408 23.91978,-10.34258 8.90546,-1.88466 18.06532,-1.80221 27.1229,-1.75478 10.03786,0.1523 20.07447,0.37708 30.11176,0.56218 0.85058,4.1915 1.77217,8.39052 3.37018,12.37199 5.66525,14.4645 16.87403,26.53996 30.55756,33.79208 10.88711,5.76705 23.48056,8.34345 35.74881,7.01815 14.30669,-1.45729 27.94018,-8.10295 38.1372,-18.20555 8.96085,-8.79172 15.25867,-20.15468 18.35449,-32.29572 0.51814,-1.94768 1.03628,-3.89537 1.55442,-5.84306 11.50966,0.45254 23.02473,0.7798 34.53,1.33549 8.46691,0.49478 17.04564,0.97794 25.21973,3.41704 2.74498,0.7685 5.3626,1.90578 7.88503,3.22404 10.1095,5.24632 19.878,11.11862 29.60745,17.03161 11.82839,7.25627 23.49318,14.77723 35.06658,22.43265 6.14107,4.15446 12.35532,8.25821 17.95429,13.13856 2.07433,1.93596 4.3348,3.96591 5.24082,6.74288 0.69028,2.47133 -0.59958,4.89581 -1.67214,7.04951 -1.34189,2.56077 -2.76572,4.9927 -4.21396,7.40738 -6.52779,10.85294 -13.41018,21.49286 -20.55803,31.94738 -2.44078,3.4807 -4.79471,7.04431 -7.58711,10.25784 -1.81832,1.73779 -4.3263,2.96608 -6.89379,2.56376 -3.77104,-0.51473 -7.18357,-2.36122 -10.50803,-4.10792 -8.32386,-4.58838 -16.18463,-9.95085 -24.23398,-14.99181 -4.31769,-2.67748 -8.57883,-5.48304 -13.15449,-7.70848 -2.24204,-1.06847 -4.92987,-1.97288 -7.33441,-0.86558 -1.30882,0.5487 -2.59182,1.41325 -3.05845,2.82356 -1.0218,2.85784 -1.1113,5.93945 -1.37419,8.93562 -0.65147,10.87266 -0.73433,21.76923 -0.90266,32.65765 -0.45192,38.34035 -0.43898,76.68468 -0.89787,115.02494 -0.19301,12.46796 -0.3168,24.89113 -1.09352,37.32906 -0.33019,4.1216 -0.55301,8.29819 -1.63956,12.30556 -0.21522,1.00686 -0.8619,1.80079 -1.59809,2.48493 -0.80808,0.85999 -1.61616,1.71997 -2.42425,2.57996 -73.64908,0 -147.29817,0 -220.94726,0 -2.43511,-2.28753 -4.87001,-4.57529 -7.30469,-6.86328 -0.0137,-48.04609 0.0311,-96.09222 -0.0303,-144.13827 -0.064,-14.73224 -0.0433,-29.4691 -0.51943,-44.19507 -0.21126,-4.40372 -0.28728,-8.85073 -1.19445,-13.18033 -0.34834,-1.6626 -1.14419,-3.25465 -2.51486,-4.30397 -1.44846,-1.20585 -3.00822,-2.62377 -4.97928,-2.75658 -1.72161,0.35907 -3.16939,1.46242 -4.71152,2.25489 -9.71674,5.57568 -19.12313,11.70512 -28.652181,17.52252 -5.004383,3.0001 -9.965441,6.09238 -15.157458,8.76109 -2.207077,1.069 -4.935194,0.90404 -6.980334,-0.46256 -3.370958,-2.14446 -5.863468,-5.35972 -8.306326,-8.45982 -0.642554,-0.84291 -1.191489,-1.58264 -1.826947,-2.45011 -0.390896,-0.55735 -0.932954,-1.29474 -1.341019,-1.88255 -4.707484,-6.739 -9.146879,-13.83176 -13.558823,-20.83493 -3.410222,-5.5481 -6.917613,-11.08056 -9.527893,-17.06377 -1.244866,-3.05153 -2.439557,-6.48593 -1.426783,-9.77624 1.092132,-3.24894 3.880815,-5.49221 6.485262,-7.53376 6.894518,-5.16732 14.606651,-9.18183 21.229353,-14.72047 2.040757,-1.78126 4.239357,-3.89015 4.555918,-6.72929 0.21432,-2.68201 -1.598856,-5.01399 -3.537723,-6.6561 -1.988345,-1.6869 -4.828235,-1.88004 -7.238344,-1.11002 -4.151776,1.27898 -7.816645,3.70442 -11.493961,5.95008 -6.033554,3.90185 -12.10175,7.79795 -17.655753,12.37268 -3.934134,3.28262 -7.628468,7.22976 -9.179291,12.22628 -1.37601,4.35948 -1.364397,9.00959 -1.114641,13.52984 0.348824,5.43716 3.005628,10.33478 5.637682,14.97825 4.675995,7.99235 9.710315,15.76868 14.71417,23.55731 5.327123,8.10968 10.751297,16.17498 16.768252,23.79426 1.558247,1.89636 3.128205,3.87701 5.322266,5.07422 4.468147,2.70485 9.845579,3.03888 14.938609,3.06354 4.115946,0.0312 8.335505,-0.1859 12.189555,-1.77201 4.962602,-2.01016 9.4356,-5.00897 13.9689,-7.81633 5.18499,-3.29593 10.3619,-6.60658 15.54356,-9.9088 0.48028,40.4419 0.91104,80.88442 1.42365,121.32592 0.25114,16.26827 0.43344,32.54255 1.19365,48.7967 0.35123,6.08296 0.62513,12.20333 1.78895,18.19769 0.375,1.93869 1.04932,3.82478 2.19338,5.44799 2.34916,3.85521 5.47552,7.37614 9.56607,9.41826 5.44402,2.73356 11.60511,3.42896 17.59016,3.99508 6.01732,0.47244 12.05326,0.72687 18.08828,0.7895 40.64385,-0.0465 81.28782,-0.0613 121.9316,-0.12758 26.43543,-0.17425 52.87085,-0.34984 79.30629,-0.52325 4.89264,-3.7345 9.78799,-7.46544 14.67969,-11.20117 1.5756,-5.66743 3.21719,-11.32617 4.74682,-17.00039 0.30105,-44.41134 0.62986,-88.82258 0.91334,-133.23398 0.031,-11.78628 -0.0755,-23.57364 0.0869,-35.35911 0.0968,-3.4905 0.11196,-7.00018 0.62014,-10.4612 7.38467,4.54453 14.60077,9.29885 22.01172,13.80664 4.15927,2.47086 8.57956,4.82194 13.46875,5.33789 3.95308,0.39814 7.95069,0.3804 11.90772,0.0447 4.34964,-0.37871 8.8052,-1.73945 12.04304,-4.78499 3.18342,-3.30361 5.81242,-7.08808 8.5009,-10.79209 7.69177,-10.89565 14.90983,-22.12415 21.75828,-33.56793 2.9956,-5.1192 6.05429,-10.22901 8.44826,-15.66533 2.11183,-5.22709 2.03879,-11.14129 0.62991,-16.53916 -1.51675,-5.76849 -4.76292,-11.16707 -9.55205,-14.79481 -6.3097,-4.92317 -13.02196,-9.30131 -19.69393,-13.71024 -16.30871,-10.61464 -32.88122,-20.8269 -49.69366,-30.62359 -7.21527,-4.14939 -14.42494,-8.33926 -21.94581,-11.918 -3.3098,-1.50246 -6.80449,-2.54233 -10.20079,-3.82682 -1.92695,-0.66763 -3.83735,-1.42852 -5.77453,-2.03855 -79.28958,0 -158.57917,0 -237.86875,0 -0.10872,0.0391 -0.21745,0.0781 -0.32617,0.11719 z m 119.18164,17.67773 c 12.70642,0.0478 25.42004,-0.0432 38.11788,0.49732 2.57888,0.16313 5.18218,0.24018 7.71806,0.77417 -0.60898,4.10195 -2.67334,7.8121 -4.86329,11.26953 -4.15633,6.27684 -9.35833,11.9045 -15.44941,16.34455 -4.05777,3.02248 -8.81407,5.01046 -13.75185,6.04978 -7.73777,1.64897 -15.86186,1.63479 -23.56241,-0.2166 -5.34916,-1.27512 -10.23507,-3.97622 -14.72461,-7.08594 -6.85128,-4.82318 -12.32538,-11.54063 -15.70666,-19.2035 -1.2384,-2.72173 -2.19454,-5.56097 -3.02966,-8.42931 15.08398,0 30.16796,0 45.25195,0 z m -54.89258,86.48242 c -6.06768,0.17354 -12.06091,1.7832 -17.45011,4.56432 -7.21009,3.5204 -13.85393,8.63237 -18.09853,15.53662 -4.20672,6.72771 -5.84862,14.76033 -5.85952,22.61924 -0.0838,7.63481 1.49849,15.40519 5.38005,22.04199 3.00634,5.25876 7.29196,9.65639 11.97502,13.44596 1.46206,1.33567 3.20305,2.50932 4.13718,4.3038 0.5287,1.3898 0.0368,2.88966 -0.19542,4.29081 -0.0783,0.35578 -0.24543,1.11451 -0.36641,1.62778 -1.25255,5.14215 -1.47734,10.4668 -1.57451,15.73744 -0.16867,10.42797 1.70235,21.02642 6.46227,30.37201 4.64445,9.27583 12.09946,17.01224 20.92342,22.4086 7.71932,4.74682 16.34885,7.91984 25.19757,9.7864 7.23902,1.34508 14.5941,2.04411 21.95057,2.27474 13.57191,0.25955 27.36451,-1.34044 40.06981,-6.31764 10.4412,-4.06196 19.99282,-10.65305 26.97244,-19.47034 4.00186,-5.02751 7.2283,-10.6826 9.50274,-16.69197 1.50329,-4.79018 1.90158,-9.83899 2.22298,-14.82342 0.37976,-7.793 0.24917,-15.64932 -0.95827,-23.36981 -0.33518,-2.34338 -1.10007,-4.66587 -0.95339,-7.05137 0.20229,-1.01403 1.39841,-1.30778 2.18135,-1.76401 4.15315,-1.84074 7.29335,-5.30968 10.02249,-8.83848 3.96452,-5.3177 7.14282,-11.31178 8.79719,-17.75861 2.24797,-9.28543 1.21453,-19.32075 -2.92673,-27.93458 -5.50435,-11.6558 -16.37621,-20.63847 -28.90113,-23.73466 -7.5597,-1.89457 -15.66729,-1.67594 -23.08095,0.74704 -5.44261,2.02663 -10.26931,5.4155 -14.67418,9.14707 -3.95405,3.45779 -7.72545,7.2945 -10.24604,11.94825 -0.8053,1.37411 -1.08757,3.07898 -2.24036,4.22899 -1.4608,0.93833 -3.30295,0.81874 -4.96875,0.97657 -7.0404,0.18081 -14.08485,0.0599 -21.12695,0.0957 -1.92596,-3.34787 -3.67279,-6.80252 -5.73691,-10.06842 -7.84453,-11.95331 -22.26245,-18.81864 -36.43692,-18.33002 z m 108.65039,17.75391 c 8.74693,-0.0201 17.23094,4.92656 21.70467,12.41162 1.56373,2.57454 2.6456,5.43727 3.19181,8.39893 0.0503,0.31335 0.18372,1.08365 0.23328,1.57599 0.51074,4.78814 -0.0442,9.85863 -2.54824,14.05942 -2.06127,3.51393 -4.81988,6.57345 -7.73873,9.39408 -0.69877,0.63828 -1.41508,1.2657 -2.21388,1.77715 -0.77176,-2.49803 -2.57861,-4.49243 -4.20527,-6.47733 -4.9067,-5.59337 -10.43196,-10.62879 -16.27045,-15.23212 -2.78483,-2.22908 -5.79928,-4.13761 -8.80911,-6.04203 -2.51418,-1.69473 -5.06831,-3.38337 -7.25228,-5.50048 1.1601,-2.1647 3.01672,-3.84523 4.78906,-5.5039 0.58461,-0.52016 1.38927,-1.20926 2.08398,-1.76758 0.67406,-0.54468 1.58839,-1.24804 2.38368,-1.8171 3.04589,-2.14285 6.29664,-4.27339 10.05068,-4.85375 1.51646,-0.2827 3.058,-0.42469 4.6008,-0.4229 z m -106.10156,0.7168 c 4.04992,0.0824 8.30059,0.639 11.77459,2.87266 3.60073,2.51937 6.70285,5.7154 9.37971,9.18788 0.54474,0.7473 1.08114,1.50978 1.48242,2.34571 -1.80573,1.32758 -3.78623,2.52462 -5.6311,3.62618 -2.776,1.59901 -5.56823,3.18824 -8.09865,5.16644 -6.15724,4.68776 -11.87251,9.9552 -17.11233,15.64713 -1.99397,2.28736 -4.12132,4.56736 -5.37667,7.36493 -0.0564,0.84256 -0.68793,0.10659 -1.0949,-0.1106 -3.48252,-2.58549 -6.33454,-5.95499 -8.68831,-9.57885 -2.11808,-3.17175 -3.26769,-6.95687 -3.24731,-10.77215 -9.3e-4,-7.97061 3.88644,-15.6667 9.73075,-20.97475 3.10744,-2.5668 7.12361,-3.69485 11.03276,-4.34296 1.93375,-0.30346 3.89187,-0.44299 5.84904,-0.43162 z m 52.4707,28.41406 c 5.54767,0.0598 11.15594,-0.0874 16.62643,0.98178 4.84135,1.00741 9.11082,3.64608 13.33157,6.10027 7.47272,4.51316 14.33605,10.27935 19.20784,17.58867 4.86322,7.22854 7.79543,15.5933 9.5783,24.07537 1.82303,9.11413 1.46883,18.86788 -2.25268,27.4784 -3.36249,7.97732 -9.56762,14.55992 -16.95826,18.97277 -4.88056,2.93847 -10.22375,5.10545 -15.78797,6.33896 -7.76324,1.83333 -15.7202,2.89735 -23.7034,2.9219 -11.71699,0.10848 -23.65908,-1.54786 -34.38363,-6.46593 -7.9931,-3.67832 -15.21188,-9.4298 -19.72311,-17.06823 -4.52933,-7.49277 -6.16753,-16.46733 -5.5417,-25.13519 0.62643,-8.39429 2.89041,-16.67729 6.64945,-24.21067 4.82019,-9.67484 12.41007,-17.88331 21.51705,-23.67453 3.66022,-2.30289 7.48063,-4.39655 11.51896,-5.95946 5.23184,-1.92293 10.8963,-1.8161 16.38864,-1.92841 1.17744,-0.0143 2.35501,-0.0102 3.53251,-0.0157 z m -38.62109,43.8164 c -2.0166,0.009 -4.36862,0.30405 -5.60742,2.10547 -1.33972,2.02077 -1.32139,4.55551 -1.57672,6.883 -0.18976,3.26012 0.003,6.65351 1.29108,9.69268 0.85276,1.73074 2.37575,3.08296 4.02093,4.04841 2.17144,1.28913 5.1103,1.18042 7.06939,-0.46393 2.755,-2.25641 3.66685,-5.97565 3.85157,-9.38477 0.071,-2.66484 -0.16428,-5.34033 -0.58661,-7.96987 -0.27361,-1.8948 -1.33337,-3.85846 -3.263,-4.46567 -1.67019,-0.54465 -3.46712,-0.4363 -5.19922,-0.44532 z m 75.41211,0 c -1.98953,0.0145 -4.30966,0.2858 -5.55664,2.04297 -1.39782,2.01755 -1.36446,4.5933 -1.62581,6.94158 -0.1911,3.23201 0.002,6.59154 1.25248,9.61311 0.94897,2.05315 2.9149,3.489 4.96278,4.3304 2.78815,1.10156 6.01967,-0.35304 7.6332,-2.74446 2.30775,-3.33794 2.64635,-7.6039 2.32052,-11.53909 -0.26169,-2.33836 -0.25718,-4.945 -1.80489,-6.86716 -1.77343,-2.03486 -4.75385,-1.74653 -7.18164,-1.77735 z m -26.77735,6.68555 c -2.75802,0.0795 -5.31804,1.23286 -7.71289,2.50391 -1.26633,0.6584 -2.79331,0.8458 -4.10937,0.21094 -1.95593,-0.89527 -3.84153,-2.01934 -5.98453,-2.42515 -3.0437,-0.70934 -6.64422,-0.196 -8.78696,2.26304 -2.01616,2.22973 -2.09142,5.65038 -0.79297,8.25586 2.00908,4.09055 6.02731,6.87288 10.26572,8.28917 4.66176,1.61168 9.85971,1.59573 14.49096,-0.11958 4.00217,-1.46898 7.88649,-3.99832 9.91911,-7.85709 1.57758,-2.91081 1.15853,-6.8666 -1.32422,-9.14844 -1.59395,-1.48161 -3.82838,-2.06451 -5.96485,-1.97266 z" /></svg>
