<?xml version="1.0" encoding="UTF-8" standalone="no"?>
<svg
   viewBox="0 0 512 512"
   version="1.1"
   id="svg1"
   sodipodi:docname="family-young-girl.svg"
   inkscape:version="1.3 (0e150ed, 2023-07-21)"
   xml:space="preserve"
   xmlns:inkscape="http://www.inkscape.org/namespaces/inkscape"
   xmlns:sodipodi="http://sodipodi.sourceforge.net/DTD/sodipodi-0.dtd"
   xmlns="http://www.w3.org/2000/svg"
   xmlns:svg="http://www.w3.org/2000/svg"><defs
     id="defs1" /><sodipodi:namedview
     id="namedview1"
     pagecolor="#ffffff"
     bordercolor="#666666"
     borderopacity="1.0"
     inkscape:showpageshadow="2"
     inkscape:pageopacity="0.0"
     inkscape:pagecheckerboard="0"
     inkscape:deskcolor="#d1d1d1"
     inkscape:zoom="0.35355339"
     inkscape:cx="224.85996"
     inkscape:cy="-196.57569"
     inkscape:window-width="1366"
     inkscape:window-height="717"
     inkscape:window-x="0"
     inkscape:window-y="27"
     inkscape:window-maximized="1"
     inkscape:current-layer="g37"
     showgrid="false" /><!--!Font Awesome Free 6.5.1 by @fontawesome - https://fontawesome.com License - https://fontawesome.com/license/free Copyright 2024 Fonticons, Inc.--><g
     id="g33"
     transform="translate(-80.082976,64.183922)"><g
       id="g37"
       transform="translate(4.0936885,0.61828602)"><path
         style="fill:#dcaf89"
         d="m 448.71054,443.42331 c -10.26441,-13.8647 -16.09528,-30.8889 -24.51817,-46.037 -9.98769,-19.13796 -18.78588,-39.34881 -29.51828,-57.81506 -11.54405,0.44259 -23.58628,5.4531 -35.70112,4.96117 -25.33359,2.65577 -51.10952,0.30842 -75.6535,-6.39205 -9.04301,-2.62916 -17.30601,-8.00468 -26.17808,-10.46706 -0.0294,14.18126 -7.88934,27.90665 -20.79178,34.12217 -2.74963,4.59628 -1.32072,13.09286 -7.1756,17.05039 -13.51433,14.61678 -32.67718,22.84241 -50.80278,29.82744 -9.59108,-0.88119 3.44114,-10.91431 4.84644,-15.75006 5.67289,-7.38474 5.16107,-20.51601 -4.9325,-23.43053 -14.24034,-7.10502 -34.32714,-2.66619 -44.3549,-17.54023 -9.82142,-11.22116 -9.00701,-27.34721 -7.46586,-41.16499 3.46883,-16.18466 12.76733,-34.20784 30.14383,-38.10017 8.25166,-0.51692 -5.67898,-10.11785 -6.81559,-14.60299 -17.73776,-25.18184 -27.36516,-55.78151 -27.00253,-86.5968 0.26465,-37.32482 14.76865,-73.161299 35.39585,-103.827222 23.92975,-35.792523 57.2048,-67.62446389 99.39101,-79.878495 14.64218,-4.346253 29.74208,-6.563763 45.03127,-5.465111 22.34853,-1.15822 44.3975,4.915576 65.18219,12.6306288 12.38493,5.89996712 26.76208,9.9184253 36.34379,20.0010282 29.62513,6.602266 60.5881,14.700517 85.47509,33.336017 25.168,17.094993 41.7013,45.182684 46.65976,75.030664 2.24499,15.80038 0.62969,32.12725 0.74336,48.07919 -5.1683,31.83244 -15.4186,62.8033 -30.25843,91.43313 9.287,20.14882 16.63692,44.89117 5.03654,65.5989 -4.8184,9.21316 -13.66264,15.90237 -22.92454,20.4375 3.37751,5.65915 8.9632,10.63193 10.3623,17.73922 5.26455,15.64706 6.90243,33.47975 0.4577,49.04635 -14.3239,12.43741 -29.64386,27.40246 -49.43774,29.02351 l -0.96409,-0.78341 z m 15.43712,-3.2739 c 11.42872,-4.56241 20.75898,-13.4161 30.27394,-21.03167 11.37398,-9.04401 7.03655,-25.23841 7.7231,-37.94443 -2.19557,-11.75497 -6.07053,-23.94697 -15.27867,-31.83486 7.4372,-4.86164 16.09919,-9.18743 21.39805,-17.07352 9.15524,-12.44828 10.09408,-29.17038 6.43097,-43.82402 -0.76498,-9.49195 -7.82906,-18.07028 -8.5177,-27.06857 15.46854,-30.17354 26.70822,-62.87856 30.18801,-96.68354 0.0917,-20.95204 1.43713,-42.42775 -6.6948,-62.25996 C 519.58233,72.55928 495.23179,49.741283 467.39055,36.08383 447.44147,26.555317 426.10537,20.34335 404.36675,16.432428 395.45176,6.3391364 381.52231,3.0369536 370.03613,-3.3664865 337.99782,-15.412349 302.68076,-21.570417 268.88302,-13.801496 236.15086,-7.4178023 206.80478,11.768562 184.46198,36.076427 155.3662,68.313543 131.72222,107.61607 125.369,151.11409 c -6.23784,41.79397 6.39657,85.87365 34.07877,117.86951 7.63825,7.64776 -9.23913,3.33015 -12.15547,8.76651 -12.90132,8.74944 -19.28726,25.16014 -20.42555,40.27774 -1.45544,15.15195 2.12552,33.12021 16.60439,40.91781 13.39824,7.56631 33.1734,2.21057 43.04213,16.25571 5.23011,10.63796 -4.20669,21.68537 -10.64652,29.91812 0.75458,6.75912 12.17852,-2.02 16.52753,-3.39908 15.07128,-7.4442 32.53732,-14.82738 40.59465,-30.35882 0.27902,-6.5355 1.89051,-12.34209 8.94847,-14.04127 9.37671,-7.96258 14.33365,-19.58278 14.24445,-31.81021 0.14774,-16.68632 -9.40383,-31.70617 -18.3151,-45.00019 5.29763,-1.24196 12.47736,-2.33756 17.92538,-5.69114 3.72698,-7.62924 -5.28764,-13.7169 -11.72196,-15.80604 -10.43201,-5.13914 -23.07091,-6.9278 -34.16988,-4.38134 -7.19371,1.47862 -3.31041,-10.58026 -1.16481,-14.4955 4.68613,-12.35553 19.75664,-14.49386 29.70755,-21.4032 5.41938,-3.76597 15.83062,-9.35938 12.77035,2.26493 0.92545,6.92791 -2.68044,15.66755 1.272,21.3852 4.53121,6.10193 13.91967,3.79737 17.91213,-1.95205 7.08735,-2.39992 4.72886,-10.08843 5.7217,-15.92454 -5.56146,-6.13325 -11.55659,-12.97658 -20.58415,-12.91991 -2.833,-5.15213 11.00015,-7.31073 15.20939,-10.8708 15.79618,-6.27727 31.49645,-12.9067 46.92155,-20.17162 14.52453,-6.68807 30.25164,-10.4199 44.67413,-17.16678 17.67759,-12.69458 23.61823,-35.04068 29.72412,-54.83967 9.25944,24.05175 16.61655,49.98482 32.99924,70.64777 7.47955,11.60068 18.17995,20.76344 30.21883,27.25383 9.11548,6.16474 11.20216,17.44656 9.88402,27.7186 0.32177,14.237 -6.33135,27.52141 -11.48623,40.51563 -6.95427,-2.08266 -13.32312,-7.00067 -21.08212,-7.70017 -10.2376,-1.14144 -25.25662,-1.13938 -27.88297,11.5938 -1.65843,6.28383 3.88082,14.77647 11.10607,13.48121 8.32663,1.30949 16.65326,2.619 24.97989,3.9285 -6.44447,10.56574 -15.58854,19.76458 -25.27794,27.39879 -6.15184,5.13964 -13.54924,8.19019 -20.65629,11.72772 6.82776,17.58611 16.97857,34.38474 25.08556,51.6677 9.85284,18.3077 17.68519,37.89893 28.85415,55.37056 2.91995,3.79408 11.54267,-0.70973 15.3412,-1.99199 z M 342.09579,319.0225 c 9.73729,-2.31758 16.72195,-12.85225 14.24491,-22.27724 -4.48978,-5.76493 -11.47968,0.35684 -11.5048,6.09483 -4.71001,8.45723 -17.39553,8.2539 -25.44948,4.504 -7.50995,-2.13341 -10.19112,-9.55496 -12.96758,-15.37492 -6.70047,-4.39919 -10.28327,4.13626 -8.55279,9.78382 6.25724,16.71895 27.71702,21.98948 43.43559,17.57651 z m -7.22976,-51.92251 c -1.11477,-4.91289 -7.85661,4.2898 0,1.57332 v -1.24225 z m 72.53569,-10.75276 c 12.23246,-2.82613 14.67403,-21.41876 4.04371,-27.67971 -5.76292,-2.84947 -12.42822,-6.84474 -18.58145,-7.54704 -6.21074,3.39196 4.10476,11.61911 -0.39914,16.95056 -0.2193,6.40487 -3.48402,15.78312 3.9885,19.06574 3.16718,1.0039 7.78965,0.71592 10.94838,-0.78955 z m -73.53569,-20.17392 c -1.14484,-2.16789 -1.24738,2.06934 0,0 z m -5.31689,-2.6875 c -1.64382,-4.18706 0.20591,6.32454 0,0 z M 429.2946,204.10188 c 5.20446,-6.6179 -3.82159,-13.77749 -9.29616,-17.03357 -7.15952,-4.84929 -19.19473,-7.0159 -25.36363,-0.32191 -3.59184,6.08578 3.70428,11.90083 8.9927,7.53409 7.4766,-1.16943 14.73112,5.10536 18.37471,11.39282 2.48527,-0.43636 5.80585,1.21222 7.29238,-1.57143 z"
         id="path39" /><path
         style="fill:#ba635b"
         d="m 448.03771,441.16444 -2.13586,-2.71531 -25.51791,-50.81785 -25.51791,-50.81786 v -0.85542 -0.85543 l 6.75,-3.31804 6.75,-3.31804 6.10864,-4.34625 6.10865,-4.34625 8.39135,-8.9418 8.39136,-8.9418 1.71711,-2.95716 1.71712,-2.95717 -13.71712,-2.15725 -13.71711,-2.15724 -1.57569,0.006 -1.57568,0.006 -2.0358,-2.25 -2.03579,-2.25 -1.13005,-3.37493 -1.13006,-3.37493 1.84636,-4.12507 1.84635,-4.12507 1.89518,-1.65061 1.89518,-1.65061 4,-1.09381 4,-1.09382 6.0399,-0.006 6.0399,-0.006 5.9601,1.552 5.9601,1.552 4.17807,2.448 4.17807,2.448 h 0.97861 0.97861 l 3.04144,-7.30586 3.04143,-7.30586 2.6592,-8.94414 2.65919,-8.94414 0.11131,-10.5 0.11131,-10.5 -2.16611,-4.75841 -2.16611,-4.75841 -3.30251,-3.02851 -3.30251,-3.0285 -5.12766,-2.90259 -5.12765,-2.90259 -6.11941,-5.66548 -6.1194,-5.66549 -6.34453,-8.64501 -6.34452,-8.64501 -4.12128,-7.274 -4.12129,-7.27401 -4.47016,-10.26609 -4.47017,-10.2661 -4.58957,-13.39917 -4.58958,-13.39918 -0.37864,-0.37864 -0.37864,-0.37864 -3.18767,10.31791 -3.18767,10.31792 -3.96251,8.5 -3.96252,8.5 -3.49658,5.07837 -3.49658,5.07837 -4.21529,3.52355 -4.2153,3.52355 -2.98669,1.5126 -2.98669,1.51261 -5.5,1.74383 -5.5,1.74383 -9,3.34102 -9,3.34101 -6,2.45664 -6,2.45665 -13.5,6.19284 -13.5,6.19284 -6.5,2.26127 -6.5,2.26127 -10.17262,5.11016 -10.17262,5.11016 -0.59369,0.96062 -0.5937,0.96061 0.85047,0.52562 0.85047,0.52562 3.283,0.57838 3.28299,0.57838 2.63285,1.3849 2.63285,1.38489 4.37623,4.49668 4.37623,4.49668 -0.45269,6.25838 -0.45269,6.25838 -2.26505,1.57514 -2.26506,1.57515 -3.0568,2.75 -3.0568,2.75 h -4.39714 -4.39714 l -2.52364,-2.52364 -2.52364,-2.52363 0.3191,-12.91889 0.31909,-12.91888 -1,-0.94149 -1,-0.9415 -17.5,9.33566 -17.5,9.33566 -2.25741,2.79836 -2.2574,2.79835 -1.9926,5.28751 -1.99259,5.28751 v 2.84005 2.84004 l 1.28354,1.06524 1.28353,1.06524 1.46647,-0.92748 1.46646,-0.92749 8.0399,-0.0153 8.0399,-0.0153 5.69583,1.48358 5.69584,1.48357 6.36334,2.88528 6.36335,2.88528 2.76187,3.621 2.76187,3.62101 -0.64826,2.58287 -0.64826,2.58288 -4.69338,2.0761 -4.69338,2.07611 -4.26931,0.48121 -4.26931,0.48121 v 0.57651 0.5765 l 4.06688,5.79774 4.06687,5.79773 3.85757,8.24571 3.85756,8.24571 1.37593,6.83547 1.37592,6.83546 -0.81499,7.60661 -0.815,7.60661 -2.39578,5.23307 -2.39578,5.23307 -4.05426,4.39836 -4.05427,4.39836 -3.57868,1.92649 -3.57869,1.9265 -0.39903,2 -0.39902,2 -0.59494,3.70742 -0.59494,3.70742 -3.96867,5.02075 -3.96867,5.02074 -7.244,5.11439 -7.24401,5.11438 -14,6.90323 -14,6.90322 -3.25,0.62923 -3.25,0.62922 v -1.40191 -1.40191 l 4.12965,-5.47309 4.12965,-5.47309 1.87035,-4.33291 1.87035,-4.3329 v -4.3823 -4.3823 l -2.99272,-3.40852 -2.99272,-3.40852 -5.10311,-2.1953 -5.10311,-2.1953 -11.44579,-1.92682 -11.44579,-1.92681 -3.20838,-1.65238 -3.20838,-1.65237 -3.195,-2.42852 -3.19499,-2.42852 -2.96675,-4.67326 -2.96675,-4.67327 -1.58826,-5.4315 -1.58825,-5.4315 v -9.50461 -9.50461 l 1.63109,-6.56389 1.6311,-6.56389 3.39403,-6.77493 3.39403,-6.77494 3.64123,-4.0304 3.64123,-4.03041 4.16461,-2.44062 4.16461,-2.44062 4.66903,-0.63997 4.66904,-0.63996 v -0.70019 -0.70019 l -4.75,-5.92524 -4.75,-5.92525 -3.73921,-5.64185 -3.73921,-5.64185 -4.04505,-7.49927 -4.04505,-7.49926 -3.08543,-8.34752 -3.08543,-8.34753 -1.40106,-5 -1.40106,-5 -1.47595,-7.48456 -1.47594,-7.48456 -0.62132,-12.01544 -0.62132,-12.01544 1.121,-11.00132 1.121,-11.00132 2.48329,-10.2557 2.48329,-10.25571 3.62585,-9.74298 3.62584,-9.74297 5.50871,-11.000001 5.50872,-11 5.72356,-9.10657 5.72356,-9.106571 7.00723,-9.393429 7.00723,-9.39343 8.25247,-9.257668 8.25246,-9.257668 9.14591,-7.674302 9.14591,-7.674302 9,-5.9103969 9,-5.9103967 8.09762,-3.9195339 8.09762,-3.9195339 8.84075,-2.9883633 8.84075,-2.9883633 10.07903,-1.945052 10.07903,-1.945052 11.4826,-0.670342 11.4826,-0.670343 10.76411,1.0996 10.76411,1.099599 10.23589,2.073389 10.23589,2.07339 12.42428,4.1181973 12.42427,4.1181971 13.62426,6.7397774 13.62426,6.7397772 2.95147,2.964255 2.95146,2.964254 10.43267,2.205796 10.43268,2.205796 8.56732,2.468626 8.56733,2.468627 11.39027,4.542041 11.39027,4.542041 6.60973,3.590209 6.60973,3.59021 7,4.700668 7,4.700668 5.57398,4.90815 5.57399,4.908151 5.00638,5.528223 5.00638,5.528223 3.28745,4.778142 3.28745,4.778143 4.2774,8.648584 4.27739,8.648583 2.49027,8.000001 2.49026,8 1.35916,7.5 1.35917,7.5 0.005,18.5 0.005,18.5 -1.34903,8.5 -1.34903,8.5 -3.39317,13.74451 -3.39317,13.74451 -4.60614,12.75549 -4.60613,12.75549 -6.01245,12.66059 -6.01246,12.66059 4.10778,10.50635 4.10778,10.50634 1.66425,9.83307 1.66425,9.83306 -1.21539,8.42638 -1.21538,8.42637 -2.51737,5.32129 -2.51737,5.32128 -4.81118,5.2642 -4.81118,5.2642 -6.61731,3.86994 -6.6173,3.86995 v 0.40153 0.40153 l 3.3921,3.3921 3.39211,3.39211 2.60795,5.51276 2.60795,5.51275 1.63928,6.81181 1.63928,6.8118 0.11067,11 0.11066,11 -1.38122,5.38122 -1.38122,5.38122 -3.90861,3.9086 -3.9086,3.90861 -10.71018,7.95315 -10.71017,7.95315 -6.21837,2.49015 -6.21836,2.49015 -3.87787,0.62009 -3.87786,0.6201 z m 12.05042,-0.56595 6.15901,-2.07482 6.95794,-4.50107 6.95794,-4.50107 6.69006,-5.33789 6.69006,-5.33789 2.63514,-3.13169 2.63515,-3.13169 0.97224,-3.70453 0.97224,-3.70453 0.65656,-6.01434 0.65657,-6.01434 -1.13736,-9.35421 -1.13736,-9.35421 -2.41116,-6.90126 -2.41116,-6.90127 -2.27702,-3.23019 -2.27701,-3.23018 -2.27697,-1.82258 -2.27697,-1.82258 0.0119,-1.17742 0.0119,-1.17742 6.21207,-3.41326 6.21208,-3.41326 4.81602,-4.94442 4.81602,-4.94443 2.83685,-5.64231 2.83685,-5.64232 1.23677,-7.38774 1.23677,-7.38773 -0.68879,-6.11227 -0.68879,-6.11226 -1.48726,-6.42516 -1.48725,-6.42517 -3.59914,-8.80002 -3.59914,-8.80002 5.71782,-12.08634 5.71782,-12.08635 3.29593,-8.68847 3.29593,-8.68847 2.59816,-8.5 2.59817,-8.5 2.43489,-10 2.43488,-10 1.3648,-9.5 1.36481,-9.5 -0.0579,-18 -0.0579,-18 -1.75377,-8.75616 -1.75377,-8.75616 -2.29738,-6.74384 -2.29737,-6.743841 -4.27568,-8.5 -4.27568,-8.5 -5.41311,-7.195896 -5.41312,-7.195897 -7.56803,-7.067704 -7.56803,-7.067704 -8.20482,-5.459299 -8.20482,-5.459299 -11.42931,-5.456274 -11.42931,-5.456274 -12,-4.00415 -12,-4.00415 -13.16691,-2.914313 -13.16691,-2.914312 -2.33309,-2.595716 -2.33309,-2.595716 -9.5,-5.0048116 -9.5,-5.0048116 -11.5,-4.4323145 -11.5,-4.4323145 -9.5,-2.556065 -9.5,-2.5560648 -10,-1.746334 -10,-1.746333 -16.5,-0.0086 -16.5,-0.0086 -10,1.7713 -10,1.771301 -10.32236,3.4166464 -10.32235,3.4166467 -8.98346,4.46385755 -8.98347,4.46385755 -7.15233,4.7548623 -7.15234,4.7548625 -7.17084,5.768648 -7.17085,5.768648 -10.29725,10.766177 -10.29726,10.766177 -8.13705,11 -8.13706,11 -6.16209,10.05201 -6.1621,10.05201 -5.40252,11.44799 -5.40253,11.44799 -3.04082,9 -3.04081,9 -2.07756,9.10805 -2.07757,9.10806 -1.09575,10.39194 -1.09575,10.39195 0.66316,12.5 0.66315,12.5 2.02527,9.44333 2.02526,9.44333 2.96878,8.55667 2.96879,8.55667 5.06892,10 5.06893,10 4.99437,7.25513 4.99438,7.25513 3.94128,4.47754 3.94129,4.47753 -0.62875,1.01734 -0.62875,1.01733 h -3.28126 -3.28126 l -6.20233,3.09934 -6.20233,3.09934 -3.841,5.15066 -3.84101,5.15066 -1.72627,3.41283 -1.72627,3.41283 -1.9862,5.58717 -1.9862,5.58717 -0.53296,11.55021 -0.53295,11.5502 1.69153,5.81866 1.69152,5.81865 2.31895,3.67344 2.31894,3.67345 3.63207,3.18899 3.63206,3.189 2.83525,1.46616 2.83525,1.46617 12.40125,2.05475 12.40126,2.05475 5.47249,2.76607 5.47248,2.76607 2.27752,3.3796 2.27751,3.3796 -0.022,4.60211 -0.022,4.60212 -2.03296,4.48187 -2.03295,4.48188 -3.94508,5.22522 -3.94508,5.22522 v 0.65131 0.65132 l 2.59443,-0.65117 2.59444,-0.65116 12.15556,-5.85738 12.15557,-5.85738 7.59584,-4.97904 7.59584,-4.97904 3.65064,-3.65064 3.65065,-3.65065 1.61142,-2.45934 1.61142,-2.45934 0.64209,-5.20966 0.6421,-5.20966 5.92774,-4.05118 5.92774,-4.05118 3.70366,-5.72154 3.70365,-5.72153 1.25064,-6.62814 1.25064,-6.62814 -0.63133,-6.04033 -0.63134,-6.04032 -2.86224,-8.30391 -2.86224,-8.30392 -4.63612,-7.30608 -4.63613,-7.30609 -2.48766,-3 -2.48766,-3 -11.26468,-0.56332 -11.26467,-0.56332 -2.03425,-1.29249 -2.03424,-1.29248 -2.21576,-3.38017 -2.21575,-3.38017 v -1.70931 -1.7093 l 2.49462,-2.60383 2.49462,-2.60382 -2.02859,-3.9509 -2.0286,-3.95089 0.65585,-4 0.65585,-4 2.76878,-5.5 2.76878,-5.5 1.85934,-1.66813 1.85935,-1.66813 16.98458,-9.10389 16.98458,-9.10388 4.01542,-3.82262 4.01542,-3.82262 3.22711,-2.20716 3.2271,-2.20716 9.7729,-2.44288 9.77289,-2.44289 8.5,-3.93265 8.5,-3.93264 13,-5.70393 13,-5.70392 10,-3.69282 10,-3.69282 7.5,-2.34853 7.5,-2.34853 7,-7.08319 7,-7.08319 4.20795,-8.49421 4.20795,-8.49421 3.44934,-11 3.44934,-11 0.62959,-2.82104 0.62959,-2.82104 1.20574,0.40191 1.20575,0.40192 2.35107,7.41912 2.35107,7.41913 4.02575,11 4.02575,11 5.29518,11 5.29519,11 6.23458,9.40844 6.23457,9.40844 6.6008,6.7097 6.60079,6.70969 8.73511,5.62816 8.73512,5.62815 2.42158,3.83604 2.42159,3.83604 1.08772,3.91767 1.08772,3.91767 0.006,8.18795 0.006,8.18794 -1.54335,6.65478 -1.54335,6.65478 -1.54322,4.65728 -1.54323,4.65727 -3.52414,8.29892 -3.52415,8.29892 1.61072,1.77982 1.61072,1.77982 v 2.60317 2.60316 l -2.75,1.92929 -2.75,1.92929 -3.5,1.18195 -3.5,1.18196 -5,7.09183 -5,7.09184 -7.5,7.4449 -7.5,7.44491 -6.65755,4.43545 -6.65756,4.43544 -4.59244,2.03146 -4.59245,2.03146 v 1.52413 1.52413 l 23.48609,46.67908 23.4861,46.67907 3.03413,5.25 3.03413,5.25 h 2.01132 2.01132 z m -195.2935,-197.85378 1.9286,-1.9286 -1.9286,-3.78284 -1.9286,-3.78284 v -3.14902 -3.14901 l 2.50638,-3.69336 2.50638,-3.69336 -0.9987,-1.8661 -0.99871,-1.8661 -3.49032,-1.15191 -3.49033,-1.15191 -2.21273,0.32182 -2.21273,0.32183 -1.34731,7 -1.34731,7 0.34859,6.38362 0.34859,6.38362 2.30488,1.86638 2.30489,1.86638 h 2.88921 2.88922 z m 8.54572,-7.02174 1.52568,-2.95034 v -3.35853 -3.35853 l -1.35539,-1.85361 -1.3554,-1.85361 -1.65961,0.63685 -1.65962,0.63686 -0.98499,2.59072 -0.98499,2.59073 v 3.35311 3.35311 l 0.60699,1.58179 0.60699,1.58179 h 1.86733 1.86733 z m 45.51999,83.52686 -4.50569,-1.24465 -2.49431,-1.31063 -2.49431,-1.31063 -3.78783,-2.9693 -3.78783,-2.96929 -1.96217,-3.84617 -1.96217,-3.84617 0.0153,-3.78984 0.0153,-3.78984 0.73469,-1.11522 0.73469,-1.11522 2.21223,-0.69018 2.21222,-0.69018 1.86181,0.99641 1.86182,0.99641 1.2003,4.00625 1.2003,4.00625 3.66965,3.02484 3.66966,3.02484 4.48414,1.5279 4.48415,1.5279 h 4.50613 4.50614 l 4.16193,-2.01476 4.16194,-2.01476 1.15379,-2.53229 1.15379,-2.5323 v -1.29796 -1.29796 l 1.82874,-1.65498 1.82874,-1.65499 h 2.54881 2.54882 l 1.25646,1.51394 1.25645,1.51394 -0.61724,4.50329 -0.61725,4.5033 -1.51571,2.93107 -1.51572,2.93107 -3.25105,2.40089 -3.25105,2.40088 -4.27024,1.65081 -4.27024,1.65081 -7.22976,-0.0894 -7.22976,-0.0894 z m 25.54291,-3.13745 5.41337,-2.56094 2.09766,-2.94589 2.09766,-2.9459 0.57462,-5.56754 0.57462,-5.56753 -3.32056,0.32436 -3.32057,0.32437 -1.42786,4.30255 -1.42786,4.30255 -4.08029,2.69745 -4.0803,2.69745 -7.06885,-0.0411 -7.06886,-0.0411 -5,-2.60991 -5,-2.6099 -2.15001,-2.34899 -2.15001,-2.34898 -1.85389,-4 -1.85389,-4 -2.17844,-0.31069 -2.17844,-0.31068 -1.06407,1.98824 -1.06408,1.98824 0.41289,1.32245 0.41289,1.32244 0.6089,2.77521 0.60891,2.77521 3.6564,4.04721 3.65641,4.0472 4.06821,2.07841 4.06822,2.07841 2.5,0.76322 2.5,0.76322 8.81192,0.086 8.81193,0.086 z m -13.28769,-48.68907 0.4162,-1.25 1.66713,-0.32332 1.66714,-0.32333 v 1.57333 1.57332 h -2.08334 -2.08333 z m 63.38533,-11.82258 -2.63486,-2.07258 v -6.68402 -6.68402 l 0.9416,-3.28319 0.94161,-3.28318 -1.44161,-4.08594 -1.4416,-4.08594 v -1.76729 -1.76728 l 1.57903,-0.60593 1.57903,-0.60593 8.17097,3.54236 8.17097,3.54236 2.03075,1.70658 2.03076,1.70658 1.71924,2.47251 1.71925,2.4725 -0.006,5.0275 -0.006,5.02749 -1.5277,2.92956 -1.52769,2.92956 -2.18045,1.57044 -2.18045,1.57044 -3.0357,1.17392 -3.03569,1.17392 -3.61514,0.0761 -3.61514,0.0761 z m 15.0608,-1.88342 3.19567,-1.94852 1.64438,-2.50964 1.64438,-2.50964 0.52295,-3.89886 0.52294,-3.89885 -1.74311,-3.67335 -1.74312,-3.67335 -4.11988,-2.39696 -4.11987,-2.39695 -5.4063,-2.11595 -5.40629,-2.11596 -1.29948,0.49866 -1.29949,0.49866 1.59613,4.68438 1.59613,4.68438 -1.14035,4.94026 -1.14035,4.94027 v 4.59497 4.59497 l 1.65499,1.82874 1.65498,1.82874 5.09502,-0.004 5.09501,-0.004 z m -76.69566,-17.544 v -0.5 h 0.5 0.5 v 0.5 0.5 h -0.5 -0.5 z m -4.92105,-2.08333 0.0789,-1.91667 0.52522,1.3125 0.52522,1.3125 -0.60417,0.60417 -0.60416,0.60416 z m 91.88167,-31.47197 -2.17556,-3.0553 -3.64253,-2.28472 -3.64253,-2.28473 -2.6927,-0.66464 -2.6927,-0.66465 -2.48356,1.13159 -2.48356,1.13158 -2.50709,-0.62924 -2.50709,-0.62924 -0.65695,-2.06985 -0.65694,-2.06984 0.62589,-2.49373 0.62588,-2.49373 3.43229,-1.4341 3.43229,-1.4341 h 3.90639 3.90639 l 4.23277,1.49341 4.23277,1.49341 4.92256,3.61348 4.92255,3.61349 1.47041,2.84344 1.4704,2.84345 v 1.97823 1.97823 l -1.57143,1.57143 -1.57143,1.57143 h -2.86048 -2.86047 z m 9.03938,-2.94655 v -2.93148 l -3.64783,-3.64783 -3.64783,-3.64783 -5.10217,-2.37574 -5.10217,-2.37573 -5.20295,-0.01 -5.20295,-0.01 -2.59675,1.18316 -2.59675,1.18316 0.2997,3.06684 0.2997,3.06684 h 7 7 l 3.70777,2.30546 3.70778,2.30547 2.35504,2.79881 2.35505,2.79881 1.43718,0.51059 1.43718,0.5106 1.75,-0.90005 1.75,-0.90006 z"
         id="path38" /><path
         style="fill:#5b0d11"
         d="m 446.87235,437.42331 c -17.27527,-32.54191 -33.24191,-65.7904 -50.00632,-98.60815 -0.1503,-6.59527 10.70968,-5.5358 14.30677,-10.52351 13.69434,-8.5572 24.41133,-21.11393 33.19323,-34.53204 5.68388,-1.49005 15.96497,-5.10357 11.67406,-12.34147 -5.00837,-5.30927 3.67514,-12.92652 4.65279,-19.24483 5.34986,-15.11853 9.57524,-32.4924 3.32865,-47.87619 -5.65507,-11.9148 -20.85363,-13.94762 -28.25713,-24.59723 -21.04671,-21.68659 -31.66796,-51.00864 -40.80657,-79.29249 -2.3069,-11.30439 -5.91383,-1.41714 -6.75125,4.46393 -4.75657,16.00883 -10.05566,33.06358 -23.43705,44.00009 -6.96631,8.38464 -19.43925,7.55875 -28.64178,12.56497 -20.51485,6.73285 -39.24858,18.22483 -59.73333,24.74005 -9.95463,1.52236 -19.31792,5.31473 -25.82768,13.32764 -12.17378,9.46339 -28.06564,13.71547 -39.92024,23.66923 -4.37506,7.97325 -10.22974,18.02683 -3.13399,26.23587 -4.89829,4.28751 -6.12717,10.87226 -0.21581,16.05252 7.68374,5.8974 19.26155,0.98291 27.38354,4.65912 11.81141,14.09406 21.21895,31.99003 19.99257,50.77225 -0.82327,11.91997 -7.7636,22.91601 -18.4286,28.415 -6.17686,3.41583 -1.49311,12.85039 -7.38605,17.3056 -13.24978,14.28756 -31.7828,22.23232 -49.39854,29.62529 -6.97723,0.67052 6.0085,-9.27443 6.31266,-13.34384 5.8424,-8.51209 3.93176,-22.2842 -6.93453,-25.45131 -12.86364,-7.52872 -31.11842,-1.89435 -41.42749,-14.62115 -11.10124,-10.52977 -10.08561,-26.69367 -8.87297,-40.70626 1.97782,-12.02383 7.91576,-24.68151 17.4449,-32.34484 4.51984,-5.31623 16.64178,-3.08846 17.20924,-8.05686 -24.18933,-26.63817 -38.3761,-62.35812 -38.23839,-98.4164 -0.31677,-44.09484 19.69125,-85.871248 46.35073,-120.083283 18.30444,-23.734584 41.30133,-44.5829475 68.94488,-56.8236193 20.51848,-9.1702427 43.06471,-13.5339567 65.54019,-12.0899067 27.06317,-0.196149 53.57387,8.5474153 77.93248,19.7703295 7.38652,3.6337604 14.92205,7.5032585 20.51193,13.1721895 32.06792,6.164346 64.31773,16.587503 90.19948,37.082328 21.73137,17.522451 35.96389,43.367634 40.0299,70.918482 1.48077,14.36519 1.06177,29.15152 0.37751,43.58362 -4.02653,32.87714 -15.27411,64.49257 -30.29809,93.89447 8.39165,18.69963 15.94135,40.86875 7.41807,60.74953 -4.53625,11.71623 -14.97153,19.59926 -26.07113,24.70084 1.3385,5.66659 9.43432,9.04476 10.30212,15.94642 5.76407,15.51025 8.24886,33.83941 1.82898,49.40447 -9.61539,11.01346 -22.13359,19.95401 -35.27325,26.17835 -5.96377,1.68844 -13.57255,6.87611 -15.87449,-2.27921 z M 318.86603,317.73818 c -9.94756,-2.81485 -18.87526,-10.57818 -19.99283,-21.20976 4.52825,-10.20887 8.97254,2.85984 12.34282,6.99387 6.83414,7.51261 17.95389,9.15226 27.31452,6.97219 9.11545,-1.2298 6.25067,-14.23347 14.53515,-13.76523 4.25837,1.7857 0.94937,14.53364 -4.36174,17.34855 -8.4506,5.94615 -18.80602,4.83577 -28.51519,4.06413 l -1.17727,-0.35935 z m 75.65499,-63.89361 c -4.72333,-6.23624 0.626,-15.12155 0.22871,-22.06433 -4.62975,-7.05118 -1.37607,-12.03712 6.35623,-6.63638 8.29957,2.54164 18.23493,8.97241 15.29948,18.92676 -0.96852,8.84516 -10.75429,13.2203 -18.82711,11.60211 -1.61072,0.7251 -2.09787,-1.08419 -3.05731,-1.82816 z M 254.78271,242.80693 c -4.57094,-4.50784 -2.77778,-13.31784 -2.07148,-19.46846 -1.64934,-11.27729 9.42278,-11.65714 16.08197,-5.36047 14.49706,8.59195 -0.225,34.97222 -14.01049,24.82893 z m 169.14614,-38.91448 c -5.81086,-4.83398 -11.60976,-12.87088 -20.56282,-10.71914 -9.07868,3.73297 -10.12559,-9.15446 -1.17501,-8.49763 10.48871,-1.56262 20.1935,4.15927 26.67501,12.06476 0.39149,3.8967 0.35913,8.51752 -4.93718,7.15201 z"
         id="path37" /></g><path
       style="fill:#ba635b;stroke:none;stroke-width:1px;stroke-linecap:butt;stroke-linejoin:miter;stroke-opacity:1;fill-opacity:1"
       d="m 319.20685,241.24527 c 2.25683,-5.6322 9.3086,-21.07896 15.1168,-10.15915 2.89801,10.20569 0.83644,21.05546 3.24145,31.36766 2.41632,10.52023 -13.70002,14.76061 -17.05585,5.10469 -0.80864,-8.62481 -2.04076,-17.67632 -1.3024,-26.3132 z"
       id="path40" /></g></svg>
