<?xml version="1.0" encoding="UTF-8" standalone="no"?>
<svg
   viewBox="0 0 512 512"
   version="1.1"
   id="svg1"
   sodipodi:docname="family-adult-male.svg"
   inkscape:version="1.3 (0e150ed, 2023-07-21)"
   xml:space="preserve"
   xmlns:inkscape="http://www.inkscape.org/namespaces/inkscape"
   xmlns:sodipodi="http://sodipodi.sourceforge.net/DTD/sodipodi-0.dtd"
   xmlns="http://www.w3.org/2000/svg"
   xmlns:svg="http://www.w3.org/2000/svg"><defs
     id="defs1" /><sodipodi:namedview
     id="namedview1"
     pagecolor="#ffffff"
     bordercolor="#666666"
     borderopacity="1.0"
     inkscape:showpageshadow="2"
     inkscape:pageopacity="0.0"
     inkscape:pagecheckerboard="0"
     inkscape:deskcolor="#d1d1d1"
     inkscape:zoom="0.35355339"
     inkscape:cx="360.62446"
     inkscape:cy="674.57987"
     inkscape:window-width="1366"
     inkscape:window-height="717"
     inkscape:window-x="0"
     inkscape:window-y="27"
     inkscape:window-maximized="1"
     inkscape:current-layer="g40"
     showgrid="false" /><!--!Font Awesome Free 6.5.1 by @fontawesome - https://fontawesome.com License - https://fontawesome.com/license/free Copyright 2024 Fonticons, Inc.--><g
     id="g33"
     transform="translate(-80.082976,64.183922)"><g
       id="g37"
       transform="translate(4.0936885,0.61828602)"><g
         id="g40"
         transform="translate(57.153421,-7.1254469)"><path
           style="fill:#dbaf88"
           d="m 268.45176,400.07248 c -25.7118,0.40876 -51.17406,-6.59836 -73.82076,-18.60997 -33.2071,-17.64359 -58.14679,-48.52582 -71.9293,-83.23823 -3.30212,-5.83413 -2.21896,-16.96535 -11.62811,-15.68889 C 95.798882,280.75365 82.312348,270.96117 73.236203,259.12642 64.708378,241.32724 55.205164,221.85535 59.925751,201.64837 61.24382,189.16503 72.355462,177.51351 85.48458,179.20582 c 10.177048,-3.58657 9.513484,3.63999 8.265879,11.44912 10.933561,20.85515 25.073791,40.38882 34.564241,61.96855 0.91641,11.91069 4.10621,26.05406 16.81115,30.42329 13.36455,6.67474 28.85791,7.2078 43.32591,10.2822 12.65551,-0.48695 27.38796,-0.0527 36.33355,-10.58118 6.68798,-5.07353 10.31326,-13.18715 11.21938,-21.39514 3.08389,-2.48207 16.60212,-7.6718 13.27454,0.11588 -3.27998,13.55934 -9.78063,26.80231 -7.98923,41.07756 1.72992,10.32065 12.14282,17.37609 21.98227,18.3286 9.84326,4.77207 20.86503,3.38095 31.26217,1.98223 11.08615,-3.33104 19.31117,-14.07043 17.94682,-25.86013 2.75079,-7.82842 -2.60849,-12.86804 -1.45787,-19.78146 -3.51668,-5.80421 -1.68167,-13.1729 -5.37042,-18.64354 0.32592,-3.97353 9.46143,0.28364 10.89213,1.57989 5.81943,-7.50748 6.01932,5.61644 7.94701,9.98829 1.99029,10.75269 10.28848,19.50544 20.21164,23.61868 13.20172,2.05506 27.32974,0.24121 40.8876,0.80874 13.53533,-1.38317 28.33698,-5.61631 37.67234,-16.09053 5.14982,-5.84666 5.20334,-13.69116 6.77349,-20.63062 9.80572,-7.88448 18.8177,-17.24887 29.16624,-24.16371 6.95508,-1.94776 18.34552,-2.00511 17.74158,-11.74329 0.39972,-10.96922 -3.54005,-9.47624 3.2933,-2.59106 10.41989,3.50365 13.48503,15.06246 12.7142,25.01111 1.37731,14.4764 -11.18225,25.82162 -23.03253,31.94897 -7.05699,5.30586 -15.87596,5.7954 -22.86226,10.7506 -6.64133,23.60475 -22.10133,43.77514 -38.6037,61.48325 -13.13658,13.95411 -29.18994,25.26332 -46.24433,33.90983 -20.88589,9.72274 -43.27903,16.31032 -66.4493,17.49567 -9.08968,1.22085 -18.1865,0.3237 -27.30862,0.12486 z m 42.06167,-30.99751 c 10.95298,-2.45756 22.00193,-8.5788 28.70106,-17.55372 4.3832,-6.15558 7.21457,-12.74618 6.12654,-20.43551 -2.52778,-8.4224 -11.25022,-4.3893 -13.75865,2.09342 -4.1642,8.18335 -9.81585,15.78623 -18.99762,18.66439 -13.76695,4.69882 -29.07106,5.43305 -43.32806,2.10999 -11.25677,-0.62418 -18.92113,-10.47004 -25.55239,-18.38182 -1.62993,-5.64304 -11.96593,-6.97626 -14.36474,-1.73556 -1.86239,11.67622 8.015,21.30292 17.04862,27.19981 17.06668,10.19055 38.02447,10.19851 57.32454,9.81811 2.2669,-0.59304 4.5338,-1.18607 6.8007,-1.77911 z M 489.95176,250.65169 c -1.14484,-2.16789 -1.24738,2.06934 0,0 z m -194,29 c 1.14484,-2.16789 1.24738,2.06934 0,0 z m 4.33334,-4.16666 c 5.00194,-1.07804 -1.80061,2.57969 0,0 z m 56.91666,-0.0723 c 3.88363,-0.89326 23.09236,0.64414 12.5463,0.36082 -3.84869,-0.10739 -22.20127,0.23985 -14.77545,-0.22094 l 1.17362,-0.0736 z m -9.80887,-1.81617 c -6.31318,-4.93611 10.0074,5.21994 0,0 z m 30.32053,0.8479 c 15.69422,-0.15173 -6.3074,1.3441 0,0 z m 9.50209,-1.01032 c 14.91192,-0.46647 -4.32589,1.36194 -0.43833,0.0663 z m -207,-1 c 14.91192,-0.46647 -4.32589,1.36194 -0.43833,0.0663 z m 21.48625,0.0118 c 16.27023,-0.2939 -3.60013,1.4137 0,0 z m 195.0625,0.0226 c 5.62019,-0.76406 -2.36588,1.95576 -0.22074,0.0883 z m -225.54347,-1.00988 c 10.58548,-0.0681 -5.37222,1.40715 0,0 z m 38.81431,0.43234 c 8.48711,-8.04109 4.69821,-0.73822 0,0 z m 190.00499,0.0106 c 8.17248,-8.39878 7.72521,-3.62658 -0.42166,0.25 z m -234.33833,-1.41228 c 9.13225,-0.29245 -4.57097,1.62585 0,0 z m 177.70195,-2.43065 c -5.48492,-12.62976 7.00587,11.16867 0,0 z m -181.11861,1.42627 c 5.00194,-1.07804 -1.80061,2.57969 0,0 z m -4.89221,-1.8885 c -6.31318,-4.93611 10.0074,5.21994 0,0 z m 208.80887,0.86584 c 16.42742,-0.31074 -7.50081,1.40966 0,0 z m -3.91666,-0.97734 c 5.00194,-1.07804 -1.80061,2.57969 0,0 z m 10,0 c 5.00194,-1.07804 -1.80061,2.57969 0,0 z M 216.03205,265.1516 c 7.0133,-11.63054 -4.01117,9.34225 0,0 z m 140.3568,-1.25 c -8.63534,-9.13107 11.90923,9.91332 0.57176,0.63267 z m 18.65124,3 c 8.17248,-8.39878 7.72521,-3.62658 -0.42166,0.25 z m -221.9445,-2.07669 c -3.25379,-2.73255 -5.89062,-16.88642 -2.1719,-6.36602 -0.54702,1.94834 7.0177,10.94333 2.1719,6.36602 z m 23.62408,-0.39804 c 11.52898,-0.45567 6.65445,0.98071 -1.97161,0.40687 -3.46048,0.11335 1.38447,-0.27353 1.97161,-0.40687 z m 230.23209,0.22473 c 1.14484,-2.16789 1.24738,2.06934 0,0 z m -237.12755,-2.25 c -4.53699,-5.12455 8.9544,6.28269 0,0 z m 17.12755,0.7012 c 12.49755,-8.76485 -0.44892,3.12471 0,0 z m 154,-0.9512 c 0.25457,-5.90809 2.02287,5.9605 0,0 z m 67,0 c 0.25457,-5.90809 2.02287,5.9605 0,0 z m -190,-2 c 0.25457,-5.90809 2.02287,5.9605 0,0 z m -52.02005,-1.52416 c -3.85803,-7.28032 5.70332,5.86679 0,0 z m 173.59148,-1.04727 c -2.66667,-13.64457 4.55296,10.39499 0,0 z m 13.05211,1.03277 c -1.35158,-6.64611 10e-4,-17.02933 0.46454,-4.2915 0.0396,1.00019 1.28313,8.85427 -0.46454,4.2915 z m 29.37646,1.03866 c 1.14484,-2.16789 1.24738,2.06934 0,0 z m 27.07895,-1.08333 c 0.19968,-5.37068 1.56783,4.62476 -0.0306,0.74174 z M 193.03205,257.1516 c 7.0133,-11.63054 -4.01117,9.34225 0,0 z m 25.91971,0 c 0.25457,-5.90809 2.02287,5.9605 0,0 z m 164.32008,-5 c -0.30847,-14.70003 -1.40659,4.89083 0,5.32407 0,-1.77469 0,-3.54938 0,-5.32407 z m -219.32008,2 c 0.25457,-5.90809 2.02287,5.9605 0,0 z m 56.32008,-5 c -0.30847,-14.70003 -1.40659,4.89083 0,5.32407 0,-1.77469 0,-3.54938 0,-5.32407 z m 189.83782,4 c 0.58577,-7.46378 0.7254,7.26105 0,0.14815 z m -262.1579,-1 c 0.25457,-5.90809 2.02287,5.9605 0,0 z m 190.1579,-1 c 0.58577,-7.46378 0.7254,7.26105 0,0.14815 z m -142.90571,-2.5 c 0.5029,-12.74088 0.59158,12.31843 0,0 z m -32.05724,0 c 0.63053,-9.52512 0.60667,9.76009 0,0 z m -16.00128,-8.55 c -1.6938,-6.9715 0.35273,-14.75946 9.10678,-11.71173 2.55755,0.13373 -13.4437,-0.0504 -8.25769,9.4805 -0.43175,9.27293 -0.80305,15.12079 -0.84616,2.37575 z m 261.96423,7.05 c 0.58577,-7.46378 0.7254,7.26105 0,0.14815 z m -71.85823,-4 c 0.0267,-14.31329 1.11184,9.3612 0,3.14815 0,-1.04938 0,-2.09877 0,-3.14815 z m 15.70033,2 c 0.25457,-5.90809 2.02287,5.9605 0,0 z m 29,-0.75641 c -5.77915,-6.50022 -6.49836,-9.95311 0.0828,-1.71384 2.22082,0.4027 -0.51995,4.69889 -0.0828,1.71384 z m -218,-1.24359 c 0.25457,-5.90809 2.02287,5.9605 0,0 z m 244,0 c 0.25457,-5.90809 2.02287,5.9605 0,0 z m -214,-1 c 0.25457,-5.90809 2.02287,5.9605 0,0 z m 160.5,0 c 3.77054,-3.99566 -1.38946,4.02885 0,0 z m -135.5,-1 c 0.25457,-5.90809 2.02287,5.9605 0,0 z m -54,-0.64624 c 6.19731,-8.05495 6.90335,-6.57767 0,0.97958 z m 240.99311,-2.37039 c -3.52971,-6.09808 -12.88481,-9.04795 -1.02696,-3.94952 2.07328,2.27682 4.1911,10.79342 1.02696,3.94952 z m -213.5886,0.86212 c -2.00441,-4.01079 4.16017,3.90272 0,0 z m 44.59549,-4.98835 c 1.84049,-12.02263 -11.23767,-18.82995 -21.18853,-21.19404 -22.85216,-6.41659 -46.84825,-4.54222 -70.31147,-4.13427 -6.15023,2.14173 -11.3287,5.80293 -13.43047,11.46417 -4.74877,-5.97139 -9.78045,-13.61609 -13.06953,-20.69326 13.64444,-0.4293 27.22075,-1.56978 40.56892,-4.30008 2.71725,2.93747 5.22299,11.3139 12.51866,8.48305 8.98909,-0.24214 18.03594,0.52942 26.96371,-0.7888 1.23671,-8.28243 8.56823,-8.68378 15.4842,-8.05095 27.13247,0.47241 54.237,-4.57038 79.20565,-15.28874 12.62639,-4.84989 24.47532,-12.6867 35.3725,-19.63155 12.00672,-9.18627 22.49645,-20.17033 33.49666,-30.55021 2.48955,16.11719 8.86636,31.24804 18.59809,44.32727 -3.14251,2.17157 -13.88519,-0.10256 -19.95489,0.35676 -6.49125,0.42127 -17.44365,1.80859 -15.6535,10.77546 1.10729,8.72252 12.31154,9.56547 19.48332,8.83609 6.79512,-1.14375 15.78728,3.03646 20.36282,-3.48587 -0.25001,-10.0948 2.01223,-11.41537 7.27479,-2.25712 4.81345,6.84643 11.80464,14.02732 15.01729,20.8698 -13.96922,0.0107 -28.77103,-2.59782 -43.11167,-0.80769 -4.57218,-1.24307 -16.62014,4.79762 -10.62655,-2.38044 -8.5492,-6.70393 -0.19974,7.11295 -8.70189,3.88891 -8.45702,-0.1288 -18.397,1.22996 -21.67273,10.31808 -2.5593,5.69881 -1.38253,13.05724 -4.34768,18.44166 -10.5966,-2.33781 -22.76563,-0.16005 -31.7777,-7.04816 -8.07186,0.63447 -17.21667,-2.3525 -23.55023,4.14907 -8.12226,4.05697 -18.19553,2.38552 -26.94977,5.09293 0,-2.13069 0,-4.26138 0,-6.39207 z m 120,-30.35714 c -1.14484,-2.16789 -1.24738,2.06934 0,0 z m -1,36.07037 c 4.05292,-4.41528 6.58661,-1.49188 0,0 z m -138,-1.07037 c 1.14484,-2.16789 1.24738,2.06934 0,0 z m -27.59549,-2.65451 c -2.00441,-4.01079 4.16017,3.90272 0,0 z m 25.00048,-1.09549 c -6.12012,-7.16184 8.11001,7.41092 0,0 z m 145.92835,1.58334 c 5.00194,-1.07804 -1.80061,2.57969 0,0 z m 7.16666,-0.33334 c -13.65134,-1.37849 11.06106,-1.0325 5,0.6858 -1.66667,-0.2286 -3.33333,-0.4572 -5,-0.6858 z m -30.5,-1 c 0.25457,-5.90809 2.02287,5.9605 0,0 z m -150,-0.5 c 1.14484,-2.16789 1.24738,2.06934 0,0 z m 239.66034,-1.25 c -4.99032,-8.66657 3.13232,-8.07717 7.33966,-3.13288 -0.74523,1.03328 -7.02893,7.94147 -7.33966,3.13288 z m -255.66034,0.25 c 1.14484,-2.16789 1.24738,2.06934 0,0 z m 14,0 c 1.14484,-2.16789 1.24738,2.06934 0,0 z m -9.23209,-1.22473 c 11.52898,-0.45567 6.65445,0.98071 -1.97161,0.40687 -3.46048,0.11335 1.38447,-0.27353 1.97161,-0.40687 z m 35.23209,0.22473 c 1.14484,-2.16789 1.24738,2.06934 0,0 z m 127,0 c 1.14484,-2.16789 1.24738,2.06934 0,0 z M 209.2851,231.48494 c 5.00194,-1.07804 -1.80061,2.57969 0,0 z m -3.52084,-1.01645 c 5.62019,-0.76406 -2.36588,1.95576 -0.22074,0.0883 z m 135.36167,-0.91962 c 9.6975,-5.10884 -5.10163,5.10413 0,0 z m 53.63833,0.91962 c 5.62019,-0.76406 -2.36588,1.95576 -0.22074,0.0883 z m -194.54347,-1.00988 c 10.58548,-0.0681 -5.37222,1.40715 0,0 z m 188,0 c 10.58548,-0.0681 -5.37222,1.40715 0,0 z m -198.01903,-1.02326 c 11.45303,-0.44684 5.51963,1.01113 -2.75,0.41659 0.91667,-0.13886 1.83333,-0.27773 2.75,-0.41659 z m 189.01375,-0.001 c 14.91192,-0.46644 -4.32589,1.3618 -0.43833,0.0663 z M 170.7282,227.41844 c 7.22963,-0.85233 16.50939,1.03626 3.72356,0.39029 -3.44612,-0.0366 -12.01373,0.16153 -3.72356,-0.39029 z m 177.49259,0.0405 c 10.58548,-0.0681 -5.37222,1.40715 0,0 z m 9.49888,-0.0317 c 11.52898,-0.45567 6.65445,0.98071 -1.97161,0.40687 -3.46048,0.11335 1.38447,-0.27353 1.97161,-0.40687 z m 119.63918,-34.27527 c 0.0734,-3.47331 -0.17899,-22.90587 0.19192,-11.80021 0.7169,9.4334 0.26657,18.86681 -0.19192,28.30021 0,-5.5 0,-11 0,-16.5 z M 197.04524,186.702 c -4.23358,-3.15252 10.79145,-5.0184 14.31471,-7.52228 6.94146,-3.59462 16.585,-5.05077 5.04168,1.24494 -5.88252,2.06671 -13.27367,8.95199 -19.35639,6.27734 z M 95.237774,171.65197 c 0.394919,-14.1619 0.687067,13.67788 -8.09e-4,0.29631 z m 380.986356,0.5 c 0.3356,-12.53194 0.75944,11.16455 0,0.97222 z m -1.07742,-8.5 c 0.63053,-9.52512 0.60667,9.76009 0,0 z m -379.037055,-0.5 c 0.58577,-7.46378 0.725409,7.26105 0,0.14815 z m 378.037055,-5.5 c 0.63053,-9.52512 0.60667,9.76009 0,0 z m -377.037055,-0.5 c 0.58577,-7.46378 0.725409,7.26105 0,0.14815 z m 1.037054,-5.5 c 0.630607,-9.52512 0.606737,9.76009 0,0 z m 374.360611,-1.05555 c -1.78635,-12.14405 3.52574,8.17024 0.25088,1.33728 l -0.21683,-1.15576 z M 99.030708,146.56864 c 0.199753,-5.37068 1.567902,4.62476 -0.03055,0.74174 z m 372.000002,-3 c 0.19968,-5.37068 1.56783,4.62476 -0.0306,0.74174 z m -371,-1 c 0.19975,-5.37068 1.5679,4.62476 -0.0306,0.74174 z m 370,-3 c 0.19968,-5.37068 1.56783,4.62476 -0.0306,0.74174 z m -369,-1 c 0.19975,-5.37068 1.5679,4.62476 -0.0306,0.74174 z m 367.92105,-2.41667 c 0.25457,-5.90809 2.02287,5.9605 0,0 z m -366.84784,-1 c 0.89239,-7.89056 4.89885,-9.94683 0.92525,-0.90263 -0.49685,0.86889 -1.20483,4.27717 -0.92525,0.90263 z m 365.84784,-2 c 0.25457,-5.90809 2.02287,5.9605 0,0 z m -1,-3 c 0.25457,-5.90809 2.02287,5.9605 0,0 z m -2.33333,-6.16666 c -4.57826,-13.72734 5.85172,10.8033 0.35535,0.90463 z m -359.09346,0.16666 c 4.35251,-12.39661 -0.0655,5.33275 -0.061,0.22802 z m 2.42679,-7 c 0.25457,-5.90812 2.02285,5.96055 0,0 z m 353.62354,-0.53866 c -2.65077,-8.25579 3.97271,5.38546 0,0 z m -352.53971,-1.96162 c 3.33125,-9.86897 5.27145,-6.85481 0,1 z m 350.91617,-2 c 1.14484,-2.16789 1.24738,2.06934 0,0 z m -3.29452,-7.02794 c -6.0698,-11.473208 2.78488,0.65639 3.05637,5.09943 -1.07367,0.56699 -2.1702,-4.15709 -3.05637,-5.09943 z m -343.70548,0.0279 c 1.14484,-2.16789 1.24738,2.06934 0,0 z m 1,-2 c 1.14484,-2.16789 1.24738,2.06934 0,0 z m 1,-1.88299 c 3.04162,-9.126382 5.01302,-5.742215 0,0.71633 z m 337,-4.617005 c -2.91967,-7.585977 5.40159,7.540115 0,0 z m -333,-3.499997 c 1.14484,-2.167889 1.24738,2.069337 0,0 z m 330.38127,-0.75 c -6.13258,-8.818291 -0.24082,-4.004452 1.21293,1.25 -0.81164,0.296236 -0.84711,-0.765967 -1.21293,-1.25 z M 121.47531,89.585603 c 5.94758,-10.51235 5.99427,-5.982592 -0.45517,1.544967 -2.23682,3.029746 -0.26741,-0.182795 0.45517,-1.544967 z M 440.17406,79.401658 c -6.5501,-9.458538 -15.4875,-16.91315 -23.81656,-24.75 11.86022,8.289317 21.60846,19.558226 29.69034,31.5 -2.50089,-0.687518 -3.88734,-4.901221 -5.87378,-6.75 z m -312.43207,0.25 c 3.30125,-5.479758 12.32778,-14.171777 3.88329,-4.062236 -0.50921,0.673815 -7.0888,9.547012 -3.88329,4.062236 z m 11.2476,-14.378354 c 15.80708,-18.141431 36.03442,-32.183468 57.92221,-42.121646 0.57128,1.663437 -11.1624,6.215087 -15.44331,9.017426 -17.91529,8.994202 -32.17533,23.203341 -45.94108,37.482566 1.15406,-1.459449 2.30812,-2.918897 3.46218,-4.378346 z M 413.35627,52.997149 c -2.00441,-4.010805 4.16017,3.902715 0,0 z m -2.40451,-1.345491 c 1.14484,-2.167889 1.24738,2.069335 0,0 z m -3,-1.5 c -4.01529,-3.720266 5.52611,2.220871 0.51237,0.33112 z m -3.66666,-1.666667 c 5.00194,-1.078042 -1.80062,2.579709 0,0 z m -3.52084,-1.016447 c 5.62019,-0.764053 -2.36587,1.955705 -0.22074,0.08833 z m -20,-1 c 5.62019,-0.764053 -2.36587,1.955705 -0.22074,0.08833 z m 8.9375,-0.04028 c 11.84356,-0.517606 8.42617,0.972486 -1.4537,0.403321 -3.5622,0.115699 0.10409,-0.21541 1.4537,-0.403321 z m -11.75,-0.776604 c 1.14484,-2.167889 1.24738,2.069335 0,0 z m -10.6586,-7.82507 c -10.29922,-9.437055 -22.35909,-16.493762 -34.8414,-22.616537 17.14762,5.525585 31.20771,18.443517 44.92857,29.9416 -3.7392,-0.710236 -6.78618,-5.26365 -10.08717,-7.325063 z M 199.95176,22.15166 c 8.83209,-3.846472 -4.14536,4.002955 0,0 z m 5,-2 c 8.83209,-3.846472 -4.14536,4.002955 0,0 z m 4.33334,-1.666667 c 5.00194,-1.078042 -1.80062,2.579709 0,0 z m 2.66666,-0.674141 c 2.4433,-2.254006 20.22073,-6.745869 10.0689,-2.935034 -3.0432,0.810341 -7.73005,3.330627 -10.0689,2.935034 z m 119,-3.159192 c 1.14484,-2.167889 1.24738,2.069335 0,0 z m -2.66666,-1.166667 c 5.00194,-1.078042 -1.80062,2.579709 0,0 z M 228.45176,12.15166 c 9.89865,-3.1736633 -1.60768,2.639145 -0.9196,0.395166 z m 95.5,0 c -4.51494,-3.8607323 9.03507,3.563514 0,0 z m -89.1875,-1.683114 c 5.62019,-0.7640533 -2.36587,1.955705 -0.22074,0.08833 z m 80.6875,-0.8544643 c -11.67273,-3.359846 12.38477,1.3441093 4.32412,1.3867763 -1.47321,-0.23124 -2.87949,-0.975477 -4.32412,-1.3867763 z m -76.75,-0.124703 c 9.13225,-0.29245 -4.57097,1.6258473 0,0 z m 5,-1 c 9.13225,-0.29245 -4.57097,1.6258473 0,0 z m 5.0625,-1.020833 c 5.62019,-0.764053 -2.36587,1.955705 -0.22074,0.08833 z m 58.9375,0.02083 c 9.13225,-0.29245 -4.57097,1.625847 0,0 z m -53.98834,-1.04498 c 15.69423,-0.151777 -6.30741,1.344184 0,0 z m 48.50737,0.01427 c 10.58548,-0.06809 -5.37221,1.407215 0,0 z m -40.01903,-1.023264 c 11.45303,-0.4468445 5.51963,1.011126 -2.75,0.41659 0.91667,-0.138863 1.83333,-0.277727 2.75,-0.41659 z m 30,0 c 11.45303,-0.4468445 5.51963,1.011126 -2.75,0.41659 0.91667,-0.138863 1.83333,-0.277727 2.75,-0.41659 z M 279.71342,4.4443954 c 15.69423,-0.1517742 -6.30741,1.3441793 0,0 z"
           id="path42" /><path
           style="fill:#c79073"
           d="m 280.45176,370.4645 -4,-0.351 -6.87139,-1.0088 -6.8714,-1.00881 -7.17522,-2.78615 -7.17523,-2.78615 -5.72425,-4.32186 -5.72426,-4.32185 -2.7642,-4.11409 -2.76421,-4.1141 -1.28712,-3.13142 -1.28712,-3.13142 0.3222,-3.36162 0.3222,-3.36163 2.57106,-1.22575 2.57106,-1.22576 3.67734,1.01536 3.67734,1.01537 1.42672,2.70343 1.42673,2.70344 6.32487,6.14508 6.32488,6.14507 3.12029,1.56353 3.12029,1.56353 10.20972,1.62318 10.20971,1.62318 6.17,-0.44591 6.16999,-0.44591 6.77844,-1.13583 6.77843,-1.13584 5.72157,-2.90555 5.72156,-2.90554 2.60847,-2.8445 2.60846,-2.84449 1.88027,-3.5 1.88026,-3.5 3.32822,-4.25 3.32822,-4.25 h 2.27806 2.27807 l 1.85928,2.05449 1.85928,2.05448 -0.12941,5.5275 -0.12942,5.5275 -3.82488,6.63071 -3.82488,6.6307 -4.95315,3.73895 -4.95316,3.73896 -4.54684,2.47164 -4.54685,2.47163 -7.93833,2.07672 -7.93834,2.07672 -9.06166,-0.1681 -9.06167,-0.1681 z m 29.20368,-3.21831 7.20368,-1.87124 4.29632,-2.08686 4.29632,-2.08687 5,-4.12744 5,-4.12743 3.21622,-4.64733 3.21621,-4.64733 1.22385,-4.68515 1.22384,-4.68515 -1.18141,-2.59292 -1.1814,-2.59291 -1.55954,-0.59845 -1.55953,-0.59844 -2.31839,2.17801 -2.31839,2.17801 -2.29268,4.45771 -2.29268,4.45771 -3.3638,3.92984 -3.3638,3.92984 -5.35521,2.62006 -5.35521,2.62006 -5.36904,1.45129 -5.36904,1.45128 -9,0.60097 -9,0.60098 -7.5,-1.07838 -7.5,-1.07838 -5.5,-1.63173 -5.5,-1.63174 -7,-7.20214 -7,-7.20214 -2.2292,-2.76072 -2.22921,-2.76072 -3.77079,0.31161 -3.7708,0.3116 -0.30045,3.58364 -0.30044,3.58364 4.30044,6.37803 4.30045,6.37803 6.28107,4.26571 6.28106,4.26571 8.21894,2.51987 8.21893,2.51987 8,0.87196 8,0.87195 9,0.11366 9,0.11366 z m -42.70368,-45.06847 -5.5,-1.96971 -1.78984,-0.0282 -1.78983,-0.0282 -3.71017,-1.92382 -3.71016,-1.92382 -3.57493,-3.52018 -3.57494,-3.52019 -1.17506,-3.92201 -1.17507,-3.92202 0.001,-3.38398 10e-4,-3.38398 1.44625,-8.21787 1.44625,-8.21786 0.94399,-1.78214 0.944,-1.78213 2.23007,-8.29498 2.23008,-8.29498 -0.47576,-0.47576 -0.47576,-0.47576 -5.39593,1.13755 -5.39593,1.13754 -1.22354,0.98368 -1.22353,0.98368 -0.66282,3.64952 -0.66281,3.64951 -2.25484,4.50204 -2.25485,4.50204 -5.38406,5.09203 -5.38407,5.09202 -5.97474,2.25068 -5.97474,2.25068 -9.5,0.4939 -9.5,0.4939 -9,-1.53356 -9,-1.53357 -9.36788,-1.9954 -9.36788,-1.9954 -5.40764,-2.64572 -5.40764,-2.64571 -3.01833,-2.53975 -3.01833,-2.53976 -1.81425,-3.62421 -1.81425,-3.62421 -0.73875,-3 -0.73874,-3 -0.80545,-5.59607 -0.80544,-5.59606 -1.9385,-3.90394 -1.9385,-3.90393 -2.50505,-4.5 -2.50505,-4.5 -10.25549,-17.5 -10.255488,-17.5 -2.398671,-4.17807 -2.398671,-4.17807 v -4.26173 -4.26174 l 0.941639,-5.56019 0.941638,-5.5602 1.629468,-11 1.629468,-11 1.936677,-7.69711 1.93668,-7.69711 3.34231,-9.80289 3.34231,-9.80289 4.96755,-10.5 4.96756,-10.499992 6.62733,-10 6.62733,-10 6.80502,-7.757127 6.80502,-7.757126 7.5,-6.592307 7.5,-6.592306 9.51195,-6.345222 9.51195,-6.345222 11.48805,-5.5174 11.48805,-5.5174 13.5987,-4.537983 13.59869,-4.537983 11.21521,-2.4805923 11.21521,-2.480593 13.44627,-1.190435 13.44627,-1.1904356 12.73983,1.1436646 12.73982,1.143665 8,2.078798 8,2.0787993 5.2387,1.930337 5.23869,1.930337 7.26131,3.653983 7.2613,3.653984 6,4.023296 6,4.023296 8,6.675685 8,6.675686 2.5,1.401593 2.5,1.401593 11.60901,0.557022 11.60902,0.557021 6.39098,3.184728 6.39099,3.184727 5.5,4.73806 5.5,4.73806 6.79207,7.533898 6.79206,7.533899 5.97433,9 5.97434,8.999997 3.96458,7.616145 3.96459,7.61614 4.52051,11.5612 4.52052,11.56121 2.07155,8.72234 2.07155,8.72233 1.58248,8.10032 1.58248,8.10031 0.30999,26 0.31,26 -0.55708,3.77167 -0.55708,3.77167 -2.85887,1.47837 -2.85886,1.47837 -5.99671,1.39894 -5.99671,1.39894 -5.18846,4.35102 -5.18845,4.35102 -8.61441,7.44586 -8.61442,7.44586 -0.41532,0.3028 -0.41533,0.3028 -0.84541,6.18181 -0.84542,6.18181 -2.63094,4.48937 -2.63095,4.48937 -2.60831,2.2899 -2.60832,2.2899 -5.5,2.95991 -5.5,2.9599 -8.5,2.28404 -8.5,2.28403 -21.5,0.0463 -21.5,0.0463 -4.89057,-2.49746 -4.89057,-2.49746 -4.67445,-5.24462 -4.67446,-5.24462 -2.11876,-6.75792 -2.11875,-6.75792 -0.87548,-4 -0.87549,-4 -1.94073,0.34161 -1.94074,0.3416 -0.33333,0.9084 -0.33333,0.90839 h -1.41667 -1.41667 l 0.25,-1.25 0.25,-1.25 -4.90506,-0.31112 -4.90506,-0.31113 1.65506,2.52595 1.65506,2.52594 v 3.41306 3.41305 l 1.58749,3.79939 1.58748,3.79938 -0.4456,3.03605 -0.4456,3.03606 1.49212,1.49212 1.49211,1.49211 -0.67309,10.41103 -0.67308,10.41103 -1.902,3.72822 -1.902,3.72822 -3.59614,3.15746 -3.59614,3.15745 -3.71278,1.59374 -3.71277,1.59373 -10.5,0.40201 -10.5,0.402 z m 131.99675,-31.96681 7.49675,-2.20299 4.77732,-2.60014 4.77733,-2.60015 4.40052,-4.70452 4.40053,-4.70451 1.5754,-5.30496 1.5754,-5.30495 v -2.66749 -2.66749 l 15.01546,-13.15101 15.01546,-13.15101 h 2.8064 2.8064 l 4.69664,-1.6003 4.69664,-1.60031 0.98466,-1.83985 0.98466,-1.83986 0.63982,-20.80984 0.63982,-20.80984 -1.20394,-10.5 -1.20395,-10.5 -1.95167,-9.5 -1.95168,-9.5 -2.57548,-8 -2.57547,-8 -3.44554,-8.34301 -3.44554,-8.34302 -3.64876,-6.65698 -3.64876,-6.656985 -3.47162,-5.499997 -3.47162,-5.5 -6.31474,-8.140496 -6.31473,-8.140495 -7.2078,-6.578423 -7.20781,-6.578424 -7.07342,-3.780973 -7.07343,-3.780973 -10.61913,-0.141089 -10.61913,-0.14109 -3.46526,-1.644375 -3.46526,-1.644374 -8.05287,-6.812901 -8.05287,-6.812901 -7.05194,-4.688121 -7.05194,-4.688121 -8.3163,-3.897147 -8.31629,-3.897147 -8.84623,-2.563536 -8.84622,-2.5635353 -6.14828,-0.960848 -6.14828,-0.960849 -10,-0.644692 -10,-0.644693 -12,1.134876 -12,1.134876 -11.5,2.5560483 -11.5,2.556049 -13.27833,4.417284 -13.27834,4.417284 -9.69764,4.531729 -9.69763,4.53173 -7.52403,4.646228 -7.52403,4.646229 -6,4.513591 -6,4.513592 -7.8636,7.552843 -7.86361,7.552844 -6.30472,8.039105 -6.30472,8.039105 -5.20103,8.385793 -5.20103,8.385794 -4.76211,10.575095 -4.7621,10.5751 -3.17971,9.95291 -3.1797,9.95291 -2.38218,11.04709 -2.382171,11.04709 -1.056659,10.35596 -1.05666,10.35595 v 4.91977 4.91976 l 11.84152,20.22428 11.84152,20.22428 4.8148,8.49081 4.8148,8.4908 1.37002,8.0092 1.37002,8.00919 1.07952,3.33577 1.07952,3.33577 2.96407,3.37589 2.96407,3.37589 3.18007,1.96536 3.18007,1.96535 4.5152,1.53292 4.51519,1.53292 6.98481,1.62436 6.9848,1.62436 8.5,1.39825 8.5,1.39824 8.5685,0.0175 8.5685,0.0175 5.4315,-1.58546 5.4315,-1.58546 4.18765,-2.42016 4.18766,-2.42015 3.76222,-4.5913 3.76223,-4.5913 2.59298,-7.65308 2.59299,-7.65309 3.95714,-1.48484 3.95713,-1.48484 39.22706,-0.25987 39.22705,-0.25986 1.52295,2.94504 1.52294,2.94505 v 3.02642 3.02642 l 2.25,5.77324 2.25,5.77324 6,6.05434 6,6.05434 3.5,1.1486 3.5,1.1486 21.5,-0.32184 21.5,-0.32184 z m -49.72705,-14.5418 -3.23031,-1.40431 -2.01595,-3.30655 -2.01596,-3.30656 0.006,-1 0.006,-1 2.50353,4.17674 2.50353,4.17673 3.6655,1.20973 3.6655,1.20972 12.57151,-0.62045 12.57151,-0.62044 7,-0.47376 7,-0.47376 -11,1.39207 -11,1.39206 -9.5,0.0265 -9.5,0.0265 z m -163.5197,-2.25992 7.25,-0.34512 7.25,0.34512 7.25,0.34511 h -14.5 -14.5 z m 211.71688,-0.30231 3.96688,-1.01406 2.41896,-2.22056 2.41895,-2.22057 2.03614,-4.5 2.03614,-4.5 -0.0454,-6 -0.0454,-6 -2.37657,-5.95046 -2.37657,-5.95047 -3.13829,-1.82634 -3.13828,-1.82634 -7.36172,-1.40363 -7.36171,-1.40362 -18,-0.51517 -18,-0.51517 -3.46353,0.72914 -3.46354,0.72914 -2.03646,3.46646 -2.03647,3.46646 0.10193,8 0.10194,8 2.10765,6.45708 2.10766,6.45708 -0.38956,0.38956 -0.38956,0.38956 -2.10984,-6.83088 -2.10985,-6.83088 -0.57143,-5.51576 -0.57144,-5.51576 1.1455,-4.23405 1.1455,-4.23406 2.24815,-2.61363 2.24816,-2.61363 6.46759,-0.49626 6.4676,-0.49626 17.5,1.07838 17.5,1.07837 4.70946,1.08791 4.70946,1.08791 3.29054,2.2132 3.29054,2.2132 2.37657,5.96446 2.37657,5.96446 0.0587,6.11127 0.0587,6.11127 -2.71065,5.54038 -2.71066,5.54039 -2.55534,1.67433 -2.55535,1.67432 -3.66922,0.40864 -3.66923,0.40864 z m -232.43496,-1.55632 -5.46809,-1.4695 -3.02851,-1.76875 -3.02852,-1.76875 -2.1188,-3.14409 -2.11881,-3.14409 -1.63459,-6.50736 -1.6346,-6.50736 v -8.11022 -8.11023 l 1.03519,-1.93426 1.03518,-1.93426 9.71482,0.20564 9.71481,0.20563 -8.94792,0.33619 -8.94793,0.33618 -1.40557,1.16652 -1.40556,1.16652 0.46735,10.54166 0.46735,10.54166 1.73036,5.4368 1.73035,5.4368 2.93639,2.743 2.93639,2.743 4.75512,1.5794 4.75513,1.5794 5.96427,0.86886 5.96427,0.86886 -4,0.0561 -4,0.0561 z m 44.72048,0.89509 2.2524,-0.43369 2.51204,-3.29345 2.51204,-3.29346 1.91249,-5.38668 1.9125,-5.38668 0.0731,1.23928 0.0731,1.23927 -1.96375,5.16817 -1.96375,5.16817 -2.72334,2.84256 -2.72334,2.84255 -2.06291,-0.13618 -2.06291,-0.13618 z m 151.7476,-5.7056 -3,-1.33336 -2.47006,-2.6762 -2.47006,-2.67619 -0.33909,-6.7013 -0.33909,-6.70131 1.88641,-3.42273 1.88642,-3.42274 3.40714,-1.82726 3.40713,-1.82727 h 4.36447 4.36447 l 3.38537,1.60646 3.38537,1.60647 2.01576,3.26157 2.01576,3.26157 v 6.55524 6.55524 l -2.70331,3.2127 -2.7033,3.2127 -3.26458,1.36403 -3.26457,1.36402 -3.28212,-0.0391 -3.28212,-0.0391 z m 12.86422,-0.96718 3.29998,-1.37882 2.1679,-2.75604 2.1679,-2.75603 v -6.87983 -6.87983 l -3.42316,-3.73531 -3.42316,-3.73532 h -7.05761 -7.05761 l -3.23573,3.23574 -3.23574,3.23573 -0.33673,6.76427 -0.33674,6.76426 2.07294,3.30656 2.07293,3.30655 3.23031,1.40431 3.2303,1.4043 3.28212,0.0391 3.28212,0.0391 z m -203.64566,-3.39779 -2.78143,-1.72339 -1.96857,-4.06572 -1.96856,-4.06573 v -3.71639 -3.71639 l 1.36403,-3.26458 1.36402,-3.26457 3.2127,-2.70331 3.2127,-2.70331 6.17328,0.004 6.17327,0.004 3.08004,1.8782 3.08003,1.8782 1.66997,3.51919 1.66996,3.51919 v 4.63871 4.63871 l -1.90483,3.71016 -1.90483,3.71016 -2.99946,1.75 -2.99946,1.75 -5.84571,-0.0266 -5.84571,-0.0266 z m 18.07501,-1.70314 2.94702,-2.47975 1.25312,-3.0253 1.25312,-3.02529 -0.46935,-5.65971 -0.46935,-5.65971 -3.63938,-3.33525 -3.63938,-3.33524 h -6.37982 -6.37983 l -2.75604,2.1679 -2.75604,2.1679 -1.37882,3.29998 -1.37882,3.29999 v 3.56423 3.56424 l 1.37882,3.29998 1.37882,3.29998 2.75604,2.1679 2.75604,2.1679 h 6.28842 6.28841 z m 32.35918,-11.52025 -0.19667,-5.5 -1.89425,-4.17204 -1.89424,-4.17204 -2.55738,-1.67566 -2.55737,-1.67566 -4.27642,-1.3354 -4.27642,-1.33541 2,-0.0449 2,-0.0449 4.0786,1.8524 4.0786,1.85241 2.17183,2.76103 2.17182,2.76103 1.07584,3.6146 1.07584,3.6146 -0.40156,4.5 -0.40155,4.5 z m 14.51392,-7.66666 -0.66667,-0.66667 v -7.00475 -7.00475 l -4.3026,-4.12262 -4.3026,-4.12262 -6.19791,-2.25987 -6.19791,-2.25987 -7.24949,-1.62277 -7.24949,-1.62277 -27.5,-0.0733 -27.5,-0.0733 -3.5,2.02288 -3.5,2.02288 -2.2667,4.47712 -2.26671,4.47712 -0.73329,0.23358 -0.7333,0.23357 -7.5,-12.13892 -7.5,-12.13891 -0.29307,-1.18756 -0.29307,-1.18756 13.29307,-0.64732 13.29307,-0.64732 7.83797,-1.50978 7.83797,-1.50978 h 2.41203 2.41203 l 0.0153,2.25 0.0153,2.25 0.75504,1.18744 0.75504,1.18744 2.94952,1.12141 2.94951,1.1214 9.10843,0.0187 9.10842,0.0187 3.42171,-0.64845 3.4217,-0.64845 1.5827,-1.17907 1.5827,-1.17908 1.4173,-2.83958 1.4173,-2.83958 17.5,-0.35321 17.5,-0.35322 9.6132,-1.48721 9.6132,-1.48722 8.3868,-1.99456 8.3868,-1.99456 10,-3.61086 10,-3.61086 9,-4.3685 9,-4.36851 9,-5.92705 9,-5.92706 7.67811,-6.19234 7.67811,-6.19234 10.44422,-10.97667 10.44422,-10.97667 h 0.62767 0.62767 v 5.86351 5.86351 l 0.98922,5.21613 0.98922,5.21614 3.86774,8.25354 3.86774,8.25354 5.11358,7.57799 5.11357,7.57799 5.33042,5.83883 5.33041,5.83882 4.32016,6.5 4.32015,6.5 3.98744,4.80813 3.98743,4.80813 -0.57799,0.57799 -0.57799,0.57798 -6.28055,-1.27125 -6.28055,-1.27125 -12.13131,-0.27836 -12.1313,-0.27837 -10.3687,0.85915 -10.36869,0.85915 -9.66655,0.46784 -9.66655,0.46783 -3.39642,1.61171 -3.39642,1.61171 -2.11436,4.35197 -2.11435,4.35197 -1.20494,8.24063 -1.20494,8.24063 -4.61773,-0.64997 -4.61774,-0.64997 -10.5,-1.05362 -10.5,-1.05362 -13,0.65158 -13,0.65159 -14.38468,1.93421 -14.38469,1.93421 h -0.19865 -0.19864 z m 16.60597,-3.43786 9.22736,-1.14547 4.42145,-2.875 4.42144,-2.87501 8.57856,0.004 8.57855,0.004 3.2183,1.96228 3.21829,1.96229 12.67056,1.56179 12.67055,1.5618 0.4241,-0.4241 0.4241,-0.42411 1.44445,-8.27399 1.44445,-8.274 1.79667,-3.07632 1.79666,-3.07632 3.14671,-2.12056 3.1467,-2.12057 9.12914,-0.71416 9.12915,-0.71416 -1.82992,-1.35755 -1.82991,-1.35756 1.57246,-1.59786 1.57246,-1.59787 1.67754,0.64374 1.67754,0.64373 v 1.19301 1.19301 l -1.25,1.30292 -1.25,1.30292 4,-0.59161 4,-0.59161 11,-0.50464 11,-0.50464 12.88107,1.02893 12.88108,1.02892 0.47607,-0.47607 0.47607,-0.47607 -5.35714,-7.11763 -5.35715,-7.11764 -5.5,-7.08747 -5.5,-7.08748 -0.52693,5.13681 -0.52693,5.1368 -1.76143,1.75878 -1.76143,1.75878 -13.71164,-0.0258 -13.71164,-0.0258 -3.07283,-1.65826 -3.07283,-1.65826 -1.37717,-1.65939 -1.37717,-1.65938 v -3.35682 -3.35681 l 1.81297,-2.0033 1.81296,-2.00331 5.13704,-1.14548 5.13703,-1.14549 11.15631,0.34905 11.1563,0.34905 -0.60422,-1 -0.60422,-1 -4.37334,-6.78525 -4.37333,-6.78525 -2.79457,-6.77689 -2.79457,-6.7769 -1.82903,-8.10149 -1.82903,-8.10149 -12.05515,11.55165 -12.05515,11.55166 -3.5,2.58491 -3.5,2.58492 -2.38636,2.27707 -2.38636,2.27706 h -0.87495 -0.87495 l -5.73869,3.88963 -5.73869,3.88962 -8,4.07619 -8,4.07618 -9.25771,3.5044 -9.25771,3.5044 -8.24229,2.50011 -8.24229,2.50011 -13,2.07493 -13,2.07493 -16.27225,0.40948 -16.27225,0.40949 -0.85615,0.52913 -0.85615,0.52913 -1.59596,3.36323 -1.59595,3.36322 -3.27564,0.36498 -3.27565,0.36497 -13.14602,0.0379 -13.14601,0.0379 -2.01405,-1.82359 -2.01404,-1.8236 -0.60899,-2.4264 -0.60899,-2.42641 h -1.39298 -1.39298 l -7.73667,1.48027 -7.73666,1.48027 -11.85131,0.66977 -11.8513,0.66977 v 0.53025 0.53024 l 4.16322,6.56971 4.16322,6.56972 2.08678,3.24317 2.08678,3.24317 0.56953,0.007 0.56954,0.007 1.43046,-3.25 1.43047,-3.25 5,-2.48558 5,-2.48559 17.88236,-0.37867 17.88236,-0.37867 12.36305,1.16238 12.36304,1.16238 7.75459,2.02684 7.7546,2.02684 5.27261,3.01136 5.27261,3.01137 2.47739,3.6458 2.47739,3.64581 v 6.39287 6.39286 l 3.02264,-0.60452 3.02263,-0.60453 z m 103.72736,-34.39548 v -0.5 h 0.5 0.5 v 0.5 0.5 h -0.5 -0.5 z m 25,-12.79427 2.5,-1.26479 v -4.86255 -4.86255 l -2.80877,-2.09705 -2.80877,-2.09705 -9.69123,0.0643 -9.69123,0.0643 -4.205,1.20125 -4.20499,1.20125 -1.54501,1.54501 -1.545,1.545 v 1.81779 1.81778 l 1.75,2.14835 1.75,2.14835 4,1.41854 4,1.41855 10,0.0292 10,0.0291 z m 45.6568,45.54427 -0.46123,-0.75 -1.2339,-6.28055 -1.2339,-6.28055 0.51636,-0.51636 0.51635,-0.51635 6.61976,3.63868 6.61976,3.63867 v 0.73871 0.73871 l -4.41348,3.16952 -4.41347,3.16952 h -1.02751 -1.0275 z m 5.43883,-3.31809 2.90437,-2.0681 v -0.74669 -0.74669 l -3.53392,-1.68522 -3.53393,-1.68521 h -0.98513 -0.98512 l 0.612,2.75 0.61199,2.75 0.47445,1.75 0.47444,1.75 h 0.52824 0.52824 z m -244.59563,-5.00909 -11,-0.79156 -4,-0.42422 -4,-0.42421 14.21503,0.47773 14.21503,0.47774 3.28497,0.77849 3.28497,0.77849 -2.5,-0.0404 -2.5,-0.0404 z m 6.68222,-39.84301 -4.31779,-1.71281 0.0678,-0.9335 0.0678,-0.9335 4.25,-1.36907 4.25,-1.36907 16.75737,-6.38093 16.75737,-6.38093 h 1.14762 1.14762 l -1.90012,2.09961 -1.90013,2.09961 -8.11458,5.39926 -8.11458,5.39926 -7.27782,3.00113 -7.27782,3.00113 -0.61247,-0.10369 -0.61246,-0.10369 z m 17.88903,-5.60063 5.42875,-2.73567 2.80758,-1.98085 2.80757,-1.98084 -0.39939,-0.39939 -0.39939,-0.39939 -10.90818,4.04471 -10.90819,4.04471 -2.84848,1.12588 -2.84848,1.12589 2.29044,1.2258 2.29043,1.2258 3.6293,-1.28049 3.62929,-1.28049 z m 84.92875,97.02082 v -0.5 h -0.5 -0.5 v 0.5 0.5 h 0.5 0.5 z m 4.66667,-4.16666 -0.66667,-0.66667 -0.66666,0.66667 -0.66667,0.66666 h 1.33333 1.33334 z m 187.33333,-24.83334 v -0.5 h 0.5 0.5 v 0.5 0.5 h -0.5 -0.5 z"
           id="path41" /><path
           style="fill:#3c1e10"
           d="m 276.45176,368.01815 c -11.80197,-1.24758 -23.95753,-4.34353 -33.32898,-11.94999 -5.96606,-3.2139 -8.13189,-10.21535 -12.27191,-15.24919 -2.4292,-7.13314 6.21561,-10.68479 10.1246,-5.33578 5.43592,6.20081 11.15423,12.71488 17.48454,17.77014 17.82248,6.07241 37.93843,6.96998 55.61919,0.0922 9.97571,-3.10731 16.13795,-11.89176 20.13402,-21.09084 3.22895,-6.54955 10.40403,-3.60745 9.85286,3.04424 -2.53649,15.18069 -16.03354,26.61634 -30.26067,30.86926 -12.04702,4.35096 -24.84981,3.03307 -37.35365,1.84996 z m 68.5,-76.10918 c -6.7277,-1.89288 -10.20272,-9.04956 -15.5,-13.25728 -2.6215,-5.98856 -4.93227,-12.10613 -4.98308,-18.53349 -1.33694,-7.78817 -9.56787,-4.16516 -15.18276,-4.87232 -22.2499,0.39312 -44.68071,-0.1923 -66.81881,0.8056 -7.00042,0.59505 -8.7597,6.26465 -10.19757,12.24543 -3.30861,12.37648 -15.12983,20.21933 -27.2875,22.44808 -19.76881,1.93293 -39.79705,-2.48959 -58.53028,-8.73935 -9.31215,-4.2415 -15.08098,-13.4207 -15.51125,-23.5738 -0.80941,-13.27433 -10.34018,-23.47295 -16.08819,-34.94829 -6.11191,-11.1618 -13.67924,-21.92885 -18.90056,-33.33219 0.07873,-33.12124 8.75877,-66.19615 24.42424,-95.331173 17.03182,-30.315678 43.68568,-55.254332 75.72703,-69.016105 19.20929,-8.617462 39.70712,-14.572354 60.48977,-17.8849733 22.73519,-3.2021156 46.24652,-1.930217 68.0625,5.5582623 18.86065,6.332163 35.0028,18.376273 49.62768,31.603535 8.85778,6.439024 20.4761,1.268978 30.02377,4.56248 11.86304,5.224926 21.75908,13.959984 29.9305,23.882136 25.21897,29.884088 39.00717,68.197318 41.75495,106.984808 -0.034,14.82847 -0.20225,30.04456 -1.53036,44.68821 -2.91945,5.26372 -10.78824,6.01509 -16.47916,5.95307 -10.01031,8.76734 -20.02061,17.53468 -30.03092,26.30202 0.40952,8.70699 -2.78976,17.44262 -9.7066,22.95357 -7.6201,7.38849 -18.7503,10.16689 -28.89654,12.03809 -14.26263,-0.24991 -28.80682,1.34989 -42.89538,-0.0436 l -0.99926,-0.32791 z m 39.12119,-16.31736 c 8.839,-1.06675 21.26158,-0.31793 24.31483,-10.83491 4.27524,-6.04535 3.53774,-14.32727 1.64918,-21.03597 -1.74153,-5.80397 -4.18005,-11.04553 -10.16637,-13.42436 -15.13865,-3.81884 -31.0266,-3.27633 -46.51613,-4.17165 -5.81057,0.43865 -12.28143,-0.4274 -15.14359,5.83715 -5.36352,12.42306 0.16394,26.11402 5.03108,37.78237 4.45509,10.4301 17.45081,6.65915 26.4521,7.40737 4.79297,-0.52 9.58593,-1.04 14.3789,-1.56 z m -22.85149,-9.9225 c -6.93907,-2.30596 -8.16848,-10.49636 -6.93486,-16.88245 -0.71669,-5.63561 5.20851,-12.03501 10.91036,-11.13497 6.91143,-1.17616 12.518,0.61343 16.17384,6.8367 0.3834,5.19719 2.38661,12.75347 -1.58694,17.14962 -3.64462,5.54585 -12.8672,7.13526 -18.5624,4.0311 z m -146.76014,4.32087 c 5.20976,-5.10248 6.6605,-13.22429 7.49044,-20.20402 1.33678,-10.30648 -6.86673,-20.26451 -17.31275,-20.88344 -18.7166,-3.55413 -37.85904,-2.34908 -56.78629,-1.43428 -4.41859,7.15076 -0.44194,16.19778 -1.16417,24.18345 1.86303,8.15921 5.55816,17.33257 14.8599,18.82444 15.85398,5.68939 33.05422,2.68702 49.55733,3.17556 1.11851,-1.22057 2.23703,-2.44114 3.35554,-3.66171 z m -43.99588,-9.00619 c -8.97337,-6.4288 -6.96548,-23.59812 3.80773,-26.8321 5.74646,0.39148 12.53518,-1.89698 16.12268,4.04579 4.64699,3.62009 4.19462,11.68496 2.59535,16.85901 -1.97291,6.05864 -8.34974,9.45051 -14.53299,8.0952 -3.03564,0.0584 -5.88915,0.51365 -7.99277,-2.1679 z m 80.60164,-20.76631 c 21.01227,-3.15524 42.41697,-4.19445 63.46752,-0.83697 8.5521,4.04316 8.0624,-3.98491 8.81405,-10.35572 0.73318,-7.5457 4.39706,-16.19457 12.82047,-17.09697 25.25206,-0.61337 50.92804,-5.68791 75.84374,0.4961 0.99106,-4.81686 -7.73773,-9.68141 -9.72959,-15.1516 -7.11664,-11.99179 -18.35606,-20.75901 -25.03361,-33.1069 -7.1256,-11.86275 -12.80064,-25.1961 -11.2979,-39.35696 -2.11794,-4.07806 -8.24215,7.2095 -11.69956,9.3199 -20.63787,22.80822 -47.48546,39.90563 -76.74631,49.34922 -21.16034,7.2323 -43.62587,9.69147 -65.91443,9.2903 -6.55025,-0.78977 -11.55493,0.0588 -13.81768,6.51211 -7.96245,5.19112 -18.33766,2.21663 -27.38228,2.98935 -6.16366,0.025 -7.41797,-6.04817 -8.4914,-9.11769 -11.29439,0.70659 -22.31704,4.27476 -33.79182,3.71803 -4.611,0.76126 -16.52428,-1.71585 -9.99814,5.65536 4.44722,7.19792 8.89443,14.39584 13.34165,21.59376 4.54122,-3.55959 5.16023,-11.56627 12.23163,-13.02306 18.68516,-0.83289 37.95435,-0.35179 56.79466,-0.0678 11.79342,2.80987 25.28604,4.36293 33.20858,14.56858 3.86345,4.20944 -1.61614,13.02207 2.99576,16.55504 4.79489,-0.64471 9.58977,-1.28941 14.38466,-1.93412 z m 103.38468,-49.57212 c -5.95946,-0.54929 -10.84573,-8.89413 -4.40999,-12.44082 8.85687,-3.68346 18.46426,-2.13395 27.79245,-2.5311 6.26472,2.112 7.06958,9.69642 4.67912,14.39396 -7.19885,4.13218 -16.09458,1.1053 -24.06158,1.99652 -1.33333,-0.47285 -2.66667,-0.94571 -4,-1.41856 z m 79.08652,43.33681 c 9.42464,-3.68673 -0.42162,-7.40254 -4.97118,-9.80539 -7.91628,-6.14007 -3.02469,6.38661 -2.63996,10.35415 0.68363,5.58363 5.24169,1.09852 7.61114,-0.54876 z M 206.95451,187.15056 c 9.58928,-3.78818 18.62201,-9.68194 26.1128,-16.67904 0.91017,-3.73354 -10.22098,2.83764 -13.87776,3.54542 -9.724,3.60736 -19.29041,7.66346 -29.23779,10.63475 1.30117,4.1828 10.21871,7.08696 14.58623,3.49536 0.8055,-0.33216 1.61101,-0.66433 2.41652,-0.99649 z"
           id="path40" /></g></g></g></svg>
