<?xml version="1.0" encoding="UTF-8" standalone="no"?>
<svg
   viewBox="0 0 512 512"
   version="1.1"
   id="svg1"
   sodipodi:docname="family-baby-girl.svg"
   inkscape:version="1.3 (0e150ed, 2023-07-21)"
   xml:space="preserve"
   xmlns:inkscape="http://www.inkscape.org/namespaces/inkscape"
   xmlns:sodipodi="http://sodipodi.sourceforge.net/DTD/sodipodi-0.dtd"
   xmlns="http://www.w3.org/2000/svg"
   xmlns:svg="http://www.w3.org/2000/svg"><defs
     id="defs1" /><sodipodi:namedview
     id="namedview1"
     pagecolor="#ffffff"
     bordercolor="#666666"
     borderopacity="1.0"
     inkscape:showpageshadow="2"
     inkscape:pageopacity="0.0"
     inkscape:pagecheckerboard="0"
     inkscape:deskcolor="#d1d1d1"
     inkscape:zoom="0.54275969"
     inkscape:cx="699.20446"
     inkscape:cy="236.75303"
     inkscape:window-width="1366"
     inkscape:window-height="717"
     inkscape:window-x="0"
     inkscape:window-y="27"
     inkscape:window-maximized="1"
     inkscape:current-layer="svg1"
     showgrid="false" /><!--!Font Awesome Free 6.5.1 by @fontawesome - https://fontawesome.com License - https://fontawesome.com/license/free Copyright 2024 Fonticons, Inc.--><path
     style="fill:#f8cd9d;stroke-width:1.20219"
     d="m 299.96601,431.12076 c 14.08242,-1.53881 22.61481,-3.18218 37.26789,-7.17795 7.9129,-2.15778 27.98236,-11.83061 35.87158,-17.28895 14.00877,-9.6923 27.68668,-26.0328 32.43581,-38.74988 2.85638,-7.64872 2.85638,-7.64872 17.16539,-8.389 7.86996,-0.40714 15.93197,-1.16077 17.91558,-1.67471 5.06727,-1.31291 14.2767,-6.05165 16.15174,-8.31094 0.86593,-1.04338 2.31966,-1.89707 3.23051,-1.89707 0.91084,0 1.65608,-0.79244 1.65608,-1.76098 0,-0.96854 1.00169,-2.29708 2.22598,-2.9523 3.14781,-1.68466 11.97087,-19.69938 14.05008,-28.68712 3.34791,-14.47192 3.53085,-23.10362 0.68455,-32.30019 -5.06683,-16.37127 -16.13226,-22.71206 -31.84851,-18.25006 -2.72153,0.77268 -5.46217,1.85465 -6.09032,2.40438 -2.50981,2.19654 -3.06647,0.58828 -3.08694,-8.91854 -0.012,-5.45494 -0.59157,-14.78694 -1.28847,-20.73778 -0.69693,-5.95084 -1.43742,-12.44267 -1.64554,-14.42628 -0.884,-8.42526 -7.66298,-33.84989 -10.94682,-41.05615 -0.94946,-2.08354 -1.72629,-4.45102 -1.72629,-5.26107 0,-1.72624 -10.67179,-21.83796 -16.37132,-30.85286 -2.17012,-3.43248 -9.24734,-11.54726 -15.72716,-18.03285 -11.70642,-11.7169 -14.76348,-14.34571 -21.09843,-18.14296 -1.81832,-1.08992 -3.30603,-2.40602 -3.30603,-2.92467 0,-0.51863 -1.05004,-0.94298 -2.33342,-0.94298 -1.2834,0 -2.67414,-0.55128 -3.09056,-1.22505 -1.84724,-2.98888 -21.31673,-10.73869 -40.25924,-16.02517 -12.8165,-3.57681 -28.10799,-4.968 -54.09856,-4.92175 -38.25967,0.068 -54.86316,2.70877 -76.6905,12.19718 -2.1769,0.9463 -5.69331,2.36772 -7.81424,3.15873 -4.15513,1.54965 -16.3061,7.98466 -21.44114,11.35499 -8.54247,5.60673 -17.45977,11.87676 -19.19123,13.49392 -1.06189,0.99181 -5.52911,4.968 -9.92713,8.83599 -4.39801,3.86797 -7.99639,7.72791 -7.99639,8.57761 0,0.8497 -1.23812,2.35616 -2.75139,3.34769 -1.51327,0.99153 -5.01857,5.2464 -7.78956,9.45524 -2.77099,4.20886 -5.71433,8.43869 -6.54077,9.39964 -2.13131,2.47821 -11.770842,22.42809 -11.770842,24.36083 0,0.88466 -0.7517,2.68167 -1.67045,3.99335 -3.46897,4.95267 -9.14679,31.78448 -10.38125,49.05897 -0.66211,9.26528 -1.37806,17.02018 -1.591,17.23312 -0.21294,0.21294 -3.04604,-0.41942 -6.29577,-1.40526 -3.37914,-1.02509 -10.6513,-1.79799 -16.98706,-1.80543 -10.6691,-0.0125 -11.23436,0.12389 -15.29872,3.69245 -2.36745,2.07865 -4.75797,5.64129 -5.44499,8.11479 -1.5589,5.61262 -1.58927,20.86331 -0.0576,28.93968 2.43804,12.85571 11.2236,29.00428 21.3188,39.1857 6.6953,6.75248 18.27306,12.45133 28.1253,13.84393 8.22644,1.16281 14.817742,5.40255 17.770762,11.43075 3.3592,6.85733 23.71515,27.48549 34.39193,34.85184 3.30603,2.28097 8.18408,5.64469 10.84013,7.47496 4.39635,3.02949 21.1129,11.58568 30.03434,15.37275 31.79087,13.49495 78.58099,19.02071 121.42121,14.33946 z M 347.15197,306.621 c -3.25629,-3.92202 -3.01403,-21.27445 0.34738,-24.88251 3.40123,-3.65079 10.64938,-3.59607 14.12792,0.10663 5.68436,6.05072 4.28108,23.65915 -2.15285,27.01415 -3.88557,2.02616 -9.65138,0.97882 -12.32245,-2.23831 z m -185.66317,1.59666 c -2.56047,-1.62809 -3.98233,-7.46063 -3.98233,-16.33573 0,-10.41864 1.3535,-12.7011 8.06558,-13.60138 7.35458,-0.98645 10.56844,2.63894 11.69914,13.19725 1.37262,12.8174 -1.2324,17.69663 -9.43188,17.66597 -2.70764,-0.01 -5.56537,-0.42687 -6.35051,-0.92611 z"
     id="path30"
     sodipodi:nodetypes="sssssssssssssscssssssssssscsssssssssscssssssssssssssssssssssssscs" /><path
     style="fill:#6e3f1b;stroke-width:1.20219"
     d="m 359.47442,308.85931 c 6.43393,-3.355 7.83721,-20.96343 2.15285,-27.01415 -3.47854,-3.70274 -10.72669,-3.75746 -14.12792,-0.10664 -3.36141,3.60806 -3.60367,20.9605 -0.34738,24.88251 2.67107,3.21714 8.43688,4.26447 12.32245,2.23831 z m -184.86471,-1.80097 c 2.94894,-3.35824 3.57678,-7.03366 2.66148,-15.58054 -1.1307,-10.55831 -4.34456,-14.1837 -11.69914,-13.19725 -6.71208,0.90028 -8.06558,3.18274 -8.06558,13.60138 0,8.8751 1.42186,14.70764 3.98233,16.33573 2.77678,1.76563 11.20649,1.02082 13.12091,-1.15932 z"
     id="path29"
     sodipodi:nodetypes="ssssssssssss" /><path
     style="fill:#ff5555;stroke-width:0.267576"
     d="m 248.17438,437.70654 c -13.42323,-1.53505 -24.7342,-10.91697 -28.77093,-23.86413 -0.7009,-2.24806 -0.7009,-2.24806 -2.88918,-3.36499 -3.27454,-1.6714 -6.96624,-4.40703 -9.81419,-7.27254 -12.16436,-12.23939 -15.12398,-30.58691 -7.4061,-45.91257 3.8148,-7.57517 11.09321,-14.63111 18.734,-18.16137 5.59137,-2.58337 10.78538,-3.71533 17.03517,-3.71258 5.37592,0.002 8.65636,0.63755 14.9546,2.89561 5.19125,1.86118 6.31532,2.15898 9.65539,2.55804 5.99956,0.7168 9.5289,0.12949 19.00492,-3.16256 5.88451,-2.04433 10.80196,-2.6955 16.4643,-2.18019 9.71785,0.88436 18.05809,4.80815 24.9338,11.73045 6.03667,6.07758 9.8883,13.54499 11.3364,21.97869 0.51016,2.97113 0.44951,9.79484 -0.11237,12.64251 -1.50935,7.64955 -4.80144,14.34523 -9.84139,20.01608 -2.88561,3.24683 -7.91329,7.07 -11.79808,8.97154 -1.50872,0.73849 -1.53493,0.77122 -2.09535,2.61629 -2.6964,8.87731 -8.93353,16.41969 -17.00303,20.56126 -4.14556,2.12766 -7.61099,3.16775 -12.28565,3.68733 -2.88782,0.32097 -27.25076,0.29922 -30.10231,-0.0269 z m 29.97555,-5.59739 c 10.76144,-1.31569 19.8249,-8.49847 23.52835,-18.64617 1.11577,-3.05726 1.63829,-6.16092 1.64269,-9.75711 0.006,-4.69599 -0.90792,-8.68334 -2.9009,-12.66002 -2.73635,-5.45993 -7.22914,-9.99052 -12.5699,-12.67564 -0.91559,-0.46032 -1.69825,-0.83695 -1.73924,-0.83695 -0.041,0 -0.0831,1.65562 -0.0936,3.67917 -0.0165,3.18733 -0.11422,3.9903 -0.73063,6.00655 -0.71153,2.32738 -0.71153,2.32738 1.49931,4.54879 2.3991,2.41059 3.80792,4.8139 4.58984,7.82984 0.5293,2.04157 0.53339,6.24965 0.008,8.31621 -1.45632,5.72912 -6.10493,10.49267 -12.0369,12.3345 -1.48165,0.46004 -2.7094,0.49848 -15.92078,0.49848 -13.21138,0 -14.43913,-0.0384 -15.92078,-0.49848 -5.93196,-1.84183 -10.58058,-6.60538 -12.0369,-12.3345 -0.52531,-2.06656 -0.52122,-6.27464 0.008,-8.31621 0.78192,-3.01594 2.19074,-5.41925 4.58985,-7.82984 2.21084,-2.22141 2.21084,-2.22141 1.4993,-4.54879 -0.6164,-2.01625 -0.71408,-2.81922 -0.73063,-6.00655 -0.0105,-2.02355 -0.0526,-3.67917 -0.0936,-3.67917 -0.34574,0 -3.78596,1.93719 -5.32964,3.00113 -2.21265,1.52501 -5.65937,5.01746 -7.07291,7.16676 -2.15349,3.27439 -3.82154,7.4195 -4.50711,11.20017 -0.4372,2.41103 -0.36942,7.55095 0.13428,10.1818 2.30012,12.01382 12.30809,21.46905 24.34204,22.99763 2.68319,0.34082 27.0963,0.36406 29.84176,0.0284 z m -1.50891,-17.10873 c 9.28919,-1.52123 12.79992,-12.95523 5.98299,-19.48586 -0.92152,-0.88281 -0.92152,-0.88281 -3.30954,1.47167 -7.41532,7.31119 -18.04839,8.73465 -27.12027,3.63063 -1.56203,-0.87884 -3.0117,-2.00919 -4.65623,-3.63063 -2.38802,-2.35448 -2.38802,-2.35448 -3.30953,-1.47167 -3.95036,3.78444 -4.72051,9.78002 -1.84201,14.33986 1.61386,2.55652 4.70092,4.64401 7.58474,5.12886 1.84126,0.30957 24.7941,0.32432 26.66985,0.0171 z m -8.26464,-17.66904 c 5.27139,-1.62005 9.7621,-6.04607 11.39989,-11.23569 0.76264,-2.41653 0.9422,-6.28687 0.40798,-8.79391 -0.6885,-3.23109 -2.08492,-5.70936 -4.7102,-8.35933 -3.53089,-3.56412 -7.11981,-5.07629 -12.04783,-5.07629 -4.92802,0 -8.51693,1.51217 -12.04783,5.07629 -3.76058,3.79596 -5.27444,7.70058 -4.99062,12.87202 0.24353,4.43731 1.81691,8.02604 4.86865,11.10492 4.53775,4.5781 11.08733,6.266 17.11996,4.41199 z"
     id="path31"
     sodipodi:nodetypes="sssssscsssssssssssssssscssssssscsscscssssssssssssssssssssssssssssss" /><path
     style="fill:#ff5555;stroke:none;stroke-width:1px;stroke-linecap:butt;stroke-linejoin:miter;stroke-opacity:1;fill-opacity:1"
     d="m 269.90864,109.31475 c 0,0 56.8641,-95.716736 137.84784,-49.548051 80.98374,46.168681 64.60938,145.061781 20.47026,137.204911 -44.13911,-7.85687 -138.66428,-57.14953 -138.66428,-57.14953 0,0 -23.73565,25.22631 -39.32836,13.69587 -15.59272,-11.53043 -27.28638,-11.53043 -27.28638,-11.53043 0,0 -117.10532,70.66806 -132.859635,4.86661 C 74.333771,81.05268 74.333771,78.447082 74.333771,78.447082 c 0,0 30.896389,-27.165066 78.458529,-20.651071 47.56215,6.513995 70.04076,47.412169 70.04076,47.412169 0,0 4.36291,-18.114698 20.65668,-20.632211 16.29378,-2.517514 25.24531,20.732281 25.24531,20.732281 z"
     id="path1" /></svg>
