<?xml version="1.0" encoding="UTF-8" standalone="no"?>
<svg
   viewBox="0 0 512 512"
   version="1.1"
   id="svg1"
   sodipodi:docname="family-kid-girl.svg"
   inkscape:version="1.3 (0e150ed, 2023-07-21)"
   xml:space="preserve"
   xmlns:inkscape="http://www.inkscape.org/namespaces/inkscape"
   xmlns:sodipodi="http://sodipodi.sourceforge.net/DTD/sodipodi-0.dtd"
   xmlns="http://www.w3.org/2000/svg"
   xmlns:svg="http://www.w3.org/2000/svg"><defs
     id="defs1" /><sodipodi:namedview
     id="namedview1"
     pagecolor="#ffffff"
     bordercolor="#666666"
     borderopacity="1.0"
     inkscape:showpageshadow="2"
     inkscape:pageopacity="0.0"
     inkscape:pagecheckerboard="0"
     inkscape:deskcolor="#d1d1d1"
     inkscape:zoom="0.76757812"
     inkscape:cx="263.8168"
     inkscape:cy="340.68194"
     inkscape:window-width="1366"
     inkscape:window-height="717"
     inkscape:window-x="0"
     inkscape:window-y="27"
     inkscape:window-maximized="1"
     inkscape:current-layer="g33"
     showgrid="false" /><!--!Font Awesome Free 6.5.1 by @fontawesome - https://fontawesome.com License - https://fontawesome.com/license/free Copyright 2024 Fonticons, Inc.--><g
     id="g33"
     transform="translate(-80.082976,64.183922)"><path
       style="fill:#dcaf88;stroke-width:1.2158"
       d="m 305.73696,347.91095 c -27.89561,-2.65866 -56.34441,-8.52529 -80.67454,-22.93857 -8.05715,-5.07614 -15.94711,-10.38392 -23.19365,-16.58321 -9.62869,2.74515 -19.33247,3.23994 -29.12633,1.03477 -20.40478,-3.39532 -40.63834,-9.07596 -60.05747,-16.0988 -5.67838,-4.06773 -1.15089,-13.57914 -2.44102,-19.98751 -0.86695,-34.42652 4.99212,-68.61064 14.3818,-101.64154 8.48141,-28.63622 20.7059,-56.2435 36.93106,-81.372804 14.293,-22.158187 31.22102,-42.736039 51.13166,-60.09469 20.98087,-17.941045 47.10307,-29.64205289 74.41863,-33.75676 15.60657,-2.8988807 31.74441,-2.5116052 47.57336,-2.887057 23.6087,1.055518 47.06256,3.4945994 70.30872,7.7892817 19.35808,1.9340214 38.0056,9.5157303 52.53691,22.5813733 12.29344,8.848291 21.12564,21.514712 30.22211,33.413889 22.51472,33.012966 37.70156,70.354947 49.47324,108.381667 8.62145,30.12717 16.24849,60.87172 17.42051,92.32107 -1.06048,7.37964 -4.27229,13.56088 -10.06354,18.30529 -6.51558,7.60565 -17.06438,10.16529 -25.83547,14.41456 -15.14297,4.88779 -30.73779,7.99624 -46.4411,10.4513 -10.30697,9.88779 -19.84988,20.77651 -33.04462,26.88138 -27.04463,14.00717 -57.68948,20.01944 -87.98448,21.07619 -15.15358,1.15573 -30.46265,0.61297 -45.53578,-1.28983 z m 36.1352,-34.24475 c 6.81455,-2.45285 12.95245,-8.35662 16.75219,-13.88266 2.67088,-7.20377 -7.0989,-11.75392 -10.93581,-5.22869 -5.08192,5.32576 -10.69465,9.70363 -18.21274,10.67911 -9.05016,2.70504 -18.69926,-1.62709 -26.81212,-5.27137 -4.12373,-4.31871 -11.62964,-7.77075 -15.47303,-1.2861 -1.4596,7.95566 9.69548,10.63545 14.95785,14.62391 8.77749,3.31407 17.8161,4.37912 27.12101,3.15044 4.53651,0.16797 8.66492,-0.38405 12.60265,-2.78464 z m -143.70652,-6.97611 c 6.73693,-2.53832 -1.83117,-12.83839 9.80864,-9.10446 7.1165,0.59535 9.70387,-4.72183 15.48379,-1.21581 6.44345,-4.7785 15.40075,-8.22884 19.66508,-14.69857 0.57425,-10.13854 -9.61281,-17.8843 -18.91089,-19.55239 -9.67526,-2.60694 -20.29219,-0.0976 -30.18487,0.40195 -7.51976,-0.34087 -7.19633,8.16451 -12.90976,9.73548 -6.29146,-12.40153 -9.05309,-26.17293 -7.67356,-40.01969 0.23356,-13.73547 5.1276,-27.03532 8.56277,-40.26161 5.53357,-15.75957 8.76074,-32.81314 17.32479,-47.1944 32.75361,4.59932 65.73428,7.96111 98.73051,9.88821 36.91376,-0.25192 73.89243,0.58589 110.76559,-0.34772 7.85269,-0.36868 16.40337,-3.10577 23.83002,-2.0288 5.34449,5.21476 5.80538,14.07483 8.00135,21.12471 4.40803,25.67945 10.22373,51.30599 12.14811,77.28413 0.98406,7.6096 -11.52026,2.74493 -16.50815,4.83159 -6.32201,1.06121 -12.69865,5.05568 -17.51071,9.18205 -4.90483,4.53576 -7.98236,11.70898 -6.23139,17.96506 8.09782,9.82334 22.55673,6.08469 33.84999,6.94001 8.41217,-1.59042 13.71309,0.76629 13.62394,9.96111 5.09621,2.70431 13.474,-0.83051 19.74412,-1.41828 20.01254,-3.52399 40.48922,-8.05572 58.15378,-18.35765 7.00733,-6.05532 16.38075,-12.73493 14.09307,-23.33155 0.13203,-23.31934 -4.97468,-46.11945 -10.76189,-68.58971 C 533.81199,158.20846 523.501,129.19761 510.78931,101.39592 498.80568,76.446437 484.19484,52.338127 464.70775,32.56876 452.92796,21.542675 439.85622,11.545791 424.10926,7.1250855 398.1494,1.1272006 371.38434,-2.0452465 344.79512,-4.0913697 321.58022,-2.9748318 298.02304,-5.1636002 275.29063,0.61219289 248.92353,6.8499227 224.39928,20.386459 205.27451,39.620436 c -21.35578,20.097853 -38.70918,44.314406 -52.89552,69.926504 -10.90822,20.18678 -19.64386,41.50475 -26.22811,63.45908 -10.40725,36.87354 -15.55275,75.23988 -14.33257,113.56426 -1.00664,7.808 10.06086,6.96578 15.0224,9.5599 22.22111,6.64106 45.48034,14.22896 68.7845,11.87392 0.84682,-0.438 1.69363,-0.87601 2.54043,-1.31401 z m 9.95526,-15.66875 c 7.4609,-5.76617 -4.5721,7.4397 0,0 z m 238.0412,-7.41744 c 1.3919,-2.63572 1.51656,2.51591 0,0 z m -257.75005,-1.8237 c 1.13623,-4.25926 6.72711,3.68068 0,1.2158 v -1.1398 z m 251.22135,0.256 c 1.19073,-4.57505 15.59641,-5.64955 6.5287,-9.32835 2.11256,-3.82504 12.37599,-3.20489 15.8453,-4.75778 5.10924,2.67372 3.83188,13.06995 -2.71115,12.44936 3.81047,-7.87692 -1.03697,-12.17756 -7.9604,-6.30632 2.26966,-4.34867 11.24619,12.947 2.78646,2.80782 -6.17353,-3.06681 -7.69321,8.25815 -13.77731,6.09507 h -0.11842 z m -11.70833,-2.53874 c 3.1295,-8.92399 9.29066,2.55733 0,1.0669 z m -243.97096,-0.9594 c 5.19947,-1.71471 -1.0329,3.86143 0,0 z M 389.0194,146.96376 c -10.78021,-3.33775 -20.36539,-10.86835 -23.42677,-22.10537 -2.8473,-7.36395 -0.69538,-15.81067 -1.46419,-23.6248 4.27458,-11.329488 12.66359,-20.986726 24.29902,-25.00376 8.66804,-5.510733 19.45037,-1.933344 29.16336,-2.952393 10.87185,4.985968 21.36996,12.593777 24.95602,24.513865 3.88564,6.796848 3.81659,15.567968 3.32332,22.933488 -4.44969,8.55774 -0.31788,-8.60642 -0.71497,-12.19582 -3.00329,-9.406729 -8.15832,-18.74026 -16.11707,-24.529435 -7.65629,-4.145119 -15.59355,-7.138594 -24.44755,-6.374329 -10.36483,-1.639497 -20.32398,3.897144 -26.78491,11.745086 -4.85622,4.597179 -7.59534,12.035638 -8.3812,18.495338 -0.15594,9.07041 1.97808,17.50511 6.86496,25.17558 4.04774,7.92749 14.55114,10.97999 22.89684,11.34879 12.25347,0.2407 26.98508,-7.06309 27.52308,-20.6698 0.57158,-6.96715 -0.15578,-13.67386 -3.67932,-19.81988 3.95817,0.03 7.60898,8.5106 7.29719,13.57158 0.0355,7.28798 -2.39544,15.3113 -8.60049,19.80571 -6.10074,8.42582 -16.21269,10.93299 -26.10277,10.49001 -2.33805,0.37053 -4.45893,0.26626 -6.60455,-0.80386 z m -1.02065,-27.55034 c -4.19529,-8.4668 -0.0452,-19.39899 8.82362,-22.92175 6.56084,-5.801005 17.92419,-3.728524 23.67718,2.151362 3.69839,7.745708 -8.44832,-3.50906 -12.15906,-1.456409 -6.78752,1.571059 -16.15853,0.777736 -17.83941,9.508037 -4.62643,3.22021 2.53836,16.37105 -1.56395,14.77825 l -0.4726,-1.03721 z m 21.11934,1.52452 c -1.13702,-11.40662 4.37165,6.81855 0,0 z m -164.38195,132.7536 c 6.77423,-3.66638 10.57768,-13.72012 6.52286,-20.92121 -3.21363,-5.73978 -11.81576,-8.83475 -17.90801,-6.15286 -6.02483,3.74119 -3.56142,12.58101 -2.72281,18.4379 1.34509,5.78729 7.84293,13.08817 14.10796,8.63617 z m 153.98858,-2.09825 c 7.74763,-6.05194 7.39179,-19.97621 -2.10234,-24.32881 -4.69276,-2.61643 -12.2059,-2.62564 -15.29391,2.63235 -2.18536,6.15477 -0.36527,14.34908 2.61896,20.17324 3.51816,5.39032 10.71682,7.65579 14.77729,1.52322 z M 224.69843,201.69602 c 6.20453,-3.94567 12.81896,-8.76416 20.55858,-7.45357 5.87692,-5.04083 2.18165,-13.69465 -5.85671,-10.24964 -10.01223,-1.57313 -18.83466,4.41616 -25.4564,11.34925 -2.23134,7.08407 5.65004,11.63576 10.75453,6.35396 z m 198.30789,-3.13135 c 5.04153,-6.43221 -3.98592,-10.13859 -9.08607,-12.20304 -6.11193,-3.29882 -13.22475,-3.91703 -19.79296,-5.99382 -5.46484,2.23104 -6.0771,12.07057 0.9704,12.1545 8.82113,2.569 17.01468,8.24411 26.45063,7.79915 0.486,-0.58559 0.972,-1.1712 1.458,-1.75679 z"
       id="path34" /><path
       style="fill:#932539;stroke-width:1.2158"
       d="m 308.80593,315.16721 c -8.32294,-1.90594 -16.11836,-6.46323 -21.91391,-12.71837 -1.32249,-7.55996 9.4304,-9.92922 13.43002,-4.21385 6.4523,4.83738 15.05807,6.98354 22.95144,7.86125 8.84893,-0.29833 17.53,-3.74254 23.35513,-10.58843 2.82415,-5.77443 13.30744,-5.50485 11.99574,2.16613 -0.30147,6.47079 -8.36895,10.55685 -13.11712,14.3843 -9.33881,5.78523 -20.63111,4.5602 -31.09364,4.68141 -1.86922,-0.52414 -3.73844,-1.0483 -5.60766,-1.57244 z m -141.00311,-8.55446 c -18.32774,-3.196 -36.41777,-8.58467 -53.79551,-14.85309 -4.68848,-4.3794 -1.0407,-12.74439 -2.1869,-18.81737 -0.28008,-36.41407 6.25211,-72.65498 16.498,-107.50162 7.88908,-22.6335 17.08211,-44.83428 29.54796,-65.36889 12.33957,-21.048061 27.31637,-40.766244 44.65815,-57.91484 18.32313,-18.486356 40.95701,-33.034716 66.25859,-39.6984422 17.56867,-5.6486165 36.03209,-6.1088268 54.33044,-6.0973909 22.77312,-1.5123338 45.45915,1.378739 67.96136,4.62218283 15.42275,2.73655777 31.25951,3.95489367 45.52318,10.94198927 12.92464,6.599325 24.42274,16.422106 34.26784,27.051049 18.81861,21.514761 33.03162,46.566826 44.62604,72.569282 16.49259,39.51262 29.03111,80.8191 35.47048,123.17258 -0.13601,9.76809 2.19749,19.96529 0.50088,29.46222 -2.42208,7.83453 -10.14067,12.62324 -16.35158,17.3249 -21.29135,11.05627 -45.30222,15.17082 -68.76387,18.92997 -7.82357,2.88119 -7.10671,-5.49399 -8.75463,-10.75239 -13.83036,-0.89347 -28.20897,2.03686 -41.44106,-3.02918 -6.04335,-3.84853 -4.64587,-12.4607 -0.96642,-17.44028 4.18022,-7.11673 12.1115,-10.51728 19.29724,-13.5591 5.55238,-1.65561 16.39041,1.57701 18.34052,-3.41005 -0.85865,-20.16304 -5.44845,-40.05691 -8.71147,-59.96342 -2.53418,-12.95476 -3.98123,-26.76315 -9.73989,-38.56479 -4.66071,-4.57003 -12.05577,0.13799 -17.93149,-0.30935 -23.46517,2.77523 -47.22278,0.6399 -70.81458,1.28877 -27.7213,-0.10224 -55.49377,0.90807 -83.05113,-2.75867 -21.16472,-1.64142 -42.2278,-4.19092 -63.24435,-7.15613 -9.20548,15.81647 -12.64318,34.46379 -18.73997,51.6864 -3.6848,14.69611 -8.51968,29.34153 -7.2479,44.68936 -0.70792,10.86316 3.4253,21.32823 7.77387,31.09993 5.62604,-1.77166 5.49654,-10.16007 13.11621,-9.8103 9.47248,-0.42218 19.54471,-2.62357 28.85971,-0.68494 8.92164,1.54277 17.305,7.43002 20.0296,16.16066 1.53894,7.77064 -8.33259,10.14647 -13.176,14.29549 -4.75243,6.39421 -10.13115,1.80902 -13.92198,3.53169 -3.27479,5.11592 -15.41011,-1.75215 -15.3314,3.97495 3.83339,6.93506 -6.26159,9.45 -11.53273,8.72322 -7.21742,0.017 -14.31374,-0.0186 -21.35721,-1.8344 z M 412.21299,144.95418 c 6.32366,-3.05339 11.13768,-9.12932 15.40444,-14.37366 3.28805,-8.32994 4.65711,-18.72155 -2.18228,-25.66515 -5.49576,-4.40935 3.38159,8.63233 1.27411,12.15134 1.66186,10.07375 -3.39965,20.80968 -13.34212,24.27511 -10.84546,5.15174 -24.51409,3.59788 -33.97619,-3.964 -4.08953,-4.94679 -7.354,-11.84447 -9.05258,-18.12649 -0.8093,-7.65305 -2.06728,-15.37517 2.37819,-22.219357 2.24429,-6.935458 9.08669,-11.358303 14.28568,-15.933768 7.5947,-4.166784 15.84179,-4.082067 24.22054,-3.139334 7.43915,-0.09568 14.34668,4.417386 20.566,7.841364 7.58238,8.718845 15.58822,19.540885 12.51543,31.716305 -2.74457,11.80065 4.08127,1.91694 1.67288,-4.28764 0.56501,-9.58101 -4.37139,-18.192472 -8.86597,-26.182273 -7.66231,-7.317901 -16.84803,-15.644504 -28.24258,-13.772509 -7.81437,-0.05021 -15.85448,-1.070721 -22.48635,3.961995 -10.99312,4.045776 -19.05574,14.131219 -22.24614,25.087157 0.3781,9.7682 -1.58702,20.04393 4.18175,28.64456 4.37232,9.54226 15.06176,14.81836 24.82922,16.95197 6.29657,-1.02298 13.55648,0.74169 19.06597,-2.96562 z m -22.60143,-28.63749 c -2.01317,-6.09525 1.27329,-12.85119 5.9272,-16.71456 7.16086,-0.665287 14.88663,-5.264472 21.15566,0.280862 9.45998,5.719278 2.05888,-6.150244 -3.81204,-5.757722 -6.1977,-2.001819 -13.09966,-1.113371 -17.91922,3.597898 -9.31154,3.978052 -11.108,17.874722 -5.02662,24.786962 1.17367,-0.6208 -0.48247,-4.61986 -0.32498,-6.19344 z m 20.79185,1.64033 c -5.32244,-1.14386 2.28947,11.09025 0,0 z M 235.97043,253.04996 c -7.50306,-4.96844 -6.26526,-15.24165 -6.22111,-23.17239 4.76168,-6.68055 14.03643,-4.52762 19.54028,0.11575 5.51052,5.51957 4.21538,14.84149 -0.6277,20.60957 -2.15294,3.51716 -9.457,6.55005 -12.69147,2.44702 z m 150.05422,-0.90163 c -5.75768,-5.26766 -5.61182,-14.10208 -5.5169,-21.43182 3.16827,-5.43767 9.58121,-5.92201 14.94875,-4.24806 7.83922,3.43311 11.00867,12.87832 7.06469,20.38813 -2.68508,4.92048 -8.51355,10.91837 -14.38416,7.40489 -0.70413,-0.70438 -1.40825,-1.40876 -2.11238,-2.11314 z m -169.9531,-49.49265 c -5.99658,-3.78454 0.36763,-10.65383 4.55926,-13.52648 5.93075,-3.76608 12.18024,-6.25392 19.32724,-5.14222 7.01395,-3.00254 10.91619,4.56258 6.05519,9.34435 -4.96243,1.28036 -11.18709,1.12759 -15.88731,4.97845 -4.7625,1.64864 -8.72582,8.71278 -14.05438,4.3459 z m 189.36118,-6.2532 c -4.61915,-3.28561 -15.42422,-2.34872 -15.19753,-9.02613 -1.42808,-7.48307 7.1676,-7.58085 11.97642,-4.91149 7.77413,1.24841 14.48273,5.35053 21.45814,8.73808 3.1253,6.67461 -3.36997,11.5037 -9.53154,8.46236 -2.90184,-1.08761 -5.80366,-2.17521 -8.70549,-3.26282 z"
       id="path33" /></g></svg>
