<?xml version="1.0" encoding="UTF-8" standalone="no"?>
<svg
   viewBox="0 0 512 512"
   version="1.1"
   id="svg1"
   sodipodi:docname="family-old-female.svg"
   inkscape:version="1.3 (0e150ed, 2023-07-21)"
   xml:space="preserve"
   xmlns:inkscape="http://www.inkscape.org/namespaces/inkscape"
   xmlns:sodipodi="http://sodipodi.sourceforge.net/DTD/sodipodi-0.dtd"
   xmlns="http://www.w3.org/2000/svg"
   xmlns:svg="http://www.w3.org/2000/svg"><defs
     id="defs1" /><sodipodi:namedview
     id="namedview1"
     pagecolor="#ffffff"
     bordercolor="#666666"
     borderopacity="1.0"
     inkscape:showpageshadow="2"
     inkscape:pageopacity="0.0"
     inkscape:pagecheckerboard="0"
     inkscape:deskcolor="#d1d1d1"
     inkscape:zoom="0.35355339"
     inkscape:cx="476.58997"
     inkscape:cy="473.76154"
     inkscape:window-width="1366"
     inkscape:window-height="717"
     inkscape:window-x="0"
     inkscape:window-y="27"
     inkscape:window-maximized="1"
     inkscape:current-layer="g42"
     showgrid="false" /><!--!Font Awesome Free 6.5.1 by @fontawesome - https://fontawesome.com License - https://fontawesome.com/license/free Copyright 2024 Fonticons, Inc.--><g
     id="g33"
     transform="translate(-80.082976,64.183922)"><g
       id="g37"
       transform="translate(4.0936885,0.61828602)"><g
         id="g40"
         transform="translate(57.153421,-7.1254469)"><g
           id="g42"
           transform="translate(4.2319385,-17.10444)"><g
             id="g45"
             transform="translate(28.302487,-12.103161)"><path
               style="fill:#e5b38d"
               d="m 249.29948,444.10733 -12.39978,-0.76261 -7.10022,-1.11861 -7.10021,-1.11861 -5,-1.08031 -5,-1.08031 -11,-2.94281 -11,-2.94282 -5.23869,-1.90509 -5.2387,-1.90509 -7.17813,-3.61484 -7.17812,-3.61485 -8.91443,-5.51424 -8.91443,-5.51424 -6.16875,-5.02624 -6.16875,-5.02624 -6.75,-7.05658 -6.75,-7.05658 v -0.81505 -0.81504 l -5.5,-5.98263 -5.5,-5.98262 v -0.7856 -0.7856 l -3.93218,-5.23324 -3.93218,-5.23324 -2.70223,-5.73985 -2.702216,-5.73985 -0.75622,-0.5 -0.756221,-0.5 -2.210344,-4.25 -2.210343,-4.25 h -7.932277 -7.932277 l -4.836495,-2.45084 -4.836495,-2.45083 -2.678059,-3.1827 -2.678059,-3.18269 -1.89922,-3.72277 -1.899219,-3.72278 -5.881611,-0.53333 -5.881611,-0.53332 -5.611525,-2.65468 -5.611526,-2.65468 -5.033431,-5.50737 -5.033432,-5.50738 -3.000276,-6.28651 -3.000277,-6.28652 -1.511357,-6.4118 -1.511357,-6.4118 -0.01478,-8.5399 -0.01478,-8.5399 1.549908,-5.9505 1.549908,-5.9505 2.197284,-4.39963 2.197284,-4.39964 3.861078,-4.38641 3.861077,-4.38642 4.381375,-3.01446 4.381375,-3.01447 6.509804,-2.45028 6.509803,-2.45029 5.528669,-0.64978 5.528669,-0.64979 0.442204,-0.7155 0.442203,-0.7155 -3.905024,-3.13816 -3.905025,-3.13817 -3.014907,-6.25535 -3.014907,-6.25535 -0.625242,-5.5 -0.625242,-5.5 1.497916,-7.13903 1.497916,-7.13903 1.996369,-3.9132 1.996368,-3.91321 4.645749,-5.16719 4.645749,-5.16719 6.597981,-3.24817 6.59798,-3.24818 8.334179,-0.0324 8.334179,-0.0324 0.0027,-0.62288 0.0027,-0.62288 -2.192691,-4.87712 -2.192691,-4.87712 -0.01919,-7 -0.01919,-7 2.932979,-5.36422 2.932979,-5.36422 4.108572,-3.36666 4.10856,-3.36666 4.64406,-2.05429 4.64407,-2.05429 6.39166,-0.59686 6.39166,-0.59687 5.04695,1.21075 5.04694,1.21074 7.75836,4.42129 7.75836,4.42129 h 0.15545 0.15545 l -2.27249,-6.75 -2.2725,-6.749998 -0.64318,-6 -0.64318,-6 1.13187,-6.5 1.13187,-6.5 3.13255,-6.5 3.13254,-6.5 6.07512,-6.083404 6.07512,-6.083404 8.5,-4.17244 8.5,-4.172441 7.90996,-1.994155 7.90996,-1.994156 h 9.61014 9.61014 l 7.3009,2.023183 7.3009,2.023182 6.83578,3.442445 6.83578,3.442445 6.1762,5.139888 6.17621,5.139889 4.37855,5.644484 4.37855,5.644484 1.5392,2 1.5392,2 1.15757,-1.944083 1.15757,-1.944083 3.8396,-4.165475 3.8396,-4.165475 5.99837,-3.197097 5.99837,-3.197096 9.75372,-2.554921 9.75373,-2.55492 14.5,-0.07261 14.5,-0.0726 8.75576,2.166797 8.75577,2.166798 3.74423,1.919965 3.74424,1.919966 7.17582,6.347418 7.17581,6.347417 3.19367,4 3.19367,4 2.2244,3.5 2.2244,3.5 2.2822,6.883886 2.2822,6.883885 -0.54222,5.253596 -0.54222,5.2536 -1.70216,3.36251 -1.70216,3.36252 -4.95038,5.75 -4.95038,5.75 8.81868,0.0237 8.81867,0.0237 5.83503,2.39919 5.83503,2.39919 4.10761,2.82708 4.10761,2.82707 5.08585,5 5.08586,5 3.95891,7.5 3.95892,7.5 -0.0138,7 -0.0138,7 -1.68042,3.11683 -1.68043,3.11682 -3.54318,4.64183 -3.54319,4.64183 v 0.49135 0.49134 l 4.25,0.0326 4.25,0.0326 5.13186,1.7737 5.13187,1.77369 5.7218,3.44366 5.72179,3.44366 5.22052,5 5.22053,5 2.69802,4.08275 2.69802,4.08276 2.04968,10.41724 2.04967,10.41725 -0.40148,15 -0.40147,15 -2.59321,6.87925 -2.5932,6.87925 -3.78089,5.48968 -3.78088,5.48968 -5.3796,3.97414 -5.37961,3.97415 -4.27564,1.89132 -4.27564,1.89132 -5.39107,1.37775 -5.39107,1.37776 -0.63432,5.0849 -0.63433,5.08491 -3.59141,6.42203 -3.5914,6.42204 -2.27427,1.54095 -2.27427,1.54094 -3.13627,2.92972 -3.13627,2.92972 -4.21479,2.19687 -4.21479,2.19687 -3.57226,0.74221 -3.57227,0.7422 -1.57668,4.52916 -1.57667,4.52915 -2.75,4.62009 -2.75,4.62008 v 0.74627 0.74626 l -4.14431,8.07567 -4.14431,8.07566 -3.43254,5.38956 -3.43254,5.38955 -10.17315,10.19248 -10.17315,10.19249 -9.63195,5.65682 -9.63195,5.65682 -6.86805,3.08544 -6.86805,3.08545 -5,1.33292 -5,1.33292 -7.5,2.04462 -7.5,2.04461 -10,1.0022 -10,1.0022 -8,0.37366 -8,0.37367 z m 75.39979,-13.88681 2,-1.84576 2.5,0.48787 2.5,0.48786 4.5,-3.04978 4.5,-3.04977 1.25,-0.0182 1.25,-0.0182 v -1.40498 -1.40497 l 4.44832,-2.60689 4.44831,-2.60689 0.57386,-0.92852 0.57386,-0.92852 -2.1994,-2.04905 -2.1994,-2.04906 0.68117,-0.68117 0.68117,-0.68117 2.38821,2.24362 2.38822,2.24361 1.35784,-1.9143 1.35784,-1.91431 2.5,-1.3084 2.5,-1.30841 0.78296,-1.10029 0.78296,-1.1003 -0.57563,-5.01563 -0.57564,-5.01563 2.10229,-2.25654 2.10229,-2.25655 0.69038,0.31933 0.69039,0.31933 2.68254,1.33572 2.68254,1.33572 1.56746,-0.60149 1.56746,-0.60149 v -2.54495 -2.54496 l -1.22496,-1.96147 -1.22496,-1.96147 1.28724,-1.27496 1.28724,-1.27496 1.01844,1.80545 1.01844,1.80545 1.40827,-1.16875 1.40827,-1.16876 -0.57954,-0.93772 -0.57955,-0.93772 3.17905,-3.25136 3.17904,-3.25135 1.99836,-5.94762 1.99835,-5.94762 1.41316,-1.57874 1.41315,-1.57874 v -2.67126 -2.67126 h 1.46482 1.46481 l 1.03412,-1.93227 1.03413,-1.93228 2.25106,-0.66837 2.25106,-0.66838 5.25,-2.5167 5.25,-2.5167 v -0.93061 -0.93062 l 2.75,-2.50272 2.75,-2.50272 2.75,-1.04714 2.75,-1.04714 v -1.24719 -1.24718 l 1.97765,-1.78975 1.97764,-1.78974 0.0732,-2.11524 0.0732,-2.11525 0.30763,-4.11656 0.30763,-4.11655 0.65893,-1.06617 0.65892,-1.06616 5.73257,-1.16259 5.73256,-1.16258 4.4352,-1.93039 4.43521,-1.93039 5.14476,-3.41489 5.14476,-3.4149 3.62672,-4.01435 3.62673,-4.01435 2.01146,-3.9428 2.01147,-3.9428 2.03184,-7.33216 2.03185,-7.33216 V 256.0201 243.28546 l -1.95768,-10.09895 -1.95768,-10.09895 -2.0977,-3.39415 -2.0977,-3.39414 -7.07918,-6.55425 -7.07919,-6.55424 -7.32154,-3.6185 -7.32153,-3.6185 -7.0439,-0.50398 -7.0439,-0.50399 v -0.63397 -0.63396 l 4.08184,-4.93959 4.08184,-4.93959 1.64177,-3.04208 1.64177,-3.04208 0.0166,-7 0.0166,-7 -3.45978,-6.5 -3.45977,-6.5 -7.0304,-7.09227 -7.0304,-7.09227 -7,-3.38864 -7,-3.38864 -10.96451,-0.51909 -10.9645,-0.51909 6.20142,-6.83639 6.20142,-6.8364 1.51309,-5.0951 1.51308,-5.09511 v -2.64417 -2.644167 l -2.5559,-7.42433 -2.5559,-7.424331 -3.43534,-5.060463 -3.43534,-5.060463 -8.76463,-8.037611 -8.76462,-8.03761 -3.21936,-1.664794 -3.21936,-1.664794 -8.77477,-2.139439 -8.77478,-2.139439 -13.5,-0.0032 -13.5,-0.0032 -7.90767,1.728512 -7.90767,1.728513 -5.33154,1.994785 -5.33154,1.994785 -4.76079,3.249088 -4.76079,3.249088 -3.3415,4.9331 -3.34149,4.933099 h -0.7665 -0.7665 l -6.03499,-8 -6.03498,-8 -5.85702,-4.780252 -5.85702,-4.780252 -7.71312,-3.893333 -7.71313,-3.893333 -7.68966,-1.710787 -7.68966,-1.710788 -10.59722,0.51339 -10.59721,0.51339 -8,2.696794 -8,2.696794 -5.86828,3.126559 -5.86829,3.126558 -5.77948,5.690443 -5.77947,5.690443 -3.06073,6.413163 -3.06072,6.413164 -1.18806,7.194024 -1.18807,7.194023 1.19289,7.25 1.1929,7.250001 2.45366,5.37085 2.45365,5.37084 v 0.37916 0.37915 h -1.06982 -1.06983 l -4.46181,-3.06981 -4.46182,-3.0698 -5.71836,-2.66447 -5.71836,-2.66447 -9,-0.0157 -9,-0.0157 -5.62454,2.76217 -5.62454,2.76216 -4.566856,4.88235 -4.56686,4.88234 -1.645092,5.65892 -1.645092,5.65891 0.694638,5.05063 0.694638,5.05062 2.879615,5.47423 2.879615,5.47424 -6.439472,-0.68961 -6.439473,-0.68961 -5.298291,1.24709 -5.29829,1.24709 -3.918401,1.97047 -3.9184,1.97047 -4.75171,4.8784 -4.751709,4.8784 -2.516501,5.31945 -2.516502,5.31945 -1.178932,6.76993 -1.178933,6.76993 1.210212,6.15139 1.210212,6.15139 1.810673,3.54921 1.810674,3.54922 5.116362,4.78575 5.116362,4.78576 -0.489491,0.79201 -0.489491,0.79202 -6.348214,0.5928 -6.348214,0.59281 -5.933998,2.19191 -5.933999,2.1919 -6,4.12669 -6,4.12669 -4.228711,6.29498 -4.228711,6.29497 -1.652895,5.19124 -1.652895,5.19123 -0.460697,10 -0.460698,10 1.576359,6.74331 1.57636,6.7433 3.446116,6.84307 3.446116,6.84307 4.464062,4.59319 4.464062,4.59318 5.186142,2.62802 5.186142,2.62801 7.436477,0.83397 7.436478,0.83397 1.483146,1.2309 1.483147,1.2309 v 1.3545 1.35451 l 2.404802,1.57568 2.404802,1.57569 0.58917,2.34744 0.58917,2.34744 3.155251,1.09993 3.155251,1.09992 h 3.212462 3.212461 l 6.388315,-2.87492 6.388316,-2.87492 6.83906,-0.71421 6.83905,-0.71421 8.41177,2.73631 8.41178,2.73631 4.30317,4.60282 4.30317,4.60282 3.30935,8 3.30934,8 0.81221,1.01276 0.8122,1.01275 -1.48332,6.48725 -1.48332,6.48724 -0.56973,2.5 -0.56974,2.5 -1.64047,2 -1.64048,2 -2.21887,3.19172 -2.21887,3.19173 1.55828,1.55827 1.55828,1.55828 h 0.86118 0.86118 l 0.58086,1.75 0.58086,1.75 3.23653,1.5 3.23653,1.5 0.29476,2.06084 0.29476,2.06083 2.95746,1.74701 2.95745,1.74701 2.24778,0.41626 2.24779,0.41626 2.56823,2.7759 2.56824,2.77589 4.12312,3.25 4.12313,3.25 h 2.90365 2.90365 l 1.80998,2 1.80997,2 h 2.72839 2.72838 l 0.52301,2 0.52301,2 h 2.51258 2.51258 l 2.88724,1.65705 2.88724,1.65705 2.48044,-0.62255 2.48043,-0.62255 1.14654,-3.2845 1.14653,-3.2845 1.11499,-4.5 1.11499,-4.5 2.0619,-5 2.06191,-5 1.41527,-1.60673 1.41526,-1.60673 2.05838,-5.85646 2.05838,-5.85646 1.91629,-2.69118 1.91629,-2.69118 v -2.1987 -2.1987 l 4.5712,-5.08427 4.5712,-5.08428 1.54296,-3.06265 1.54296,-3.06266 2.57293,-2.75 2.57293,-2.75 h 1.29386 1.29386 l 0.68274,2.72029 0.68275,2.72028 1.96046,3.32273 1.96046,3.32273 3.94424,2.0122 3.94423,2.0122 4.68161,0.55261 4.68161,0.55261 4.22677,-1.14011 4.22677,-1.14011 2.45482,-4.21772 2.45482,-4.21771 0.63116,-3 0.63115,-3 0.45966,-2.26337 0.45967,-2.26337 2.97759,2.20143 2.97759,2.20143 v 1.76225 1.76225 l 1.29662,0.79969 1.29662,0.79969 4.22767,6.76396 4.22768,6.76395 6.01583,12.18434 6.01584,12.18433 2.57779,7.55171 2.57779,7.55171 1.38208,1.57874 1.38208,1.57874 v 2.80659 2.80659 l 2.49036,2.30799 2.49037,2.308 -0.65479,1.70635 -0.65479,1.70635 2.91442,-0.7238 2.91443,-0.72381 z m 20.5,-25.00598 v -1.33333 l 0.66667,0.66667 0.66666,0.66666 -0.66666,0.66667 -0.66667,0.66667 z m 9.55875,0.0951 -0.66699,-1.07921 0.98687,-1.75792 0.98687,-1.75792 0.70003,1.81722 0.70003,1.81722 -1.01991,1.01991 -1.01991,1.01992 z m -83.55875,13.33785 5.5,-2.54756 4.33252,-4.19267 4.33252,-4.19267 1.91748,-3.71016 1.91748,-3.71016 v -1.85128 -1.85127 l -2.14367,-2.30097 -2.14367,-2.30096 -4.10633,0.54671 -4.10633,0.5467 -1.5,2.13674 -1.5,2.13675 -2.90532,3.48787 -2.90532,3.48786 -3.80484,1.94109 -3.80484,1.94108 -3.78984,-0.0234 -3.78984,-0.0234 -4.92893,-2.72664 -4.92893,-2.72664 -3.41087,-6.25 -3.41087,-6.25 h -4.9102 -4.9102 l -2,2 -2,2 v 2.54966 2.54966 l 1.41268,2.73182 1.41268,2.73182 4.862,4.54783 4.862,4.54783 2.59172,1.69817 2.59173,1.69816 5.38359,1.93645 5.3836,1.93645 7.5,0.0263 7.5,0.0263 z m 97,-21.4329 v -1 h -1 -1 v 1 1 h 1 1 z m -236.64628,-15.86595 1.87205,-3.2054 0.52007,-8.33608 0.52007,-8.33608 -3.02772,-6.37824 -3.02772,-6.37825 -2.36769,-2.20115 -2.36769,-2.20116 -4.82023,-2.13221 -4.82022,-2.13221 -7.27572,-0.55026 -7.275712,-0.55027 -0.698114,1.12958 -0.698114,1.12957 1.310361,2.73398 1.310359,2.73398 5.11095,0.18472 5.11095,0.18472 5.00847,2.53798 5.00848,2.53799 2.33654,3.79737 2.33653,3.79737 1.29594,4 1.29594,4 -0.6311,5.5 -0.6311,5.5 -0.94404,1.81392 -0.94405,1.81393 1.21948,1.46938 1.21948,1.46938 1.09075,-0.36358 1.09075,-0.36358 z m -13.21729,-12.71818 -0.23531,-4.54573 -0.93263,-2.453 -0.93262,-2.453 -2.56204,-0.97409 -2.56204,-0.97408 -2.50526,-0.62878 -2.50527,-0.62879 0.66931,2.8708 0.66931,2.8708 1.38006,1.11024 1.38006,1.11025 v 1.34759 1.3476 l 3.68502,3.7738 3.68503,3.77381 0.50084,-0.50084 0.50084,-0.50085 z"
               id="path48" /><path
               style="fill:#f0a377"
               d="m 317.52521,431.80754 0.65479,-1.70635 -2.49037,-2.308 -2.49036,-2.30799 v -2.80659 -2.80659 l -1.38208,-1.57874 -1.38208,-1.57874 -2.57779,-7.55171 -2.57779,-7.55171 -6.01584,-12.18433 -6.01583,-12.18434 -4.22768,-6.76395 -4.22767,-6.76396 -1.29662,-0.79969 -1.29662,-0.79969 v -1.76225 -1.76225 l -2.97759,-2.20143 -2.97759,-2.20143 -0.45967,2.26337 -0.45966,2.26337 -0.63115,3 -0.63116,3 -2.45482,4.21771 -2.45482,4.21772 -4.22677,1.14011 -4.22677,1.14011 -4.68161,-0.55261 -4.68161,-0.55261 -3.94423,-2.0122 -3.94424,-2.0122 -1.96046,-3.32273 -1.96046,-3.32273 -0.68275,-2.72028 -0.68274,-2.72029 h -1.29386 -1.29386 l -2.57293,2.75 -2.57293,2.75 -1.54296,3.06266 -1.54296,3.06265 -4.5712,5.08428 -4.5712,5.08427 v 2.1987 2.1987 l -1.91629,2.69118 -1.91629,2.69118 -2.05838,5.85646 -2.05838,5.85646 -1.41526,1.60673 -1.41527,1.60673 -2.06191,5 -2.0619,5 -1.11499,4.5 -1.11499,4.5 -1.14653,3.2845 -1.14654,3.2845 -2.48043,0.62255 -2.48044,0.62255 -2.88724,-1.65705 -2.88724,-1.65705 h -2.51258 -2.51258 l -0.52301,-2 -0.52301,-2 h -2.72838 -2.72839 l -1.80997,-2 -1.80998,-2 h -2.90365 -2.90365 l -4.12313,-3.25 -4.12312,-3.25 -2.56824,-2.77589 -2.56823,-2.7759 -2.24779,-0.41626 -2.24778,-0.41626 -2.95745,-1.74701 -2.95746,-1.74701 -0.29476,-2.06083 -0.29476,-2.06084 -3.23653,-1.5 -3.23653,-1.5 -0.58086,-1.75 -0.58086,-1.75 h -0.86118 -0.86118 l -1.55828,-1.55828 -1.55828,-1.55827 2.21887,-3.19173 2.21887,-3.19172 1.64048,-2 1.64047,-2 0.56974,-2.5 0.56973,-2.5 1.48332,-6.48724 1.48332,-6.48725 -0.8122,-1.01275 -0.81221,-1.01276 -3.30934,-8 -3.30935,-8 -4.30317,-4.60282 -4.30317,-4.60282 -8.41178,-2.73631 -8.41177,-2.73631 -6.83905,0.71421 -6.83906,0.71421 -6.388316,2.87492 -6.388315,2.87492 h -3.212461 -3.212462 l -3.155251,-1.09992 -3.155251,-1.09993 -0.609001,-2.42645 -0.609,-2.42645 -1.808998,-0.96815 -1.808998,-0.96815 -1.499411,-3.00564 -1.49941,-3.00564 2.328607,-0.58444 2.328608,-0.58444 1.970784,-2.16539 1.970784,-2.1654 1.181336,-5.5 1.181335,-5.5 0.442418,-2.17293 0.442418,-2.17292 2.589186,-3.07708 2.589185,-3.07707 h 2.830519 2.830519 l 5.438962,4.97091 5.438962,4.9709 2.706725,1.0291 2.706726,1.02909 h 5.04957 5.04957 l 4.88966,-2.66128 4.88966,-2.66129 2.40471,-3.15274 2.40471,-3.15274 2.81689,-6.43597 2.81689,-6.43598 -0.0251,-10.55614 -0.0251,-10.55614 5.34167,3.21658 5.34166,3.21659 5.09391,1.222 5.0939,1.22201 8.11365,-0.53064 8.11365,-0.53065 6.74387,-2.47546 6.74386,-2.47546 5.57774,-4.3032 5.57774,-4.30319 3.94616,-5.51075 3.94615,-5.51074 1.98224,-6.41774 1.98224,-6.41774 v -5.42912 -5.42912 l 5.95136,4.19701 5.95136,4.19702 7.79864,0.4353 7.79864,0.4353 5.78231,-2.1818 5.78231,-2.18179 4.17683,-3.18578 4.17683,-3.18577 4.04086,-5.1559 4.04086,-5.15589 0.5,-0.0546 0.5,-0.0546 3.24463,6.90803 3.24464,6.90804 4.75536,4.86721 4.75537,4.86721 5.44634,2.70495 5.44635,2.70495 h 9.60948 9.60949 l 6.16695,-2.08261 6.16695,-2.08261 6.27722,-4.01762 6.27722,-4.01762 3.13727,-2.98668 3.13727,-2.98667 0.4984,0.83691 0.4984,0.8369 0.68073,5.05049 0.68073,5.05049 2.18932,3.903 2.18933,3.90301 4.13391,3.15303 4.13391,3.15304 5.11037,0.67791 5.11036,0.67792 v 0.4988 0.4988 l -2.68314,5.21676 -2.68314,5.21675 -0.43375,9.19532 -0.43375,9.19532 1.1214,3.21684 1.1214,3.21684 -0.4413,0.4413 -0.4413,0.4413 -7.80343,-3.15077 -7.80343,-3.15077 -3.82296,0.64588 -3.82297,0.64589 -1.5967,3.34832 -1.59671,3.34833 0.94212,3.28499 0.94213,3.28499 3.1562,2.12696 3.1562,2.12697 9.4719,3.74829 9.47189,3.74829 3.48635,-1.15059 3.48635,-1.1506 1.18872,-2.86984 1.18873,-2.86984 3.38247,1.41329 3.38248,1.41329 h 4.90639 4.9064 l 4.13018,-1.45721 4.13018,-1.45722 1.42189,3.40305 1.42188,3.40304 5.29656,2.68397 5.29657,2.68397 9.65891,1.35002 9.65891,1.35002 2.67836,1.01831 2.67836,1.01831 -0.70166,1.13531 -0.70167,1.13532 -0.30763,4.11655 -0.30763,4.11656 -0.0732,2.11525 -0.0732,2.11524 -1.97764,1.78974 -1.97765,1.78975 v 1.24718 1.24719 l -2.75,1.04714 -2.75,1.04714 -2.75,2.50272 -2.75,2.50272 v 0.93062 0.93061 l -5.25,2.5167 -5.25,2.5167 -2.25106,0.66838 -2.25106,0.66837 -1.03413,1.93228 -1.03412,1.93227 h -1.46481 -1.46482 v 2.67126 2.67126 l -1.41315,1.57874 -1.41316,1.57874 -1.99835,5.94762 -1.99836,5.94762 -3.17904,3.25135 -3.17905,3.25136 0.57955,0.93772 0.57954,0.93772 -1.40827,1.16876 -1.40827,1.16875 -1.01844,-1.80545 -1.01844,-1.80545 -1.28724,1.27496 -1.28724,1.27496 1.22496,1.96147 1.22496,1.96147 v 2.54496 2.54495 l -1.56746,0.60149 -1.56746,0.60149 -2.68254,-1.33572 -2.68254,-1.33572 -0.69039,-0.31933 -0.69038,-0.31933 -2.10229,2.25655 -2.10229,2.25654 0.57564,5.01563 0.57563,5.01563 -0.78296,1.1003 -0.78296,1.10029 -2.5,1.30841 -2.5,1.3084 -1.35784,1.91431 -1.35784,1.9143 -2.38822,-2.24361 -2.38821,-2.24362 -0.68117,0.68117 -0.68117,0.68117 2.1994,2.04906 2.1994,2.04905 -0.57386,0.92852 -0.57386,0.92852 -4.44831,2.60689 -4.44832,2.60689 v 1.40497 1.40498 l -1.25,0.0182 -1.25,0.0182 -4.5,3.04977 -4.5,3.04978 -2.5,-0.48786 -2.5,-0.48787 -2,1.84576 -2,1.84576 -2.91443,0.72381 -2.91442,0.7238 z m 28.34073,-27.25966 -0.66667,-0.66667 v 1.33333 1.33334 l 0.66667,-0.66667 0.66666,-0.66667 z m 10.89886,-2.01612 -0.70003,-1.81722 -0.98687,1.75792 -0.98687,1.75792 0.66699,1.07921 0.66699,1.07922 1.01991,-1.01992 1.01991,-1.01991 z m -90.78135,-31.5794 2.28418,-1.11236 2.21582,-3.56273 2.21582,-3.56273 v -13.09668 -13.09668 l -1.18651,-2.40332 -1.18652,-2.40332 -0.95891,-5.5 -0.9589,-5.5 -2.04687,-5.328 -2.04688,-5.32801 -1.18015,-1.42199 -1.18015,-1.422 h -1.2427 -1.24269 l -2.57389,2.02462 -2.57388,2.02462 -2.54612,5.38205 -2.54611,5.38204 -2.96253,8.34334 -2.96252,8.34333 -1.16624,4.5 -1.16623,4.5 0.133,6.83507 0.133,6.83507 2.2309,3.92044 2.2309,3.92044 4,1.9944 4,1.9944 5,-0.57482 5,-0.57481 z m 84.21582,-20.07949 5.5,-1.25693 1.82952,-3.69475 1.82951,-3.69475 -1.14057,-3.45596 -1.14057,-3.45597 -3.326,-2.92026 -3.326,-2.92027 -9.6217,-2.28625 -9.62169,-2.28624 -2.54321,1.15876 -2.54321,1.15876 -1.51052,3.74777 -1.51051,3.74776 -1.43753,3.15113 -1.43752,3.15113 v 3.14433 3.14432 l 2.45455,2.45455 2.45454,2.45454 9.79546,-0.0424 9.79545,-0.0424 z m -167.26181,-2.50675 2.23819,-1.20931 0.529,-2.72113 0.52899,-2.72114 1.48282,-4.63421 1.48281,-4.63422 v -2.1927 -2.19271 l -2.92308,-2.92308 -2.92307,-2.92308 h -5.86683 -5.86682 l -5.9601,1.552 -5.9601,1.552 -4.01892,2.35473 -4.01891,2.35473 -1.73603,4.84327 -1.73603,4.84327 0.005,2.79546 0.005,2.79545 2.58017,2.58017 2.58018,2.58018 13.66982,-0.44518 13.66983,-0.44519 z m -35.65468,-53.6939 5.01703,-2.54232 6.65937,-0.62186 6.65936,-0.62186 2.29037,-2.29036 2.29036,-2.29037 v -3.93467 -3.93467 l -1.91165,-2.36078 -1.91164,-2.36079 h -7.33836 -7.33835 l -7.13895,2.24505 -7.13895,2.24506 -3.11105,2.90615 -3.11105,2.90616 v 4.28434 4.28434 l 2.17431,2.31445 2.17432,2.31445 h 3.35893 3.35893 z m 89.91649,121.04232 v -0.5 h 0.5 0.5 v 0.5 0.5 h -0.5 -0.5 z m 12,-9 v -0.5 h 0.5 0.5 v 0.5 0.5 h -0.5 -0.5 z m -2,-1 v -0.5 h 0.5 0.5 v 0.5 0.5 h -0.5 -0.5 z m -23,-2 v -0.5 h 0.5 0.5 v 0.5 0.5 h -0.5 -0.5 z m 64,-3 v -0.5 h 0.5 0.5 v 0.5 0.5 h -0.5 -0.5 z m 78,-3.5 v -1 h 1 1 v 1 1 h -1 -1 z m -90,-3.5 v -0.5 h 0.5 0.5 v 0.5 0.5 h -0.5 -0.5 z m -52,-2 v -0.5 h 0.5 0.5 v 0.5 0.5 h -0.5 -0.5 z m 11.40451,-0.65451 -0.71353,-1.1545 1.15451,0.71352 1.15451,0.71353 v 0.44098 0.44098 h -0.44098 -0.44099 z m -109.32382,-7.24826 -1.21948,-1.46938 0.94405,-1.81393 0.94404,-1.81392 0.6311,-5.5 0.6311,-5.5 -1.29594,-4 -1.29594,-4 -2.33653,-3.79737 -2.33654,-3.79737 -5.00848,-2.53799 -5.00847,-2.53798 -5.11095,-0.18472 -5.11095,-0.18472 -1.310359,-2.73398 -1.310361,-2.73398 0.698114,-1.12957 0.698114,-1.12958 7.275712,0.55027 7.27572,0.55026 4.82022,2.13221 4.82023,2.13221 2.36769,2.20116 2.36769,2.20115 3.02772,6.37825 3.02772,6.37824 -0.52007,8.33608 -0.52007,8.33608 -1.87205,3.2054 -1.87205,3.2054 -1.09075,0.36358 -1.09075,0.36358 z m -12.39567,-13.40775 -3.68502,-3.7738 v -1.3476 -1.34759 l -1.38006,-1.11025 -1.38006,-1.11024 -0.66931,-2.8708 -0.66931,-2.8708 2.50527,0.62879 2.50526,0.62878 2.56204,0.97408 2.56204,0.97409 0.93262,2.453 0.93263,2.453 0.23531,4.54573 0.2353,4.54573 -0.50084,0.50085 -0.50084,0.50084 z"
               id="path47" /><path
               style="fill:#c4735a"
               d="m 245.52812,419.28076 -5.17116,-1.86164 -4.32884,-3.00682 -4.32885,-3.00682 -3.09888,-3.34547 -3.09887,-3.34547 -1.65113,-2.4725 -1.65112,-2.47251 v -2.73854 -2.73854 l 2.18856,-2.03895 2.18856,-2.03896 h 4.26476 4.26475 l 1.59955,2.25 1.59955,2.25 2.83372,4.60589 2.83372,4.60589 4.42914,2.14411 4.42914,2.14411 h 3.72411 3.72412 l 3.80484,-1.94108 3.80484,-1.94109 3.13813,-3.80891 3.13813,-3.80892 1.49175,-1.72456 1.49176,-1.72457 2.52543,-0.63384 2.52544,-0.63384 2.31658,0.58142 2.31658,0.58142 1.29585,2.42132 1.29584,2.42131 -1.2541,3.79998 -1.25411,3.79998 -4.60832,4.95195 -4.60832,4.95195 -6,2.85295 -6,2.85295 -7.5,-0.0353 -7.5,-0.0353 z m 25.19464,-1.91742 6.0235,-2.84963 3.38339,-3.38339 3.38339,-3.3834 1.83938,-3.01619 1.83937,-3.01619 0.004,-3.21481 0.004,-3.21482 -2.05865,-1.10176 -2.05865,-1.10175 -2.97376,0.65314 -2.97376,0.65315 -3.99412,5.40664 -3.99412,5.40663 -3.93363,2.00679 -3.93363,2.00679 h -4.63871 -4.63871 l -3.37764,-1.60279 -3.37763,-1.60279 -3.27349,-3.7999 -3.2735,-3.79989 -2.01574,-3.34732 -2.01574,-3.34731 -2.33597,-0.33288 -2.33598,-0.33288 -2.43365,0.61081 -2.43366,0.61081 -1.00979,2.65594 -1.00979,2.65595 1.14149,2.75579 1.14148,2.75578 5.68273,5.42041 5.68273,5.4204 3.47095,1.80801 3.47094,1.808 4,1.26504 4,1.26503 6.5,0.0661 6.5,0.0661 z m -21.02349,-46.14338 -4,-1.9944 -2.2309,-3.92044 -2.2309,-3.92044 -0.133,-6.83507 -0.133,-6.83507 1.16623,-4.5 1.16624,-4.5 2.96252,-8.34333 2.96253,-8.34334 2.54611,-5.38204 2.54612,-5.38205 2.57388,-2.02462 2.57389,-2.02462 h 1.24269 1.2427 l 1.18015,1.422 1.18015,1.42199 2.04688,5.32801 2.04687,5.328 0.9589,5.5 0.95891,5.5 1.18652,2.40332 1.18651,2.40332 v 13.09668 13.09668 l -2.21582,3.56273 -2.21582,3.56273 -2.28418,1.11236 -2.28418,1.11237 -5,0.57481 -5,0.57482 z m 72.95455,-21.45996 -2.45455,-2.45455 v -3.14432 -3.14433 l 1.43752,-3.15113 1.43753,-3.15113 1.51051,-3.74776 1.51052,-3.74777 2.54321,-1.15876 2.54321,-1.15876 9.62169,2.28624 9.6217,2.28625 3.326,2.92027 3.326,2.92026 1.14057,3.45597 1.14057,3.45596 -1.82951,3.69475 -1.82952,3.69475 -5.5,1.25693 -5.5,1.25693 -9.79545,0.0424 -9.79546,0.0424 z m 28.77844,-0.66899 3.733,-0.9444 1.017,-1.90029 1.01701,-1.90029 v -3.08043 -3.08043 l -3.25,-3.52912 -3.25,-3.52911 -7.5,-1.93906 -7.5,-1.93906 -3.6933,-0.0171 -3.69329,-0.0171 -1.55671,2.22251 -1.5567,2.2225 v 1.46177 1.46177 l -2.0071,4.14613 -2.00711,4.14612 1.13231,3.24814 1.13231,3.24814 2.12479,0.89104 2.1248,0.89103 10,-0.55914 10,-0.55915 z m -200.65282,-1.20539 -2.58017,-2.58017 -0.005,-2.79545 -0.005,-2.79546 1.73603,-4.84327 1.73603,-4.84327 4.01891,-2.35473 4.01892,-2.35473 5.9601,-1.552 5.9601,-1.552 h 5.86682 5.86683 l 2.92307,2.92308 2.92308,2.92308 v 2.19271 2.1927 l -1.48281,4.63422 -1.48282,4.63421 -0.52899,2.72114 -0.529,2.72113 -2.23819,1.20931 -2.23819,1.20931 -13.66983,0.44519 -13.66982,0.44518 z m 31.74661,-1.55341 1.90241,-1.90241 0.90629,-4.35763 0.90629,-4.35763 0.57932,-3.51546 0.57933,-3.51546 -1.93393,-2.38831 -1.93393,-2.3883 -7.34821,0.1357 -7.34821,0.13569 -5.25157,1.52667 -5.25157,1.52668 -2.82908,2.38052 -2.82909,2.38052 -1.777,4.94166 -1.777,4.94167 1.02504,2.69606 1.02504,2.69605 2.26454,0.98495 2.26455,0.98496 12.46218,-0.50176 12.46219,-0.50176 z m -129.32678,-26.07515 -5.5,-0.71652 7.826923,-0.163 7.826923,-0.163 2.849537,-2.84953 2.849536,-2.84954 0.668169,-3.90046 0.668168,-3.90047 0.986465,-3.90801 0.986466,-3.90802 2.841983,-2.84198 2.841984,-2.84199 h 2.126583 2.126583 l 2.70034,1.41073 2.70034,1.41072 3,3.17855 3,3.17856 2.70034,1.41072 2.70034,1.41072 h 5.5895 5.5895 l 3.90223,-1.99077 3.90223,-1.99077 2.51811,-3.30142 2.51812,-3.30142 2.66387,-5.81865 2.66386,-5.81864 0.51089,-6.3646 0.51089,-6.36459 -1.20439,-6.12179 -1.20439,-6.12178 0.52334,-0.52334 0.52333,-0.52333 3.96661,3.14161 3.96662,3.14162 4.8295,2.16166 4.8295,2.16167 8.83195,0.44351 8.83195,0.44351 6.44692,-1.7451 6.44691,-1.7451 5.72113,-3.7176 5.72114,-3.71761 4.33679,-4.73534 4.33678,-4.73535 2.56253,-5.67819 2.56252,-5.67819 0.45965,-8.5 0.45965,-8.5 0.82987,-0.88883 0.82987,-0.88883 4.50199,3.96281 4.502,3.96282 3.92519,1.17602 3.9252,1.17601 6.38398,-7.9e-4 6.38398,-7.9e-4 6,-2.84433 6,-2.84434 6.16558,-6.60122 6.16558,-6.60122 0.66928,-2.1087 0.66928,-2.1087 0.99579,0.33193 0.99579,0.33193 3.03451,7.26853 3.03451,7.26853 4.94475,5.41035 4.94476,5.41035 5.23869,2.56306 5.2387,2.56305 6.45313,0.6026 6.45313,0.60261 6.49826,-1.63821 6.49826,-1.6382 6.0751,-2.95978 6.0751,-2.95978 6.80148,-6.00422 6.80148,-6.00423 0.87342,0.5398 0.87342,0.53981 0.022,5.69098 0.022,5.69098 1.85194,4 1.85194,4 2.8761,2.69695 2.8761,2.69696 3.71788,1.55304 3.71788,1.55305 h 3.4731 3.47311 l 0.51233,0.82898 0.51234,0.82898 -3.45332,6.86369 -3.45332,6.86368 v 9.24224 9.24223 l 1.04081,2.73755 1.04082,2.73755 -0.4876,1.27065 -0.48759,1.27065 -8.53875,-3.4431 -8.53875,-3.4431 h -2.51447 -2.51447 l -2,2 -2,2 v 2.56574 2.56575 l 0.92487,1.72813 0.92487,1.72813 4.82513,2.13868 4.82513,2.13868 6,2.62941 6,2.62941 3.32591,-0.62152 3.32591,-0.62152 1.43751,-3.44044 1.43751,-3.44045 0.73658,0.0354 0.73658,0.0354 2.5,1.42913 2.5,1.42913 6.12788,0.0354 6.12787,0.0354 3.73021,-1.55858 3.73021,-1.55858 0.47946,0.47946 0.47946,0.47946 1.66245,3.32376 1.66246,3.32376 4.19251,2.29857 4.19252,2.29858 11.80748,2.09618 11.80749,2.09617 5,0.63482 5,0.63483 -4.18229,0.72678 -4.1823,0.72677 -2.68589,-1.02117 -2.68589,-1.02117 -9.65891,-1.35002 -9.65891,-1.35002 -5.29657,-2.68397 -5.29656,-2.68397 -1.42188,-3.40304 -1.42189,-3.40305 -4.13018,1.45722 -4.13018,1.45721 h -4.9064 -4.90639 l -3.38248,-1.41329 -3.38247,-1.41329 -1.18873,2.86984 -1.18872,2.86984 -3.48635,1.1506 -3.48635,1.15059 -9.47189,-3.74829 -9.4719,-3.74829 -3.1562,-2.12697 -3.1562,-2.12696 -0.94213,-3.28499 -0.94212,-3.28499 1.59671,-3.34833 1.5967,-3.34832 3.82297,-0.64589 3.82296,-0.64588 7.80343,3.15077 7.80343,3.15077 0.4413,-0.4413 0.4413,-0.4413 -1.1214,-3.21684 -1.1214,-3.21684 0.43375,-9.19532 0.43375,-9.19532 2.68314,-5.21675 2.68314,-5.21676 v -0.4988 -0.4988 l -5.11036,-0.67792 -5.11037,-0.67791 -4.13391,-3.15304 -4.13391,-3.15303 -2.18933,-3.90301 -2.18932,-3.903 -0.68073,-5.05049 -0.68073,-5.05049 -0.4984,-0.8369 -0.4984,-0.83691 -3.13727,2.98667 -3.13727,2.98668 -6.27722,4.01762 -6.27722,4.01762 -6.16695,2.08261 -6.16695,2.08261 h -9.60949 -9.60948 l -5.44635,-2.70495 -5.44634,-2.70495 -4.75537,-4.86721 -4.75536,-4.86721 -3.24464,-6.90804 -3.24463,-6.90803 -0.5,0.0546 -0.5,0.0546 -4.04086,5.15589 -4.04086,5.1559 -4.17683,3.18577 -4.17683,3.18578 -5.78231,2.18179 -5.78231,2.1818 -7.79864,-0.4353 -7.79864,-0.4353 -5.95136,-4.19702 -5.95136,-4.19701 v 5.42912 5.42912 l -1.98224,6.41774 -1.98224,6.41774 -3.94615,5.51074 -3.94616,5.51075 -5.57774,4.30319 -5.57774,4.3032 -6.74386,2.47546 -6.74387,2.47546 -8.11365,0.53065 -8.11365,0.53064 -5.0939,-1.22201 -5.09391,-1.222 -5.34166,-3.21659 -5.34167,-3.21658 0.0251,10.55614 0.0251,10.55614 -2.81689,6.43598 -2.81689,6.43597 -2.40471,3.15274 -2.40471,3.15274 -4.88966,2.66129 -4.88966,2.66128 h -5.04957 -5.04957 l -2.706726,-1.02909 -2.706725,-1.0291 -5.438962,-4.9709 -5.438962,-4.97091 h -2.830519 -2.830519 l -2.519793,2.99461 -2.519794,2.9946 -0.465965,1.7554 -0.465965,1.75539 -1.227601,6.19262 -1.2276,6.19261 -2.232139,2.09699 -2.232139,2.09698 -3.393395,0.33992 -3.393396,0.33992 z m -10,-2.04252 -1.5,-0.96937 1,0.055 1,0.055 2,0.85943 2,0.85943 -1.5,0.055 -1.5,0.055 z m -3,-1.5 v -0.5 h 0.5 0.5 v 0.5 0.5 h -0.5 -0.5 z m -2,-1 v -0.5 h 0.5 0.5 v 0.5 0.5 h -0.5 -0.5 z m -3.127556,-2.25 -1.372444,-1.75 1.75,1.37245 1.75,1.37244 v 0.37756 0.37755 h -0.377556 -0.377555 z m -4.467457,-3.5 -1.904987,-2.25 2.25,1.90499 2.25,1.90499 v 0.34501 0.34501 h -0.345013 -0.345012 z m 412.595013,-1.25 3.5,-1.34784 1,0.005 1,0.005 -3,1.37368 -3,1.37367 -1.5,-0.031 -1.5,-0.031 z m -416.192908,-3.25 -1.502883,-1.75 -0.711122,-1.25 -0.711121,-1.25 h 0.370958 0.370959 l 2.217996,3 2.217996,3 h -0.37495 -0.37495 z m 422.192908,1.25 v -0.5 h 0.5 0.5 v 0.5 0.5 h -0.5 -0.5 z m 2,-0.9534 v -0.57144 l 5.25,-3.38397 5.25,-3.38398 2.70475,-2.86109 2.70476,-2.8611 3.02713,-5.49251 3.02713,-5.49251 0.0181,0.78984 0.0181,0.78984 -2.04331,4.00522 -2.04331,4.00522 -3.59084,3.97463 -3.59084,3.97463 -4.11585,2.77213 -4.11585,2.77213 -1.25,0.7672 -1.25,0.7672 z m -428,-6.0466 v -0.5 h 0.5 0.5 v 0.5 0.5 h -0.5 -0.5 z m -1,-2 v -0.5 h 0.5 0.5 v 0.5 0.5 h -0.5 -0.5 z m 111.17431,-2.81445 -2.17431,-2.31445 v -4.28434 -4.28434 l 3.11105,-2.90616 3.11105,-2.90615 7.13895,-2.24506 7.13895,-2.24505 h 7.33835 7.33836 l 1.91164,2.36079 1.91165,2.36078 v 3.93467 3.93467 l -2.29036,2.29037 -2.29037,2.29036 -6.65936,0.62186 -6.65937,0.62186 -5.01703,2.54232 -5.01702,2.54232 h -3.35893 -3.35893 z m 12.01935,-1.28368 5.12718,-2.59814 6.58958,-0.92388 6.58958,-0.92388 1.66642,-0.51884 1.66642,-0.51885 1.0446,-2.99655 1.04461,-2.99656 -0.91316,-2.40178 -0.91316,-2.40178 -1.98212,-1.06081 -1.98213,-1.0608 -3.81574,0.0351 -3.81574,0.0351 -6,1.30155 -6,1.30154 -4.0669,2.09024 -4.0669,2.09024 -1.2831,1.54604 -1.2831,1.54604 v 3.73686 3.73686 l 2.21078,1.79019 2.21079,1.79018 h 1.42246 1.42246 z m -125.03122,0.0553 -1.16244,-2.55128 0.04004,-0.70295 0.04004,-0.70295 1.538221,2.83841 1.538221,2.83841 -0.415818,0.41582 -0.415818,0.41581 z m -2.083493,-6.04051 0.07895,-1.91667 0.52522,1.3125 0.525219,1.3125 -0.604167,0.60417 -0.604166,0.60417 z m -1,-4 0.07895,-1.91667 0.52522,1.3125 0.525219,1.3125 -0.604167,0.60417 -0.604166,0.60417 z m 456.061623,-3.41667 v -1.5 l 0.85943,-2 0.85943,-2 v 1.5 1.5 l -0.85943,2 -0.85943,2 z m -456.770606,-10 v -10.5 l 0.367278,5.25 0.367277,5.25 -0.367277,5.25 -0.367278,5.25 z m 458.708986,2.41667 0.0789,-1.91667 0.52522,1.3125 0.52522,1.3125 -0.60416,0.60417 -0.60417,0.60417 z m 1.32099,-16.91667 0.003,-15 0.34164,7.79571 0.34164,7.7957 -0.34419,7.2043 -0.34419,7.20429 z m -459.320993,1.91667 0.07895,-1.91667 0.52522,1.3125 0.525219,1.3125 -0.604167,0.60417 -0.604166,0.60417 z m 1,-4 0.07895,-1.91667 0.52522,1.3125 0.525219,1.3125 -0.604167,0.60417 -0.604166,0.60417 z m 0.921053,-3.41667 v -1.33333 l 0.666666,0.66667 0.666667,0.66666 -0.666667,0.66667 -0.666666,0.66667 z m 1,-2.5 v -0.5 h 0.5 0.5 v 0.5 0.5 h -0.5 -0.5 z m 2,-3.5 1.070367,-2 h 0.5 0.5 l -1.070367,2 -1.070368,2 h -0.5 -0.5 z m 3.823979,-5.75 1.960167,-2.75 2.300037,-2 2.300037,-2 -3.903872,4.75 -3.903873,4.75 h -0.356332 -0.356332 z m 449.370971,-0.75 0.037,-3 0.46099,1.76903 0.46099,1.76904 -0.49804,1.23096 -0.49805,1.23097 z m -1.03706,-5.5 v -2.5 l 0.50439,1.25 0.50439,1.25 -0.50439,1.25 -0.50439,1.25 z m -440.65789,-1 0.618034,-1 h 0.5 0.5 l -0.618034,1 -0.618034,1 h -0.5 -0.5 z m 3,-2 0.618034,-1 h 0.5 0.5 l -0.618034,1 -0.618034,1 h -0.5 -0.5 z m 436.65789,-2 v -2.5 l 0.50439,1.25 0.50439,1.25 -0.50439,1.25 -0.50439,1.25 z m -433.424557,-0.12409 1.233333,-1.24257 0.559795,0.55979 0.559795,0.5598 -1.793128,0.68278 -1.793128,0.68278 z m 3.266667,-1.37591 v -0.5 h 0.5 0.5 v 0.5 0.5 h -0.5 -0.5 z m 2.333333,-1.16666 0.666667,-0.66667 0.666666,0.66667 0.666667,0.66666 H 46.19927 44.865936 Z m 4.166667,-1.33334 2,-0.85943 2,0.0294 2,0.0294 -2.5,0.80064 -2.5,0.80064 -1.5,0.0294 -1.5,0.0294 z m 422.01629,-0.94866 -0.66631,-2.09938 -5.41111,-5.84464 -5.4111,-5.84464 -5.51389,-3.79756 -5.51388,-3.79755 v -0.39032 -0.39032 l 3.11594,1.80654 3.11594,1.80653 6.82868,6.29236 6.82868,6.29237 2.16945,3.51023 2.16944,3.51024 -0.52276,0.52276 -0.52276,0.52276 z m -413.754631,-0.7586 2.261659,-0.4349 1.738341,0.45508 1.738341,0.45508 -4,-0.0202 -4,-0.0202 z m 7.701028,-1.23236 0.58072,-0.93963 -5.116362,-4.78576 -5.116362,-4.78575 -1.905342,-3.73478 -1.905341,-3.73478 0.0098,-1.28984 0.0098,-1.28984 2.36346,5.07568 2.36346,5.07567 5.614152,4.92433 5.614152,4.92432 0.01262,0.75 0.01262,0.75 H 66.640253 65.081236 Z M 447.19927,199.71454 v -0.5 h 0.5 0.5 v 0.5 0.5 h -0.5 -0.5 z m -395.921053,-2.08333 0.07895,-1.91667 0.52522,1.3125 0.525219,1.3125 -0.604167,0.60417 -0.604166,0.60417 z m 391.921053,0.58333 -1.5,-0.96937 h 1 1 l 1.5,0.96937 1.5,0.96938 h -1 -1 z m -4.1875,-1.68311 1.3125,-0.52522 0.60417,0.60417 0.60416,0.60416 -1.91666,-0.0789 -1.91667,-0.079 z m -14.8125,-1.00253 v -0.68564 l 4.25,-5.04001 4.25,-5.04001 2.25,-4.44383 2.25,-4.44382 v 1.21913 1.21914 l -1.41816,2.74242 -1.41816,2.74242 -4.08184,4.93959 -4.08184,4.93959 v 0.71843 0.71842 l 5.75,0.36082 5.75,0.36082 -6.75,0.18909 -6.75,0.18908 z M 50.471634,190.21454 v -4.5 l 0.433369,2.25 0.433369,2.25 -0.433369,2.25 -0.433369,2.25 z m 0.88553,-8 v -2.5 l 0.504386,1.25 0.504386,1.25 -0.504386,1.25 -0.504386,1.25 z m 0.921053,-4.58333 0.07895,-1.91667 0.52522,1.3125 0.525219,1.3125 -0.604167,0.60417 -0.604166,0.60417 z m 0.921053,-2.91667 v -0.5 h 0.5 0.5 v 0.5 0.5 h -0.5 -0.5 z m 384.28601,-4 0.0136,-5 0.41792,2.76375 0.41792,2.76375 -0.43157,2.23625 -0.43157,2.23625 z m -383.28601,1.8578 v -0.97554 l 1.555166,-1.94113 1.555166,-1.94113 -1.190621,2.5 -1.190621,2.5 -0.364545,0.41667 -0.364545,0.41667 z m 3,-5.73535 v -0.37756 l 1.75,-1.37244 1.75,-1.37245 -1.372445,1.75 -1.372445,1.75 H 57.576825 57.19927 Z m 378.78872,-3.14824 -0.56181,-1.97421 -0.67711,-2 -0.67711,-2 1.62701,2.80995 1.627,2.80996 -0.38809,1.16425 -0.38808,1.16426 z m -373.78872,-2.97421 2.348628,-2.5 h 0.5 0.5 l -2.348628,2.5 -2.348628,2.5 h -0.5 -0.5 z m 4.43257,-3.39089 0.678817,-1.09835 1.944306,-1.04056 1.944307,-1.04057 v 0.42018 0.42017 l -2.623124,1.71874 -2.623123,1.71874 z m 366.56743,-0.60911 v -0.5 h 0.5 0.5 v 0.5 0.5 h -0.5 -0.5 z m -1.59549,-2.65451 -0.71353,-1.1545 1.15451,0.71352 1.15451,0.71353 v 0.44098 0.44098 h -0.44098 -0.44099 z m -358.40451,-0.84549 1.5,-0.96937 1.5,0.055 1.5,0.055 -2,0.85943 -2,0.85943 -1,0.055 -1,0.055 z m 5.8125,-1.68311 1.3125,-0.52522 0.604166,0.60417 0.604167,0.60416 -1.916667,-0.0789 -1.916666,-0.079 z m 16.353412,-0.025 2.665912,-0.40847 -2.915912,-5.54324 -2.915912,-5.54324 0.04677,-1.64845 0.04677,-1.64846 1.809325,4.62551 1.809325,4.62551 1.643901,2.347 1.6439,2.34699 v 0.7775 0.77749 l -3.25,-0.14983 -3.25,-0.14983 z m 334.238598,-0.44637 -0.71353,-1.1545 1.15451,0.71352 1.15451,0.71353 v 0.44098 0.44098 h -0.44098 -0.44099 z m -345.15451,-0.56174 2.75,-0.41659 2.75,0.41659 2.75,0.41659 h -5.5 -5.5 z m 339.38742,-6.14422 -4.78739,-4.86048 -6.15226,-3.63952 -6.15227,-3.63953 h 1.07222 1.07221 l 5.90503,3.87438 5.90504,3.87437 4.45821,4.62563 4.45821,4.62562 h -0.4958 -0.4958 z m -332.385237,-12.63953 0.02018,-4 0.434897,2.26166 0.434896,2.26166 -0.455077,1.73834 -0.455078,1.73834 z m 311.747817,-0.5 -1.5,-0.96937 h 1 1 l 1.5,0.96937 1.5,0.96938 h -1 -1 z m -23,-2.29705 v -1.29705 l 4.12678,-3.95295 4.12678,-3.95295 2.87322,-4.44578 2.87322,-4.44578 v 0.97328 0.97327 l -1.66997,2.47251 -1.66998,2.4725 -5.08002,5.49579 -5.08003,5.49579 3.5,0.62257 3.5,0.62257 -3.75,0.13164 -3.75,0.13164 z m 16.25,0.60773 1.75,-0.45733 1.75,0.45733 1.75,0.45732 h -3.5 -3.5 z m -304.25,-4.31068 v -1.33333 l 0.666666,0.66667 0.666667,0.66666 -0.666667,0.66667 -0.666666,0.66667 z m 1.040037,-2.29966 -0.04004,-0.79966 1.423222,-2.75221 1.423223,-2.75221 4.636468,-4.27374 4.63647,-4.27375 4.19031,-1.90242 4.19031,-1.90242 2,0.0449 2,0.0449 -4.17582,1.30571 -4.17583,1.3057 -3.32417,2.06143 -3.32418,2.06143 -3.133389,3.31597 -3.133386,3.31597 -1.576577,3 -1.576576,3 z m 58.820743,-7.74949 -2.36078,-2.04916 2.20452,1.2613 2.20452,1.2613 0.6265,-0.6265 0.6265,-0.62649 -1.13619,-2.33565 -1.13618,-2.33565 1.55516,1.94113 1.55517,1.94113 v 1.80887 1.80887 h -0.88922 -0.88921 z m -8.36078,-5.01615 -5,-2.96454 -4.5,-1.41543 -4.5,-1.41542 2,-0.0689 2,-0.0689 6,2.89071 6,2.89071 2,1.5767 2,1.5767 -0.5,-0.0186 -0.5,-0.0186 z m 250.57895,-1.51803 0.0789,-1.91667 0.52522,1.3125 0.52522,1.3125 -0.60416,0.60417 -0.60417,0.60417 z m -242.45541,-0.95533 -0.62354,-1.62491 0.0304,-0.66822 0.0304,-0.66821 1.06125,1.82501 1.06126,1.825 -0.46813,0.46812 -0.46812,0.46813 z m 243.5365,-4.77708 -0.16004,-3.815741 -1.03518,-1.934258 -1.03519,-1.934259 h -1.99806 -1.99806 l -4.71675,-2.410707 -4.71676,-2.410708 -3.19878,-3.339292 -3.19877,-3.339293 -2.11664,-4.792094 -2.11664,-4.792095 -0.74052,-6.93051 -0.74053,-6.93051 -0.60134,-0.601347 -0.60135,-0.601346 -5.84271,-2.402313 -5.84272,-2.402314 1.5,-0.01397 1.5,-0.01397 5,2.437599 5,2.437599 8.54907,8.302632 8.54908,8.302632 -3.09668,-2.75 -3.09668,-2.75 h -1.2024 -1.20239 v 1.532119 1.532119 l 1.54734,3.717881 1.54733,3.717881 4.16087,4.25 4.16088,4.25 h 1.23277 1.23278 l 0.66313,-1.07297 0.66313,-1.07297 -3.06281,-4.92703 -3.06281,-4.92703 h 0.44451 0.4445 l 2.45311,3.75 2.45312,3.75 2.6297,7.679318 2.62971,7.679317 -0.40859,3.32068 -0.4086,3.32068 z m -274.39213,0.59101 3.26791,-0.40466 2.73209,0.41487 2.73209,0.41486 -6,-0.0102 -6,-0.0102 z m 29.31104,-0.8586 0.0789,-1.91667 0.52522,1.3125 0.52522,1.3125 -0.60416,0.60417 -0.60417,0.60417 z m -0.92106,-4.416668 v -2.5 l 0.50439,1.25 0.50439,1.25 -0.50439,1.25 -0.50439,1.249998 z m -0.85823,-9 v -5.5 l 0.41659,2.75 0.41659,2.75 -0.41659,2.75 -0.41659,2.75 z m 0.89529,-8.5 0.0371,-3 0.46099,1.769032 0.46099,1.769032 -0.49804,1.230968 -0.49805,1.230968 z m 0.89065,-4.5 -0.055,-1.5 0.96937,-1.5 0.96937,-1.5 -0.055,1 -0.055,1 -0.85943,2 -0.85943,2 z m 120.70015,-0.773581 -1.48154,-1.726419 -0.73888,-1.5 -0.73888,-1.5 1.94956,2.393821 1.94956,2.39382 1.13722,-0.702837 1.13721,-0.702838 v 1 1 l -0.86635,0.535436 -0.86636,0.535436 z m 3.21425,-2.726419 v -0.5 h 0.5 0.5 v 0.5 0.5 h -0.5 -0.5 z m -121.99062,-2.136047 -0.009,-1.136047 4.05538,-6.072981 4.05538,-6.07298 5.19462,-4.144379 5.19462,-4.14438 4.84943,-2.463825 4.84944,-2.463826 0.33846,0.338463 0.33846,0.338463 -6.34582,3.290155 -6.34583,3.290156 -4.97618,4.771113 -4.97618,4.771113 -3.1065,5.417501 -3.10651,5.417501 z m 124.87585,-2.202767 2.02141,-2.838814 1.75682,-1.411186 1.75682,-1.411186 -3.37751,4.25 -3.3775,4.25 h -0.40073 -0.40073 z m -11.01279,0.08881 -1.37244,-1.75 1.75,1.372445 1.75,1.372445 v 0.377555 0.377555 h -0.37756 -0.37755 z m -5.92119,-7.051297 -4.45125,-4.801298 -4.5,-3.83741 -4.5,-3.837409 2,1.383522 2,1.383522 4.25857,3.474109 4.25856,3.474109 3.03856,3.781076 3.03856,3.781076 h -0.34587 -0.34587 z m 23.48132,0.910402 0.67882,-1.09835 1.9443,-1.040561 1.94431,-1.040561 v 0.420174 0.420174 l -2.62312,1.718736 -2.62313,1.718737 z m 7.56743,-4.609105 2.5,-1.429129 h 1 1 l -2.5,1.429129 -2.5,1.42913 h -1 -1 z m 5.33333,-2.166666 0.66667,-0.666667 0.66667,0.666667 0.66666,0.666666 h -1.33333 -1.33333 z m 3.47917,-1.016448 1.3125,-0.525219 0.60417,0.604167 0.60416,0.604166 -1.91666,-0.07895 -1.91667,-0.07895 z m 4,-1 1.3125,-0.525219 0.60417,0.604167 0.60416,0.604166 -1.91666,-0.07895 -1.91667,-0.07895 z m 48,0 1.3125,-0.525219 0.60417,0.604167 0.60416,0.604166 -1.91666,-0.07895 -1.91667,-0.07895 z m -44.0625,-0.979166 1.25,-0.504386 1.25,0.504386 1.25,0.504386 h -2.5 -2.5 z m 39,0 1.25,-0.504386 1.25,0.504386 1.25,0.504386 h -2.5 -2.5 z m -32,-1.043453 2.25,-0.433369 2.25,0.433369 2.25,0.433369 h -4.5 -4.5 z m 24,0 2.25,-0.433369 2.25,0.433369 2.25,0.433369 h -4.5 -4.5 z m -14.0223,-1.015999 3.22769,-0.401658 3.77231,0.393592 3.7723,0.393592 -7,0.0081 -7,0.0081 z m -81.9777,-2.850243 -2.75,-1.491899 v -0.493743 -0.493743 l 3,1.55136 3,1.551361 v 0.47432 0.474319 l -0.25,-0.04004 -0.25,-0.04004 z m -7.75,-3.928025 -2.5,-1.429129 h 1 1 l 2.5,1.429129 2.5,1.42913 h -1 -1 z m -52,-0.5 1.5,-0.969374 h 1 1 l -1.5,0.969374 -1.5,0.969375 h -1 -1 z m 4.33333,-1.666666 0.66667,-0.666667 0.66667,0.666667 0.66666,0.666666 h -1.33333 -1.33333 z m 40.16667,-0.333334 -2,-0.859429 h 1.5 1.5 l 2,0.859429 2,0.85943 h -1.5 -1.5 z m -36.6875,-0.683114 1.3125,-0.525219 0.60417,0.604167 0.60416,0.604166 -1.91666,-0.07895 -1.91667,-0.07895 z m 3.9375,-0.979166 1.25,-0.504386 1.25,0.504386 1.25,0.504386 h -2.5 -2.5 z m 28.0625,-0.02083 1.3125,-0.525219 0.60417,0.604167 0.60416,0.604166 -1.91666,-0.07895 -1.91667,-0.07895 z m -18.0625,-1.054128 5.25,-0.367277 5.25,0.367277 5.25,0.367278 h -10.5 -10.5 z"
               id="path46" /><path
               style="fill:#3d3635"
               d="m 247.69927,418.81572 -4,-1.26504 -3.47094,-1.808 -3.47095,-1.80801 -5.68273,-5.4204 -5.68273,-5.42041 -1.14148,-2.75578 -1.14149,-2.75579 1.00979,-2.65595 1.00979,-2.65594 2.43366,-0.61081 2.43365,-0.61081 2.33598,0.33288 2.33597,0.33288 2.01574,3.34731 2.01574,3.34732 3.2735,3.79989 3.27349,3.7999 3.37763,1.60279 3.37764,1.60279 h 4.63871 4.63871 l 3.93363,-2.00679 3.93363,-2.00679 3.99412,-5.40663 3.99412,-5.40664 2.97376,-0.65315 2.97376,-0.65314 2.05865,1.10175 2.05865,1.10176 -0.004,3.21482 -0.004,3.21481 -1.83937,3.01619 -1.83938,3.01619 -3.38339,3.3834 -3.38339,3.38339 -6.0235,2.84963 -6.02349,2.84962 -6.5,-0.0661 -6.5,-0.0661 z m 77.8752,-68.55306 -2.12479,-0.89104 -1.13231,-3.24814 -1.13231,-3.24814 2.00711,-4.14612 2.0071,-4.14613 v -1.46177 -1.46177 l 1.5567,-2.2225 1.55671,-2.22251 3.69329,0.0171 3.6933,0.0171 7.5,1.93906 7.5,1.93906 3.25,3.52911 3.25,3.52912 v 3.08043 3.08043 l -1.01701,1.90029 -1.017,1.90029 -3.733,0.9444 -3.73299,0.94439 -10,0.55915 -10,0.55914 z m -172.13975,-2.00948 -2.26454,-0.98495 -1.02504,-2.69605 -1.02504,-2.69606 1.777,-4.94167 1.777,-4.94166 2.82909,-2.38052 2.82908,-2.38052 5.25157,-1.52668 5.25157,-1.52667 7.34821,-0.13569 7.34821,-0.1357 1.93393,2.3883 1.93393,2.38831 -0.57933,3.51546 -0.57932,3.51546 -0.90629,4.35763 -0.90629,4.35763 -1.90241,1.90241 -1.90241,1.90241 -12.46219,0.50176 -12.46218,0.50176 z M 42.372475,317.0639 l -5.326794,-2.04642 -5.345334,-5.34534 -5.345334,-5.34533 -3.217112,-6.74085 -3.217112,-6.74086 -1.348891,-5.06528 -1.348891,-5.06528 -0.01187,-9.85565 -0.01187,-9.85566 1.583789,-6.14434 1.583789,-6.14435 2.096209,-3.5 2.096208,-3.5 3.027547,-3.90595 3.027546,-3.90595 5.968388,-3.85755 5.968388,-3.85756 5.074068,-1.51948 5.074068,-1.51949 7.5,-1.05342 7.5,-1.05343 0.418446,-0.41537 0.418447,-0.41536 -6.025906,-5.45313 -6.025906,-5.45313 -2.228825,-5.18104 -2.228825,-5.18105 -0.550247,-5.33138 -0.550247,-5.33138 1.231199,-6.25807 1.2312,-6.25806 2.038405,-4.0246 2.038405,-4.0246 2.967965,-3.77147 2.967965,-3.77148 4.207737,-2.895 4.207737,-2.895 5.88587,-1.71107 5.885869,-1.71106 7.899094,0.65876 7.899094,0.65875 -0.343739,-0.79359 -0.343738,-0.79359 -2.948134,-5.90274 -2.948133,-5.90274 -0.408758,-5.65102 -0.408759,-5.65103 2.220163,-5.16091 2.220163,-5.16091 4.461061,-4.11206 4.46106,-4.11206 4.67567,-2.15583 4.67567,-2.15584 9,-0.005 9,-0.005 5.74092,2.69052 5.74093,2.69052 5.36258,3.55948 5.36258,3.55948 h 0.6465 0.64649 v -1.41784 -1.41783 l -2.47755,-4.9327 -2.47755,-4.9327 -1.22361,-7.135487 -1.2236,-7.135492 1.0902,-7.567448 1.09021,-7.567448 3.21234,-6.5252 3.21235,-6.525199 5.57139,-5.483086 5.57139,-5.483086 9.07722,-4.402701 9.07721,-4.402701 6.5,-1.520759 6.5,-1.520758 10.50318,-0.01478 10.50318,-0.01478 6.718,1.921173 6.71799,1.921173 6.27882,3.181744 6.27883,3.181743 6.5,5.384396 6.5,5.384396 4.5,6.032723 4.5,6.032724 2.14235,2.705478 2.14236,2.705478 1.53888,-3.683068 1.53889,-3.683068 4.31876,-4.31147 4.31876,-4.311469 5.88431,-2.781628 5.88432,-2.781627 8.61568,-2.114041 8.61569,-2.114041 15,-0.01323 15,-0.01323 6.81762,1.679218 6.81762,1.679217 4.94567,2.127571 4.94567,2.12757 0.42256,2.121139 0.42256,2.121138 0.51692,5.249011 0.51692,5.24901 2.09845,4.75099 2.09846,4.750989 3.19877,3.339293 3.19878,3.339292 4.71676,2.410708 4.71675,2.410707 h 1.99806 1.99806 l 1.15816,2.164036 1.15816,2.164035 -0.55559,5.383125 -0.55559,5.38312 -2.48757,4.20284 -2.48757,4.20284 -4.57982,4.45821 -4.57981,4.45821 v 1.12812 1.12812 l 10.25,-0.0374 10.25,-0.0374 8,3.85098 8,3.85097 7.07953,7.10008 7.07953,7.10007 2.84047,6 2.84047,6 0.45598,5.27588 0.45597,5.27587 -1.61503,4.22891 -1.61503,4.2289 -4.98555,5.99522 -4.98555,5.99522 -0.0254,0.75 -0.0254,0.75 h 6.52498 6.52498 l 5.50841,1.93605 5.50841,1.93605 6.21661,4.43893 6.21661,4.43893 4.64303,4.96782 4.64302,4.96781 1.47791,2.90721 1.47791,2.9072 1.6311,9 1.6311,9 -0.002,13.50318 -0.002,13.50319 -1.86531,6.52263 -1.8653,6.52263 -2.14083,4.19638 -2.14084,4.19638 -3.08073,3.50877 -3.08074,3.50876 -6.66312,4.38783 -6.66313,4.38783 -5.35943,1.74793 -5.35943,1.74792 -4.64057,-0.55772 -4.64057,-0.55773 -11.30531,-2.01458 -11.30532,-2.01457 -4.19468,-2.29978 -4.19469,-2.29977 -1.66246,-3.32376 -1.66245,-3.32376 -0.47946,-0.47946 -0.47946,-0.47946 -3.73021,1.55858 -3.73021,1.55858 -6.12787,-0.0354 -6.12788,-0.0354 -2.5,-1.42913 -2.5,-1.42913 -0.73658,-0.0354 -0.73658,-0.0354 -1.43751,3.44045 -1.43751,3.44044 -3.32591,0.62152 -3.32591,0.62152 -6,-2.62941 -6,-2.62941 -4.82513,-2.13868 -4.82513,-2.13868 -0.92487,-1.72813 -0.92487,-1.72813 v -2.56575 -2.56574 l 2,-2 2,-2 h 2.51447 2.51447 l 8.53875,3.4431 8.53875,3.4431 0.48759,-1.27065 0.4876,-1.27065 -1.04082,-2.73755 -1.04081,-2.73755 v -9.24223 -9.24224 l 3.45332,-6.86368 3.45332,-6.86369 -0.51234,-0.82898 -0.51233,-0.82898 h -3.47311 -3.4731 l -3.71788,-1.55305 -3.71788,-1.55304 -2.8761,-2.69696 -2.8761,-2.69695 -1.85194,-4 -1.85194,-4 -0.022,-5.69098 -0.022,-5.69098 -0.87342,-0.53981 -0.87342,-0.5398 -6.80148,6.00423 -6.80148,6.00422 -6.0751,2.95978 -6.0751,2.95978 -6.49826,1.6382 -6.49826,1.63821 -6.45313,-0.60261 -6.45313,-0.6026 -5.2387,-2.56305 -5.23869,-2.56306 -4.94476,-5.41035 -4.94475,-5.41035 -3.03451,-7.26853 -3.03451,-7.26853 -0.99579,-0.33193 -0.99579,-0.33193 -0.66928,2.1087 -0.66928,2.1087 -6.16558,6.60122 -6.16558,6.60122 -6,2.84434 -6,2.84433 -6.38398,7.9e-4 -6.38398,7.9e-4 -3.9252,-1.17601 -3.92519,-1.17602 -4.502,-3.96282 -4.50199,-3.96281 -0.82987,0.88883 -0.82987,0.88883 -0.45965,8.5 -0.45965,8.5 -2.56252,5.67819 -2.56253,5.67819 -4.33678,4.73535 -4.33679,4.73534 -5.72114,3.71761 -5.72113,3.7176 -6.44691,1.7451 -6.44692,1.7451 -8.83195,-0.44351 -8.83195,-0.44351 -4.8295,-2.16167 -4.8295,-2.16166 -3.96662,-3.14162 -3.96661,-3.14161 -0.52333,0.52333 -0.52334,0.52334 1.20439,6.12178 1.20439,6.12179 -0.51089,6.36459 -0.51089,6.3646 -2.66386,5.81864 -2.66387,5.81865 -2.51812,3.30142 -2.51811,3.30142 -3.90223,1.99077 -3.90223,1.99077 h -5.5895 -5.589503 l -2.70034,-1.41072 -2.70034,-1.41072 -3,-3.17856 -3,-3.17855 -2.70034,-1.41072 -2.70034,-1.41073 h -2.126583 -2.126583 l -2.841984,2.84199 -2.841983,2.84198 -0.986466,3.90802 -0.986465,3.90801 -0.668168,3.90047 -0.668169,3.90046 -2.849536,2.84954 -2.849537,2.84953 -7.826923,-0.0521 -7.826923,-0.0521 z m 92.837575,-22.63954 -2.21078,-1.79019 v -3.73686 -3.73686 l 1.2831,-1.54604 1.2831,-1.54604 4.0669,-2.09024 4.0669,-2.09024 6,-1.30154 6,-1.30155 3.81574,-0.0351 3.81574,-0.0351 1.98213,1.0608 1.98212,1.06081 0.91316,2.40178 0.91316,2.40178 -1.04461,2.99656 -1.0446,2.99655 -1.66642,0.51885 -1.66642,0.51884 -6.58958,0.92388 -6.58958,0.92388 -5.12718,2.59814 -5.12717,2.59813 h -1.42246 -1.42246 z m 248.24476,-209.459818 -4.16087,-4.25 -1.54733,-3.717881 -1.54734,-3.717881 v -1.532119 -1.532119 h 1.38364 1.38364 l 3.50118,3.875391 3.50118,3.87539 2.69268,4.594707 2.69268,4.594707 -0.63652,1.029903 -0.63651,1.029902 h -1.23278 -1.23277 z"
               id="path45" /></g></g></g></g></g></svg>
