<?xml version="1.0" encoding="UTF-8" standalone="no"?>
<svg
   viewBox="0 0 512 512"
   version="1.1"
   id="svg1"
   sodipodi:docname="family-kid-boy.svg"
   inkscape:version="1.3 (0e150ed, 2023-07-21)"
   xml:space="preserve"
   xmlns:inkscape="http://www.inkscape.org/namespaces/inkscape"
   xmlns:sodipodi="http://sodipodi.sourceforge.net/DTD/sodipodi-0.dtd"
   xmlns="http://www.w3.org/2000/svg"
   xmlns:svg="http://www.w3.org/2000/svg"><defs
     id="defs1" /><sodipodi:namedview
     id="namedview1"
     pagecolor="#ffffff"
     bordercolor="#666666"
     borderopacity="1.0"
     inkscape:showpageshadow="2"
     inkscape:pageopacity="0.0"
     inkscape:pagecheckerboard="0"
     inkscape:deskcolor="#d1d1d1"
     inkscape:zoom="0.5"
     inkscape:cx="263"
     inkscape:cy="341"
     inkscape:window-width="1366"
     inkscape:window-height="717"
     inkscape:window-x="0"
     inkscape:window-y="27"
     inkscape:window-maximized="1"
     inkscape:current-layer="g33"
     showgrid="false" /><!--!Font Awesome Free 6.5.1 by @fontawesome - https://fontawesome.com License - https://fontawesome.com/license/free Copyright 2024 Fonticons, Inc.--><g
     id="g33"
     transform="translate(-80.082976,64.183922)"><g
       id="g34"
       transform="matrix(-1.3156222,0,0,1.3156222,723.01776,-15.559456)"><path
         style="fill:#dcaf88"
         d="m 274.53583,315.13599 -11.5,-1.27075 -6,-1.68326 -6,-1.68325 -3.5,-0.89095 -3.5,-0.89095 -6.4982,-2.65076 -6.4982,-2.65077 -5.0018,-2.51807 -5.0018,-2.51806 -7.7351,-5.43139 -7.73511,-5.43139 -6.94181,-7.69161 -6.94181,-7.69162 -5.67207,-8 -5.67208,-8 -2.5881,-2.75 -2.5881,-2.75 h -7.82738 -7.82738 l -8.71596,-3.51456 -8.71596,-3.51456 -4.85035,-4.73544 -4.85034,-4.73544 -2.09834,-4 -2.09835,-4 -0.43753,-8.63152 -0.43754,-8.63152 1.17244,-3.55251 1.17243,-3.55252 3.9471,-3.56597 3.9471,-3.56596 2.74712,-0.0969 2.74712,-0.0969 3.75,0.17336 3.75,0.17336 v -0.95402 -0.95402 l -1.67156,-1.37245 -1.67156,-1.37244 -4.21317,-6.5 -4.21317,-6.5 -2.32011,-7.5 -2.32011,-7.5 -0.0196,-12 -0.0196,-12 1.32393,-5.5 1.32393,-5.5 1.92635,-6.5 1.92635,-6.5 1.56951,-3.5 1.56951,-3.5 4.00265,-7.973237 4.00265,-7.973233 5.98065,-8.731996 5.98066,-8.731995 8.06822,-9.100661 8.06822,-9.10066 9.60316,-8.032551 9.60316,-8.032551 8.00895,-5.343381 8.00895,-5.343381 8.49105,-4.513934 8.49105,-4.513933 10.3857,-4.114084 10.38569,-4.114085 9.11431,-2.413466 9.1143,-2.4134662 10.24342,-1.526695 10.24342,-1.526695 h 12.40721 12.40721 l 11.37097,1.9439644 11.37097,1.9439643 10.92471,3.5786705 10.92472,3.578671 8.41657,4.477365 8.41657,4.477365 h 0.88712 0.88711 v -5.418213 -5.418212 l 0.60699,-1.581788 0.60699,-1.5817872 h 1.76208 1.76208 l 4.44729,10.2500002 4.44728,10.25 4.93365,-0.04713 4.93364,-0.04713 7.25,-0.832083 7.25,-0.832082 v 2.277983 2.277984 l -4.55658,5.534839 -4.55659,5.53484 4.88227,1.821246 4.88226,1.821246 4.09907,3.508654 4.09907,3.508653 3.42754,4.736488 3.42755,4.736488 3.00416,5.550028 3.00415,5.550028 1.29518,3.949972 1.29517,3.949972 1.31942,2.030278 1.31942,2.030279 2.40233,6.969721 2.40234,6.96973 1.98675,5.5 1.98676,5.5 2.77005,10 2.77006,10 0.11981,13 0.11981,13 -1.3834,5.5 -1.3834,5.5 -2.78001,6.19735 -2.78002,6.19735 3.51952,2.68447 3.51952,2.68447 1.57086,3.61818 1.57086,3.61818 0.02,9 0.02,9 -1.75641,5.18685 -1.7564,5.18686 -3.77467,5.81314 -3.77467,5.81315 -5.91594,5.90884 -5.91593,5.90884 -6.25151,2.93612 -6.25152,2.93613 -6.03487,0.54722 -6.03488,0.54722 -4.48045,9.27288 -4.48046,9.27288 -8.23316,8.435 -8.23315,8.43501 -6,3.96824 -6,3.96824 -6.5,3.54953 -6.5,3.54953 -6.92636,2.7345 -6.92636,2.73449 -9.57364,2.47061 -9.57364,2.47061 -13,1.41531 -13,1.4153 -9,-0.10146 -9,-0.10147 z m 36,-29.63503 5.5,-2.54813 3.25,-2.74873 3.25,-2.74873 v -2.21111 -2.2111 l -1.2,-1.2 -1.2,-1.2 h -1.79135 -1.79134 l -4.46461,3.40791 -4.46461,3.40791 -3.62747,1.19717 -3.62748,1.19718 -7.2836,-0.36781 -7.2836,-0.3678 -7.38297,-3.74177 -7.38297,-3.74176 -1.55,0.004 -1.55,0.004 -1.2,1.2 -1.2,1.2 v 1.75953 1.75953 l 2.60538,2.41584 2.60537,2.41584 4.58502,2.28987 4.58501,2.28986 3.05961,0.7865 3.05961,0.78649 9.5,-0.24377 9.5,-0.24376 z m 58.29275,-41.88344 2.56247,-2.01564 1.15108,-3.48782 1.15109,-3.48783 -0.65547,-2.98435 -0.65548,-2.98435 -2.55808,-2.01219 -2.55808,-2.01218 h -4.28335 -4.28335 l -1.61878,0.62118 -1.61877,0.62118 -1.46301,2.82916 -1.46302,2.82916 v 4.12658 4.12658 l 2.92308,2.92308 2.92308,2.92308 h 3.94206 3.94206 z m -141.14235,-6.06486 2.01892,-1.08049 1.47204,-3.5231 1.47205,-3.5231 -0.668,-3.1464 -0.668,-3.14641 -1.6387,-1.88802 -1.63871,-1.88802 -3.35359,-1.41868 -3.35359,-1.41869 -2.88422,0.63348 -2.88423,0.63348 -2.01218,2.55808 -2.01219,2.55808 v 4.94207 4.94206 l 2.92308,2.92308 2.92308,2.92308 h 4.14266 4.14266 z m 195.26038,-21.44419 3.21303,-1.52468 4.5863,-4.72532 4.5863,-4.72531 4.65731,-7 4.6573,-7 4.38044,-9.16479 4.38045,-9.16478 1.62996,-5.33522 1.62996,-5.33521 0.80387,-8.35643 0.80388,-8.35643 -0.98867,-4.14357 -0.98866,-4.14357 0.16503,-4.2516 0.16504,-4.2516 -1.42379,-3.2484 -1.42379,-3.2484 -2.11961,-9 -2.11962,-9 -1.81201,-2.5 -1.81202,-2.500004 -1.24516,-5.672722 -1.24516,-5.672721 -1.38114,-1.146245 -1.38114,-1.146245 -2.05532,-6.36189 -2.05531,-6.361891 -3.67662,-6.273201 -3.67663,-6.273202 -4.02498,-4.366588 -4.02498,-4.366589 -4.05752,-2.311059 -4.05752,-2.311059 -2.75,-0.637346 -2.75,-0.637346 v -1.093709 -1.093709 l 4.54331,-6.043933 4.5433,-6.043933 -0.8047,-0.804705 -0.80471,-0.804706 -10.44806,1.466224 -10.44806,1.466223 -1.27537,-1.275365 -1.27536,-1.275366 -3.78751,-8.903571 -3.78751,-8.903572 -1.08781,-0.362601 -1.0878,-0.362602 -0.5292,6.592724 -0.5292,6.592725 -0.5738,0.57379 -0.57379,0.57379 -12.28686,-6.087326 -12.28687,-6.087326 -9,-2.584139 -9,-2.5841401 -9,-1.561019 -9,-1.5610191 -20.5,0.5065007 -20.5,0.5065008 -8.5,2.0494739 -8.5,2.0494738 -7.64805,2.503346 -7.64806,2.503347 -9.85194,4.336801 -9.85195,4.336801 -9.60265,5.652557 -9.60265,5.652557 -4.89735,3.705539 -4.89735,3.705538 -7.8955,6.598467 -7.89551,6.598467 -8.3465,9.444619 -8.34651,9.444619 -5.83748,8.555381 -5.83748,8.555381 -2.60963,5 -2.60964,5.000004 -2.11548,5 -2.11547,5 -0.92263,2 -0.92263,2 -1.4303,4.5 -1.43031,4.5 -1.59246,7.1974 -1.59247,7.19741 0.0148,10.30259 0.0148,10.3026 1.47601,6.26026 1.47601,6.26027 2.95049,5.8449 2.9505,5.8449 5.30872,5.82052 5.30871,5.82052 5.96837,3.86525 5.96837,3.86525 1.86892,-0.29094 1.86891,-0.29093 6.70667,-15.00305 6.70666,-15.00306 6.85636,-12.49694 6.85636,-12.49695 7.163,-11 7.16299,-11 8.15087,-9.5 8.15086,-9.5 2.03583,-1.25848 2.03583,-1.25847 v 0.87005 0.87005 l -3.97695,8.48658 -3.97694,8.48658 -3.52617,10.5378 -3.52617,10.53779 -0.61292,7.36405 -0.61293,7.36405 1.14246,4.20499 1.14247,4.205 1.54501,1.545 1.545,1.54501 h 0.82493 0.82493 l 13.35364,-8.92154 13.35364,-8.92153 13.5,-10.81942 13.5,-10.81941 10.93609,-10.73963 10.93609,-10.73963 0.49036,0.49036 0.49036,0.49036 -3.18137,19.24022 -3.18136,19.24022 0.005,3.12755 0.005,3.12756 1.59767,1.32595 1.59767,1.32594 8.62584,-2.92869 8.62584,-2.9287 13.55767,-6.62113 13.55768,-6.62114 6.96882,-4.35824 6.96881,-4.35825 5.09087,-3.79543 5.09087,-3.79542 h 0.90976 0.90976 l 6.87954,17.25 6.87954,17.25 8.00426,18.84218 8.00426,18.84219 4.6914,9.15781 4.6914,9.15782 3.32205,2.25 3.32206,2.25 h 3.45099 3.45098 z m -53.39329,-15.11547 7.26282,-1.64015 1.85984,-1.85985 1.85985,-1.85984 v -3.04546 -3.04545 l -2.45454,-2.45455 -2.45455,-2.45454 h -1.83536 -1.83535 l -5.75889,1.5 -5.75889,1.5 h -1.99666 -1.99667 l -2.45454,2.45454 -2.45455,2.45455 v 3.04545 3.04546 l 2,2 2,2 h 3.37734 3.37733 z m -143.65235,-2.43242 2.63486,-2.07258 v -3.77244 -3.77243 l -1.75,-1.56534 -1.75,-1.56534 -5.82038,-1.68107 -5.82039,-1.68106 -4.42592,-0.0669 -4.42592,-0.0669 -2.0037,1.81331 -2.00369,1.81332 v 3.39047 3.39046 l 2.45455,2.45455 2.45454,2.45455 2.79546,0.0152 2.79545,0.0152 4.5,1.41792 4.5,1.41792 1.61514,0.0669 1.61514,0.0669 z"
         id="path35" /><path
         style="fill:#18303c"
         d="m 282.97622,287.75013 -3.05961,-0.7865 -4.58501,-2.28986 -4.58502,-2.28987 -2.60537,-2.41584 -2.60538,-2.41584 v -1.75953 -1.75953 l 1.2,-1.2 1.2,-1.2 1.55,-0.004 1.55,-0.004 7.38297,3.74176 7.38297,3.74177 7.2836,0.3678 7.2836,0.36781 3.62748,-1.19718 3.62747,-1.19717 4.46461,-3.40791 4.46461,-3.40791 h 1.79134 1.79135 l 1.2,1.2 1.2,1.2 v 2.2111 2.21111 l -3.25,2.74873 -3.25,2.74873 -5.5,2.54813 -5.5,2.54813 -9.5,0.24376 -9.5,0.24377 z m 72.48269,-45.04005 -2.92308,-2.92308 v -4.12658 -4.12658 l 1.46302,-2.82916 1.46301,-2.82916 1.61877,-0.62118 1.61878,-0.62118 h 4.28335 4.28335 l 2.55808,2.01218 2.55808,2.01219 0.65548,2.98435 0.65547,2.98435 -1.15109,3.48783 -1.15108,3.48782 -2.56247,2.01564 -2.56247,2.01564 h -3.94206 -3.94206 z m -141,-7 -2.92308,-2.92308 v -4.94206 -4.94207 l 2.01219,-2.55808 2.01218,-2.55808 2.88423,-0.63348 2.88422,-0.63348 3.35359,1.41869 3.35359,1.41868 1.63871,1.88802 1.6387,1.88802 0.668,3.14641 0.668,3.1464 -1.47205,3.5231 -1.47204,3.5231 -2.01892,1.08049 -2.01892,1.0805 h -4.14266 -4.14266 z m 195.05063,-20.32692 -3.32205,-2.25 -4.6914,-9.15782 -4.6914,-9.15781 -8.00426,-18.84219 -8.00426,-18.84218 -6.87954,-17.25 -6.87954,-17.25 h -0.90976 -0.90976 l -5.09087,3.79542 -5.09087,3.79543 -6.96881,4.35825 -6.96882,4.35824 -13.55768,6.62114 -13.55767,6.62113 -8.62584,2.9287 -8.62584,2.92869 -1.59767,-1.32594 -1.59767,-1.32595 -0.005,-3.12756 -0.005,-3.12755 3.18136,-19.24022 3.18137,-19.24022 -0.49036,-0.49036 -0.49036,-0.49036 -10.93609,10.73963 -10.93609,10.73963 -13.5,10.81941 -13.5,10.81942 -13.35364,8.92153 -13.35364,8.92154 h -0.82493 -0.82493 l -1.545,-1.54501 -1.54501,-1.545 -1.14247,-4.205 -1.14246,-4.20499 0.61293,-7.36405 0.61292,-7.36405 3.52617,-10.53779 3.52617,-10.5378 3.97694,-8.48658 3.97695,-8.48658 v -0.87005 -0.87005 l -2.03583,1.25847 -2.03583,1.25848 -8.15086,9.5 -8.15087,9.5 -7.16299,11 -7.163,11 -6.85636,12.49695 -6.85636,12.49694 -6.70666,15.00306 -6.70667,15.00305 -1.86891,0.29093 -1.86892,0.29094 -5.96837,-3.86525 -5.96837,-3.86525 -5.30871,-5.82052 -5.30872,-5.82052 -2.9505,-5.8449 -2.95049,-5.8449 -1.47601,-6.26027 -1.47601,-6.26026 -0.0148,-10.3026 -0.0148,-10.30259 1.59247,-7.19741 1.59246,-7.1974 1.43031,-4.5 1.4303,-4.5 0.92263,-2 0.92263,-2 2.11547,-5 2.11548,-5 2.60964,-5.000004 2.60963,-5 5.83748,-8.555381 5.83748,-8.555381 8.34651,-9.444619 8.3465,-9.444619 7.89551,-6.598467 7.8955,-6.598467 4.89735,-3.705538 4.89735,-3.705539 9.60265,-5.652557 9.60265,-5.652557 9.85195,-4.336801 9.85194,-4.336801 7.64806,-2.503347 7.64805,-2.503346 8.5,-2.0494738 8.5,-2.0494739 20.5,-0.5065008 20.5,-0.5065007 9,1.5610191 9,1.561019 9,2.5841401 9,2.584139 12.28687,6.087326 12.28686,6.087326 0.57379,-0.57379 0.5738,-0.57379 0.5292,-6.592725 0.5292,-6.592724 1.0878,0.362602 1.08781,0.362601 3.78751,8.903572 3.78751,8.903571 1.27536,1.275366 1.27537,1.275365 10.44806,-1.466223 10.44806,-1.466224 0.80471,0.804706 0.8047,0.804705 -4.5433,6.043933 -4.54331,6.043933 v 1.093709 1.093709 l 2.75,0.637346 2.75,0.637346 4.05752,2.311059 4.05752,2.311059 4.02498,4.366589 4.02498,4.366588 3.67663,6.273202 3.67662,6.273201 2.05531,6.361891 2.05532,6.36189 1.38114,1.146245 1.38114,1.146245 1.24516,5.672721 1.24516,5.672722 1.81202,2.500004 1.81201,2.5 2.11962,9 2.11961,9 1.42379,3.2484 1.42379,3.2484 -0.16504,4.2516 -0.16503,4.2516 0.98866,4.14357 0.98867,4.14357 -0.80388,8.35643 -0.80387,8.35643 -1.62996,5.33521 -1.62996,5.33522 -4.38045,9.16478 -4.38044,9.16479 -4.6573,7 -4.65731,7 -4.5863,4.72531 -4.5863,4.72532 -3.21303,1.52468 -3.21304,1.52469 h -3.45098 -3.45099 z m -55.97371,-14.75 -2,-2 v -3.04546 -3.04545 l 2.45455,-2.45455 2.45454,-2.45454 h 1.99667 1.99666 l 5.75889,-1.5 5.75889,-1.5 h 1.83535 1.83536 l 2.45455,2.45454 2.45454,2.45455 v 3.04545 3.04546 l -1.85985,1.85984 -1.85984,1.85985 -7.26282,1.64015 -7.26282,1.64016 h -3.37733 -3.37734 z m -138,-1.55172 -4.5,-1.41792 -2.79545,-0.0152 -2.79546,-0.0152 -2.45454,-2.45455 -2.45455,-2.45455 v -3.39046 -3.39047 l 2.00369,-1.81332 2.0037,-1.81331 4.42592,0.0669 4.42592,0.0669 5.82039,1.68106 5.82038,1.68107 1.75,1.56534 1.75,1.56534 v 3.77243 3.77244 l -2.63486,2.07258 -2.63486,2.07258 -1.61514,-0.0669 -1.61514,-0.0669 z"
         id="path34" /></g></g></svg>
