<?xml version="1.0" encoding="UTF-8" standalone="no"?>
<svg
   viewBox="0 0 512 512"
   version="1.1"
   id="svg1"
   sodipodi:docname="family-young-boy.svg"
   inkscape:version="1.3 (0e150ed, 2023-07-21)"
   xml:space="preserve"
   xmlns:inkscape="http://www.inkscape.org/namespaces/inkscape"
   xmlns:sodipodi="http://sodipodi.sourceforge.net/DTD/sodipodi-0.dtd"
   xmlns="http://www.w3.org/2000/svg"
   xmlns:svg="http://www.w3.org/2000/svg"><defs
     id="defs1" /><sodipodi:namedview
     id="namedview1"
     pagecolor="#ffffff"
     bordercolor="#666666"
     borderopacity="1.0"
     inkscape:showpageshadow="2"
     inkscape:pageopacity="0.0"
     inkscape:pagecheckerboard="0"
     inkscape:deskcolor="#d1d1d1"
     inkscape:zoom="0.5"
     inkscape:cx="363"
     inkscape:cy="297"
     inkscape:window-width="1366"
     inkscape:window-height="717"
     inkscape:window-x="0"
     inkscape:window-y="27"
     inkscape:window-maximized="1"
     inkscape:current-layer="g33"
     showgrid="false" /><!--!Font Awesome Free 6.5.1 by @fontawesome - https://fontawesome.com License - https://fontawesome.com/license/free Copyright 2024 Fonticons, Inc.--><g
     id="g33"
     transform="translate(-80.082976,64.183922)"><g
       id="g35"
       transform="matrix(1.0500736,0,0,1.0500736,1.8038553,17.638911)"><path
         style="fill:#dbaf88"
         d="m 309.43356,355.95669 c -32.11055,-4.73156 -63.3513,-16.35135 -90.77414,-33.73147 -10.17642,-6.73299 -19.79004,-14.55404 -28.70045,-22.80915 -12.16145,-12.80806 -21.99737,-27.56731 -28.30056,-44.10234 -2.69036,-6.7814 -11.9533,-7.17598 -17.49612,-11.18555 -12.49207,-6.84648 -22.42915,-18.45788 -26.13074,-32.40374 -3.44639,-13.53583 -2.06284,-28.87717 4.34266,-41.30938 2.14399,-7.138 10.02116,-6.20054 13.97158,-10.94361 -0.4401,2.94656 -0.4426,12.02591 1.20927,17.32154 2.51098,17.20097 8.90167,33.50699 15.69718,49.41283 8.74853,1.43659 4.3679,-9.37937 5.84082,-14.73261 0.30997,-22.38295 9.38838,-43.49464 17.46354,-64.02095 4.74704,-8.68333 6.6541,-19.29011 14.37696,-25.95797 1.03598,-10.23833 9.0292,-18.59602 13.67135,-27.640561 2.93414,-3.196324 8.05258,-17.65166 9.91938,-6.984011 3.78873,12.856884 9.85845,24.977392 19.003,34.874752 13.51212,15.86807 34.24264,25.2266 55.07721,25.45257 6.1806,-0.62997 5.67308,-11.32151 6.07278,-16.59331 1.80062,-6.64014 -1.75796,-14.50489 -0.52931,-20.13251 5.7427,1.03514 11.1141,7.49893 17.43126,9.50064 3.85263,4.67815 11.18902,4.75405 16.42281,8.50414 10.9454,5.17058 22.00165,11.17551 33.79224,13.64172 8.87042,-0.14736 0.19216,-9.37889 -1.8504,-13.13845 -1.35568,-3.26363 -12.59838,-16.55639 -4.57944,-11.92417 7.1007,4.9847 15.0092,9.63872 21.29036,15.19154 5.10732,2.03791 10.84827,6.40588 14.27876,9.85709 -5.74782,0.34574 -11.87183,3.74045 -16.3825,6.8462 -4.01532,5.6483 -1.61732,17.72313 7.03613,15.581 8.49678,0.39351 15.80595,-5.23394 23.76297,-7.57688 2.84859,-7.94485 10.31372,-1.24139 14.80107,1.4116 6.67316,4.02612 13.34632,8.05223 20.01948,12.07834 7.60473,-1.08956 -0.2262,-16.31344 6.26876,-14.61144 12.86268,10.82967 26.23674,21.01209 38.80052,32.27126 8.60704,2.6653 6.95984,-6.70824 6.90384,-12.18467 0.0646,-7.10511 0.12921,-14.21022 0.19382,-21.31533 0.86888,6.31907 -1.2972,15.50519 7.9053,13.9517 8.21949,1.63802 14.95326,7.00328 19.32685,14.09674 8.03807,11.53778 4.06096,27.44247 -5.66977,36.76143 -13.66742,15.15123 -32.73616,23.98925 -50.24569,33.66967 -6.38508,7.71736 -7.92688,18.5408 -14.3303,26.48925 -16.49853,27.18432 -41.85968,48.70848 -70.92672,61.48921 -15.2227,7.32559 -31.89228,12.16382 -48.60581,14.36535 -6.82651,0.10126 -13.62113,2.14793 -20.35795,0.52953 z m 19.16667,-19.51963 c -2.4831,-1.082 1.27461,4.49957 0,0 z m 6.33333,-16.04088 c 7.19148,-1.78595 12.61598,-0.99572 17.90162,-5.34539 5.80594,-1.26427 13.30433,-9.18636 9.23848,-14.37282 -3.78199,-5.4054 -11.76548,-6.63259 -16.36906,-1.56692 -16.92785,12.65761 -42.02937,12.45611 -58.26559,-1.33518 -5.15253,-4.82612 -15.55515,-0.01 -13.50545,7.42039 -2.38291,9.70524 9.02405,11.80179 15.92405,13.88929 12.72886,3.7099 26.54011,4.18143 39.67899,2.54988 1.79899,-0.41308 3.59797,-0.82617 5.39696,-1.23925 z m 24.72917,-25.89662 c -7.59138,-0.84059 0.47883,2.04469 0,0 z m 11.27083,-5.89583 c -1.14484,-2.16789 -1.24738,2.06934 0,0 z m 5.77084,-4.3125 c -1.99049,-6.68637 -5.57361,6.94704 0,0 z m -200.10417,-6.85417 c -2.4831,-1.082 1.27461,4.49957 0,0 z m 146.98666,-4.55809 c 5.70178,-9.58305 2.38366,-22.12519 3.32644,-33.00585 -0.79289,-23.8386 -4.92321,-47.49035 -6.91087,-71.26939 -3.80152,-4.68673 -10.09014,-9.12364 -15.62633,-5.54262 -6.40376,11.46297 -5.85502,25.69897 -8.46915,38.13648 0.43233,20.68493 -4.01851,42.11305 2.33155,62.16109 2.0609,6.38519 5.96131,14.47159 13.9766,11.60168 3.62823,-0.85847 8.86676,1.13584 11.37176,-2.08139 z m 66.34667,-3.27524 c -1.14484,-2.16789 -1.24738,2.06934 0,0 z m 11,-22 c -1.14484,-2.16789 -1.24738,2.06934 0,0 z m 67,0 c -1.14484,-2.16789 -1.24738,2.06934 0,0 z m -72.5,-4.5 c 10.63157,-2.70124 -3.6875,-2.4116 -0.18101,-7 7.05289,2.09242 11.6747,-4.72742 12.56022,-10.96099 1.63509,-6.25542 2.02217,-16.03125 -4.49722,-19.27566 -6.12554,-2.26856 -12.9459,0.46275 -14.35715,7.17434 -4.01708,7.4778 -2.77141,18.45891 3.7874,24.0643 -1.4546,2.13663 -1.02024,10.08657 2.68776,5.99801 z m 93.5,-8 c -2.28968,-4.33578 -2.49476,4.13867 0,0 z m -259.63485,-6.07258 c 5.44005,-4.1776 1.38867,-12.96515 2.63485,-19.1797 1.446,-7.86789 -10.16676,-11.74628 -14.85355,-5.94146 -5.81589,4.27307 -6.16542,13.93965 -4.10678,20.30363 1.92157,6.74833 11.29031,9.52807 16.32548,4.81753 z m 203.30152,-2.59409 c -2.4831,-1.082 1.27461,4.49957 0,0 z M 240.01049,164.18065 c 6.86374,-5.04949 1.54863,-15.5714 -5.89905,-16.98492 -10.27244,-5.66073 -22.60404,-5.054 -34.03271,-5.092 -6.58322,4.77844 -5.76395,17.45592 3.41312,18.34926 4.93356,0.0175 10.4804,0.14245 15.94171,1.65875 6.29659,1.79159 15.38237,9.29604 20.57693,2.06891 z m 252.23294,-31.57692 c -0.32917,-13.84305 1.42206,5.65636 -0.008,4.86826 0.003,-1.62276 0.006,-3.24551 0.008,-4.86826 z m -356.05768,-2 c 0.40189,-11.31727 0.81984,10.49689 -0.003,0.6048 z m 0.90571,-7.5 c 0.56092,-7.38963 0.75891,7.06991 0,0.23651 z m 354.07411,-3 c 0.4462,-10.17179 0.65947,9.9483 0,0.10476 z m -353.03706,-3.5 c 0.87957,-11.03585 0.47758,10.63586 0,0 z m 351.96295,-4.5 c 0.56092,-7.38963 0.75891,7.06991 0,0.23651 z M 139.01251,111.5204 c 0.18094,-5.33638 1.5823,4.52151 -0.0323,0.78587 z m 0.92105,-4.41667 c 0.62382,-6.7086 1.66686,6.94161 0,0 z m 349.1579,-1 c 0.56092,-7.389635 0.75891,7.06991 0,0.23651 z M 141.01251,103.5204 c 0.18094,-5.336383 1.5823,4.52151 -0.0323,0.78587 z m 347.07895,-2.41667 c 0.56092,-7.389637 0.75891,7.06991 0,0.23651 z M 142.01251,99.520396 c 0.18095,-5.336377 1.5823,4.521514 -0.0323,0.785874 z m 345,-3 c 0.1808,-5.336374 1.58217,4.521514 -0.0324,0.785881 z m -344.07895,0.08333 c 1.14484,-2.167889 1.24738,2.069335 0,0 z m 1,-2.5 c 0.62388,-6.708744 1.6668,6.941754 0,0 z m 342.07895,-1.583333 c 0.1808,-5.336374 1.58217,4.521513 -0.0324,0.785881 z M 144.93356,91.103729 c 0.62388,-6.708744 1.6668,6.941758 0,0 z m 340,-2 c 0.62388,-6.708744 1.6668,6.941758 0,0 z m -339,-1 c 0.62388,-6.708744 1.6668,6.941758 0,0 z m 338.07895,-1.668212 c -3.71742,-11.916897 2.8519,2.368934 0,0 z M 146.93356,85.603729 c 1.14484,-2.167889 1.24738,2.069335 0,0 z m 1.07088,-2 c 4.1815,-11.600992 3.33046,-1.716154 0,0 z m 333.92912,-4 c 1.14484,-2.167889 1.24738,2.069335 0,0 z M 480.5571,76.56507 c -2.6467,-8.253199 3.96503,5.382482 0,0 z m -329.62354,0.03866 c 1.14484,-2.167889 1.24738,2.069335 0,0 z m 1,-2 c 1.14484,-2.167889 1.24738,2.069335 0,0 z m 2.5,-4.5 c 7.15559,-12.156731 -4.5013,11.409852 0,0 z m 324.5,2 c 0.62388,-6.708744 1.6668,6.941758 0,0 z m -1.83755,-4.542827 c -5.4302,-13.076673 5.9963,9.24283 0,0 z M 157.93356,64.10373 c 5.05991,-7.859256 -2.38173,7.469081 0,0 z m 317,-1.5 c 1.14484,-2.167889 1.24738,2.069335 0,0 z m -314.5,-2.5 c 3.6858,-4.202469 -1.17306,4.240166 0,0 z m 313.5,0.5 c 1.14484,-2.167889 1.24738,2.069335 0,0 z m -3,-5.5 c -5.56071,-12.49348 7.19957,11.134353 0.49771,0.9756 z m -309,2.5 c 1.14484,-2.167889 1.24738,2.069335 0,0 z m 1,-1.877555 c 6.17735,-7.038508 2.73081,-0.127832 0,0 z m 3.5,-4.622445 c 3.6858,-4.202469 -1.17306,4.240166 0,0 z m 300.90451,-2.154508 c -1.97186,-3.989036 4.13593,3.891716 0,0 z M 167.93356,48.726174 c 6.17735,-7.038508 2.73081,-0.127832 0,0 z m 297.40451,-2.776953 c -1.97186,-3.989036 4.13593,3.891716 0,0 z M 175.67913,39.603729 c 6.75388,-8.426826 15.10519,-15.354219 22.69116,-23 -9.2891,9.644498 -18.34455,19.517076 -27.79917,29 1.70267,-2 3.40534,-4 5.10801,-6 z m 287.65894,3.345492 c -1.97186,-3.989036 4.13593,3.891716 0,0 z m -2,-3 c -1.97186,-3.989036 4.13593,3.891716 0,0 z m -2.53206,-3.595492 c -4.12745,-5.210791 6.40555,5.384944 0,0 z m -4.43535,-5.5 c -8.69725,-9.063343 8.52405,7.197124 1.41944,1.570669 l -0.75882,-0.839666 z m -9.9684,-11 c -9.0195,-9.243865 -3.09947,-3.54821 2.73672,2.0636 7.55847,7.141835 0.28765,2.03849 -2.73672,-2.0636 z m -243.4687,-5.25 c 8.5328,-8.1858919 -6.30725,8.194641 -0.0239,0.02545 z m 233.92432,-3.25 c -7.19373,-8.0957956 8.89884,8.203996 0.17907,0.203129 z m -228.42432,-1.25 c 6.98082,-6.9228666 -4.89941,7.207602 0,0 z m 221.5,-4.1220623 c -10.19855,-8.5399453 9.42686,6.0611303 1.79794,1.5761541 -0.59932,-0.5253847 -1.19863,-1.0507694 -1.79794,-1.5761541 z m -218,1.7445073 c 6.17735,-7.03850808 2.73081,-0.1278308 0,0 z m 4.44673,-3.5362389 c 3.09551,-4.0960017 15.141,-10.013388 4.9576,-2.9721468 -0.89707,0.292476 -7.02947,5.7982749 -4.9576,2.9721468 z M 420.13687,0.67466002 c -9.77579,-6.18337172 2.37477,-1.42640232 3.66914,2.38003218 -1.35015,-0.4090579 -2.42743,-1.6746721 -3.66914,-2.38003218 z M 225.43356,-3.8962708 c 3.6858,-4.2024689 -1.17306,4.24016585 0,0 z M 410.02495,-5.472831 c -3.22891,-3.6029186 -14.07957,-5.151065 -13.58053,-7.943382 6.40553,3.331951 13.37371,5.5328782 18.78491,10.5199422 -2.42235,0.644904 -3.49483,-1.3216009 -5.20438,-2.5765602 z M 228.43356,-5.8962708 c 3.6858,-4.2024692 -1.17306,4.2401658 0,0 z m 2.5,-1.5 c 1.14484,-2.167889 1.24738,2.0693352 0,0 z m 2.5,-1.5 c 3.6858,-4.2024692 -1.17306,4.2401658 0,0 z m 2.5,-1.4296322 c 3.57886,-4.080133 7.07053,-2.047864 0,0 z m 5,-3.070368 c 1.14484,-2.167889 1.24738,2.069335 0,0 z m 2,-0.929632 c 3.57886,-4.080134 7.07053,-2.047863 0,0 z m 151,-0.07037 c 1.14484,-2.167889 1.24738,2.069335 0,0 z m -2,-1 c 1.14484,-2.167889 1.24738,2.069335 0,0 z m -4,-1.5 c -4.68531,-3.955499 9.23162,3.699764 0,0 z m -140,-0.448639 c 6.59719,-5.629214 8.4829,-2.115001 0,0 z m 134,-2.051361 c -7.60143,-5.365301 11.62507,5.005226 0,0 z m -127,-2 c 1.14484,-2.167889 1.24738,2.069335 0,0 z m 117.00876,-1.107054 c -9.85226,-2.50068 -6.70049,-4.235354 1.38996,-0.770307 9.48102,2.29274 5.40603,3.220019 -1.38996,0.770307 z m -115.00876,0.107054 c 1.14484,-2.167889 1.24738,2.069335 0,0 z m 2.73334,-1.624087 c 11.42205,-7.823227 -4.9148,5.038231 0,0 z m 14.26666,0.624087 c 1.14484,-2.167889 1.24738,2.069335 0,0 z m 4,0 c 1.14484,-2.167889 1.24738,2.069335 0,0 z m -6.66666,-1.166666 c 4.96696,-1.100838 -1.73015,2.603517 0,0 z m 8.66666,0.166666 c 1.14484,-2.167889 1.24738,2.069335 0,0 z m -15.23834,-1.207261 c 13.99066,-0.204903 -7.37208,1.355733 0,0 z m 17.23834,0.277629 c 3.57886,-4.080134 7.07053,-2.047863 0,0 z m 79.8125,-1.253482 c 6.84925,0.326658 -3.79244,1.40303 0,0 z m -4,-1 c 6.84925,0.326658 -3.79244,1.40303 0,0 z M 287.6669,-29.02036 c 11.42205,-7.823227 -4.9148,5.038231 0,0 z m 60.26666,-0.480418 c -7.41258,-3.232122 15.55477,3.073882 2.5,1.533642 -0.83333,-0.511214 -1.66667,-1.022428 -2.5,-1.533642 z m -57,-0.895495 c 1.14484,-2.167889 1.24738,2.069335 0,0 z m 2.33334,-1.166666 c 4.96696,-1.100838 -1.73015,2.603517 0,0 z m 47.9357,-0.02632 c 10.52098,-0.06579 -5.19085,1.417696 0,0 z m -44.9357,-0.973676 c 4.96696,-1.100838 -1.73015,2.603517 0,0 z m 39.47916,-0.01645 c 6.84925,0.326658 -3.79244,1.40303 0,0 z m -35.0625,-0.979166 c 9.3851,-0.252149 -4.51553,1.624147 0,0 z m 27.51904,-0.03071 c 10.52098,-0.06579 -5.19085,1.417696 0,0 z m -17.48551,-1.045414 c 3.28944,-0.938734 20.61677,0.717441 10.18948,0.37578 -3.65469,-0.100013 -22.73269,0.265885 -10.18948,-0.37578 z"
         id="path37" /><path
         style="fill:#ca9174"
         d="m 327.93356,337.10373 c -0.89598,-7.14622 2.50099,6.71152 0,0 z m -20.07595,-15.08972 c -11.40942,-0.10961 -22.67444,-3.42235 -32.67738,-8.82509 -1.75793,-5.31309 -3.10029,-13.0178 2.57203,-16.32403 5.2656,-3.03505 10.45534,1.17729 14.60194,4.42131 14.5243,9.37887 34.07492,9.45171 48.84651,0.61264 5.08744,-2.90753 9.24825,-7.44516 15.66326,-5.79503 4.95643,3.20024 9.0356,7.66816 4.41078,13.07238 -2.72836,5.19551 -10.14555,5.20252 -13.34119,8.78044 -3.93416,1.42339 -10.99386,1.22697 -16.01735,3.13239 -7.87024,1.91659 -16.05081,1.7017 -24.0586,0.92499 z m 35.25409,-6.2254 c 5.88198,-2.0907 13.80491,-3.43919 16.82186,-9.09296 2.0977,-6.99203 -4.63395,-8.7613 -10.19125,-7.59192 -10.07971,7.80422 -23.04257,12.21331 -35.71601,11.57764 -11.16276,-0.62278 -21.21203,-5.8959 -29.95309,-12.57764 -6.36097,-1.47519 -9.49622,5.46809 -8.11172,10.84584 1.6939,5.19447 8.96066,5.79717 13.48675,7.81337 10.14924,3.05393 20.51342,3.85999 31.04839,2.88014 7.94864,0.32883 15.25749,-0.69954 22.61507,-3.85447 z m 14.63436,-21.36799 c 7.59038,-0.10607 -5.17499,1.65669 0,0 z m 12.1875,-5.81689 c 1.14484,-2.16789 1.24738,2.06934 0,0 z m 4,-3.91667 c 4.92907,-8.01452 2.51595,6.07207 0,0 z m -198,-6.58333 c -0.89598,-7.14622 2.50099,6.71152 0,0 z m 127.41497,-5.14786 c -8.24355,-10.80456 -8.7915,-25.52805 -8.35817,-38.66775 0.73602,-15.84295 -0.17031,-31.79599 3.051,-47.23556 1.42283,-8.45747 1.94203,-17.73914 6.93831,-24.94883 6.43305,-1.49947 12.29272,2.05976 15.13035,7.52634 2.40814,28.80358 8.03235,57.42652 6.75573,86.42085 -0.38525,6.14166 0.90408,15.84463 -5.88887,18.46029 -5.40681,-0.79914 -12.65317,2.78746 -16.91239,-0.74766 l -0.68454,-0.77224 z m 85.58503,-3.35214 c 1.14484,-2.16789 1.24738,2.06934 0,0 z m 11,-22 c 1.14484,-2.16789 1.24738,2.06934 0,0 z m 67,0 c 1.14484,-2.16789 1.24738,2.06934 0,0 z m -74.6441,-5.01494 c 1.50697,-5.95706 -4.10341,-9.56467 -5.3559,-15.57861 -0.8123,-6.76476 0.53798,-13.01286 4.40225,-18.66035 4.36252,-5.79587 17.06846,-3.68809 16.83021,4.80861 1.79164,8.02347 -0.29794,18.64407 -7.3662,22.94529 -8.49788,-2.10562 -7.03917,4.9724 -1.12588,4.75 1.55795,0.42405 -7.88012,4.95484 -7.38448,1.73506 z m 10.12006,-10.87011 c 5.48778,-5.41237 5.3348,-14.85833 2.93416,-21.6208 -4.02294,-4.65398 -13.75597,-1.68384 -15.01575,4.60442 -2.43324,5.82756 -2.60737,14.75793 2.83459,18.73214 3.07279,0.88221 7.41188,1.61203 9.247,-1.71576 z m 84.52404,3.38505 c 2.28968,-4.33578 2.49476,4.13867 0,0 z m -269.7832,-5.56071 c -7.62908,-5.34368 -5.82664,-16.45062 -2.55385,-23.93929 4.02887,-3.73744 9.66586,-6.32237 14.49014,-2.76179 5.53628,5.37176 1.72552,14.07729 2.84695,21.02368 0.81484,6.84621 -10.3187,9.56469 -14.78324,5.6774 z m 10.5607,-1.99599 c 4.78035,-3.75398 1.03695,-11.94433 2.2225,-17.5693 1.82139,-7.19437 -8.31101,-6.78601 -12.01017,-4.51739 -5.13509,4.77296 -3.98243,11.46184 -3.98983,17.79724 3.61935,4.33678 8.2224,8.78298 13.7775,4.28945 z m 204.2225,-0.4433 c -0.89598,-7.14622 2.50099,6.71152 0,0 z M 149.23089,216.40478 c -7.25719,-17.49468 -12.75699,-36.17635 -13.29733,-55.18302 4.07917,-0.34334 1.43182,11.76088 3.25472,16.38249 4.05781,15.50588 7.17046,31.77577 15.79139,45.49948 4.4853,-2.11739 0.55559,-12.22041 2.13628,-17.51607 4.25261,-28.91551 15.42325,-56.31243 28.99166,-82.02512 7.63986,-15.72551 16.35021,-30.951778 26.10837,-45.458811 3.97489,2.658672 3.71922,10.780663 6.37267,15.438144 5.39965,14.179567 14.22837,26.818697 26.09759,36.323987 12.13831,9.60598 27.51401,15.13443 43.03274,15.35466 6.3378,-0.87139 4.25989,-10.57091 5.15317,-15.62553 1.23241,-7.72442 -2.28003,-15.89857 -1.53464,-23.22928 6.63502,2.12637 13.30377,8.69493 20.38853,11.81283 15.45398,8.36985 31.43549,16.16094 48.12766,21.55936 7.79615,1.63193 -1.44752,-8.93375 -2.87231,-12.08228 -3.20576,-6.10158 -8.79175,-12.48234 -10.52284,-18.41095 5.87583,2.12017 11.99981,8.23186 18.11929,11.69716 9.61833,6.43977 19.23665,12.87955 28.85498,19.31932 1.34303,5.72236 -9.76078,4.28124 -13.57862,7.03338 -4.52662,2.67561 -9.1579,9.38797 -3.46683,13.35465 5.54574,6.37932 14.02943,-1.20835 20.51974,-2.54113 6.97331,0.77461 8.30342,-9.02313 13.70543,-7.47651 9.25019,5.51185 18.50038,11.02369 27.75057,16.53554 6.93375,0.008 1.10891,-12.40934 5.07856,-14.34663 8.96687,4.47054 16.67359,11.98815 24.71258,18.18501 6.36674,5.4016 12.73347,10.80319 19.10021,16.20478 5.53523,-4.69293 2.24847,-13.28783 3.641,-19.81308 0.27802,-7.80621 0.57314,-14.3227 1.10778,-2.76473 0.92991,7.64886 -0.32488,15.31351 -0.57042,22.97087 -8.06934,2.81609 -12.44264,-6.12263 -18.42416,-9.94658 -8.79335,-8.01395 -18.66913,-14.53175 -27.43583,-22.55342 -4.78703,1.76133 1.49798,12.76575 -4.64536,14.8645 -6.79322,-1.93841 -13.62222,-7.8823 -20.42948,-11.393 -4.31712,-1.95842 -11.06583,-9.49703 -14.39219,-2.70114 -5.97418,3.95336 -13.8249,6.27003 -20.70487,8.61504 -6.12309,1.46987 -13.76929,-1.01906 -12.46811,-8.56201 -1.757,-9.32452 9.12548,-10.47364 15.18644,-13.82347 8.26645,-1.35178 -6.5948,-3.71946 -6.70776,-7.9741 -5.58103,-1.54016 -9.54864,-6.30692 -14.81175,-9.45615 -4.795,-2.76133 -9.79019,-7.62837 -14.46322,-9.10679 3.15245,7.49577 9.48582,15.34482 13.85839,22.9761 -0.6707,7.01211 -9.77408,1.99658 -13.91344,0.65483 -12.71426,-4.04934 -24.11783,-11.92942 -36.60716,-16.09389 -4.12296,-3.00376 -9.55085,-6.0099 -14.31253,-9.10837 -3.81449,-4.38457 -10.47483,-5.3407 -6.98939,2.33558 1.57361,8.21579 0.7578,17.09669 -0.76998,25.1739 -0.61726,8.08841 -7.77876,5.35466 -13.52298,4.96463 -17.55944,-2.01323 -34.41393,-11.05317 -46.037,-24.32396 -7.2243,-8.04557 -12.86057,-17.04961 -16.55225,-27.227332 -2.59446,-2.987849 -2.04377,-12.609967 -5.60218,-12.029281 -7.386,11.70191 -15.76853,23.339563 -20.75519,36.167113 -0.80426,5.51518 -7.41392,8.88485 -8.3205,15.07272 -10.12319,21.88113 -19.46365,44.65131 -23.11036,68.5675 -0.35638,7.63584 -0.71276,15.27167 -1.06914,22.9075 -7.11807,3.11716 -6.59184,-4.77349 -9.20193,-9.19844 z M 225.43356,164.584 c -5.69093,-2.53773 -12.58098,-4.59678 -18.53833,-3.95658 -5.65029,1.28241 -12.69487,-4.18299 -10.96167,-10.6433 -0.26251,-6.59482 6.39188,-9.32882 12.16299,-7.88039 11.26484,-0.0255 23.30908,1.67482 32.2848,8.80122 4.28881,4.32699 3.46687,11.6297 -1.83027,14.73511 -3.0314,3.64553 -9.63205,0.4139 -13.11752,-1.05606 z m 13.9433,-1.70278 c 3.61004,-4.52253 1.51222,-12.41518 -4.68701,-13.40099 -10.05444,-5.50733 -21.89784,-5.61158 -33.0988,-5.37657 -5.15218,2.67864 -5.32478,10.98608 -0.24482,13.77845 9.228,1.88385 19.5132,0.66084 27.73353,6.41377 3.0117,0.67515 8.85657,2.36922 10.2971,-1.41466 z M 136.3221,146.60373 c 0.0388,-4.94245 -0.15771,-19.04829 0.32236,-6.8165 0.67991,6.60761 0.0354,13.21167 -0.32573,19.8165 0.001,-4.33333 0.002,-8.66667 0.003,-13 z m 355.96642,0 c -0.1479,-8.99512 0.0787,-9.74642 0.75663,-0.56035 -0.7238,8.09866 -0.82061,14.56812 -0.75663,0.56035 z m -1.02681,-17 c -0.60401,-11.34059 1.25317,-2.46542 0.39353,3.7723 -0.46433,14.36702 -0.37323,-3.99251 -0.39353,-3.7723 z m -354.05578,-0.5 c 0.0549,-12.00678 1.12406,8.16759 0,2.43609 0,-0.81203 0,-1.62406 0,-2.43609 z m 0.88553,-8 c 0.56783,-8.15856 0.8139,8.26391 0,0 z m 352.11447,-3 c 0.0549,-12.00678 1.12406,8.16759 0,2.43609 0,-0.81203 0,-1.62406 0,-2.43609 z m -351.07742,-2.5 c 0.79882,-10.49068 0.56203,10.11595 0,0 z m 350,-5 c 0.79882,-10.49068 0.56203,10.11595 0,0 z m -349.03705,-0.5 c 0.56783,-8.15856 0.8139,8.26391 0,0 z m 0.8421,-4 c -0.89598,-7.146222 2.50099,6.71152 0,0 z m 347.1579,-1 c 0.56783,-8.15856 0.8139,8.26391 0,0 z M 142.01251,102.5204 c 0.95316,-5.819745 0.81341,6.17531 0,0 z m 344.47661,-3.972226 c -1.45855,-12.485026 3.36678,9.640606 0.11369,0.606028 z m -343.46996,0.555555 c 2.09287,-8.752521 2.70831,-1.557885 0,0 z m 1.9144,-6 c -0.89592,-7.146023 2.50096,6.711403 0,0 z m 339.57143,-2.571428 c -1.43275,-12.157343 3.53601,9.595789 0,0 z M 146.0042,90.873966 c 0.74613,-5.979667 6.16271,-12.439992 1.60243,-2.722717 -0.3313,0.171647 -1.74466,5.047381 -1.60243,2.722717 z m 336.92936,-5.770237 c -0.89592,-7.146023 2.50096,6.711403 0,0 z m -1.21128,-3.52579 c -4.31694,-8.849341 1.76433,-3.642692 0.62356,1.788951 -0.24478,1.062984 -0.39428,-2.155374 -0.62356,-1.788951 z m -331.78872,-0.97421 c 1.14484,-2.167889 1.24738,2.069335 0,0 z m 1,-1.882993 c 2.29851,-7.514061 5.43446,-7.557984 0.74565,-0.117007 -0.2988,0.170561 -1.13389,1.744631 -0.74565,0.117007 z m 328,-4.617007 c -0.89592,-7.146023 2.50096,6.711403 0,0 z M 477.5571,70.56507 c -2.73443,-8.244263 4.11045,5.319541 0,0 z m -322.62354,0.03866 c 1.14484,-2.167889 1.24738,2.069335 0,0 z m 2,-3.5 c 5.46943,-8.315097 -2.8324,7.965998 0,0 z m 319,-0.5 c 1.14484,-2.167889 1.24738,2.069335 0,0 z m -2.30459,-5.012557 c -4.70186,-10.316597 5.63023,7.136216 0.77467,1.624505 L 473.95946,62.28421 Z M 161.04535,60.35373 c 10.16276,-16.669062 24.05295,-30.703972 38.41318,-43.74428 14.1614,-11.9213568 29.27613,-22.7101211 45.47503,-31.695763 -4.81064,5.1632137 -13.31264,8.0762029 -19.3665,12.6260893 -19.49373,13.7555457 -37.93224,29.1400917 -52.97656,47.7679467 -5.47096,5.449418 -8.37028,14.019446 -13.82005,18.796007 0.7583,-1.25 1.5166,-2.5 2.2749,-3.75 z m 308.27684,-6.5 C 462.26105,41.223664 453.60629,29.533496 442.71931,19.920435 435.04007,10.985889 424.8373,5.0421805 415.43356,-1.8485231 c -5.53481,0.1535242 -7.89349,-7.2375818 -14.21047,-6.2398401 -1.63481,5.3731167 -4.28256,11.8547333 -8.56386,15.1920941 0.37968,-2.6024261 6.24988,-7.87540223 5.53266,-13.0416188 3.31493,-4.3407551 -6.23425,-9.0180871 -10.80886,-10.1965021 -5.94207,-3.607233 8.51019,1.794945 10.46541,4.274515 4.73439,3.5688946 10.32514,3.3319971 14.51209,8.0858018 17.21062,8.0796169 30.12325,22.2967922 43.28574,35.6035402 5.39077,7.965151 13.17479,17.100639 15.83866,25.274264 -1.23441,-0.01726 -1.37416,-2.423602 -2.16274,-3.250001 z M 366.1324,13.131086 c -5.08853,-1.800245 -12.37201,-5.1099925 -13.19884,-10.5762023 -2.68848,-3.8756278 -4.11274,-7.6245248 -6.18075,-12.8497817 -1.47279,-4.772647 -0.78206,-11.783994 2.83898,-15.854457 -5.56417,-4.174512 -10.39568,-6.594775 -0.76233,-2.73478 7.83128,2.048406 9.43703,-0.200726 2.26926,5.299676 -0.70572,10.588608 -1.00089,23.1708618 8.38049,30.3294857 3.8698,6.2779703 12.21084,5.1812773 18.64142,5.2743153 4.52164,0.351082 14.94419,-4.0289214 5.6017,0.580311 -4.96273,2.87102 -12.46337,3.167548 -17.58993,0.531433 z m -0.11781,-21.8759689 c -3.41276,-3.0382911 0.83927,-15.6600291 1.0145,-6.0366371 -0.19173,1.557511 1.72613,11.6752574 -1.0145,6.0366371 z m 17.91897,0.8486121 c -0.89592,-7.1460102 2.50096,6.7113952 0,0 z m -138,-7.4486392 c 5.77904,-4.882847 7.63347,-2.522275 0,0.5 z m 133.5,-4.087476 c -5.00168,-2.330887 -10.99936,-0.917689 -15.5,-4.992074 -4.92091,-4.187953 6.63587,2.668761 10.009,2.353214 3.07073,-0.429278 17.75563,7.61062 5.491,2.63886 z m -126.5,0.06981 c 5.52222,-4.555665 13.91916,-7.664116 21.1572,-4.068841 6.09465,1.068602 14.32984,-4.513681 4.34103,1.12466 -5.37053,1.19312 -10.91136,-3.671887 -16.48523,-1.123051 -2.71516,1.018344 -7.09172,4.282871 -9.013,4.067232 z m 33.44019,-7.988156 c 4.97883,-3.095023 11.03648,-5.955876 17.05981,-5.413916 -6.63324,1.516956 -13.07022,3.558997 -19,6.958064 0.64673,-0.514716 1.29346,-1.029432 1.94019,-1.544148 z m 72.37231,0.77135 c 7.59037,-0.106048 -5.17502,1.65663 0,0 z m -22.0625,-4.979166 c 10.64426,-1.065397 -4.03395,1.962014 0,0 z m -6.98834,-1.044981 c 14.42187,-0.158511 -7.20454,1.33686 0,0 z m -19.97247,-1.034153 c 5.90616,-0.685198 11.80786,0.03708 17.71081,0.363245 -8,-0.0024 -16,-0.0048 -24,-0.0072 2.0964,-0.118682 4.19279,-0.237363 6.28919,-0.356045 z"
         id="path36" /><path
         style="fill:#191b58"
         d="m 295.93356,318.20491 c -6.7784,-1.65236 -15.12062,-2.86715 -19.75222,-8.25967 -1.47296,-5.01003 0.36281,-12.67025 6.824,-11.84151 6.28504,2.83811 11.91946,8.0392 18.8564,10.18156 9.58428,3.28475 19.83246,3.1505 29.53078,0.19943 7.14499,-1.31644 13.09959,-6.53174 19.35174,-9.38099 6.26546,-1.73126 10.97834,2.17704 9.18933,8.62388 -7.90501,6.88703 -18.8551,8.40049 -28.50152,11.60791 -11.81585,-0.28555 -24.01366,2.34385 -35.49851,-1.13061 z m 97.22896,-84.77047 c -5.9288,-4.55031 -5.25883,-14.33464 -2.06206,-20.58107 2.38368,-5.15802 11.76124,-7.26636 14.90226,-1.96139 1.70168,8.13637 1.44409,17.97913 -5.97825,23.21175 -2.2602,-0.27721 -4.7681,0.35534 -6.86195,-0.66929 z m -176.30588,-7.25379 c -4.92361,-3.5214 -3.21297,-11.62473 -1.80567,-16.4445 1.72615,-5.71697 7.99847,-6.55074 12.80139,-5.11478 4.42781,4.09967 1.00229,11.88727 2.0812,17.55959 1.77758,6.9545 -10.05141,9.7159 -13.07692,3.99969 z m -63.33961,-5.32692 c -7.75,-14.87249 -11.98535,-31.53337 -14.87814,-47.98188 -2.31228,-15.2063 -1.86538,-30.48516 -0.83852,-45.77927 2.51124,-20.55985 9.10358,-40.434467 19.07656,-58.586874 10.73842,-18.940456 25.18987,-35.436004 41.47345,-49.819688 14.70024,-12.9264066 30.93382,-24.1012671 48.02146,-33.675753 8.22125,-4.451604 17.01081,-12.018465 26.82496,-7.758617 6.59135,3.029051 11.93024,-4.316367 17.91371,-6.322548 11.70565,-5.16461 24.83442,-4.083237 37.29522,-3.365578 28.27065,2.211632 54.78809,13.514233 79.67892,26.268864 3.60405,5.0320713 9.66962,4.3865177 13.88524,8.958213 13.32708,8.353997 24.06696,20.068875 34.64397,31.500898 11.53419,15.988742 21.46847,33.25541 26.89395,52.324082 6.24019,19.700381 7.76042,40.456041 8.5136,60.988851 -0.68844,12.30177 -1.37688,24.60354 -2.06532,36.90531 -4.37991,5.97418 -9.453,-4.98403 -14.1609,-7.02181 -10.26663,-8.5373 -20.4824,-17.83763 -31.86166,-24.56134 -4.84362,0.67793 1.28238,13.73217 -5.01922,14.13652 -10.30549,-4.66723 -19.87451,-12.62082 -30.33417,-16.95738 -3.27161,4.19819 -8.26855,7.77999 -14.4661,9.05031 -5.81598,1.68489 -13.93167,7.67204 -18.43442,0.78511 -5.26944,-4.78163 1.29031,-12.18046 6.6614,-13.41563 3.49073,-1.83836 16.04605,-2.27732 9.42743,-7.37877 -14.95945,-10.09981 -30.12181,-19.90369 -44.80625,-30.40459 -0.94788,4.52728 5.52716,9.9252 7.48273,14.79303 2.49467,5.70114 8.57561,10.38679 8.4886,16.81897 -12.34696,-2.52184 -23.58805,-8.93587 -35.16235,-13.76756 -12.38179,-6.20924 -24.49025,-12.88871 -35.92339,-20.73003 -1.97133,5.13482 1.18551,12.00643 1.21656,17.81941 -0.8073,7.2116 0.99864,15.40019 -3.34693,21.70051 -13.84473,-0.22351 -27.72505,-3.79282 -39.31488,-11.51725 -13.72231,-8.92033 -24.58128,-22.26679 -30.54896,-37.558145 -3.23517,-5.568423 -3.68368,-13.4118 -6.9753,-18.196937 -8.42192,9.85308 -14.40581,22.836422 -21.20297,34.293292 -9.32506,18.72129 -19.35209,37.13915 -25.65525,57.16658 -6.04844,17.15537 -10.26385,35.24644 -9.08579,53.54013 -2.04149,0.58258 -2.5251,-0.77138 -3.41724,-2.25043 z m 71.83204,-58.32439 c -7.41237,-5.12931 -17.78033,-1.46336 -25.1365,-5.67311 -4.28488,-2.94541 -3.12878,-11.9001 2.38039,-12.75015 12.81616,-0.67084 26.05021,0.92291 37.09102,7.90494 3.18264,5.13977 0.86783,15.17017 -6.55878,12.98679 -2.91876,0.47427 -5.22,-1.41767 -7.77613,-2.46847 z"
         id="path35" /></g></g></svg>
