<?xml version="1.0" encoding="UTF-8" standalone="no"?>
<svg
   viewBox="0 0 512 512"
   version="1.1"
   id="svg1"
   sodipodi:docname="family-adult-female.svg"
   inkscape:version="1.3 (0e150ed, 2023-07-21)"
   xml:space="preserve"
   xmlns:inkscape="http://www.inkscape.org/namespaces/inkscape"
   xmlns:sodipodi="http://sodipodi.sourceforge.net/DTD/sodipodi-0.dtd"
   xmlns="http://www.w3.org/2000/svg"
   xmlns:svg="http://www.w3.org/2000/svg"><defs
     id="defs1" /><sodipodi:namedview
     id="namedview1"
     pagecolor="#ffffff"
     bordercolor="#666666"
     borderopacity="1.0"
     inkscape:showpageshadow="2"
     inkscape:pageopacity="0.0"
     inkscape:pagecheckerboard="0"
     inkscape:deskcolor="#d1d1d1"
     inkscape:zoom="0.5"
     inkscape:cx="473"
     inkscape:cy="561"
     inkscape:window-width="1366"
     inkscape:window-height="717"
     inkscape:window-x="0"
     inkscape:window-y="27"
     inkscape:window-maximized="1"
     inkscape:current-layer="g42"
     showgrid="false" /><!--!Font Awesome Free 6.5.1 by @fontawesome - https://fontawesome.com License - https://fontawesome.com/license/free Copyright 2024 Fonticons, Inc.--><g
     id="g33"
     transform="translate(-80.082976,64.183922)"><g
       id="g37"
       transform="translate(4.0936885,0.61828602)"><g
         id="g40"
         transform="translate(57.153421,-7.1254469)"><g
           id="g42"
           transform="translate(4.2319385,-17.10444)"><path
             style="fill:#f5c299"
             d="m 249.59907,421.46881 c -24.50435,-2.86387 -46.69801,-14.60908 -66.5,-28.77188 -9.25912,3.10975 -18.27804,8.39935 -28,9.20833 9.78848,-4.2894 22.42053,-5.0806 29.74415,-13.1697 -14.70679,-13.52663 -29.31003,-27.81821 -37.13417,-46.60539 -8.78968,-15.33006 -7.88182,-33.55901 -9.98468,-50.58427 4.0882,-15.67917 1.07064,-33.28609 6.93868,-48.93659 8.83513,9.0895 21.16529,13.96504 32.51753,19.08165 18.24687,5.81754 39.04634,5.20061 55.91354,-4.47163 8.2642,-4.27593 15.38711,-10.60023 21.41342,-17.67865 16.87065,5.82417 34.27809,11.65328 52.37857,9.02133 12.16868,-0.14911 23.47046,-7.9931 31.62258,-16.45431 6.7432,-8.1434 12.45766,-17.08837 15.30386,-27.35456 3.71,6.39693 2.82906,14.88914 4.92919,22.1126 -8.54504,-0.45362 -11.47122,12.30035 -4.80164,16.50586 6.98945,2.07978 14.79694,1.17461 17.52307,10.61996 9.76818,14.62245 26.44328,24.26893 43.88863,26.12845 5.86868,0.12692 15.75301,-1.30465 12.78434,7.9464 -1.07793,26.73553 0.2571,55.55223 -15.10202,78.84408 -3.87372,8.86372 -13.47646,14.33643 -17.43505,22.47042 1.70488,4.02073 15.53346,8.95621 3.44438,4.35403 -6.32211,-1.87704 -11.91236,6.87104 -18.03356,9.08227 -18.67991,8.69335 -39.72625,14.30226 -60.62226,16.37666 -21.81484,3.14117 -44.05565,4.0619 -65.99981,3.06226 z m 40.5,-83.66268 c 9.56956,-4.82866 4.85607,-16.7725 5.8518,-25.36647 -3.25326,-8.13253 -6.66204,-20.55137 -17.2822,-20.5 -9.2924,6.43123 -14.16497,17.42385 -12.99693,28.60975 -3.00265,13.35943 12.88433,23.21025 24.42733,17.25672 z m 93.20966,-5.83098 c 11.27769,-6.81087 6.91834,-21.48196 7.62152,-32.53549 -3.74598,-8.12294 -7.68342,-19.86376 -18.64619,-18.47064 -6.53992,-0.29954 -6.71998,-13.00619 -15.04845,-10.02936 -7.17898,-2.1586 -13.04619,5.77376 -9.19567,11.83035 2.46311,5.54461 15.5181,5.47634 8.30907,12.86249 -4.69258,7.57314 -1.14447,17.39934 -2.25,25.95321 3.47294,7.90906 11.13925,13.38849 20,12.27957 3.35049,0.0348 6.55741,0.67542 9.20972,-1.89013 z m -166.43842,-2.86349 c 9.66283,-6.67738 7.09637,-20.76955 5.11287,-30.88452 -2.58815,-9.84326 -9.29558,-20.82825 -20.88411,-20.40271 -7.9887,0.56936 -6.33129,-13.16886 -15.5,-10.88477 -10.04302,-1.5554 -11.14007,12.75247 -4.26595,17.18528 8.09976,3.39101 7.08833,7.01537 3.2905,14.67167 -3.01628,10.84132 -0.56297,24.92018 9.2541,31.32334 7.2187,2.10344 16.25165,2.31311 22.99259,-1.00829 z m -77.02124,74.11174 c 11.47658,-0.45373 5.51358,1.01651 -2.75,0.41659 0.91667,-0.13886 1.83333,-0.27773 2.75,-0.41659 z m -8.5,-0.94603 c 7.25245,-0.70792 -1.33123,1.85054 -0.0874,0.0353 z m 20,0 c 7.25245,-0.70792 -1.33123,1.85054 -0.0874,0.0353 z m -23.41667,-1.00438 c 5.06021,-1.04003 -1.92375,2.53939 0,0 z m -2.33333,-0.83333 c 1.14484,-2.16789 1.24738,2.06934 0,0 z m 298.76791,-0.22474 c 12.67351,-0.38575 5.3214,0.99283 -3.26791,0.40467 z m 17.98209,0.019 c 17.49142,-0.34401 -5.52191,1.42011 0,0 z m -320.24292,-1.28281 c -0.8815,-3.15653 5.83112,3.584 0,0 z m 294.24292,0.32626 c 7.25245,-0.70792 -1.33123,1.85054 -0.0874,0.0353 z m 35.51903,-0.0307 c 10.78888,-0.0422 -5.66376,1.38087 0,0 z m -43.76903,-1.77089 c -7.91662,-4.5611 13.60922,4.38715 0.72034,0.32992 z m 49.25,0.8016 c 7.25245,-0.70792 -1.33123,1.85054 -0.0874,0.0353 z m -338.34549,-1.49222 c -2.06794,-4.08505 4.20465,3.93315 0,0 z M 461.9324,397.273 c 5.06021,-1.04003 -1.92375,2.53939 0,0 z m 3,-1 c 5.06021,-1.04003 -1.92375,2.53939 0,0 z m -351.33333,-3.01178 c -6.24146,-5.09063 -14.122069,-10.74588 -16.000002,-18.71312 3.800432,9.2452 14.263962,15.63249 20.000002,21.34723 -1.50594,-0.13074 -2.65309,-1.92769 -4,-2.63411 z m 355,1.67845 c 8.82229,-3.86416 -4.14691,4.02737 0,0 z m 4,-1.5 c 1.14484,-2.16789 1.24738,2.06934 0,0 z m 2,-1 c 1.14484,-2.16789 1.24738,2.06934 0,0 z m 3.3571,-1.73579 c 10.66561,-6.15753 18.49473,-16.66789 24.22563,-26.76421 -1.6057,7.06247 -8.67239,14.72323 -14.71923,20.28422 -0.22249,2.56275 -14.49409,9.9383 -9.5064,6.47999 z M 96.599068,373.43966 c 1.144838,-2.16789 1.247382,2.06934 0,0 z m -0.921052,-3.08334 c 0.322798,-6.9112 1.212555,6.86075 0,0 z m -0.921053,-4.41666 c 0.912628,-10.99645 0.829765,10.89968 0,0 z m 407.872727,-3.5 c 2.95973,-9.68626 2.10168,1.54794 0,0 z m 2.12667,-5 c 3.442,-14.26028 3.46119,-2.4449 0,0 z m -409.925289,-10.5 c 0.758475,-12.51585 0.546548,12.15239 0,0 z m 412.846949,0.41666 c 0.32272,-6.91103 1.21252,6.8607 0,0 z m 1.64973,-9.91666 c 0.38264,-13.16211 2.42335,-2.86382 0.24496,4 -1.39332,6.42246 -0.32578,-1.70596 -0.24496,-4 z m -413.649734,2.91666 c 0.322798,-6.9112 1.212555,6.86075 0,0 z m 1,-5 c 0.322798,-6.9112 1.212555,6.86075 0,0 z m 1.078947,-4.41666 c 0.912628,-10.99645 0.829765,10.89968 0,0 z m -20.877722,-3.73628 c 7.92398,-0.83251 18.600265,0.99122 4.443986,0.38101 -3.828102,-0.0359 -13.83892,0.16817 -4.443986,-0.38101 z m 21.719827,-0.1904 c -9.052533,-5.66165 5.456882,0.75619 0,0 z m -36.5,-2.44742 c -7.63385,-2.66767 -14.287867,-11.23854 -16.089665,-17.6259 4.825518,8.71508 12.568629,17.69208 23.480341,19.35724 4.849398,1.80253 -7.275577,-0.26084 -7.390676,-1.73134 z m 29.25,1.71181 c 7.252446,-0.70792 -1.331231,1.85054 -0.08739,0.0353 z m 418.328952,-0.92105 c 0.32272,-6.91103 1.21252,6.8607 0,0 z m 0.0755,-5.41666 c -2.44567,-10.83592 1.34695,-7.35496 0.42736,1.21208 -0.26118,3.90761 -0.32918,0.79972 -0.42736,-1.21208 z M 507.22261,309.401 c -2.66237,-8.26548 3.99137,5.39501 0,0 z m -463.000003,-5 c -2.662358,-8.26548 3.991424,5.39501 0,0 z m 460.940753,-0.16822 c -1.59771,-10.19032 3.86322,8.47012 0,0 z m -3.06429,-5.29312 c -4.26369,-9.66932 6.03144,8.6168 0.39962,0.77279 z M 41.714688,297.84148 c -4.044302,-13.13647 4.469617,7.39546 0.290253,0.83262 z m 454.974052,-7.65182 c -7.88341,-9.73491 4.26552,1.98331 3.24937,4.75 z m -457.010724,0.16666 c 0.322798,-6.9112 1.212555,6.86075 0,0 z m -0.921053,-4.41666 c 0.912628,-10.99645 0.829765,10.89968 0,0 z m 450.404417,-5.6222 c -7.57845,-5.48146 2.43688,-11.55313 4.87749,-17.25389 1.72815,-2.7338 11.97534,-17.80864 8.10151,-10.62391 -4.83785,7.96592 -10.63118,15.31596 -15.50831,23.25561 3.69809,4.02179 10.1332,14.35074 2.52931,4.62219 z m -451.330309,-0.3778 c 0.758475,-12.51585 0.546548,12.15239 0,0 z m -0.871506,-15 c -0.549279,-14.25504 1.028629,-5.13378 0.453438,3.74944 -0.760631,11.68342 -0.34178,1.02426 -0.453438,-3.74944 z m 0.834452,-13.5 c 0.547359,-10.02314 0.746879,10.31735 0,0 z m 468.552373,-7.41964 c 5.6326,-10.97136 1.31014,3.1473 -2.74674,4.91964 z m -467.62614,2.91964 c 2.805076,-12.22629 2.991355,-1.60858 0.0051,0.24657 z m 3.750377,-9.5 c 6.859399,-11.5239 1.240513,1.11806 -0.42939,0.87462 z m 467.159063,0 c 2.95973,-9.68626 2.10168,1.54794 0,0 z m 2.12727,-6.5 c 0.91264,-10.9964 0.82976,10.89963 0,0 z m -464.370279,-1.5 c 2.11279,-4.04394 16.038325,-15.94948 6.451505,-6.34427 -1.406845,1.15342 -9.472963,11.42814 -6.451505,6.34427 z m 465.606949,-15 c 8.4e-4,-7.55121 -0.1181,-20.17827 0.4084,-5.45397 0.7063,4.21133 -0.4585,20.93302 -0.41059,16.94659 7.3e-4,-3.83088 10e-4,-7.66175 0.002,-11.49262 z m -453.756594,3.00105 c -1.01376,-5.87609 -9.847913,-13.54325 -0.641782,-4.13922 4.483663,1.00444 -0.363112,8.68868 0.641782,4.13922 z m -8.173024,-13.56885 c -4.928223,-12.3759 5.724658,8.14368 0.434682,0.84059 z m 460.730008,-7.4322 c 0.54741,-10.02318 0.74699,10.31741 0,0 z m -463.194952,0.5 c 0.951848,-1.64259 1.174862,0.50426 0,0 z m -0.842105,-4 c 0.912628,-10.99645 0.829765,10.89968 0,0 z m 462.999997,-3 c 0.91264,-10.9964 0.82976,10.89963 0,0 z m -463.871878,-6.5 c 0.572718,-15.13555 0.610294,15.27406 0,0 z m 462.871878,1.5 c 0.91264,-10.9964 0.82976,10.89963 0,0 z m -1,-5 c 0.91264,-10.9964 0.82976,10.89963 0,0 z m -460.962943,-5.5 c 0.547359,-10.02314 0.746879,10.31735 0,0 z m 459.805053,1.5 c 0.95171,-1.64294 1.17502,0.50469 0,0 z m -0.92105,-3.58334 c 0.32272,-6.91103 1.21252,6.8607 0,0 z M 48.599068,169.93966 c 0.951848,-1.64259 1.174862,0.50426 0,0 z m 457.000002,-1 c 0.95171,-1.64294 1.17502,0.50469 0,0 z M 49.66953,166.91144 c 0.61099,-4.00513 5.627465,-14.67484 7.396543,-14.85347 -2.621103,3.6818 -6.682437,15.71743 -7.396543,14.85347 z m 453.89178,-3.65478 c -6.37273,-18.18436 -18.61891,-34.90414 -36.34458,-43.317 14.13991,4.73605 24.74339,17.89796 31.80303,30.85619 2.14765,2.83528 8.50992,18.77194 5.00558,13.89257 l -0.38652,-1.19262 z M 58.633328,148.03978 c 6.343016,-8.60541 14.238722,-17.11817 24.656474,-20.73815 11.364642,-4.10478 8.870814,-1.33997 -1.190734,1.30196 -10.38487,4.29889 -17.870422,13.17756 -24.662274,21.83607 z m 55.108982,-20.99044 c -4.62085,-3.40594 10.46275,2.20615 0,0 z m -5.39324,-1.77197 c 7.25245,-0.70792 -1.33123,1.85054 -0.0874,0.0353 z m -10.982093,-1.06245 c 12.673513,-0.38575 5.321403,0.99283 -3.267909,0.40467 z m 18.311043,-0.8586 c 0.32272,-6.91103 1.21252,6.8607 0,0 z m -0.82677,-5.91666 c -0.64592,-8.16564 1.85016,1.10319 -0.0202,4 0.007,-1.33333 0.0134,-2.66667 0.0202,-4 z m 348.24782,1.5 c -6.16157,-3.87646 11.02891,3.30509 0,0 z m -4.6875,-1.68312 c 5.70677,-0.78627 -2.59855,1.98121 -0.14854,0.0594 z m -20.8125,-0.81688 c 1.14484,-2.16789 1.24738,2.06934 0,0 z m 6.28017,-0.23628 c 7.92398,-0.83251 18.60027,0.99122 4.44399,0.38101 -3.8281,-0.0359 -13.83892,0.16817 -4.44399,-0.38101 z m -5.91494,-11.76372 c -0.31687,-12.726406 0.49278,-7.937784 0.643,1.81683 -0.953,12.59252 -0.56077,7.38875 -0.643,-1.81683 z m -324.09287,1.5 c 0.5137,-14.090931 0.58077,13.72715 0,0 z m 0.95964,-11.000005 c 0.75847,-12.515832 0.54655,12.152385 0,0 z m 321.84695,-3.583333 c 0.32272,-6.911028 1.21252,6.86068 0,0 z M 115.59907,89.939655 c 0.95174,-1.642842 1.17497,0.504567 0,0 z m 318.39055,-6.568242 c -5.68222,-14.800545 6.24099,9.619398 1.19359,3.041931 -0.39786,-1.013977 -0.79573,-2.027954 -1.19359,-3.041931 z m -317.39055,3.568242 c 0.95174,-1.642842 1.17497,0.504567 0,0 z m 1.03062,-2.5 c 2.95973,-9.686255 2.10168,1.547939 0,0 z m 3.50027,-7.559736 c 4.37967,-7.429844 11.40923,-15.123724 19.96911,-16.916164 -9.30158,3.910567 -16.47106,11.58896 -21.1207,19.975909 -1.3569,0.28111 1.28846,-2.501351 1.15159,-3.059745 z m 308.87362,-1.094772 c -2.06795,-4.085035 4.20465,3.933146 0,0 z m -2.53207,-3.595492 c -7.26224,-7.670045 7.00754,5.894551 0,0 z m -8.87244,-9.477399 c -8.11389,-7.42324 -7.77646,-7.590738 0.5,-0.942304 6.94838,6.491971 9.76097,11.186108 0.64076,2.027193 l -0.90846,-0.863967 z m -276.1875,-3.455715 c 5.70677,-0.786281 -2.59855,1.981261 -0.14854,0.05944 z m 4.4375,-1.006211 c 9.73433,-0.547936 -0.0786,-1.179374 -0.53704,0.140344 z m 17.75,-0.179994 c 5.30701,-1.536263 10.04964,-17.368449 5.60666,-4.351078 0.74079,4.792035 -11.7471,6.602968 -5.60666,4.351078 z m 241.0267,-5.384752 c -2.53744,-2.930089 -19.5167,-10.628913 -10.5267,-7.648854 3.78272,2.071243 17.37623,10.370879 13.97656,10.089698 -1.14995,-0.813614 -2.29991,-1.627229 -3.44986,-2.440844 z M 174.0139,44.10435 c 4.13537,-6.609254 8.87461,-13.511069 15.845,-17.38105 -6.58715,5.923846 -12.65106,12.816402 -16.88053,20.216355 -1.35094,0.323023 1.14482,-2.312652 1.03553,-2.835305 z m 209.08517,-3.68038 c -13.07533,-5.886813 -0.18416,-1.736558 5.58917,1.523841 6.00801,4.414283 -4.01488,-0.741136 -5.58917,-1.523841 z M 280.81042,34.874903 c -1.0971,-6.424723 -15.62401,-10.75645 -13.68466,-12.935248 7.45326,4.116745 13.54752,9.634315 17.74088,17.111301 7.48683,-1.851057 -3.85282,3.835294 -4.05622,-4.176053 z m 7.78865,2.570733 c 4.69032,-4.298783 16.70038,-7.310541 4.34645,-1.659409 -0.99969,0.07257 -4.16652,2.790553 -4.34645,1.659409 z m 85.33333,-1.172647 c 5.06021,-1.040024 -1.92375,2.539376 0,0 z m -2.33333,-0.833334 c 1.14484,-2.167889 1.24738,2.069335 0,0 z m -2.66667,-1.166666 c 5.06021,-1.040024 -1.92375,2.539376 0,0 z m -3,-1 c 5.06021,-1.040024 -1.92375,2.539376 0,0 z m -5.83333,-1.333334 c -6.69159,-3.607145 14.21684,3.485826 0,0 z M 300.9324,31.272989 c 5.06021,-1.040024 -1.92375,2.539376 0,0 z m 4.16667,-1.333334 c 14.70353,-4.14531 -5.23512,3.676028 0,0 z m 50.3125,0.316886 c 5.70677,-0.786281 -2.59855,1.981261 -0.14854,0.05944 z m -5,-1 c 5.70677,-0.786281 -2.59855,1.981261 -0.14854,0.05944 z m -38.0625,-0.979166 c 7.25244,-0.707925 -1.33123,1.850534 -0.0874,0.03526 z m 32,0 c 7.25244,-0.707925 -1.33123,1.850534 -0.0874,0.03526 z m -21,-1.078117 c 4.20575,-0.875736 24.94205,0.624542 13.73523,0.355038 -4.26195,-0.103687 -23.95458,0.230552 -16.23021,-0.213308 l 1.25168,-0.0711 z m -132.75,-0.753622 c 4.69032,-4.298783 16.70038,-7.310541 4.34645,-1.659409 -0.99969,0.07257 -4.16652,2.790553 -4.34645,1.659409 z m 73,-5.005981 c 1.14484,-2.167889 1.24738,2.069335 0,0 z m -60,-1.5 c 21.97437,-10.6796513 -3.17061,4.144108 0,0 z m 57.33333,0.333334 c 5.06021,-1.040024 -1.92375,2.539376 0,0 z m -3,-1 c 5.06021,-1.040024 -1.92375,2.539376 0,0 z m -48.52083,-1.016448 c 5.70677,-0.786281 -2.59855,1.981261 -0.14854,0.05944 z m 45,0 c 5.70677,-0.786281 -2.59855,1.981261 -0.14854,0.05944 z m -40.0625,-0.979166 c 7.25244,-0.707925 -1.33123,1.850534 -0.0874,0.03526 z m 34.51903,-0.03071 c 10.78888,-0.04228 -5.66377,1.381104 0,0 z m -21.97744,-1.049508 c 4.15302,-0.857429 23.28126,0.499215 15.44733,0.356213 -7.41297,-0.0018 -14.82595,-0.0036 -22.23892,-0.0055 l 6.79159,-0.350739 z"
             id="path45"
             sodipodi:nodetypes="ccccccccccccccccccccccccccccccccccccccccccccccccccccccccccccccccccccccccccccccccccccccccccccccccccccccccccccccccccccccccccccccccccccccccccccccccccccccccccccccccccccccccccccccccccccccccccccccccccccccccccccccccccccccccccccccccccccccccccccccccccccccccccccccccccccccccccccccccccccccccccccccccccccccccccccccccccccccccccccccccccccccccccccccccccccccccccccccccccccccccccccccccscccs" /><path
             style="fill:#cf9573"
             d="m 138.34907,402.20745 4.25,-0.38279 4.25,0.38279 4.25,0.38279 h -8.5 -8.5 z m -7.9375,-0.95091 1.3125,-0.52522 0.60416,0.60417 0.60417,0.60417 -1.91667,-0.079 -1.91666,-0.0789 z m 23,0 1.3125,-0.52522 0.60416,0.60417 0.60417,0.60417 -1.91667,-0.079 -1.91666,-0.0789 z m -31.3125,-3.26445 -5,-2.9288 -3,-2.6725 -3,-2.6725 3.91897,2.79046 3.91898,2.79045 5.08102,2.80211 5.08103,2.80211 -1,0.009 -1,0.009 z m 35.3125,2.26445 1.3125,-0.52522 0.60416,0.60417 0.60417,0.60417 -1.91667,-0.079 -1.91666,-0.0789 z m 276.9375,-0.0226 2.25,-0.43337 2.25,0.43337 2.25,0.43337 h -4.5 -4.5 z m -273.41667,-0.96093 0.66667,-0.66667 0.66666,0.66667 0.66667,0.66667 h -1.33333 -1.33334 z m 260.41667,-0.0391 2.25,-0.43337 2.25,0.43337 2.25,0.43337 h -4.5 -4.5 z m 24.5,0.0164 1.75,-0.45732 1.75,0.45732 1.75,0.45732 h -3.5 -3.5 z m -281.91667,-0.97734 0.66667,-0.66667 0.66666,0.66667 0.66667,0.66667 h -1.33333 -1.33334 z m 250.9357,-0.0263 1.76903,-0.46098 1.23097,0.49804 1.23097,0.49804 -3,-0.0371 -3,-0.0371 z m 38.48097,0.0307 1.25,-0.50438 1.25,0.50438 1.25,0.50439 h -2.5 -2.5 z m -286.41667,-1.00438 0.66667,-0.66667 0.66666,0.66667 0.66667,0.66667 h -1.33333 -1.33334 z m 244,0 0.66667,-0.66667 0.66666,0.66667 0.66667,0.66667 h -1.33333 -1.33334 z m 49.16667,-0.33333 2,-0.85943 h 1.5 1.5 l -2,0.85943 -2,0.85942 h -1.5 -1.5 z m -290.16667,-0.66667 0.66667,-0.66667 0.66666,0.66667 0.66667,0.66667 h -1.33333 -1.33334 z m 238,0 0.66667,-0.66667 0.66666,0.66667 0.66667,0.66667 h -1.33333 -1.33334 z m -235.33333,-0.83333 v -0.5 h 0.5 0.5 v 0.5 0.5 h -0.5 -0.5 z m 231,-0.5 -1.5,-0.96938 h 1 1 l 1.5,0.96938 1.5,0.96937 h -1 -1 z m 63,0 1.5,-0.96938 h 1 1 l -1.5,0.96938 -1.5,0.96937 h -1 -1 z m -290,-1.5 2.5,-1.42913 h 1 1 l -2.5,1.42913 -2.5,1.42912 h -1 -1 z m 221.75,-1.07198 -2.75,-1.4919 v -1.50764 -1.50765 l 6.32423,-6.73369 6.32424,-6.73369 3.74444,-5.8535 3.74444,-5.85351 2.54648,-5.62322 2.54647,-5.62322 2.37604,-8.5 2.37603,-8.5 0.96931,-13 0.96931,-13 0.38383,-12.69287 0.38383,-12.69286 -0.76892,-1.24416 -0.76893,-1.24415 -6.3254,-0.2473 -6.3254,-0.24729 -5.32964,-1.05491 -5.32965,-1.0549 -8.17035,-3.87291 -8.17036,-3.87291 -6.19725,-5.67404 -6.19724,-5.67403 -4.62955,-6.96384 -4.62955,-6.96383 h -4.96866 -4.96866 l -2.45455,-2.45455 -2.45454,-2.45455 v -3.82294 -3.82295 l 1.47667,-2.10825 1.47667,-2.10824 2.59467,-0.65122 2.59466,-0.65122 -0.51523,-2.71304 -0.51524,-2.71304 -1.20823,-7.5 -1.20824,-7.5 -0.74112,-0.84326 -0.74113,-0.84326 -2.16548,5.84326 -2.16549,5.84326 -2.56951,4 -2.56952,4 -4.05557,5.33065 -4.05558,5.33066 -6.06617,4.25026 -6.06616,4.25026 -5.5,2.36702 -5.5,2.36701 -11.2244,0.40918 -11.2244,0.40918 -6.68027,-1.16332 -6.68026,-1.16331 -11.3911,-3.64329 -11.3911,-3.64328 -3.70424,4.0092 -3.70423,4.00919 -5.56201,4.16851 -5.56201,4.1685 -7.43799,3.41636 -7.43799,3.41636 -6,1.25725 -6,1.25725 -9.5,-0.0995 -9.5,-0.0995 -7.67272,-1.99166 -7.67272,-1.99166 -3.82728,-1.9528 -3.82728,-1.95281 -8,-4.24158 -8,-4.24158 -3.21801,-3.03145 -3.21801,-3.03145 -0.41408,1.41516 -0.41408,1.41516 -1.0669,4 -1.06691,4 -0.62372,7 -0.62373,7 -0.77402,11.09751 -0.77402,11.09751 -0.59061,0.95562 -0.59061,0.95563 1.41787,14.94686 1.41787,14.94687 1.86379,7.03238 1.86379,7.03239 5.14699,9.96761 5.14699,9.96762 5.17553,7 5.17554,7 10.05453,9.74291 10.05454,9.74291 -1.67048,1.67048 -1.67048,1.67048 0.53138,-2.03201 0.53139,-2.03201 -6.1854,-5.38138 -6.18539,-5.38138 -7.25481,-8.7775 -7.2548,-8.7775 -5.30155,-9.56991 -5.30155,-9.56992 -2.39688,-6.60332 -2.39687,-6.60332 -1.39645,-9.54927 -1.39645,-9.54926 -0.20911,-9.5 -0.20911,-9.5 0.18785,-9.25313 0.18785,-9.25314 1.03759,-2.72907 1.03759,-2.72907 0.40193,-7.0178 0.40193,-7.01779 1.31942,-4.70155 1.31942,-4.70155 0.62224,-0.62224 0.62224,-0.62224 7.84288,5.2701 7.84288,5.27009 4.10325,2.76044 4.10325,2.76044 5.30096,2.08945 5.30095,2.08944 6.91117,1.45381 6.91117,1.45381 8.68462,-0.0148 8.68463,-0.0148 6.24834,-1.47322 6.24834,-1.47323 7.75166,-3.92414 7.75166,-3.92415 5.04698,-4.34486 5.04699,-4.34486 3.02313,-3.38346 3.02312,-3.38347 10.04482,3.57212 10.04482,3.57212 7.59291,1.56836 7.59291,1.56836 h 7.99294 7.99294 l 5.29922,-1.10509 5.29922,-1.10508 6.5,-3.04286 6.5,-3.04285 6.59676,-6.77171 6.59676,-6.77171 4.02188,-7.83035 4.02187,-7.83035 1.74158,-5 1.74158,-5 0.44358,-1.47198 0.44358,-1.47197 0.93089,1.47197 0.93089,1.47198 0.0167,3.5 0.0167,3.5 1.47756,8.39591 1.47755,8.39591 0.5605,1.76597 0.5605,1.76598 -3.03818,0.66729 -3.03818,0.6673 -1.50124,2.14332 -1.50124,2.14333 v 2.82295 2.82294 l 2.45454,2.45455 2.45455,2.45455 h 5.09196 5.09197 l 1.70349,3.10891 1.70349,3.10892 4.07732,5.3435 4.07733,5.34351 5.51374,4.53921 5.51375,4.53922 7.40893,3.39561 7.40893,3.39561 5.29922,1.11275 5.29922,1.11276 h 6.4156 6.41559 l 0.99558,1.86025 0.99557,1.86025 -0.93943,23.38975 -0.93943,23.38975 -1.51259,6.95962 -1.51259,6.95963 -1.13568,3.54037 -1.13568,3.54038 -2.4885,6 -2.48849,6 -4.37155,6.76162 -4.37154,6.76162 -6.18322,6.6465 -6.18322,6.64651 2.92057,2.3369 2.92057,2.33691 -0.5,-0.0351 -0.5,-0.0351 z m 72.33333,1.19915 0.41667,-0.37282 3.25,-1.65286 3.25,-1.65285 v 0.5 0.5 l -2.95034,1.52568 -2.95034,1.52568 h -0.71633 -0.71633 z m -365.08333,-8.12717 -4.41642,-4.5 h 0.5 0.5 l 4.41642,4.5 4.41641,4.5 h -0.5 -0.5 z m 165.26455,2.9584 -5.23545,-1.40997 -4.97764,-2.52236 -4.97763,-2.52235 -3.588,-3.15031 -3.588,-3.1503 -1.44891,-2.8019 -1.44892,-2.80189 v -2.86257 -2.86257 l 2.80472,-2.68709 2.80472,-2.68709 h 3.6227 3.6227 l 1.82258,2.45673 1.82258,2.45674 2.5,3.49469 2.5,3.49468 4.82146,2.64989 4.82147,2.64988 5.86963,0.53224 5.86963,0.53224 4.8089,-1.19185 4.80891,-1.19186 3.59983,-2.3565 3.59983,-2.35651 2.23073,-4.83518 2.23073,-4.83519 1.61057,-1.25 1.61057,-1.25 3.55887,0.0153 3.55887,0.0153 1.18744,0.75504 1.18744,0.75504 1.07486,2.8271 1.07486,2.82711 -1.01321,3.76279 -1.01322,3.76279 -4.00186,4.54636 -4.00187,4.54636 -4.28453,2.5109 -4.28453,2.5109 -6.10703,1.58249 -6.10704,1.5825 -8.85566,-0.0658 -8.85565,-0.0658 z m 30.87862,-1.84703 4.64318,-1.45141 3.96066,-2.50026 3.96066,-2.50025 3.63138,-4.24245 3.63138,-4.24245 0.62484,-3.33071 0.62484,-3.3307 -0.62528,-2.49134 -0.62529,-2.49135 -2.48477,-0.62363 -2.48477,-0.62364 -2.25,0.57534 -2.25,0.57535 -2.86215,5.51311 -2.86214,5.51311 -4.38855,2.90685 -4.38855,2.90686 -6.24931,1.17628 -6.2493,1.17628 -4.95817,-1.11407 -4.95817,-1.11407 -4.91324,-2.67412 -4.91324,-2.67412 -3.65096,-5.52499 -3.65096,-5.52499 -2.15994,-0.31069 -2.15995,-0.31068 -3.0532,1.57887 -3.0532,1.57887 -0.62776,2.50123 -0.62777,2.50122 1.23013,2.96979 1.23012,2.96979 4.00978,3.62259 4.00977,3.62259 6.12338,2.86274 6.12338,2.86274 5.5,0.97477 5.5,0.97476 8.5,-0.4179 8.5,-0.41791 z m 179.35683,1.20352 3,-2.29551 4.09301,-3.50969 4.09301,-3.50969 -4.91834,4.75513 -4.91835,4.75513 -2.17467,1.05007 -2.17466,1.05007 z m -381.09549,-8.9694 -0.713529,-1.15451 1.154509,0.71352 1.15451,0.71353 v 0.44098 0.44099 h -0.44098 -0.44099 z m -1.404512,-2.34549 v -0.5 h 0.5 0.5 v 0.5 0.5 h -0.5 -0.5 z m 396.510072,-3 2.87959,-4 0.94727,-1 0.94726,-1 -1.89209,3.31708 -1.8921,3.31709 -1.93476,1.68291 -1.93476,1.68292 z m -397.886533,-0.0387 -0.623539,-1.62492 0.06339,-1.16821 0.06339,-1.16821 0.958096,2.39518 0.958097,2.39518 -0.397944,0.39795 -0.397945,0.39794 z m -1.544591,-6.04468 0.07895,-1.91666 0.525219,1.3125 0.525219,1.3125 -0.604166,0.60416 -0.604167,0.60417 z m 403.921054,-0.91666 v -0.5 h 0.5 0.5 v 0.5 0.5 h -0.5 -0.5 z m 1.56429,-2.79313 0.68279,-1.79313 0.55979,0.55979 0.55979,0.5598 -1.24257,1.23333 -1.24258,1.23334 z M 94.935274,356.93966 v -7.5 l 0.392263,3.75 0.392262,3.75 -0.392262,3.75 -0.392263,3.75 z m 407.694416,3.5 v -1 l 0.96938,-1.5 0.96937,-1.5 v 1 1 l -0.96937,1.5 -0.96938,1.5 z m 1.96938,-5.5 v -1.33334 l 0.66666,0.66667 0.66667,0.66667 -0.66667,0.66666 -0.66666,0.66667 z m 1,-3 v -1.33334 l 0.66666,0.66667 0.66667,0.66667 -0.66667,0.66666 -0.66666,0.66667 z m 1.07895,-3.58334 0.0789,-1.91666 0.52522,1.3125 0.52522,1.3125 -0.60417,0.60416 -0.60416,0.60417 z m -410.884003,-3.91666 0.03705,-3 0.460988,1.76903 0.460988,1.76903 -0.498042,1.23097 -0.498042,1.23097 z m 412.000003,-1 0.0371,-3 0.46099,1.76903 0.46099,1.76903 -0.49805,1.23097 -0.49804,1.23097 z m -411.037057,-4.5 v -2.5 l 0.504386,1.25 0.504386,1.25 -0.504386,1.25 -0.504386,1.25 z m 182.342107,0.2825 -2,-0.47983 -3.1662,-1.47551 -3.1662,-1.47552 -2.69427,-4.0713 -2.69426,-4.07131 0.3972,-9.60452 0.39719,-9.60451 2.90967,-5.31886 2.90967,-5.31885 3.3384,-2.93115 3.33839,-2.93114 h 1.56091 1.56091 l 2.70001,1.59493 2.7,1.59493 2.2595,3.29752 2.25949,3.29752 2.12069,5.35755 2.12069,5.35755 0.0741,9.5 0.0741,9.5 -2,2.68844 -2,2.68845 -2,0.98958 -2,0.98959 -3.5,0.45313 -3.5,0.45313 z m 229.65789,-2.2825 v -2.5 l 0.50439,1.25 0.50438,1.25 -0.50438,1.25 -0.50439,1.25 z m -411.078944,-2.58334 0.07895,-1.91666 0.525219,1.3125 0.525219,1.3125 -0.604166,0.60416 -0.604167,0.60417 z m 266.228534,-2.42188 -4.19252,-1.86395 -2.80748,-4.24239 -2.80748,-4.24239 v -11.07303 -11.07302 l 2.25,-3.80716 2.25,-3.80717 v -0.92251 -0.92252 l -3.75,-1.91391 -3.75,-1.91392 -1.95,-2.15614 -1.95,-2.15615 v -3.5791 -3.57911 l 2.31078,-1.87116 2.31079,-1.87115 h 5.2149 5.2149 l 1.9897,2.25 1.98969,2.25 1.61067,2.60195 1.61066,2.60195 5.32396,0.61163 5.32395,0.61163 2.83529,3.28642 2.8353,3.28642 2.58032,5.5 2.58033,5.5 0.0777,11 0.0777,11 -2.28363,4.28922 -2.28363,4.28923 -3.20966,1.95704 -3.20966,1.95703 -6,-0.0669 -6,-0.0669 z m 21.29421,-3.39674 3.27294,-3.78623 0.98075,-4.65591 0.98076,-4.6559 -0.31992,-7 -0.31992,-7 -2.12238,-5.34849 -2.12238,-5.34849 -2.58993,-3.39557 -2.58993,-3.39558 -3.63584,-0.96047 -3.63584,-0.96047 -2.5,-0.57785 -2.5,-0.57784 -3.03542,-4.21762 -3.03542,-4.21762 -4.82051,-0.30912 -4.82052,-0.30912 -1.89407,1.71411 -1.89406,1.7141 v 3.1707 3.1707 l 2.25,2.01255 2.25,2.01254 3.75,2.24333 3.75,2.24332 -0.0127,0.16844 -0.0127,0.16845 -2.98733,5.89092 -2.98733,5.89092 v 7.8912 7.89119 l 1.53814,3.68129 1.53813,3.68128 1.71187,1.92783 1.71186,1.92783 4,1.89152 4,1.89153 6.41437,-0.34062 6.41438,-0.34061 z m -188.32266,2.2866 -4.22098,-0.99086 -3.00112,-3.64089 -3.00113,-3.64088 -1.5279,-4.48415 -1.5279,-4.48414 0.0326,-6.07186 0.0326,-6.07186 1.81468,-5 1.81467,-5 0.725,-1.65966 0.725,-1.65966 -2.32232,-0.70269 -2.32232,-0.70268 -2.76595,-2.59003 -2.76595,-2.59003 -0.99635,-3.70017 -0.99636,-3.70017 0.96444,-2.53666 0.96443,-2.53665 1.98213,-1.0608 1.98213,-1.0608 h 3.13148 3.13148 l 1.93099,1.03343 1.931,1.03344 2.01542,3.95056 2.01543,3.95057 2.23784,0.45838 2.23784,0.45839 3.63824,0.58196 3.63825,0.58196 3.27372,2.22565 3.27372,2.22566 3.21585,5.829 3.21585,5.82901 1.12218,5.58777 1.12219,5.58778 v 6.51749 6.5175 l -1.97876,4.08757 -1.97876,4.08756 -2.77124,1.62832 -2.77124,1.62831 -6.5,0.53759 -6.5,0.5376 z m 18.84921,-2.45096 3.02892,-1.56632 1.89946,-4.18368 1.89945,-4.18368 0.007,-6 0.007,-6 -1.52878,-6.48647 -1.52877,-6.48647 -2.43684,-4.15813 -2.43683,-4.15814 -3.0621,-2.57659 -3.0621,-2.57659 -5.15845,-0.68429 -5.15845,-0.6843 -2.04906,-2.2229 -2.04906,-2.2229 -1.76457,-2.57903 -1.76456,-2.57903 -3.48985,-0.6547 -3.48985,-0.6547 -2.49558,1.63517 -2.49559,1.63517 v 4.07258 4.07257 l 2.02963,2.85036 2.02964,2.85036 3.47036,1.2549 3.47037,1.2549 v 0.672 0.67199 l -1.97872,4.47321 -1.97871,4.47321 -0.64729,6.96457 -0.64729,6.96456 1.58934,5.46712 1.58934,5.46713 2.78666,2.66487 2.78667,2.66488 2.5,0.99396 2.5,0.99395 7.29966,0.0634 7.29966,0.0634 z m -117.049294,0.98298 0.07895,-1.91666 0.525219,1.3125 0.525219,1.3125 -0.604166,0.60416 -0.604167,0.60417 z m 411.000004,-1 0.0789,-1.91666 0.52522,1.3125 0.52522,1.3125 -0.60417,0.60416 -0.60416,0.60417 z m -437.317293,-2.12393 2.261659,-0.43489 1.738341,0.45508 1.738341,0.45507 -4,-0.0202 -4,-0.0202 z m 13.488341,0.0179 1.75,-0.45732 1.75,0.45732 1.75,0.45732 h -3.5 -3.5 z m 13.75,-0.0707 v -1.09335 l -1.75,-0.45732 -1.75,-0.45732 1.690983,-0.116 1.690983,-0.116 0.659156,1.06653 0.65915,1.06653 -0.60014,0.60013 -0.600132,0.60014 z m -32.1875,-0.92311 1.3125,-0.52522 0.604167,0.60417 0.604166,0.60417 -1.916666,-0.079 -1.916667,-0.0789 z m 26,0 1.3125,-0.52522 0.604167,0.60417 0.604166,0.60417 -1.916666,-0.079 -1.916667,-0.0789 z m -29.479167,-0.98355 0.666667,-0.66667 0.666667,0.66667 0.666666,0.66667 h -1.333333 -1.333333 z m -2.333333,-0.83333 v -0.5 h 0.5 0.5 v 0.5 0.5 h -0.5 -0.5 z m 448.000002,0 v -0.5 h 0.5 0.5 v 0.5 0.5 h -0.5 -0.5 z m -454.808211,-5.14782 -4.691791,-4.64782 5,4.31828 5,4.31828 0.416667,0.32954 0.416666,0.32954 h -0.724876 -0.724876 z m 453.887161,-1.93552 0.0789,-1.91666 0.52522,1.3125 0.52522,1.3125 -0.60417,0.60416 -0.60416,0.60417 z m -1,-3.08488 -0.079,-1.16821 -0.57551,-1.83179 -0.5755,-1.83178 1.14628,1.78767 1.14628,1.78768 -0.49183,1.21232 -0.49183,1.21233 z m -458.674443,-1.48629 -0.713526,-1.15451 1.154509,0.71352 1.154508,0.71353 v 0.44098 0.44099 h -0.440983 -0.440983 z m -1.404509,-2.34549 v -0.5 h 0.5 0.5 v 0.5 0.5 h -0.5 -0.5 z m -1.541118,-2.56654 -0.659153,-1.06653 0.476597,-0.47659 0.476597,-0.4766 0.592154,1.54313 0.592154,1.54313 H 47.1267 46.717102 Z m 458.23652,-2.44602 -1.66304,-3.48744 h 0.45814 0.45814 l 1.59941,3.09293 1.59942,3.09293 -0.39451,0.39451 -0.39451,0.39451 z M 44.599068,303.43966 v -0.5 h 0.5 0.5 v 0.5 0.5 h -0.5 -0.5 z m -1,-2.5 v -1.33334 l 0.666667,0.66667 0.666666,0.66667 -0.666666,0.66666 -0.666667,0.66667 z m 458.000002,-1.5 v -0.5 h 0.5 0.5 v 0.5 0.5 h -0.5 -0.5 z m -459.000002,-1.5 v -1.33334 l 0.666667,0.66667 0.666666,0.66667 -0.666666,0.66666 -0.666667,0.66667 z m 455.462842,-4.25 -2.80293,-4.25 1.42005,1.17311 1.42004,1.17312 1.80653,3.07688 1.80654,3.07689 h -0.42365 -0.42365 z m -456.462842,1.25 v -1.33334 l 0.666667,0.66667 0.666666,0.66667 -0.666666,0.66666 -0.666667,0.66667 z m -0.921052,-3.58334 0.07895,-1.91666 0.525219,1.3125 0.525219,1.3125 -0.604166,0.60416 -0.604167,0.60417 z m -1,-4 0.07895,-1.91666 0.525219,1.3125 0.525219,1.3125 -0.604166,0.60416 -0.604167,0.60417 z m 452.358304,-2.08781 -2.80012,-3.67115 1.13487,0.70139 1.13488,0.70139 2.11465,2.96976 2.11466,2.96976 h -0.44941 -0.4494 z M 38.756963,281.93966 v -2.5 l 0.504386,1.25 0.504386,1.25 -0.504386,1.25 -0.504386,1.25 z m 448.336557,-3.00614 -1.81552,-2.00613 0.41053,-0.39592 0.41054,-0.39593 1.79668,2.40206 1.79669,2.40206 h -0.3917 -0.3917 z m -449.112688,-13.49386 0.0036,-12 0.356055,6.28918 0.356055,6.28919 -0.35965,5.71081 -0.35965,5.71082 z m 447.618238,8.78911 v -1.04423 l 1.75,-1.37244 1.75,-1.37244 -1.46703,2 -1.46704,2 -0.28296,0.41666 -0.28297,0.41667 z m 6,-8.78911 3.09608,-4.5 h 0.5 0.5 l -3.09608,4.5 -3.09608,4.5 h -0.5 -0.5 z m 4.5,-6.5 0.61803,-1 h 0.5 0.5 l -0.61803,1 -0.61804,1 h -0.5 -0.5 z m 3.02355,-4.56606 1.69034,-3.06605 1.97646,-2.43395 1.97645,-2.43394 -1.69035,3.06605 -1.69035,3.06605 -1.97645,2.43395 -1.97645,2.43395 z m -460.444604,-5.01728 0.07895,-1.91666 0.525219,1.3125 0.525219,1.3125 -0.604166,0.60416 -0.604167,0.60417 z m 0.921052,-3.41666 v -1.33334 l 0.666667,0.66667 0.666666,0.66667 -0.666666,0.66666 -0.666667,0.66667 z m 467.201602,-4.47806 2.17561,-4.47807 0.38116,0.38116 0.38115,0.38115 -2.09008,4.09691 -2.09009,4.09691 h -0.46668 -0.46668 z m -466.201602,1.47806 v -1.33334 l 0.666667,0.66667 0.666666,0.66667 -0.666666,0.66666 -0.666667,0.66667 z m 1,-2.94099 v -0.94098 l 0.988546,-0.61096 0.988545,-0.61095 -0.595534,1.55194 -0.595534,1.55194 h -0.393012 -0.393011 z m 2.5,-4.05901 0.618034,-1 h 0.5 0.5 l -0.618034,1 -0.618034,1 h -0.5 -0.5 z m 465.585602,-0.5 0.055,-1 0.85943,-2 0.85943,-2 0.055,1.5 0.055,1.5 -0.96937,1.5 -0.96938,1.5 z m -462.379169,-4.35249 1.793567,-3.35248 5.75,-5.34474 5.75,-5.34475 v -0.73832 -0.73832 l -2.25,-2.56445 -2.25,-2.56445 2.75,2.42431 2.75,2.42431 v 0.87583 0.87584 l -6.321499,6.19985 -6.321499,6.19986 -1.722068,2.5 -1.722067,2.5 z m 464.545749,-5.64751 0.0202,-4 0.4349,2.26165 0.4349,2.26166 -0.45508,1.73834 -0.45508,1.73835 z m 0.0679,-20.5 v -6.5 l 0.40332,3.25 0.40333,3.25 -0.40333,3.25 -0.40332,3.25 z m -457.041927,3.75 -0.966745,-1.25 -0.714717,-1.25 -0.714717,-1.25 h 0.444007 0.444007 l 1.638063,2.5 1.638063,2.5 h -0.400608 -0.400608 z m -3.278145,-5.25 v -0.5 h 0.5 0.5 v 0.5 0.5 h -0.5 -0.5 z m -1,-2.5 v -1.33334 l 0.666667,0.66667 0.666666,0.66667 -0.666666,0.66666 -0.666667,0.66667 z m -1,-3 v -1.33334 l 0.666667,0.66667 0.666666,0.66667 -0.666666,0.66666 -0.666667,0.66667 z m 461.194952,-3.5 0.0371,-3 0.46099,1.76903 0.46099,1.76903 -0.49805,1.23097 -0.49804,1.23097 z m -462.116004,-0.0833 0.07895,-1.91666 0.525219,1.3125 0.525219,1.3125 -0.604166,0.60416 -0.604167,0.60417 z M 47.935284,183.9397 v -7.5 l 0.392263,3.75 0.392262,3.75 -0.392262,3.75 -0.392263,3.75 z m 461.821686,5 v -2.5 l 0.50439,1.25 0.50438,1.25 -0.50438,1.25 -0.50439,1.25 z m -1,-5 v -2.5 l 0.50439,1.25 0.50438,1.25 -0.50438,1.25 -0.50439,1.25 z m -1.58646,-6.57143 -0.66877,-2.66457 0.42857,-0.42857 0.42858,-0.42858 0.66876,2.66457 0.66876,2.66457 -0.42857,0.42857 -0.42857,0.42858 z m -458.492484,-5.01191 0.07895,-1.91666 0.525219,1.3125 0.525219,1.3125 -0.604166,0.60416 -0.604167,0.60417 z m 456.121054,-3.11666 -1.13504,-3.6983 0.36785,-0.36785 0.36786,-0.36786 1.19933,3.63401 1.19933,3.634 -0.43215,0.43214 -0.43214,0.43215 z m -455.200002,-0.3 v -1.33334 l 0.666667,0.66667 0.666666,0.66667 -0.666666,0.66666 -0.666667,0.66667 z m 1,-3 v -1.33334 l 0.666667,0.66667 0.666666,0.66667 -0.666666,0.66666 -0.666667,0.66667 z m 1.030626,-2.5 v -1 l 0.969374,-1.5 0.969375,-1.5 v 1 1 l -0.969375,1.5 -0.969374,1.5 z m 450.969376,-0.5 v -1.33334 l 0.66666,0.66667 0.66667,0.66667 -0.66667,0.66666 -0.66666,0.66667 z m -2.32078,-5.54649 -1.67922,-3.52137 0.0442,-0.71607 0.0442,-0.71607 2.02811,3.84436 2.0281,3.84437 -0.39308,0.39307 -0.39307,0.39308 z M 53.599078,158.4397 v -0.5 h 0.5 0.5 v 0.5 0.5 h -0.5 -0.5 z m 1,-2 v -0.5 h 0.5 0.5 v 0.5 0.5 h -0.5 -0.5 z m 1,-2 v -0.5 h 0.5 0.5 v 0.5 0.5 h -0.5 -0.5 z m 2.607903,-4.31709 1.892097,-3.31709 1.934762,-1.68291 1.934761,-1.68291 -2.879591,4 -2.879591,4 -0.947268,1 -0.947268,1 z m 439.392099,1.31709 v -0.5 h 0.5 0.5 v 0.5 0.5 h -0.5 -0.5 z m -2,-3.5 -1.07037,-2 h 0.5 0.5 l 1.07037,2 1.07037,2 h -0.5 -0.5 z m -2.59549,-4.15451 -0.71353,-1.15451 1.15451,0.71352 1.15451,0.71353 v 0.44098 0.44099 h -0.44098 -0.44099 z m -426.404512,-4.34549 3.392334,-3.5 h 0.5 0.5 l -3.392334,3.5 -3.392333,3.5 h -0.5 -0.5 z m 418.562462,-5.29828 -6.93755,-7.70172 5.2669,5 5.2669,5 1.98874,2.75 1.98874,2.75 -0.3181,-0.0483 -0.31809,-0.0483 z m -412.608358,0.35358 1.400231,-1.68718 3.072832,-1.56124 3.072833,-1.56124 -0.526068,0.56991 -0.526068,0.56991 -3.946995,2.67851 -3.946996,2.6785 z m 8.045896,-5.0553 v -0.5 h 0.5 0.5 v 0.5 0.5 h -0.5 -0.5 z m 2.333333,-1.16667 0.666667,-0.66667 0.666667,0.66667 0.666666,0.66667 h -1.333333 -1.333333 z m 33.166669,-0.33333 0.61803,-1 h 0.44099 0.44098 v 1 1 h -1.05902 -1.05902 z m -30.166669,-0.66667 0.666667,-0.66667 0.666667,0.66667 0.666666,0.66667 h -1.333333 -1.333333 z m 25.166669,-0.33333 -2,-0.85943 1.5,-0.055 1.5,-0.055 1.5,0.96938 1.5,0.96937 -1,-0.055 -1,-0.055 z m -21.687502,-0.68312 1.3125,-0.52522 0.604167,0.60417 0.604166,0.60417 -1.916666,-0.079 -1.916667,-0.0789 z m 386.592012,-0.47139 -0.71353,-1.15451 1.15451,0.71352 1.15451,0.71353 v 0.44098 0.44099 h -0.44098 -0.44099 z m -379.628079,-0.57899 4.276429,-0.38408 3.72357,0.39068 3.72357,0.39069 -8,-0.007 -8.000002,-0.007 z m 20.302519,-0.84984 0.0789,-1.91666 0.52522,1.3125 0.52522,1.3125 -0.60417,0.60416 -0.60416,0.60417 z m 352.92105,-1.91666 -4.5,-2.40963 0.78984,-0.0452 0.78983,-0.0452 3.96017,2.02032 3.96016,2.02032 v 0.47968 0.47968 l -0.25,-0.0452 -0.25,-0.0452 z m -353.80505,-3 0.037,-3 0.46099,1.76903 0.46099,1.76903 -0.49805,1.23097 -0.49804,1.23097 z m 347.13838,-0.16667 0.66667,-0.66667 0.66666,0.66667 0.66667,0.66667 h -1.33333 -1.33334 z m -3.52083,-1.01645 1.3125,-0.52522 0.60416,0.60417 0.60417,0.60417 -1.91667,-0.079 -1.91666,-0.0789 z m -22.6444,-4.56688 0.1681,-4.25 0.38887,3.69303 0.38887,3.69303 3.69303,0.38886 3.69303,0.38887 -4.25,0.1681 -4.25,0.16811 z m 17.10093,3.557 1.76903,-0.46098 1.23097,0.49804 1.23097,0.49804 -3,-0.0371 -3,-0.0371 z m -338.91962,-11.307 v -8.500005 l 0.38279,4.250005 0.38279,4.25 -0.38279,4.25 -0.38279,4.25 z m 321.84554,-10.500005 0.0371,-3 0.46099,1.769032 0.46099,1.769032 -0.49805,1.230968 -0.49804,1.230968 z m -321,-2 0.037,-3 0.46099,1.769032 0.46099,1.769032 -0.49805,1.230968 -0.49804,1.230968 z m 319.884,-3.083333 0.0789,-1.916667 0.52522,1.3125 0.52522,1.3125 -0.60417,0.604167 -0.60416,0.604167 z M 116.59907,88.939655 v -1.333333 l 0.66666,0.666667 0.66667,0.666666 -0.66667,0.666667 -0.66666,0.666667 z m 318,-2 v -1.333333 l 0.66666,0.666667 0.66667,0.666666 -0.66667,0.666667 -0.66666,0.666667 z m -317,-1 v -1.333333 l 0.66666,0.666667 0.66667,0.666666 -0.66667,0.666667 -0.66666,0.666667 z m 316,-1.642162 v -0.975495 l -3.50156,-5.814905 -3.50155,-5.814906 1.33324,1.106491 1.33324,1.10649 2.76747,5.084754 2.76747,5.084755 -0.59916,0.599156 -0.59915,0.599156 z m -315,-0.857838 v -0.5 h 0.5 0.5 v 0.5 0.5 h -0.5 -0.5 z m 1,-2.440983 v -0.940983 l 0.98854,-0.610954 0.98855,-0.610955 -0.59554,1.551938 -0.59553,1.551937 h -0.39301 -0.39301 z m 3,-5.059017 1.07037,-2 h 0.5 0.5 l -1.07037,2 -1.07037,2 h -0.5 -0.5 z m 5.5,-7 3.90589,-4 h 0.5 0.5 l -3.90589,4 -3.9059,4 h -0.5 -0.5 z m 292.46584,-3.75 -5.46584,-5.75 5.75,5.46584 5.75,5.46584 v 0.28416 0.28416 h -0.28416 -0.28416 z m -286.96584,-0.79341 v -0.415942 l 4.0747,-2.078757 4.0747,-2.078757 0.82306,0.308433 0.82305,0.308433 -4.89775,2.186267 -4.89776,2.186266 z m 11.75,-5.11887 1.25,-0.504386 1.25,0.504386 1.25,0.504386 h -2.5 -2.5 z m 265.25,-2.459782 -3.5,-3.068261 3.21976,2.141722 3.21976,2.141723 0.58925,0.953439 0.58926,0.953439 -0.30901,-0.0269 -0.30902,-0.0269 z m -256.23209,1.397331 3.26791,-0.404657 2.73209,0.414862 2.73209,0.414862 -6,-0.0102 -6,-0.01021 z m 12.23209,0.347176 v -0.377555 l 1.75,-1.372445 1.75,-1.372445 -1.37245,1.75 -1.37244,1.75 h -0.37756 -0.37755 z m 3,-4.122445 v -0.5 h 0.5 0.5 v 0.5 0.5 h -0.5 -0.5 z m 235.40451,-1.654508 -0.71353,-1.154509 1.15451,0.713526 1.15451,0.713525 v 0.440983 0.440983 h -0.44098 -0.44099 z M 170.59907,52.439655 v -0.5 h 0.5 0.5 v 0.5 0.5 h -0.5 -0.5 z m 221.5,-6.578738 -11,-5.869028 0.76998,-0.02612 0.76998,-0.02612 8.73002,4.417043 8.73002,4.417043 2,1.551154 2,1.551154 -0.5,-0.07305 -0.5,-0.07305 z m -220.5,4.436535 v -0.975537 l 1.55516,-1.94113 1.55517,-1.94113 -1.19062,2.5 -1.19062,2.5 -0.36455,0.416667 -0.36454,0.416667 z m 4.6079,-8.174884 1.8921,-3.317088 1.93476,-1.682912 1.93476,-1.682913 -2.87959,4 -2.87959,4 -0.94727,1 -0.94727,1 z m 106.3921,-3.182913 -1.07037,-2 h 0.31294 0.31295 l 1.71245,2 1.71245,2 h -0.95503 -0.95502 z m 4,0.551361 v -0.5 l 3,-1.551361 3,-1.55136 v 0.5 0.5 l -3,1.55136 -3,1.551361 z m 93,-0.05136 v -0.5 h 0.5 0.5 v 0.5 0.5 h -0.5 -0.5 z m -4,-1.5 -1.5,-0.969374 h 1 1 l 1.5,0.969374 1.5,0.969375 h -1 -1 z m -5,-2 -1.5,-0.969374 h 1 1 l 1.5,0.969374 1.5,0.969375 h -1 -1 z m -94.5,-5.29383 -5,-5.16565 3.21022,2.269514 3.21023,2.269513 2.10787,2.960227 2.10787,2.960226 -0.3181,-0.06409 -0.31809,-0.06409 z m 17.5,4.79383 v -0.5 h 0.5 0.5 v 0.5 0.5 h -0.5 -0.5 z m -108.5,-4.004359 4,-3.670367 2,-1.035044 2,-1.035043 -1,0.922429 -1,0.922429 -5,3.782982 -5,3.782981 z m 110.5,3.004359 v -0.5 h 0.5 0.5 v 0.5 0.5 h -0.5 -0.5 z m 71.33333,-0.166666 0.66667,-0.666667 0.66666,0.666667 0.66667,0.666666 h -1.33333 -1.33334 z m -66.83333,-1.869449 3,-1.373677 1.5,0.03097 1.5,0.03097 -3.5,1.347844 -3.5,1.347844 -1,-0.0051 -1,-0.0051 z m 63.3125,0.853001 1.3125,-0.525219 0.60416,0.604167 0.60417,0.604166 -1.91667,-0.07895 -1.91666,-0.07895 z m -3.47917,-0.983552 0.66667,-0.666667 0.66666,0.666667 0.66667,0.666666 h -1.33333 -1.33334 z m -3.52083,-1.016448 1.3125,-0.525219 0.60416,0.604167 0.60417,0.604166 -1.91667,-0.07895 -1.91666,-0.07895 z m -49,-1 1.3125,-0.525219 0.60416,0.604167 0.60417,0.604166 -1.91667,-0.07895 -1.91666,-0.07895 z m 43.9375,0.02083 1.25,-0.504386 1.25,0.504386 1.25,0.504386 h -2.5 -2.5 z m -40,-1 1.25,-0.504386 1.25,0.504386 1.25,0.504386 h -2.5 -2.5 z m 34.51903,-0.03071 1.76903,-0.460988 1.23097,0.498042 1.23097,0.498042 -3,-0.03705 -3,-0.03705 z m -28.01903,-1.023264 2.75,-0.41659 2.75,0.41659 2.75,0.41659 h -5.5 -5.5 z m 19.01375,-0.0013 2.76375,-0.417917 2.23625,0.431567 2.23625,0.431567 -5,-0.01365 -5,-0.01365 z M 193.59907,25.439655 v -0.5 h 0.5 0.5 v 0.5 0.5 h -0.5 -0.5 z m 75.40451,-0.654508 -0.71353,-1.154509 1.15451,0.713526 1.15451,0.713525 v 0.440983 0.440983 h -0.44098 -0.44099 z m -73.40451,-0.345492 v -0.5 h 0.5 0.5 v 0.5 0.5 h -0.5 -0.5 z m 2,-1 v -0.5 h 0.5 0.5 v 0.5 0.5 h -0.5 -0.5 z m 66,-1 -2.5,-1.429129 h 1 1 l 2.5,1.429129 2.5,1.429129 h -1 -1 z m -64,0 v -0.5 h 0.5 0.5 v 0.5 0.5 h -0.5 -0.5 z m 2.33333,-1.166666 0.66667,-0.666667 0.66666,0.666667 0.66667,0.666666 h -1.33333 -1.33334 z m 3,-1 0.66667,-0.666667 0.66666,0.666667 0.66667,0.666666 h -1.33333 -1.33334 z m 54,0 0.66667,-0.666667 0.66666,0.666667 0.66667,0.666666 h -1.33333 -1.33334 z m -50.52083,-1.016448 1.3125,-0.525219 0.60416,0.604167 0.60417,0.604166 -1.91667,-0.07895 -1.91666,-0.07895 z m 47,0 1.3125,-0.525219 0.60416,0.604167 0.60417,0.604166 -1.91667,-0.07895 -1.91666,-0.07895 z m -43.0625,-0.979166 1.25,-0.504386 1.25,0.504386 1.25,0.504386 h -2.5 -2.5 z m 39.0625,-0.02083 1.3125,-0.525219 0.60416,0.604167 0.60417,0.604166 -1.91667,-0.07895 -1.91666,-0.07895 z m -31.5625,-1.03314 2.75,-0.41659 2.75,0.41659 2.75,0.41659 h -5.5 -5.5 z m 22.51166,0.009 2.26166,-0.434896 1.73834,0.455077 1.73834,0.455078 -4,-0.02018 -4,-0.02018 z"
             id="path44" /><path
             style="fill:#8f5a48"
             d="m 130.59259,401.00531 -2.50647,-0.76243 -3.49353,-1.79421 -3.49352,-1.7942 -6.21164,-4.41781 -6.21164,-4.41781 -4.52804,-5.03627 -4.528041,-5.03627 -2.01032,-6.50866 -2.010321,-6.50866 0.01389,-8.14467 0.01389,-8.14466 2.365706,-11.5 2.365706,-11.5 -0.752388,-0.8228 -0.752387,-0.8228 -4.377203,1.21797 -4.377204,1.21796 -9,0.0183 -9,0.0183 -5.636083,-1.65832 -5.636083,-1.65832 -4.941232,-4.44259 -4.941231,-4.4426 -3.112409,-5.83947 -3.112408,-5.83948 -2.689651,-8.97311 -2.689651,-8.97311 -0.49464,-15.34017 -0.494639,-15.34017 1.754392,-6.48125 1.754392,-6.48124 4.704534,-7.20663 4.704535,-7.20662 5.405683,-4.72876 5.405684,-4.72876 -0.990596,-1.3467 -0.990597,-1.34669 -3.745396,-4.89651 -3.745396,-4.8965 -2.004604,-6.35534 -2.004604,-6.35533 0.01338,-8.64467 0.01338,-8.64466 2.881204,-8.27747 2.881204,-8.27746 3.333888,-5.50089 3.333888,-5.50089 4.253613,-4.86252 4.253613,-4.86251 5.66374,-3.75938 5.663739,-3.75938 5.943272,-1.84975 5.943272,-1.84975 h 7.785179 7.78518 l 4.28171,1.51067 4.28172,1.51068 0.49341,-0.49341 0.49341,-0.49342 -1.1494,-6.95989 -1.1494,-6.95989 v -7.92088 -7.920885 l 1.00528,-5.38649 1.00528,-5.38649 3.17153,-6.481863 3.17152,-6.481863 4.33888,-4.638614 4.33888,-4.638613 6.23432,-2.800953 6.23431,-2.800953 11.49682,-0.578571 11.49683,-0.57857 4.1101,-7.671121 4.11011,-7.671121 3.69218,-5.029764 3.69219,-5.029764 4.70088,-3.423544 4.70089,-3.423545 4.33092,-2.187179 4.33093,-2.187179 7.66907,-2.019199 7.66908,-2.019199 15,-0.138477 15,-0.138476 5.5,1.341289 5.5,1.34129 5,2.051109 5,2.051109 4.71894,3.389252 4.71893,3.389253 3.19948,4.937633 3.19948,4.937633 h 0.33672 0.33673 l 7.74486,-4.012339 7.74486,-4.012339 8,-2.067896 8,-2.067896 13,-0.03631 13,-0.03631 8,1.611831 8,1.611832 8.41056,2.673453 8.41055,2.673454 13.63991,6.747515 13.6399,6.747516 7.94954,5.904883 7.94954,5.904883 5.01879,5.506468 5.01879,5.506467 3.2819,6.15747 3.28189,6.157469 1.53716,7.264924 1.53716,7.26493 -0.67369,8.88766 -0.67369,8.88767 6.93208,-0.68307 6.93209,-0.68307 7.02077,1.46388 7.02077,1.46387 6.32274,3.19171 6.32274,3.19171 5.87694,5.60565 5.87693,5.60565 4.313,6.53417 4.31299,6.53417 3.02858,7 3.02857,7 2.50709,8.5 2.50709,8.5 1.50793,9 1.50794,9 0.59979,9.5 0.5998,9.5 -0.92177,7.18883 -0.92176,7.18883 -2.64811,5.78423 -2.64811,5.78423 -5.14186,8.02694 -5.14187,8.02694 -4.81134,6.75361 -4.81133,6.75362 v 1.40621 1.40621 l 6.99258,9.31178 6.99259,9.31178 3.41106,6.52839 3.41107,6.5284 1.59635,5.4315 1.59635,5.4315 -0.003,6.5685 -0.003,6.5685 -1.56879,8.96892 -1.56879,8.96892 -2.95509,7.6628 -2.95509,7.6628 -4.90138,6.97932 -4.90139,6.97932 -4.82154,4.12796 -4.82154,4.12796 -5.5,2.91954 -5.5,2.91955 -6.31469,2.05847 -6.31468,2.05847 -10.45472,1.21527 -10.45471,1.21527 -11.37832,-1.18605 -11.37832,-1.18605 -6.07249,-2.18492 -6.07248,-2.18491 -2.70037,-2.1532 -2.70036,-2.15319 6.18322,-6.64651 6.18322,-6.6465 4.37154,-6.76162 4.37155,-6.76162 2.48849,-6 2.4885,-6 1.13568,-3.54038 1.13568,-3.54037 1.51259,-6.95963 1.51259,-6.95962 0.93943,-23.38975 0.93943,-23.38975 -0.99557,-1.86025 -0.99558,-1.86025 h -6.41559 -6.4156 l -5.29922,-1.11276 -5.29922,-1.11275 -7.40893,-3.39561 -7.40893,-3.39561 -5.51375,-4.53922 -5.51374,-4.53921 -4.07733,-5.34351 -4.07732,-5.3435 -1.70349,-3.10892 -1.70349,-3.10891 h -5.09197 -5.09196 l -2.45455,-2.45455 -2.45454,-2.45455 v -2.82294 -2.82295 l 1.50124,-2.14333 1.50124,-2.14332 3.03818,-0.6673 3.03818,-0.66729 -0.5605,-1.76598 -0.5605,-1.76597 -1.47755,-8.39591 -1.47756,-8.39591 -0.0167,-3.5 -0.0167,-3.5 -0.93089,-1.47198 -0.93089,-1.47197 -0.44358,1.47197 -0.44358,1.47198 -1.74158,5 -1.74158,5 -4.02187,7.83035 -4.02188,7.83035 -6.59676,6.77171 -6.59676,6.77171 -6.5,3.04285 -6.5,3.04286 -5.29922,1.10508 -5.29922,1.10509 h -7.99294 -7.99294 l -7.59291,-1.56836 -7.59291,-1.56836 -10.04482,-3.57212 -10.04482,-3.57212 -3.02312,3.38347 -3.02313,3.38346 -5.04699,4.34486 -5.04698,4.34486 -7.75166,3.92415 -7.75166,3.92414 -6.24834,1.47323 -6.24834,1.47322 -8.68463,0.0148 -8.68462,0.0148 -6.91117,-1.45381 -6.91117,-1.45381 -5.30095,-2.08944 -5.30096,-2.08945 -4.10325,-2.76044 -4.10325,-2.76044 -7.84288,-5.27009 -7.84288,-5.2701 -0.62224,0.62224 -0.62224,0.62224 -1.31942,4.70155 -1.31942,4.70155 -0.40193,7.01779 -0.40193,7.0178 -1.03759,2.72907 -1.03759,2.72907 -0.18785,9.25314 -0.18785,9.25313 0.20911,9.5 0.20911,9.5 1.39645,9.54926 1.39645,9.54927 2.39687,6.60332 2.39688,6.60332 5.30155,9.56992 5.30155,9.56991 7.2548,8.7775 7.25481,8.7775 6.15611,5.3556 6.1561,5.3556 -0.30298,1.46507 -0.30299,1.46507 -6.51448,2.86546 -6.51448,2.86545 -8.84739,2.56387 -8.84739,2.56388 -9.13813,-0.086 -9.13813,-0.086 z m 25.00648,-1.49836 6.5,-1.39798 8.10052,-3.11511 8.10052,-3.11512 1.8707,-1.36788 1.8707,-1.36789 -5.45013,-4.85166 -5.45012,-4.85165 -4.5211,-4.85716 -4.52109,-4.85716 -4.2275,-5.64284 -4.2275,-5.64284 -5.00902,-9.03521 -5.00901,-9.0352 -2.40658,-7.07562 -2.40657,-7.07562 -1.12964,-8.88918 -1.12965,-8.88917 -0.22726,-5.5 -0.22727,-5.5 -6.5299,0.33613 -6.52991,0.33614 -5.73903,-2.01711 -5.73904,-2.0171 -3.94616,-3.12542 -3.94615,-3.12541 -3.08991,-6.2765 -3.089911,-6.2765 -0.561984,-5.4451 -0.561984,-5.4451 1.185818,-5.71205 1.185818,-5.71206 3.181173,-4.73263 3.18117,-4.73263 4.92617,-3.70858 4.92617,-3.70858 6.84664,-2.20149 6.84664,-2.20149 6.82131,0.48807 6.8213,0.48806 5.90294,2.70245 5.90294,2.70246 2.24292,2.10711 2.24292,2.10712 4.0752,6.25485 4.0752,6.25486 6.18482,2.46569 6.18483,2.4657 7.91223,1.75103 7.91223,1.75102 9.58777,-0.55605 9.58777,-0.55606 6.28219,-1.98558 6.28219,-1.98557 6.91319,-4.10705 6.91319,-4.10705 6.58432,-6.48779 6.58431,-6.48779 h 0.86754 0.86754 l 12.29751,4.11162 12.29752,4.11162 9.7217,1.07892 9.72171,1.07891 6.83354,-1.08295 6.83355,-1.08296 5.84367,-2.21448 5.84367,-2.21448 5.15633,-4.18292 5.15633,-4.18292 5.09796,-6.75837 5.09795,-6.75837 3.56056,-8.70569 3.56056,-8.70569 0.69609,-3.7105 0.69609,-3.71049 1.33631,-1.10903 1.33631,-1.10904 0.513,3.32341 0.51299,3.32341 0.62201,7.5 0.62201,7.5 1.42408,6.81537 1.42408,6.81538 v 0.90603 0.90603 l -3.25,0.83627 -3.25,0.83626 -1.32153,2.72773 -1.32154,2.72773 0.9047,2.7146 0.90469,2.7146 6.64848,1 6.64849,1 4.96748,7.58506 4.96747,7.58506 5.47716,4.67927 5.47715,4.67928 5.82372,2.8805 5.82373,2.8805 5.5,1.65357 5.5,1.65357 8.49618,0.42802 8.49617,0.42801 1.25383,1.71471 1.25382,1.7147 -0.0386,6.05887 -0.0386,6.05888 -0.89152,18.5 -0.89151,18.5 -1.52001,7 -1.52002,7 -1.91769,5.52247 -1.91769,5.52248 -2.76666,5.47752 -2.76667,5.47753 -3.02075,4.5 -3.02075,4.5 -5.84473,6.66489 -5.84472,6.66489 v 0.94854 0.94855 l 5.88349,2.64035 5.88348,2.64035 4.86652,0.91209 4.86651,0.9121 9,0.68735 9,0.68735 9.67162,-1.16101 9.67162,-1.16102 8.14346,-2.87973 8.14345,-2.87973 4.94202,-3.17129 4.94203,-3.17129 6.2429,-6.74821 6.2429,-6.7482 3.66714,-7.42888 3.66714,-7.42888 1.50691,-5.96411 1.50691,-5.96411 1.21831,-7.78198 1.2183,-7.78197 -0.5666,-6.75847 -0.56661,-6.75847 -1.77678,-4.45956 -1.77678,-4.45955 -3.94873,-6.98361 -3.94872,-6.9836 -6.33088,-8.39322 -6.33088,-8.39322 0.69143,-1.12318 0.69143,-1.12317 9.44371,-14 9.44371,-14 3.09549,-6.5 3.0955,-6.5 v -18.5 -18.5 l -1.86282,-9 -1.86283,-9 -2.74315,-8.5 -2.74315,-8.5 -3.5353,-7 -3.53531,-7 -4.56283,-6.19048 -4.56284,-6.19047 -5.29588,-4.21067 -5.29589,-4.21067 -6.5,-3.09365 -6.5,-3.09366 -12.71585,-0.35475 -12.71585,-0.35474 0.10469,-11.23748 0.10468,-11.237484 -1.2746,-5.412975 -1.27459,-5.412976 -1.99685,-4 -1.99684,-4 -4.87217,-6.147789 -4.87217,-6.147789 -8.74522,-6.6336 -8.74523,-6.633601 -13,-6.433857 -13,-6.433858 -9.5,-3.093402 -9.5,-3.093403 -7.5,-1.462055 -7.5,-1.462056 -12.57493,-0.04174 -12.57493,-0.04174 -6.92507,1.596298 -6.92507,1.596299 -9.20417,4.466144 -9.20417,4.466144 h -0.81842 -0.81843 l -1.9039,-3.535328 -1.9039,-3.535329 -4.2333,-3.902111 -4.23329,-3.902111 -4.84021,-2.433043 -4.84021,-2.433043 -7,-1.798663 -7,-1.798664 -14.5,0.102826 -14.5,0.102826 -7.97831,2.083801 -7.97831,2.083801 -6.02169,3.089041 -6.02169,3.089041 -4.32266,4.143478 -4.32266,4.143478 -3.40319,5.5 -3.4032,5.5 -2.77415,5.5 -2.77414,5.5 -12.13309,0.623167 -12.13308,0.623167 -5.36692,2.468436 -5.36691,2.468435 -4.35687,4.408398 -4.35688,4.408397 -3.37793,7 -3.37794,7 -1.01519,5.38649 -1.01519,5.38649 0.0174,7.61351 0.0174,7.61351 1.47405,6.95858 1.47404,6.95859 -0.9896,0.98961 -0.98961,0.9896 -4.75181,-1.70314 -4.7518,-1.70314 -7.5,0.0158 -7.500002,0.0158 -4.809927,1.45938 -4.809927,1.45938 -4.999258,2.72094 -4.999258,2.72094 -6.2141,6.58727 -6.214099,6.58727 -4.20141,8.07564 -4.201409,8.07564 -1.525306,5.85605 -1.525306,5.85604 0.01187,7.0399 0.01187,7.03991 1.332357,5 1.332357,5 1.641437,3.17261 1.641437,3.17262 3.976424,4.59439 3.976423,4.5944 -0.47342,1.23299 -0.47342,1.23299 -3.01987,2 -3.01987,2 -3.75539,4.5 -3.75539,4.5 -3.163574,5.00989 -3.163574,5.00989 -1.549832,5.9502 -1.549833,5.95021 0.02567,12.5399 0.02567,12.53991 1.836676,8.11856 1.836676,8.11856 2.638427,6.88144 2.638426,6.88144 3.749224,4.90121 3.749224,4.90122 5.5,3.09878 5.5,3.09879 13.5,-0.14478 13.5,-0.14477 3.5,-0.35523 3.500007,-0.35522 -0.0877,2.5 -0.0877,2.5 -1.763129,8 -1.763119,8 -0.530382,8.61876 -0.530383,8.61877 1.266985,5.38123 1.266984,5.38124 1.816444,3.61647 1.81644,3.61647 2.43019,2.88811 2.43018,2.88811 8.26011,5.94732 8.26011,5.94733 5.1075,1.76545 5.10751,1.76544 7.5,0.0153 7.5,0.0153 z m 312,-178.06729 v -0.5 h 0.5 0.5 v 0.5 0.5 h -0.5 -0.5 z m -332.93426,68.46481 1.93426,-1.03518 v -4.46482 -4.46481 h -0.85078 -0.85078 l -3.0847,1.07533 -3.08471,1.07533 -4.50122,-1.9911 -4.50122,-1.99111 -2.0633,-4.04439 -2.06329,-4.04439 v -3.57967 -3.57968 l 2.01975,-3.95905 2.01976,-3.95904 4.09681,-2.71115 4.09682,-2.71114 6.28042,-0.39991 6.28041,-0.39991 0.57583,-2.87912 0.57582,-2.87913 -0.5798,-1.51094 -0.5798,-1.51093 h -6.76728 -6.76729 l -4.14166,1.46126 -4.14166,1.46126 -3.47729,2.65226 -3.47729,2.65226 -3.14151,6.38131 -3.14152,6.38132 0.48491,6.75516 0.4849,6.75517 2.05825,4 2.05825,4 2.84159,2.69483 2.84158,2.69484 3.5,1.51602 3.5,1.51602 4.81574,0.0391 4.81574,0.0392 z m -1.23004,-13.26685 1.0806,-1.30204 -0.59882,-2.28987 -0.59881,-2.28987 2.69186,-2.49603 2.69187,-2.49604 -0.3012,-4.66206 -0.3012,-4.66205 -4.79653,0.0657 -4.79652,0.0658 -2.93899,2.93899 -2.93899,2.93899 -0.56901,4.49525 -0.569,4.49526 2.03982,3.25 2.03982,3.25 h 3.39226 3.39225 z m 141.1643,111.22587 -5.5,-0.97477 -6.12338,-2.86274 -6.12338,-2.86274 -4.00977,-3.62259 -4.00978,-3.62259 -1.23012,-2.96979 -1.23013,-2.96979 0.62777,-2.50122 0.62776,-2.50123 3.0532,-1.57887 3.0532,-1.57887 2.15995,0.31068 2.15994,0.31069 3.65096,5.52499 3.65096,5.52499 4.91324,2.67412 4.91324,2.67412 4.95817,1.11407 4.95817,1.11407 6.2493,-1.17628 6.24931,-1.17628 4.38855,-2.90686 4.38855,-2.90685 2.86214,-5.51311 2.86215,-5.51311 2.25,-0.57535 2.25,-0.57534 2.48477,0.62364 2.48477,0.62363 0.62529,2.49135 0.62528,2.49134 -0.62484,3.3307 -0.62484,3.33071 -3.63138,4.24245 -3.63138,4.24245 -3.96066,2.50025 -3.96066,2.50026 -4.64318,1.45141 -4.64317,1.45141 -8.5,0.41791 -8.5,0.4179 z m 29.7302,-4.67383 6.7698,-2.75 4.17843,-4.26815 4.17844,-4.26814 1.13295,-3.43289 1.13296,-3.43289 -1.09657,-2.04897 -1.09658,-2.04896 h -2.94449 -2.94449 l -1.97253,3.86647 -1.97253,3.86647 -2.67805,3.18269 -2.67806,3.18269 -4.61974,2.32984 -4.61974,2.32983 -4.18885,0.69857 -4.18885,0.69857 0.49541,1.29101 0.4954,1.29101 -2.20524,0.57669 -2.20524,0.57668 -3.10132,-0.50491 -3.10131,-0.50491 -4.5,-1.09241 -4.5,-1.09241 -1.70905,-1.46586 -1.70904,-1.46587 -3.29096,-0.66765 -3.29095,-0.66764 -0.31642,-2.71443 -0.31643,-2.71443 h -0.93357 -0.93358 l -2,-2 -2,-2 v -1.5 -1.5 l 2.25,0.039 2.25,0.039 3.25,4.41895 3.25,4.41896 v 0.9196 0.9196 l 1.61617,1.3413 1.61616,1.3413 3.63384,1.26608 3.63383,1.26609 4,-0.0751 4,-0.0751 -3.01553,-0.87765 -3.01554,-0.87765 -6.48446,-3.87096 -6.48447,-3.87097 -2.26929,-4.6612 -2.26929,-4.66119 h -2.01589 -2.0159 l -2.46482,1.61501 -2.46481,1.61501 0.036,2.63499 0.036,2.63499 2.21404,2.68512 2.21404,2.68513 4,2.7218 4,2.7218 5.5,2.30081 5.5,2.3008 12.7302,0.0423 12.7302,0.0423 z m -13.7302,-0.10783 v -0.9282 l 1.64313,-0.63052 1.64312,-0.63053 0.44252,0.44252 0.44252,0.44251 -2.08565,1.11621 -2.08564,1.1162 z m 12.84546,-4.24269 3.34547,-3.04189 0.44197,0.44198 0.44198,0.44197 -1.19796,2.62923 -1.19795,2.62923 -2.58949,-0.0293 -2.58948,-0.0293 z m 8.68742,-8.39948 0.7097,-4 0.79158,-0.86287 0.79157,-0.86287 1.08714,0.67188 1.08713,0.67189 v 1.76667 1.76667 l -2.58841,2.42431 -2.58841,2.42432 z m 52.96712,-39.32602 -4,-1.89152 -1.71186,-1.92783 -1.71187,-1.92783 -1.53813,-3.68128 -1.53814,-3.68129 v -7.89119 -7.8912 l 2.98733,-5.89092 2.98733,-5.89092 0.0127,-0.16845 0.0127,-0.16844 -3.75,-2.24332 -3.75,-2.24333 -2.25,-2.01254 -2.25,-2.01255 v -3.1707 -3.1707 l 1.89406,-1.7141 1.89407,-1.71411 4.82052,0.30912 4.82051,0.30912 3.03542,4.21762 3.03542,4.21762 2.5,0.57784 2.5,0.57785 3.63584,0.96047 3.63584,0.96047 2.58993,3.39558 2.58993,3.39557 2.12238,5.34849 2.12238,5.34849 0.31992,7 0.31992,7 -0.98076,4.6559 -0.98075,4.65591 -3.27294,3.78623 -3.27294,3.78624 -6.41438,0.34061 -6.41437,0.34062 z m 16.07341,-0.64021 3.50917,-1.46623 2.09488,-4.73582 2.09488,-4.73582 0.14872,-6.54795 0.14872,-6.54795 -1.11441,-5 -1.11441,-5 -2.07316,-4 -2.07317,-4 -2.34731,-2.12153 -2.34732,-2.12153 -4.49844,-0.56664 -4.49844,-0.56664 -2.29707,-2.81183 -2.29707,-2.81183 -1.87882,-2.25 -1.87883,-2.25 h -3.64141 -3.6414 l -1.93426,1.03518 -1.93426,1.03518 v 2.96482 2.96482 l 1.95851,1.9585 1.95851,1.95851 4.04149,2.06182 4.04149,2.06181 v 0.88739 0.88739 l -2.69336,5.19132 -2.69335,5.19133 -0.42467,5.87106 -0.42468,5.87106 0.69098,4.60777 0.69098,4.60777 3.54525,3.92417 3.54525,3.92417 3.1318,0.90777 3.1318,0.90778 3.78212,0.0902 3.78212,0.0902 z m -185.57341,-1.6545 -2.5,-0.99396 -2.78667,-2.66488 -2.78666,-2.66487 -1.58934,-5.46713 -1.58934,-5.46712 0.64729,-6.96456 0.64729,-6.96457 1.97871,-4.47321 1.97872,-4.47321 v -0.67199 -0.672 l -3.47037,-1.2549 -3.47036,-1.2549 -2.02964,-2.85036 -2.02963,-2.85036 v -4.07257 -4.07258 l 2.49559,-1.63517 2.49558,-1.63517 3.48985,0.6547 3.48985,0.6547 1.76456,2.57903 1.76457,2.57903 2.04906,2.2229 2.04906,2.2229 5.15845,0.6843 5.15845,0.68429 3.0621,2.57659 3.0621,2.57659 2.43683,4.15814 2.43684,4.15813 1.52877,6.48647 1.52878,6.48647 -0.007,6 -0.007,6 -1.89945,4.18368 -1.89946,4.18368 -3.02892,1.56632 -3.02892,1.56632 -7.29966,-0.0634 -7.29966,-0.0634 z m 18.9036,-1.14402 2.4036,-1.23525 1.9519,-2.6298 1.95191,-2.62979 0.49325,-6.37021 0.49325,-6.3702 -1.58644,-6.75894 -1.58643,-6.75893 -2.54744,-5.02712 -2.54743,-5.02712 -3.13109,-1.90413 -3.13109,-1.90413 -4.0838,-0.63287 -4.08379,-0.63287 -1.78751,-0.50624 -1.78751,-0.50624 -2.49956,-3.95955 -2.49955,-3.95955 -2.42552,-0.92218 -2.42552,-0.92218 -3.03742,1.05885 -3.03741,1.05885 v 3.76731 3.76732 l 1.98128,2.51879 1.98128,2.51878 4.01872,1.60798 4.01872,1.60797 v 0.38726 0.38725 l -2.65487,5.79899 -2.65486,5.79899 -0.0877,8.57185 -0.0877,8.57186 2.4824,4.34917 2.48241,4.34918 3.51012,1.85663 3.51012,1.85662 7,0.0295 7,0.0294 z"
             id="path43" /><path
             style="fill:#4f2502"
             d="m 128.99156,399.10892 c -9.0888,-3.33016 -17.13651,-9.91476 -24.0579,-16.54821 -12.854229,-15.1508 -8.185285,-36.51645 -4.01003,-54.12105 2.63101,-9.35267 -10.089283,-2.25156 -15.311466,-4.19854 -8.953404,-0.40956 -18.741621,2.43426 -26.125844,-4.09058 -13.330166,-8.7152 -16.2893,-26.12774 -19.60451,-40.68788 -0.383549,-15.9824 -2.571381,-33.92818 8.569953,-47.11387 3.821023,-6.06562 9.568434,-10.67938 14.598025,-15.14212 -0.901371,-5.59484 -8.769056,-9.41702 -10.235176,-15.74817 -6.907728,-16.61796 -2.662899,-35.53603 6.834433,-50.26447 7.439059,-11.38074 18.376866,-21.10839 32.12081,-23.82944 8.695005,-0.98543 17.797225,-1.10971 25.832795,2.97139 4.64775,-5.06154 -2.59268,-13.09558 -0.9772,-19.53381 -1.47982,-16.996134 4.38125,-35.542915 18.57505,-45.686014 10.12412,-6.670307 22.43127,-4.466088 33.89845,-5.676561 6.74563,-14.569025 15.29308,-29.935791 31.33694,-35.589659 15.07411,-6.581223 31.81386,-5.325314 47.83739,-4.946886 14.03165,2.520022 28.9819,9.09682 34.78049,23.036545 10.6407,-3.168748 20.13341,-10.650773 31.69624,-11.617973 18.62357,-1.743598 37.75698,-0.327512 55.30764,6.720306 12.81902,4.791381 25.58079,10.770563 36.87136,18.498673 15.76243,10.241508 30.03119,26.920823 28.89115,46.787079 1.60558,5.47698 -4.45724,18.34221 4.69513,16.54809 10.39979,0.5917 21.38032,-1.23089 30.36808,5.2311 21.67605,11.56827 31.63113,36.423 36.7187,59.2693 4.42246,15.98683 1.78775,32.69635 2.49689,49.06344 -6.36598,15.81953 -17.57267,28.85637 -26.46128,43.24635 12.21438,16.17722 27.34341,33.95832 24.87091,55.58547 -1.9667,18.49302 -7.47685,37.65064 -21.94607,50.26246 -13.12603,13.25491 -32.88608,16.95228 -50.88149,17.42751 -12.77332,-0.62102 -25.82275,-1.63404 -37.08208,-8.29493 3.05305,-8.07259 12.09941,-13.55683 16.06175,-21.74026 12.70637,-18.89852 15.20571,-42.04451 15.31962,-64.25305 -0.52419,-8.52527 2.96113,-18.54286 -1.35094,-26.04474 -8.63401,-2.10777 -18.99677,-0.37928 -27.67506,-4.64196 -14.27735,-4.99993 -25.3758,-15.83954 -32.41036,-29.04769 -4.03227,-4.93068 -15.87502,0.63539 -15.95017,-8.51432 -0.3886,-8.41522 13.40429,-4.85421 8.01311,-14.10148 -2.79337,-9.97108 -2.18507,-20.41582 -4.1262,-30.53018 -5.20561,3.99265 -3.26696,12.22092 -7.27772,17.49477 -4.96607,13.57129 -14.66207,26.41746 -27.81817,32.72722 -18.18501,8.35979 -39.12549,4.95442 -57.14369,-2.11695 -7.20525,-4.60045 -13.51438,-2.5259 -18.03083,4.38057 -11.93645,12.51422 -29.26395,19.30318 -46.54097,18.6589 -11.50084,-0.0232 -23.88788,-3.3629 -33.60198,-9.17408 -4.92759,-8.73264 -10.91906,-17.27112 -21.18462,-19.92465 -12.78848,-4.58656 -27.72791,-0.92855 -37.76367,8.13485 -12.173932,10.35002 -13.723972,29.77176 -4.93371,42.84033 5.79383,9.79289 18.69323,14.5564 29.80538,12.83733 8.25802,-1.58083 2.48729,11.68549 5.32695,16.80256 1.99037,25.48991 17.04638,48.13286 34.72902,65.79216 3.99568,4.18671 15.43046,9.94042 3.98985,12.50329 -14.64333,6.16358 -31.3974,11.4023 -47.04498,6.35983 z M 468.59907,221.43966 c -1.14484,-2.16789 -1.24738,2.06934 0,0 z m -202,162.11466 c -7.64942,-3.44283 -19.07472,-8.4658 -18.00008,-18.38464 6.16141,-6.87588 11.6466,-1.27689 13.35365,5.79177 6.02756,3.7045 11.96596,8.41911 19.14635,9.79783 -7.54363,0.86321 -17.79516,-0.75555 -19.93674,-8.85728 -0.82897,-6.68906 -14.15279,-9.88326 -7.56326,-1.9624 4.93997,3.94917 4.80284,8.89845 12.79095,10.23002 6.11431,3.22878 14.38145,5.6116 21.32216,3.50713 -1.89535,-5.57607 10.87946,-2.60615 14.17182,-7.40095 5.90598,-3.03338 8.88567,-9.62326 11.75572,-15.3362 9.52973,-2.96279 9.24554,9.55382 3.27162,13.56293 -5.48312,6.81109 -14.45296,10.75193 -22.98929,11.42498 -9.01675,-0.87669 -19.07695,2.02037 -27.3229,-2.37319 z m 27.72877,-2.21922 c -6.27553,-0.57238 -3.75249,5.49555 0,0 z m 12.14815,-2.02467 c 4.4233,-8.51827 -13.10432,6.33917 -1.19795,2.6292 0.39932,-0.8764 0.79863,-1.7528 1.19795,-2.6292 z m 10.12308,-11.48607 c -2.04198,-10.52431 -8.55955,12.21231 -2.58841,4.19098 1.13089,-1.37458 3.30157,-2.00435 2.58841,-4.19098 z m 50.3682,-36.97286 c -6.8983,-2.3045 -11.69064,-9.58489 -11.45272,-16.96109 -0.68059,-8.33371 1.43579,-16.18737 6.08452,-23.13533 -1.29707,-5.28855 -13.2706,-5.20242 -12,-12.78024 -0.84371,-6.3576 11.63819,-7.2596 13.8073,-1.85451 3.06866,8.19606 11.41104,6.17548 17.04002,10.1978 8.80589,9.03257 10.28729,23.6828 7.44404,35.43511 -1.25568,7.29307 -8.14981,11.19689 -15.22137,10.06731 -2.01264,0.2123 -3.81479,-0.35732 -5.70179,-0.96905 z m -172.37832,-3.85686 c -7.41232,-3.49985 -9.5114,-12.73573 -8.37483,-20.33926 -1.5752,-7.32949 3.46927,-13.18518 5.38503,-19.73192 -6.86985,-1.5776 -13.89492,-6.55932 -12,-14.4458 2.58656,-5.5914 12.80091,-3.11439 14.07265,3.36914 3.60469,6.88224 13.74329,2.61496 18.79794,8.37662 7.96826,10.12332 10.42869,24.23515 8.34042,36.95665 -4.10702,9.5174 -15.48061,8.40314 -23.7828,7.1043 -0.8128,-0.42991 -1.62561,-0.85982 -2.43841,-1.28973 z m -74.98988,-37.64929 c -11.59465,-4.39016 -15.53073,-18.36427 -13.73395,-29.50382 3.26597,-8.99992 9.13562,-17.34127 19.13054,-19.24744 4.88522,0.0732 16.75407,-4.05796 16.31125,3.55637 0.52213,8.92739 -11.02727,2.28979 -15.49695,6.7074 -9.58026,4.03966 -13.64397,16.98314 -7.0456,25.36596 3.80681,5.04087 11.24447,6.88564 16.98393,3.71584 4.20155,6.25088 -2.07672,13.87781 -10.25836,10.94111 -2.21519,0.38618 -3.94204,-0.70135 -5.89086,-1.53542 z m 3.93078,-14.65569 c -4.57363,-5.93881 -0.47998,-15.94966 6.18853,-18.13512 8.7426,-3.84995 12.04411,6.73584 6.29122,11.70528 -3.07942,4.34846 -2.10016,14.00267 -11.08449,8.65289 -0.46508,-0.74102 -0.93017,-1.48203 -1.39526,-2.22305 z"
             id="path42" /></g></g></g></g></svg>
