<?xml version="1.0" encoding="UTF-8" standalone="no"?>
<svg
   viewBox="0 0 512 512"
   version="1.1"
   id="svg1"
   sodipodi:docname="family-old-male.svg"
   inkscape:version="1.3 (0e150ed, 2023-07-21)"
   xml:space="preserve"
   xmlns:inkscape="http://www.inkscape.org/namespaces/inkscape"
   xmlns:sodipodi="http://sodipodi.sourceforge.net/DTD/sodipodi-0.dtd"
   xmlns="http://www.w3.org/2000/svg"
   xmlns:svg="http://www.w3.org/2000/svg"><defs
     id="defs1" /><sodipodi:namedview
     id="namedview1"
     pagecolor="#ffffff"
     bordercolor="#666666"
     borderopacity="1.0"
     inkscape:showpageshadow="2"
     inkscape:pageopacity="0.0"
     inkscape:pagecheckerboard="0"
     inkscape:deskcolor="#d1d1d1"
     inkscape:zoom="0.35355339"
     inkscape:cx="476.58997"
     inkscape:cy="473.76154"
     inkscape:window-width="1366"
     inkscape:window-height="717"
     inkscape:window-x="0"
     inkscape:window-y="27"
     inkscape:window-maximized="1"
     inkscape:current-layer="g42"
     showgrid="false" /><!--!Font Awesome Free 6.5.1 by @fontawesome - https://fontawesome.com License - https://fontawesome.com/license/free Copyright 2024 Fonticons, Inc.--><g
     id="g33"
     transform="translate(-80.082976,64.183922)"><g
       id="g37"
       transform="translate(4.0936885,0.61828602)"><g
         id="g40"
         transform="translate(57.153421,-7.1254469)"><g
           id="g42"
           transform="translate(4.2319385,-17.10444)"><g
             id="g48"
             transform="translate(11.04224,10.894212)"><path
               style="fill:#f09c64"
               d="m 268.89782,391.36372 -3.5,-0.39735 -9,-1.107 -9,-1.107 -7,-1.9903 -7,-1.99029 -3.50779,-0.86563 -3.5078,-0.86563 -10.10248,-4.38518 -10.10248,-4.38518 -6.61724,-3.70057 -6.61724,-3.70057 -9.77249,-7.34746 -9.77248,-7.34746 -9.10922,-9.36617 -9.10923,-9.36617 -5.01411,-6.14972 -5.01411,-6.14971 -6.43409,-9.85029 -6.43409,-9.85028 -3.8118,-7 -3.81181,-7 -4.47344,-10 -4.47344,-10 -1.41049,-4.63018 -1.41048,-4.63017 -1.24684,-0.96466 -1.24685,-0.96465 -5,-1.30529 -5,-1.30529 -8.888329,-4.39868 -8.88833,-4.39868 -7.268133,-5.93901 -7.268133,-5.939 -5.114255,-5.7622 -5.114254,-5.76219 -3.868951,-7.64536 -3.86895,-7.64536 -0.690554,-5.94986 -0.690555,-5.94986 1.141039,-4.23749 1.141038,-4.2375 -1.660108,-2.66728 -1.660109,-2.66729 3.849293,4.14301 3.849292,4.14302 4.633615,1.20436 4.633615,1.20436 3.866385,-0.27456 3.866385,-0.27456 4.849221,2.26787 4.849221,2.26786 1.865678,-0.48788 1.865678,-0.48789 2.485158,2.30317 2.485158,2.30317 3.61455,1.19291 3.61455,1.1929 4.185395,-0.63353 4.18539,-0.63354 7,-0.74077 7,-0.74077 2,-1.13851 2,-1.13851 2.69695,-2.83606 2.69696,-2.83605 1.55304,-3.71789 1.55305,-3.71788 -0.006,-4.28212 -0.006,-4.28211 -0.9881,-3.55685 -0.98809,-3.55685 -2.96903,-2.84451 -2.96903,-2.8445 -3.65992,-0.59865 -3.65992,-0.59864 0.0516,-13 0.0516,-13 2.18219,-6 2.18219,-6 -0.49691,-8.94829 -0.49691,-8.94828 -1.99568,-1.55172 -1.99568,-1.55171 -1.86856,-1.17291 -1.86857,-1.172904 2.00359,0.475099 2.0036,0.475095 4.40543,-6.80219 4.40544,-6.802194 11.09097,-11.012523 11.09097,-11.012523 9.26955,-6.487477 9.26955,-6.487477 9.73045,-5 9.73045,-5 6,-2.684395 6,-2.684395 15.5,-4.977803 15.5,-4.977804 2.5,-0.464211 2.5,-0.464212 7.5,-1.551324 7.5,-1.551325 7,-1.028383 7,-1.028383 10.1151,-1.085215 10.11511,-1.085214 11.38489,1.100415 11.3849,1.100415 6.5,0.963344 6.5,0.963344 11.96735,3.074253 11.96735,3.074253 7.30363,2.901313 7.30363,2.901312 7.22902,3.624513 7.22902,3.624513 8.49454,5.627495 8.49453,5.627494 11.03593,11 11.03592,11 5.09452,7.5 5.09451,7.5 4.19332,8.25 4.19331,8.250004 1.68171,0.0789 1.68171,0.0789 -1.27125,0.51147 -1.27125,0.51147 -2.8539,-0.99488 -2.8539,-0.99487 -2.25996,1.15446 -2.25995,1.15446 -2.95644,5.5 -2.95643,5.5 0.44256,6.53386 0.44255,6.53387 2.56926,4.06997 2.56926,4.06997 4.28137,3.66469 4.28137,3.66469 -1.11167,3.73148 -1.11167,3.73147 -1.53642,4.10883 -1.53641,4.10883 0.84138,8.34614 0.84137,8.34614 4.3107,3.67581 4.3107,3.67582 -1.81862,4.03297 -1.81862,4.03298 0.73218,9.25089 0.73218,9.25088 2.33535,2.33535 2.33535,2.33536 h 3.09512 3.09511 l 2.70034,-1.40499 2.70034,-1.40499 2.38945,-2.5579 2.38945,-2.5579 2.49541,1.96289 2.49541,1.96289 h 4.69083 4.69082 l 2.17432,-2.31446 2.17431,-2.31445 v -4.23756 -4.23757 l 2.95914,-1.03156 2.95914,-1.03157 0.57959,-1.82611 0.57958,-1.82611 1.71128,-1.34031 1.71127,-1.3403 -1.26993,1.62647 -1.26992,1.62647 2.62956,8.15242 2.62956,8.15242 -0.41092,10.72111 -0.41092,10.72111 -2.58991,5.00203 -2.58991,5.00204 -5.41681,5.123 -5.41682,5.123 -3.44199,1.8107 -3.44199,1.8107 -7.97579,2.70308 -7.97579,2.70308 -3.69328,10.62219 -3.69328,10.62218 -4.1431,7.68104 -4.14309,7.68103 -5.26143,8.05796 -5.26142,8.05797 -10.03514,12.03367 -10.03515,12.03367 -7.39126,6.58955 -7.39127,6.58954 -6.80133,5.12555 -6.80133,5.12555 -6.78957,4.43211 -6.78956,4.43211 -6.40911,3.03783 -6.4091,3.03783 -9,3.52478 -9,3.52478 -6,1.57839 -6,1.5784 -7.91994,1.41127 -7.91995,1.41126 -13.08005,0.42651 -13.08006,0.42651 z m 40,-51.93591 5.5,-1.71092 5.6484,-2.85068 5.6484,-2.85067 2.1016,-2.67175 2.1016,-2.67175 v -3.44207 -3.44206 l -2.92308,-2.92308 -2.92307,-2.92307 h -2.42689 -2.42688 l -4.33617,3.1411 -4.33618,3.14111 -5.37204,1.88812 -5.37204,1.88812 -8.19163,1.10242 -8.19162,1.10242 -9.5002,-0.56921 -9.5002,-0.56921 -9.49369,-2.52203 -9.49369,-2.52203 -4.65853,-5.04041 -4.65853,-5.0404 h -3.47534 -3.47533 l -1.37244,1.65369 -1.37245,1.6537 v 5.4632 5.46321 l 4.5,3.97316 4.5,3.97317 3,1.90619 3,1.9062 2.5275,0.004 2.52749,0.004 2.02147,1.41589 2.02146,1.41589 7.95104,1.08172 7.95104,1.08173 3.5,0.40555 3.5,0.40555 15,-0.30468 15,-0.30468 z m -21.6928,-50.51306 2.57692,-2.027 3.12414,-5.46043 3.12415,-5.46044 0.98966,-3.26256 0.98967,-3.26256 2.04695,-15 2.04694,-15 0.37682,-9 0.37681,-9 -1.05701,-8 -1.05701,-8 -0.86133,-3.5 -0.86134,-3.5 -3.10931,-10.5 -3.1093,-10.5 -1.34788,-3 -1.34788,-3 -3.68202,-4.25 -3.68203,-4.25 h -1.96858 -1.96859 l -1.70349,3.14773 -1.70349,3.14773 -2.54394,3.10227 -2.54394,3.10227 -1.83135,2.90603 -1.83135,2.90604 -2.95949,8.09396 -2.95949,8.09397 -0.91749,3.5 -0.91748,3.5 -2.03294,8.5 -2.03294,8.5 -1.09168,17.21421 -1.09168,17.21422 1.12668,7.57521 1.12667,7.5752 1.92779,3.77879 1.9278,3.77879 4.18285,3.77896 4.18286,3.77896 5.13956,2.39306 5.13956,2.39306 3.61514,0.01 3.61514,0.01 z m 102.57786,-69.0119 3.03891,-3.03891 0.66601,-3.55014 0.66601,-3.55014 -0.47716,-6.66892 -0.47715,-6.66893 -1.56553,-3.02739 -1.56552,-3.02739 -2.7367,-1.46464 -2.7367,-1.46463 h -4.19723 -4.19722 l -2.60614,1.39476 -2.60615,1.39477 -1.54524,3.25636 -1.54525,3.25636 v 8.19775 8.19774 l 1.63148,3.43808 1.63147,3.43807 2.61853,1.42302 2.61852,1.42301 5.17308,0.04 5.17308,0.04 z m -196.19082,-3.37451 2.80576,-2.41342 v -15.05087 -15.05087 l -1.71971,-1.71971 -1.71972,-1.71971 -5.86995,-0.4246 -5.86995,-0.42459 -3.14341,1.62552 -3.1434,1.62552 -1.76693,3.23307 -1.76693,3.23308 0.0406,9 0.0406,9 0.73995,3.67112 0.73996,3.67111 3.21949,2.06204 3.21948,2.06203 5.69424,0.0169 5.69423,0.0168 z m 210.52282,-48.82873 3.98936,-2.24215 1.89679,-3.71802 1.89679,-3.71801 v -3.89061 -3.89062 l -1.13606,-3.39922 -1.13607,-3.39922 -2.4962,-2.69278 -2.4962,-2.69277 -7.11773,-2.04505 -7.11774,-2.04504 -9.55133,-3.01218 -9.55133,-3.01218 h -4.29754 -4.29754 l -3.51919,1.66996 -3.51919,1.66997 -1.89419,3.08003 -1.89419,3.08004 -1.05865,3.87019 -1.05866,3.87018 1.13748,4.62982 1.13749,4.62981 2.68342,3.08508 2.68342,3.08508 11.5,3.62588 11.5,3.62587 3.5,0.94885 3.5,0.94886 6.36385,0.0902 6.36384,0.0902 z m -232.21706,-5.53278 10.5,-5.09147 5.8128,-2.16215 5.81279,-2.16214 2.93721,-4.0547 2.9372,-4.05469 -0.0164,-5.59996 -0.0164,-5.59996 -2.24878,-3.97043 -2.24877,-3.97043 -3.38266,-2.27957 -3.38266,-2.27957 h -4.69556 -4.69557 l -5.8131,2 -5.8131,2 h -2.26012 -2.26011 l -0.33334,0.87508 -0.33333,0.87508 -6.5,3.25392 -6.5,3.25393 -3.7801,2.97886 -3.7801,2.97887 -1.4699,2.84247 -1.4699,2.84247 v 5.58177 5.58178 l 1.3451,3.21788 1.34509,3.21789 1.64543,1.36458 1.64543,1.36458 3.75948,1.39556 3.75947,1.39556 4.5,-0.35187 4.5,-0.35186 z m 165.5217,-52.55952 1.4783,-2.11057 v -3.20491 -3.20491 l -2.63486,-2.072584 -2.63486,-2.07258 h -1.65504 -1.65504 l -5.9601,-1.554374 -5.9601,-1.554373 -7.5,-1.02867 -7.5,-1.02867 -4,-0.425692 -4,-0.425691 -14.21529,-0.04169 -14.21529,-0.04169 -12.78471,1.637792 -12.78471,1.637791 -4.28604,0.790261 -4.28604,0.79026 -1.96396,1.77736 -1.96396,1.77736 v 3.28925 3.28925 l 2.39485,2.78418 2.39485,2.78418 10.35515,-1.80453 10.35515,-1.80452 15.7267,-1.12119 15.72671,-1.1212 11.77329,1.2445 11.7733,1.24449 8,1.89237 8,1.89236 2,0.32733 2,0.32734 3.2717,-0.37883 3.2717,-0.37883 z m -11.7717,-33.419592 1.25,-1.628221 v -3.823569 -3.823569 l -3.25,-1.996728 -3.25,-1.996727 -5,-1.417818 -5,-1.417817 -4,-1.065038 -4,-1.065038 -15.5,-1.666741 -15.5,-1.666741 -14.4351,1.224941 -14.43509,1.224941 -3.52986,1.474868 -3.52986,1.474869 -0.76973,1.211213 -0.76973,1.211213 -0.0153,3.75 -0.0153,3.75 2.1161,2.116097 2.1161,2.116097 4.1339,-0.632836 4.1339,-0.632836 12,-1.392017 12,-1.392016 12.5,1.361061 12.5,1.361061 4.5,1.013879 4.5,1.013879 6.5,1.951207 6.5,1.951206 3.5,-0.480299 3.5,-0.480299 z m 158.75,114.754042 1.80998,-2 h 0.5 0.5 l -1.80998,2 -1.80997,2 h -0.5 -0.5 z m 2.5,-3.5 v -0.5 h 0.5 0.5 v 0.5 0.5 h -0.5 -0.5 z m 1.03063,-2 v -1 l 0.96937,-1.5 0.96938,-1.5 v 1 1 l -0.96938,1.5 -0.96937,1.5 z m -441.030629,-6 v -0.5 h 0.5 0.5 v 0.5 0.5 h -0.5 -0.5 z m 443.157899,-1.5 v -2.5 l 0.50438,1.25 0.50439,1.25 -0.50439,1.25 -0.50438,1.25 z m -444.157899,-0.5 v -0.5 h 0.5 0.5 v 0.5 0.5 h -0.5 -0.5 z m -0.921052,-3.08334 0.07895,-1.91666 0.525219,1.3125 0.52522,1.3125 -0.604167,0.60416 -0.604167,0.60417 z m 445.921051,0.0833 v -0.5 h 0.5 0.5 v 0.5 0.5 h -0.5 -0.5 z m 1.232,-5.5 v -3.5 l 0.45733,1.75 0.45732,1.75 -0.45732,1.75 -0.45733,1.75 z m -447.153051,-5.58334 0.07895,-1.91666 0.525219,1.3125 0.52522,1.3125 -0.604167,0.60416 -0.604167,0.60417 z m 445.021441,-0.71214 -1.3239,-2.20452 1.80223,1.72619 1.80223,1.72619 -0.47833,0.47833 -0.47833,0.47833 z M 45.897821,159.94176 v -1.33334 l 0.666667,0.66667 0.666667,0.66667 -0.666667,0.66666 -0.666667,0.66667 z m 440.333329,0.33333 0.66667,-0.66667 0.66667,0.66667 0.66666,0.66667 h -1.33333 -1.33333 z m -3.00502,-1.92016 -0.60892,-1.58682 1.67625,-3.16318 1.67624,-3.16317 -0.71441,2 -0.71442,2 -0.0715,2.75 -0.0715,2.75 h -0.28138 -0.28139 z m -435.418089,-2.24542 0.980588,-1.83224 1.745742,-1.41776 1.745743,-1.41775 -2.379205,3.25 -2.379205,3.25 h -0.347125 -0.347125 z m 9.047988,-8.41775 4.458208,-4.75 h 0.291792 0.291792 v 0.29179 0.29179 l -4.75,4.45821 -4.75,4.45821 z m 429.293971,-1.25 0.0202,-4 0.43489,2.26165 0.4349,2.26166 -0.45508,1.73834 -0.45508,1.73835 z m -424.252179,-5.5 v -1.33334 l 0.666667,0.66667 0.666667,0.66667 -0.666667,0.66666 -0.666667,0.66667 z m 422.564289,-0.70688 -0.68278,-1.79312 1.24258,1.23333 1.24258,1.23333 -0.5598,0.5598 -0.55979,0.55979 z m -421.485341,-2.87646 0.07895,-1.91666 0.525219,1.3125 0.52522,1.3125 -0.604167,0.60416 -0.604167,0.60417 z m 404.921051,-1.27799 v -0.86133 l 2.5,0.4779 2.5,0.47791 v 0.38342 0.38343 h -2.5 -2.5 z m 10,-0.13867 -3.5,-0.73672 3.19098,-0.13164 3.19099,-0.13164 0.61803,1 0.61804,1 -0.30902,-0.13165 -0.30902,-0.13164 z m -413.842104,-3 v -2.5 l 0.504386,1.25 0.504386,1.25 -0.504386,1.25 -0.504386,1.25 z m 0.872731,-4.5 v -1 l 0.969374,-1.5 0.969375,-1.5 v 1 1 l -0.969375,1.5 -0.969374,1.5 z m 400.390183,-4.13684 -2.07919,-4.27007 0.8363,0.51687 0.8363,0.51686 1.55363,3.00438 1.55362,3.00438 -0.31073,0.74882 -0.31074,0.74882 z M 66.897821,123.44176 v -0.5 h 0.5 0.5 v 0.5 0.5 h -0.5 -0.5 z m 1,-2 v -0.5 h 0.5 0.5 v 0.5 0.5 h -0.5 -0.5 z m 3,-4 2.348628,-2.5 h 0.5 0.5 l -2.348628,2.5 -2.348628,2.5 h -0.5 -0.5 z m 390.404509,0.34549 -0.71353,-1.15451 1.15451,0.71352 1.15451,0.71353 v 0.44098 0.44099 h -0.44098 -0.44098 z m -8.19197,-6.41672 -5.28746,-4.42877 h 0.81484 0.81485 l 4.97261,4.45518 4.97262,4.45519 -0.5,-0.0264 -0.5,-0.0264 z m -377.727331,2.59516 0.508403,-0.82261 3.503195,-2.06694 3.503194,-2.06693 -0.0082,0.71627 -0.0082,0.71628 -4.003349,2.17327 -4.003349,2.17327 z m 7.514792,-6.52393 v -0.5 h 0.5 0.5 v 0.5 0.5 h -0.5 -0.5 z m 362.333329,-1.16667 0.66667,-0.66667 0.66667,0.66667 0.66666,0.66667 h -1.33333 -1.33333 z m -360.833329,-1.33333 0.618034,-1 h 0.5 0.5 l -0.618034,1 -0.618034,1 h -0.5 -0.5 z m 2.833334,-1.66667 0.666666,-0.66667 0.666667,0.66667 0.666667,0.66667 h -1.333334 -1.333333 z m 3,-1 0.666666,-0.66667 0.666667,0.66667 0.666667,0.66667 h -1.333334 -1.333333 z m 2.75,-0.69266 0.416666,-0.35932 3,-0.67105 3,-0.671058 -1.5,1.015068 -1.5,1.01506 -1.916666,0.0153 -1.916667,0.0153 z m 6.916666,-2.140674 v -0.5 h 0.499999 0.5 v 0.5 0.5 h -0.5 -0.499999 z m 2.812499,-1.183114 1.3125,-0.52522 0.60417,0.604167 0.60416,0.604167 -1.91666,-0.07895 -1.91667,-0.07895 z m 8.52083,0.01645 0.66667,-0.666667 0.66667,0.666667 0.66666,0.666667 h -1.33333 -1.33333 z"
               id="path51" /><path
               style="fill:#d56a4e"
               d="m 269.89782,341.34254 -3.5,-0.40555 -7.95104,-1.08173 -7.95104,-1.08172 -2.02146,-1.41589 -2.02147,-1.41589 -2.52749,-0.004 -2.5275,-0.004 -3,-1.9062 -3,-1.90619 -4.5,-3.97317 -4.5,-3.97316 v -5.46321 -5.4632 l 1.37245,-1.6537 1.37244,-1.65369 h 3.47533 3.47534 l 4.65853,5.0404 4.65853,5.04041 9.49369,2.52203 9.49369,2.52203 9.5002,0.56921 9.5002,0.56921 8.19162,-1.10242 8.19163,-1.10242 5.37204,-1.88812 5.37204,-1.88812 4.33618,-3.14111 4.33617,-3.1411 h 2.42688 2.42689 l 2.92307,2.92307 2.92308,2.92308 v 3.44206 3.44207 l -2.1016,2.67175 -2.1016,2.67175 -5.6484,2.85067 -5.6484,2.85068 -5.5,1.71092 -5.5,1.71092 -15,0.30468 -15,0.30468 z m 36.76916,-2.90843 6.26916,-1.47808 5.23084,-2.61745 5.23084,-2.61744 2.19813,-2.01528 2.19813,-2.01527 0.61844,-2.81576 0.61845,-2.81577 -1.21628,-2.30865 -1.21628,-2.30865 -1.10029,-0.73469 -1.1003,-0.73469 -2.81672,-0.0153 -2.81672,-0.0153 -3.38875,2.58472 -3.38874,2.58472 -6.79453,2.34668 -6.79454,2.34667 -9.25,1.01808 -9.25,1.01808 -9.25,-1.01414 -9.25,-1.01414 -5.26983,-1.51206 -5.26983,-1.51206 -1.05294,0.35098 -1.05295,0.35098 -0.26771,5.73568 -0.26772,5.73568 1.43277,1.18909 1.43276,1.18909 7.65773,1.18135 7.65772,1.18134 17,0.10485 17,0.10484 z m -60.14481,-6.24235 -0.51043,-1.75 -0.65186,-4.62566 -0.65185,-4.62566 -4.48265,-5.12434 -4.48265,-5.12434 h -1.9882 -1.98819 l -1.93426,1.03518 -1.93426,1.03518 v 2.4058 2.4058 l 1.01902,0.62979 1.01901,0.62978 2.56184,5.05554 2.56183,5.05553 2.3737,2.3737 2.37369,2.3737 h 3.61284 3.61285 z m 25.73609,-43.6626 -5.13956,-2.39306 -4.18286,-3.77896 -4.18285,-3.77896 -1.9278,-3.77879 -1.92779,-3.77879 -1.12667,-7.5752 -1.12668,-7.57521 1.09168,-17.21422 1.09168,-17.21421 2.03294,-8.5 2.03294,-8.5 0.91748,-3.5 0.91749,-3.5 2.95949,-8.09397 2.95949,-8.09396 1.83135,-2.90604 1.83135,-2.90603 2.54394,-3.10227 2.54394,-3.10227 1.70349,-3.14773 1.70349,-3.14773 h 1.96859 1.96858 l 3.68203,4.25 3.68202,4.25 1.34788,3 1.34788,3 3.1093,10.5 3.10931,10.5 0.86134,3.5 0.86133,3.5 1.05701,8 1.05701,8 -0.37681,9 -0.37682,9 -2.04694,15 -2.04695,15 -0.98967,3.26256 -0.98966,3.26256 -3.12415,5.46044 -3.12414,5.46043 -2.57692,2.027 -2.57692,2.02701 -3.61514,-0.01 -3.61514,-0.01 z m 101.52104,-67.09049 -2.61853,-1.42302 -1.63147,-3.43807 -1.63148,-3.43808 v -8.19774 -8.19775 l 1.54525,-3.25636 1.54524,-3.25636 2.60615,-1.39477 2.60614,-1.39476 h 4.19722 4.19723 l 2.7367,1.46463 2.7367,1.46464 1.56552,3.02739 1.56553,3.02739 0.47715,6.66893 0.47716,6.66892 -0.66601,3.55014 -0.66601,3.55014 -3.03891,3.03891 -3.0389,3.03891 -5.17308,-0.04 -5.17308,-0.04 z m 13.13587,-1.16623 2.82592,-1.66932 1.32837,-2.48777 1.32836,-2.48777 v -7.59291 -7.59291 l -1.35113,-3.20126 -1.35112,-3.20125 -2.36369,-1.54875 -2.36369,-1.54874 -4.78519,0.0318 -4.78518,0.0318 -1.58666,1.2182 -1.58665,1.2182 -1.16335,2.18425 -1.16334,2.18426 v 9.01869 9.01869 l 1.13294,2.48654 1.13294,2.48653 3.11706,1.53775 3.11706,1.53775 2.84571,0.0228 2.84571,0.0228 z m -210.73683,-3.42641 -3.21949,-2.06204 -0.73996,-3.67111 -0.73995,-3.67112 -0.0406,-9 -0.0406,-9 1.76693,-3.23308 1.76693,-3.23307 3.1434,-1.62552 3.14341,-1.62552 5.86995,0.42459 5.86995,0.4246 1.71972,1.71971 1.71971,1.71971 v 15.05087 15.05087 l -2.80576,2.41342 -2.80577,2.41342 -5.69423,-0.0168 -5.69424,-0.0169 z m 14.10649,0.13869 2.5172,-0.95704 1.5479,-2.9933 1.54789,-2.9933 v -11.11541 -11.1154 l -1.02964,-1.92391 -1.02965,-1.9239 -2.92069,-1.51035 -2.9207,-1.51035 h -3.18162 -3.18163 l -3.27958,2.02689 -3.27959,2.02689 -1.08845,3.12233 -1.08845,3.12233 0.004,9.10078 0.004,9.10078 2.00258,3.28456 2.00258,3.28456 2.24368,0.90205 2.24368,0.90205 3.1849,0.0634 3.1849,0.0634 z m 244.18673,-1.37832 -2.33535,-2.33535 -0.73218,-9.25088 -0.73218,-9.25089 1.81862,-4.03298 1.81862,-4.03297 -4.3107,-3.67582 -4.3107,-3.67581 -0.84137,-8.34614 -0.84138,-8.34614 1.53641,-4.10883 1.53642,-4.10883 1.11167,-3.73147 1.11167,-3.73148 -4.28137,-3.66469 -4.28137,-3.66469 -2.64998,-4.10384 -2.64999,-4.10383 -0.0203,-7.5 -0.0203,-7.5 3.01832,-4.89223 3.01833,-4.89222 1.98167,-0.71485 1.98168,-0.71484 3.5,1.3483 3.5,1.34831 -3.29064,-0.57962 -3.29064,-0.57962 -2.4465,1.60301 -2.44649,1.60301 -2.01287,3.94553 -2.01286,3.94554 v 5.57968 5.57967 l 2.06191,4.04168 2.06191,4.04168 5.07041,4.83614 5.07041,4.83615 -0.56986,2.33234 -0.56986,2.33234 -2.17143,6 -2.17144,6 0.62482,6.84534 0.62482,6.84535 0.97151,1.81527 0.9715,1.81528 3.51265,2.17094 3.51265,2.17093 v 1.29133 1.29132 l -2.01672,4.55914 -2.01673,4.55914 0.57995,5.81798 0.57994,5.81798 0.43828,2.18007 0.43828,2.18007 1.56993,1.56993 1.56993,1.56993 h 3.72562 3.72563 l 3.90589,-4 3.9059,-4 h 0.90269 0.9027 l 2.97108,2.5 2.97108,2.5 h 2.81249 2.81249 l 2.23967,-1.81357 2.23966,-1.81357 0.49303,-5.13111 0.49304,-5.1311 2.94438,-1.02642 2.94439,-1.02642 1.94814,-2.27891 1.94814,-2.2789 -1.76444,3.23472 -1.76444,3.23472 -2.75,0.96326 -2.75,0.96326 v 4.3777 4.37771 l -2.31445,2.17431 -2.31445,2.17432 h -4.55069 -4.55069 l -2.49541,-1.96289 -2.49541,-1.96289 -2.38945,2.5579 -2.38945,2.5579 -2.70034,1.40499 -2.70034,1.40499 h -3.09511 -3.09512 z m -341.538605,-16.20298 -3.464867,-1.54581 -1.746323,-1.87445 -1.746324,-1.87446 -1.939589,0.50721 -1.939589,0.50721 -4.849221,-2.25609 -4.849221,-2.2561 -4.5,0.18836 -4.5,0.18835 -4.449282,-1.36834 -4.449283,-1.36835 -3.506913,-4.4046 -3.506913,-4.40459 3.956196,3.61747 3.956195,3.61747 3.399224,1.13253 3.399223,1.13253 h 5.354401 5.354401 l 3.731567,2 3.731566,2 h 3.370453 3.370454 l 2.939422,2.47336 2.939422,2.47336 3.946389,1.18236 3.946387,1.18237 3.75855,-1.65963 3.75854,-1.65964 5.74784,0.18053 5.74784,0.18053 3.6469,-2.95168 3.64689,-2.95167 1.85527,-3.45935 1.85526,-3.45934 v -5.79772 -5.79772 l -1.41647,-3.3901 -1.41648,-3.3901 -2.6696,-1.74919 -2.6696,-1.74919 -3.66393,-0.61285 -3.66392,-0.61286 0.2371,-2.46573 0.23709,-2.46574 0.65636,-5.80033 0.65635,-5.80032 -1.29355,-3.91951 -1.29355,-3.91951 2.6501,-5.90521 2.6501,-5.90522 v -8.41351 -8.41351 l -1.93104,-3.78763 -1.93104,-3.78763 2.18104,1.44553 2.18104,1.44553 0.63169,2.88066 0.63168,2.88066 0.0857,7 0.0857,7 -2.03927,5.5 -2.03927,5.5 -0.0507,13 -0.0507,13 3.65992,0.59864 3.65992,0.59865 2.96903,2.8445 2.96903,2.84451 0.98809,3.55685 0.9881,3.55685 0.006,4.28211 0.006,4.28212 -1.55305,3.71788 -1.55304,3.71789 -2.69696,2.83605 -2.69695,2.83606 -2,1.13851 -2,1.13851 -7,0.76265 -7,0.76265 -5,0.51652 -4.999999,0.51651 z m 390.964865,-8.96166 2.34863,-2.5 h 0.5 0.5 l -2.34863,2.5 -2.34863,2.5 h -0.5 -0.5 z m 3,-4.5 v -1.33334 l 0.66667,0.66667 0.66666,0.66667 -0.66666,0.66666 -0.66667,0.66667 z m 1,-2.5 v -0.5 h 0.5 0.5 v 0.5 0.5 h -0.5 -0.5 z m 1.19495,-4 0.0371,-3 0.46099,1.76903 0.46099,1.76903 -0.49804,1.23097 -0.49804,1.23097 z m -442.194949,-1 v -0.5 h 0.5 0.5 v 0.5 0.5 h -0.5 -0.5 z m -1,-2.5 v -1.33334 l 0.666667,0.66667 0.666667,0.66667 -0.666667,0.66666 -0.666667,0.66667 z m 444.690419,-4.61515 0.47514,-4.88485 0.33828,-1 0.33827,-1 0.0636,4.5 0.0636,4.5 -0.87705,1.38485 -0.87705,1.38486 z M 45.170186,168.94176 v -4.5 l 0.433368,2.25 0.433369,2.25 -0.433369,2.25 -0.433368,2.25 z m 338.727634,-0.12924 -3.5,-0.94885 -11.5,-3.62587 -11.5,-3.62588 -2.68342,-3.08508 -2.68342,-3.08508 -1.13749,-4.62981 -1.13748,-4.62982 1.05866,-3.87018 1.05865,-3.87019 1.89419,-3.08004 1.89419,-3.08003 3.51919,-1.66997 3.51919,-1.66996 h 4.29754 4.29754 l 9.55133,3.01218 9.55133,3.01218 7.11774,2.04504 7.11773,2.04505 2.4962,2.69277 2.4962,2.69278 1.13607,3.39922 1.13606,3.39922 v 3.89062 3.89061 l -1.89679,3.71801 -1.89679,3.71802 -3.98936,2.24215 -3.98937,2.24215 -6.36384,-0.0902 -6.36385,-0.0902 z m 19.1492,-2.44792 2.93925,-1.51994 1.95204,-3.20145 1.95204,-3.20145 0.004,-4.78212 0.004,-4.78212 -1.41647,-3.3901 -1.41648,-3.3901 -2.58179,-1.69166 -2.58179,-1.69165 -7.25174,-1.89558 -7.25173,-1.89558 -9.30536,-3.09145 -9.30535,-3.09146 -3.19465,0.60382 -3.19464,0.60381 -3.25914,1.98795 -3.25914,1.98796 -1.98712,3.25914 -1.98712,3.25914 -0.004,4.41214 -0.004,4.41214 2.4659,4.20773 2.46589,4.20774 3.28411,1.51002 3.2841,1.51003 6,2.02118 6,2.02119 6.5,1.54769 6.5,1.54768 2,0.4779 2,0.47789 3.85497,-0.45527 3.85498,-0.45527 z m -254.40867,0.20188 -3.75948,-1.39556 -1.64543,-1.36458 -1.64543,-1.36458 -1.34509,-3.21789 -1.3451,-3.21788 v -5.58178 -5.58177 l 1.4699,-2.84247 1.4699,-2.84247 3.7801,-2.97887 3.7801,-2.97886 6.5,-3.25393 6.5,-3.25392 0.33333,-0.87508 0.33334,-0.87508 h 2.26011 2.26012 l 5.8131,-2 5.8131,-2 h 4.69557 4.69556 l 3.38266,2.27957 3.38266,2.27957 2.24877,3.97043 2.24878,3.97043 0.0164,5.59996 0.0164,5.59996 -2.9372,4.05469 -2.93721,4.0547 -5.81279,2.16214 -5.8128,2.16215 -10.5,5.09147 -10.5,5.09148 -4.5,0.35186 -4.5,0.35187 z m 22.04122,-5.4818 9.71825,-4.85708 5.5,-2.18605 5.5,-2.18604 1.54589,-1.20688 1.54589,-1.20687 1.70411,-2.47251 1.70411,-2.47251 v -6.40907 -6.40907 l -4.36842,-4.36842 -4.36842,-4.36842 -2.88158,-0.1107 -2.88158,-0.11069 -2.5,0.16595 -2.5,0.16594 -6.5,2.08589 -6.5,2.08588 -8,3.98577 -8,3.98576 -3.73038,2.94159 -3.73037,2.94158 -1.1481,3.83199 -1.14809,3.83198 0.68903,4.59478 0.68903,4.59477 2.60788,3.09929 2.60788,3.09928 2.08156,0.84208 2.08156,0.84208 5.28175,0.0634 5.28175,0.0634 z m 317.77712,1.32527 -1.94113,-1.46819 h 1.06869 1.06868 l 1.24489,1.5 1.24489,1.5 -0.37244,-0.0318 -0.37245,-0.0318 z M 45.897821,161.94176 v -1.33334 l 0.666667,0.66667 0.666667,0.66667 -0.666667,0.66666 -0.666667,0.66667 z m 437.027909,-2.46638 -1.21699,-1.46638 0.51559,-1.28362 0.5156,-1.28362 0.0789,1.70031 0.079,1.70031 1.75,1.01928 1.75,1.01928 -1.12755,0.0304 -1.12756,0.0304 z M 46.897821,159.00077 v -0.94098 l 0.988546,-0.61096 0.988546,-0.61095 -0.595535,1.55194 -0.595534,1.55194 h -0.393011 -0.393012 z m 3.5,-5.05901 1.809976,-2 h 0.5 0.5 l -1.809976,2 -1.809975,2 h -0.5 -0.5 z m 432.499999,0.5 v -0.5 h 0.5 0.5 v 0.5 0.5 h -0.5 -0.5 z m 1,-2 v -0.5 h 0.5 0.5 v 0.5 0.5 h -0.5 -0.5 z m -426.499999,-4.5 3.905896,-4 h 0.5 0.5 l -3.905896,4 -3.905895,4 h -0.5 -0.5 z m 427.578949,1.41666 0.079,-1.91666 0.52522,1.3125 0.52521,1.3125 -0.60416,0.60416 -0.60417,0.60417 z m 0.079,-5.41666 v -2.5 l 0.50438,1.25 0.50439,1.25 -0.50439,1.25 -0.50438,1.25 z m -423.157899,-1.5 v -0.5 h 0.5 0.5 v 0.5 0.5 h -0.5 -0.5 z m 1,-2.5 v -1.33334 l 0.666667,0.66667 0.666667,0.66667 -0.666667,0.66666 -0.666667,0.66667 z m 420.999999,0.5 v -0.5 h 0.5 0.5 v 0.5 0.5 h -0.5 -0.5 z m -1.59549,-2.65451 -0.71353,-1.15451 1.15451,0.71352 1.15451,0.71353 v 0.44098 0.44099 h -0.44098 -0.44098 z m -418.325561,-1.42883 0.07895,-1.91666 0.525219,1.3125 0.52522,1.3125 -0.604167,0.60416 -0.604167,0.60417 z m 405.733551,0.90022 1.3125,-0.52522 0.60417,0.60417 0.60416,0.60417 -1.91666,-0.0789 -1.91667,-0.0789 z m 3.9375,-0.97916 1.25,-0.50439 1.25,0.50439 1.25,0.50438 h -2.5 -2.5 z m 6.25,0.16228 v -0.5 h 0.5 0.5 v 0.5 0.5 h -0.5 -0.5 z m -12.74782,-4 0.0202,-4 0.43489,2.26165 0.4349,2.26166 -0.45508,1.73834 -0.45508,1.73835 z m -402.094284,-1.5 v -2.5 l 0.504386,1.25 0.504386,1.25 -0.504386,1.25 -0.504386,1.25 z m 0.842105,-3.5 v -0.5 h 0.5 0.5 v 0.5 0.5 h -0.5 -0.5 z m 398.695399,-3.01256 -1.66304,-3.48744 h 0.45814 0.45814 l 1.59942,3.09293 1.59941,3.09293 -0.39451,0.39451 -0.39451,0.39451 z m -397.695399,0.51256 v -1.33334 l 0.666667,0.66667 0.666667,0.66667 -0.666667,0.66666 -0.666667,0.66667 z m 1,-2.5 v -0.5 h 0.5 0.5 v 0.5 0.5 h -0.5 -0.5 z m 1,-1.81291 v -0.31291 l 3.25,-2.93709 3.25,-2.93709 -2.937091,3.25 -2.937091,3.25 H 69.21073 68.897821 Z m 391.404989,-2.93709 -1.90499,-2.25 2.25,1.90498 2.25,1.90499 v 0.34501 0.34502 h -0.34501 -0.34501 z m -4.38078,-3.22084 -1.22069,-1.47083 -4.5732,-3.02917 -4.57321,-3.02916 h 1.08165 1.08165 l 5.08979,4.02325 5.0898,4.02325 v 0.47675 0.47675 h -0.37755 -0.37756 z m -379.524209,-0.52916 0.618034,-1 h 0.5 0.5 l -0.618034,1 -0.618034,1 h -0.5 -0.5 z m 2.5,-1.5 v -0.5 h 0.5 0.5 v 0.5 0.5 h -0.5 -0.5 z m 248.499999,-0.29356 -2,-0.32733 -8,-1.89236 -8,-1.89237 -11.7733,-1.24449 -11.77329,-1.2445 -15.72671,1.1212 -15.7267,1.12119 -10.35515,1.80452 -10.35515,1.80453 -2.39485,-2.78418 -2.39485,-2.78418 v -3.28925 -3.289249 l 1.96396,-1.77736 1.96396,-1.77736 4.28604,-0.79026 4.28604,-0.790261 12.78471,-1.637791 12.78471,-1.637792 14.21529,0.04169 14.21529,0.04169 4,0.425691 4,0.425692 7.5,1.02867 7.5,1.02867 5.9601,1.554373 5.9601,1.554374 h 1.65504 1.65504 l 2.63486,2.07258 2.63486,2.072583 v 3.20491 3.20491 l -1.4783,2.11057 -1.4783,2.11057 -3.2717,0.37883 -3.2717,0.37883 z M 80.897821,111.44176 v -0.5 h 0.5 0.5 v 0.5 0.5 h -0.5 -0.5 z m 2,-2.5 v -1.33334 l 0.666667,0.66667 0.666667,0.66667 -0.666667,0.66666 -0.666667,0.66667 z m 2.226191,-3.57873 1.72619,-1.80223 0.478332,0.47833 0.478331,0.47834 -2.204522,1.32389 -2.204522,1.3239 z m 350.523808,0.85533 3.25,-0.40332 3.25,0.40332 3.25,0.40332 h -6.5 -6.5 z m -346.416665,-2.94327 0.666666,-0.66667 0.666667,0.66667 0.666667,0.66667 h -1.333334 -1.333333 z m 3.416666,-0.99561 1.25,-0.50439 1.25,0.50439 1.25,0.50438 h -2.5 -2.5 z m 4.25,-0.83772 v -0.5 h 0.5 0.5 v 0.5 0.5 h -0.5 -0.5 z m 2,-1 v -0.500004 h 0.5 0.5 v 0.500004 0.5 h -0.5 -0.5 z m 14.404509,-0.654513 -0.71353,-1.154508 1.15451,0.713525 1.15451,0.713526 v 0.44098 0.44099 h -0.44098 -0.44098 z m -12.07118,-0.512158 0.66667,-0.666667 0.66667,0.666667 0.66666,0.666667 h -1.33333 -1.33333 z m 4.91667,-1.022659 1.75,-0.457323 1.75,0.457323 1.75,0.457323 h -3.5 -3.5 z m 204.75,-21.427098 -6.5,-1.951207 -4.5,-1.013879 -4.5,-1.013879 -12.5,-1.361061 -12.5,-1.361061 -12,1.392016 -12,1.392017 -4.1339,0.632836 -4.1339,0.632836 -2.1161,-2.116097 -2.1161,-2.116097 0.0153,-3.75 0.0153,-3.75 0.76973,-1.211213 0.76973,-1.211213 3.52986,-1.474869 3.52986,-1.474868 14.43509,-1.224941 14.4351,-1.224941 15.5,1.666741 15.5,1.666741 4,1.065038 4,1.065038 5,1.417817 5,1.417818 3.25,1.996727 3.25,1.996728 v 3.823569 3.823569 l -1.25,1.628221 -1.25,1.628222 -3.5,0.480299 -3.5,0.480299 z"
               id="path50" /><path
               style="fill:#4e2a23"
               d="m 258.7401,338.52116 -7.65773,-1.18135 -1.43276,-1.18909 -1.43277,-1.18909 0.26772,-5.73568 0.26771,-5.73568 1.05295,-0.35098 1.05294,-0.35098 5.26983,1.51206 5.26983,1.51206 9.25,1.01414 9.25,1.01414 9.25,-1.01808 9.25,-1.01808 6.79454,-2.34667 6.79453,-2.34668 3.38874,-2.58472 3.38875,-2.58472 2.81672,0.0153 2.81672,0.0153 1.1003,0.73469 1.10029,0.73469 1.21628,2.30865 1.21628,2.30865 -0.61845,2.81577 -0.61844,2.81576 -2.19813,2.01527 -2.19813,2.01528 -5.23084,2.61744 -5.23084,2.61745 -6.26916,1.47808 -6.26916,1.47808 -17,-0.10484 -17,-0.10485 z m -21.30688,-6.9531 -2.3737,-2.3737 -2.56183,-5.05553 -2.56184,-5.05554 -1.01901,-0.62978 -1.01902,-0.62979 v -2.4058 -2.4058 l 1.93426,-1.03518 1.93426,-1.03518 h 1.98819 1.9882 l 4.48265,5.12434 4.48265,5.12434 0.65185,4.62566 0.65186,4.62566 0.51043,1.75 0.51043,1.75 h -3.61285 -3.61284 z m 137.84754,-111.20959 -3.11706,-1.53775 -1.13294,-2.48653 -1.13294,-2.48654 v -9.01869 -9.01869 l 1.16334,-2.18426 1.16335,-2.18425 1.58665,-1.2182 1.58666,-1.2182 4.78518,-0.0318 4.78519,-0.0318 2.36369,1.54874 2.36369,1.54875 1.35112,3.20125 1.35113,3.20126 v 7.59291 7.59291 l -1.32836,2.48777 -1.32837,2.48777 -2.82592,1.66932 -2.82593,1.66932 -2.84571,-0.0228 -2.84571,-0.0228 z m 11.07226,-1.0379 1.61877,-0.62118 1.46302,-2.82916 1.46301,-2.82915 v -6.90044 -6.90044 l -1.10842,-3.17961 -1.10841,-3.1796 -2.84193,-1.46962 -2.84192,-1.46961 h -2.59932 -2.59932 l -2.81665,1.45654 -2.81665,1.45655 -0.63369,3.16845 -0.63369,3.16846 v 5.75 5.75 l 0.6325,3.16248 0.6325,3.16249 2.6175,1.42247 2.6175,1.42248 3.66821,0.04 3.66822,0.04 z m -207.19888,-2.40764 -2.24368,-0.90205 -2.00258,-3.28456 -2.00258,-3.28456 -0.004,-9.10078 -0.004,-9.10078 1.08845,-3.12233 1.08845,-3.12233 3.27959,-2.02689 3.27958,-2.02689 h 3.18163 3.18162 l 2.9207,1.51035 2.92069,1.51035 1.02965,1.9239 1.02964,1.92391 v 11.1154 11.11541 l -1.54789,2.9933 -1.5479,2.9933 -2.5172,0.95704 -2.51721,0.95704 -3.1849,-0.0634 -3.1849,-0.0634 z m 11.74368,-2.83418 2.5,-1.83991 0.85635,-9.17488 0.85635,-9.17488 -0.6524,-3.47761 -0.65241,-3.47762 -2.1425,-1.99605 -2.14251,-1.99604 h -4.72255 -4.72254 l -2.5491,3.02943 -2.54911,3.02944 -0.65227,3.47694 -0.65228,3.47693 0.40154,7.10626 0.40154,7.10625 3.81085,3.49239 3.81086,3.49239 3.15009,-0.61656 3.15009,-0.61657 z m 244.57293,0.29308 -1.56993,-1.56993 -0.43828,-2.18007 -0.43828,-2.18007 -0.57994,-5.81798 -0.57995,-5.81798 2.01673,-4.55914 2.01672,-4.55914 v -1.29132 -1.29133 l -3.51265,-2.17093 -3.51265,-2.17094 -0.9715,-1.81528 -0.97151,-1.81527 -0.62482,-6.84535 -0.62482,-6.84534 2.17144,-6 2.17143,-6 0.56986,-2.33234 0.56986,-2.33234 -5.07041,-4.83615 -5.07041,-4.83614 -2.06191,-4.04168 -2.06191,-4.04168 v -5.57967 -5.57968 l 1.98661,-3.89408 1.98661,-3.89408 2.2359,-1.56608 2.23589,-1.56608 h 1.95072 1.95072 l -4.64191,4.26173 -4.64191,4.26174 0.5558,2.1254 0.55581,2.12541 -1.08712,0.67187 -1.08712,0.67188 v 2.0436 2.04361 l 2.41069,4.64738 2.41069,4.64738 1.06787,2.75 1.06787,2.75 h 2.54619 2.54619 l 1.0657,2.75 1.0657,2.75 -0.62039,5.4304 -0.62039,5.43041 -1.97006,3.18763 -1.97006,3.18762 v 6.02838 6.02837 l 3.40279,2.98769 3.40278,2.98768 1.1324,2.11591 1.1324,2.11591 h 1.96482 1.96481 v 2 2 h -1.92804 -1.92805 l -0.59626,5.75 -0.59626,5.75 -0.37078,3.67727 -0.37079,3.67728 1.4518,2.07272 1.45179,2.07273 h 2.9433 2.94329 l 1.78364,-1.75 1.78364,-1.75 3.34217,-1.21063 3.34217,-1.21062 2.82453,1.46062 2.82453,1.46063 h 1.96787 1.96788 l 1.58178,-0.60699 1.58179,-0.60699 v -4.44938 -4.44939 l 3.23941,-2.95874 3.23942,-2.95875 1.34237,0.51512 1.34238,0.51512 h 1.38682 1.38683 l -0.55704,1.45163 -0.55704,1.45163 -3.28788,1.08509 -3.28787,1.0851 -0.49482,5.1497 -0.49482,5.14971 -2.23966,1.81357 -2.23967,1.81357 h -2.81249 -2.81249 l -2.97108,-2.5 -2.97108,-2.5 h -0.9027 -0.90269 l -3.9059,4 -3.90589,4 h -3.72563 -3.72562 z m -341.072929,-16.29356 -4,-1.81956 -1.372444,-1.65848 -1.372445,-1.65847 h -3.642364 -3.642365 l -3.731566,-2 -3.731567,-2 h -5.354401 -5.354401 l -3.399223,-1.13135 -3.399224,-1.13135 -1.413394,-1.31776 -1.413395,-1.31776 2.413395,0.53802 2.413394,0.53802 1.5,0.5756 1.5,0.57559 6.692044,0.26929 6.692043,0.26929 2.166183,1.15931 2.166184,1.15931 6.641773,0.65689 6.641773,0.6569 v 2 2 l 4.274106,1.35243 4.274106,1.35244 1.630357,-1.35244 1.63036,-1.35243 6.59554,-0.0294 6.59553,-0.0294 3,-1.9532 3,-1.95319 1.5,-2.01552 1.5,-2.01551 1.25,-2.36617 1.25,-2.36618 v -4.07381 -4.07381 l -2.12517,-3.10149 -2.12518,-3.10149 -4.13533,-1.71039 -4.13533,-1.71039 h -1.36955 -1.36954 l 0.56324,-4.25 0.56324,-4.25 0.68654,-5.08482 0.68654,-5.08482 -2.61973,-2.61973 -2.61973,-2.61973 v -2.01212 -2.01212 l 3.5,-3.5 3.5,-3.5 0.11842,-6.78333 0.11842,-6.78333 -0.28473,-1 -0.28474,-1 -0.12717,-5.01135 -0.12718,-5.01135 -0.86102,-1.39316 -0.86102,-1.39316 1.25655,0.77658 1.25654,0.77659 1.39797,3.3458 1.39796,3.34581 v 8.15707 8.15707 l -2.6501,5.90522 -2.6501,5.90521 1.29355,3.91951 1.29355,3.91951 -0.65635,5.80032 -0.65636,5.80033 -0.23709,2.46574 -0.2371,2.46573 3.66392,0.61286 3.66393,0.61285 2.6696,1.74919 2.6696,1.74919 1.41648,3.3901 1.41647,3.3901 v 5.79772 5.79772 l -1.85526,3.45934 -1.85527,3.45935 -3.64967,2.95392 -3.64967,2.95393 -6.06726,-0.16722 -6.06726,-0.16722 -2.87815,1.48835 -2.87814,1.48835 -1.79966,-0.022 -1.799659,-0.022 z m 295.999999,-29.76107 -2,-0.4779 -6.5,-1.54768 -6.5,-1.54769 -6,-2.02119 -6,-2.02118 -3.2841,-1.51003 -3.28411,-1.51002 -2.46589,-4.20774 -2.4659,-4.20773 0.004,-4.41214 0.004,-4.41214 1.98712,-3.25914 1.98712,-3.25914 3.25914,-1.98796 3.25914,-1.98795 3.19464,-0.60381 3.19465,-0.60382 9.30535,3.09146 9.30536,3.09145 7.25173,1.89558 7.25174,1.89558 2.58179,1.69165 2.58179,1.69166 1.41648,3.3901 1.41647,3.3901 -0.004,4.78212 -0.004,4.78212 -1.95204,3.20145 -1.95204,3.20145 -2.93925,1.51994 -2.93925,1.51995 -3.85498,0.45527 -3.85497,0.45527 z m 9.72071,-4.2428 1.7207,-0.13264 2.5293,-5.3465 2.52929,-5.34649 v -2.15682 -2.15683 l -4.81616,-4.99668 -4.81616,-4.99668 -1.93384,-0.0992 -1.93384,-0.0992 -2.5,-0.25161 -2.5,-0.25161 -4.5,-0.75861 -4.5,-0.7586 -5.27963,-2.39059 -5.27964,-2.39059 h -1.55689 -1.55688 l -4.44214,3.1901 -4.44214,3.1901 -0.55486,2.5599 -0.55486,2.5599 -0.35647,1.1754 -0.35647,1.1754 0.98375,3.56283 0.98374,3.56283 2.20625,1.12881 2.20624,1.12881 1.57571,1.97762 1.5757,1.97762 5.39044,1.82484 5.39044,1.82485 1.66415,-0.89063 1.66414,-0.89062 1.99497,1.72112 1.99497,1.72112 7.87474,-0.11736 7.87474,-0.11736 z m -251.80227,0.8985 -2.08156,-0.84208 -2.60788,-3.09928 -2.60788,-3.09929 -0.68903,-4.59477 -0.68903,-4.59478 1.14809,-3.83198 1.1481,-3.83199 3.73037,-2.94158 3.73038,-2.94159 8,-3.98576 8,-3.98577 6.5,-2.08588 6.5,-2.08589 2.5,-0.16594 2.5,-0.16595 2.88158,0.11069 2.88158,0.1107 4.36842,4.36842 4.36842,4.36842 v 6.40907 6.40907 l -1.70411,2.47251 -1.70411,2.47251 -1.54589,1.20687 -1.54589,1.20688 -5.5,2.18604 -5.5,2.18605 -9.71825,4.85708 -9.71825,4.85708 -5.28175,-0.0634 -5.28175,-0.0634 z m 13.08156,-3.53971 3,-1.33788 5.59967,-2.57678 5.59967,-2.57677 h 1.49535 1.49534 l 1.80997,-2 1.80998,-2 h 2.34501 2.34501 v -1 -1 h 1.97695 1.97695 l 1.43375,-2.25 1.43375,-2.25 0.3393,-7.5 0.3393,-7.5 -2.04867,0.27875 -2.04868,0.27875 -2.3283,-2.47836 -2.32829,-2.47836 -3.12303,0.53065 -3.12303,0.53065 -2,0.81318 -2,0.81318 -4.53343,1.60578 -4.53343,1.60578 h -2.21657 -2.21657 v 1 1 h -1.77776 -1.77776 l -1.71245,2 -1.71245,2 h -2.12492 -2.12492 l -3.33681,3.64295 -3.33681,3.64295 -0.63229,2.87877 -0.63228,2.87878 0.66507,3.93654 0.66508,3.93655 1.82969,0.58072 1.82969,0.58072 1.57306,2.4008 1.57307,2.4008 3.76639,-0.52514 3.7664,-0.52513 z"
               id="path49" /><path
               style="fill:#37312f"
               d="m 374.78032,218.4392 -2.6175,-1.42247 -0.6325,-3.16249 -0.6325,-3.16248 v -5.75 -5.75 l 0.63369,-3.16846 0.63369,-3.16845 2.81665,-1.45655 2.81665,-1.45654 h 2.59932 2.59932 l 2.84192,1.46961 2.84193,1.46962 1.10841,3.1796 1.10842,3.17961 v 6.90044 6.90044 l -1.46301,2.82915 -1.46302,2.82916 -1.61877,0.62118 -1.61877,0.62119 -3.66822,-0.04 -3.66821,-0.04 z m -196.49354,-4.7798 -3.81085,-3.49239 -0.40154,-7.10625 -0.40154,-7.10626 0.65228,-3.47693 0.65227,-3.47694 2.54911,-3.02944 2.5491,-3.02943 h 4.72254 4.72255 l 2.14251,1.99604 2.1425,1.99605 0.65241,3.47762 0.6524,3.47761 -0.85635,9.17488 -0.85635,9.17488 -2.5,1.83991 -2.5,1.83991 -3.15009,0.61657 -3.15009,0.61656 z m 258.27266,-3.79037 -1.4518,-2.07272 0.37079,-3.67728 0.37078,-3.67727 0.59626,-5.75 0.59626,-5.75 h 1.92805 1.92804 v -2 -2 h -1.96481 -1.96482 l -1.1324,-2.11591 -1.1324,-2.11591 -3.40278,-2.98768 -3.40279,-2.98769 v -6.02837 -6.02838 l 1.97006,-3.18762 1.97006,-3.18763 0.62039,-5.43041 0.62039,-5.4304 -1.0657,-2.75 -1.0657,-2.75 h -2.54619 -2.54619 l -1.06787,-2.75 -1.06787,-2.75 -2.41069,-4.64738 -2.41069,-4.64738 v -2.04361 -2.0436 l 1.08712,-0.67188 1.08712,-0.67187 -0.54353,-2.07846 -0.54353,-2.07845 3.48807,-3.38757 3.48807,-3.38758 3.21174,-0.92111 3.21174,-0.92111 h 5.82234 5.82234 l 2.18426,1.14423 2.18426,1.14424 6.29489,4.97758 6.29488,4.97758 2.45512,4.84494 2.45511,4.84494 v 3.4108 3.4108 l 1.38785,1.15181 1.38785,1.15181 4.65291,-1.04274 4.65291,-1.04273 1.93632,1.03628 1.93632,1.03629 1.07734,2.01302 1.07734,2.01302 0.15315,3.84056 0.15315,3.84055 -1.8744,4.15668 -1.8744,4.15667 1.0221,1.0221 1.0221,1.02211 3.39473,1.69473 3.39473,1.69473 0.32258,3.95493 0.32259,3.95494 -1.13572,4.54506 -1.13573,4.54507 -1.11408,3.80201 -1.11409,3.80201 -3.47792,3.05366 -3.47792,3.05365 -3.21406,-0.52157 -3.21407,-0.52157 -3.13079,2.85953 -3.13079,2.85953 v 4.44939 4.44938 l -1.58179,0.60699 -1.58178,0.60699 h -1.96788 -1.96787 l -2.82453,-1.46063 -2.82453,-1.46062 -3.34217,1.21062 -3.34217,1.21063 -1.78364,1.75 -1.78364,1.75 h -2.94329 -2.9433 z m -341.661619,-14.23551 -3.5,-1.19536 v -1.9982 -1.9982 l -6.641773,-0.6569 -6.641773,-0.65689 -2.166184,-1.15931 -2.166183,-1.15931 -6.861625,-0.18671 -6.861625,-0.18671 -0.747085,-0.74709 -0.747085,-0.74708 h -2.198475 -2.198474 l -2.756039,-2.1679 -2.756038,-2.1679 -1.37882,-3.29999 -1.378821,-3.29998 v -5.01188 -5.01188 l 1.574503,-3.93507 1.574503,-3.93507 6.066264,-5.27628 6.066264,-5.27627 1.759777,-4.05889 1.759777,-4.05889 0.721417,-4.45162 0.721417,-4.45162 1.749853,-4.08224 1.749853,-4.08224 3.641684,-3.19744 3.641685,-3.19744 2.930319,-1.51533 2.930319,-1.51533 1.316453,-2.75337 1.316453,-2.75337 4.48973,-1.39948 4.489729,-1.39947 4.685382,-1.85053 4.685377,-1.850524 h 4.40964 4.40963 l 1.85957,2.054804 1.85957,2.05481 0.1291,5.19519 0.1291,5.1952 0.28474,1 0.28473,1 -0.11842,6.78333 -0.11842,6.78333 -3.5,3.5 -3.5,3.5 v 2.01212 2.01212 l 2.61973,2.61973 2.61973,2.61973 -0.68654,5.08482 -0.68654,5.08482 -0.56324,4.25 -0.56324,4.25 h 1.36954 1.36955 l 4.13533,1.71039 4.13533,1.71039 2.12518,3.10149 2.12517,3.10149 v 4.07381 4.07381 l -1.25,2.36618 -1.25,2.36617 -1.5,2.01551 -1.5,2.01552 -3,1.95319 -3,1.9532 -6.69936,0.0294 -6.69936,0.0294 -1.25064,1.25 -1.25064,1.25 -1.049999,-0.0564 -1.05,-0.0564 z m 285.755549,-32.91288 -1.99497,-1.72112 -1.66414,0.89062 -1.66415,0.89063 -5.39044,-1.82485 -5.39044,-1.82484 -1.5757,-1.97762 -1.57571,-1.97762 -2.20624,-1.12881 -2.20625,-1.12881 -0.98374,-3.56283 -0.98375,-3.56283 0.35647,-1.1754 0.35647,-1.1754 0.55486,-2.5599 0.55486,-2.5599 4.44214,-3.1901 4.44214,-3.1901 h 1.55688 1.55689 l 5.27964,2.39059 5.27963,2.39059 4.5,0.7586 4.5,0.75861 2.5,0.25161 2.5,0.25161 1.93384,0.0992 1.93384,0.0992 4.81616,4.99668 4.81616,4.99668 v 2.15683 2.15682 l -2.52929,5.34649 -2.5293,5.3465 -1.7207,0.13264 -1.72071,0.13264 -7.87474,0.11736 -7.87474,0.11736 z m -231.36141,-1.3001 -1.57306,-2.4008 -1.82969,-0.58072 -1.82969,-0.58072 -0.66508,-3.93655 -0.66507,-3.93654 0.63228,-2.87878 0.63229,-2.87877 3.33681,-3.64295 3.33681,-3.64295 h 2.12492 2.12492 l 1.71245,-2 1.71245,-2 h 1.77776 1.77776 v -1 -1 h 2.21657 2.21657 l 4.53343,-1.60578 4.53343,-1.60578 2,-0.81318 2,-0.81318 3.12303,-0.53065 3.12303,-0.53065 2.32829,2.47836 2.3283,2.47836 2.04868,-0.27875 2.04867,-0.27875 -0.3393,7.5 -0.3393,7.5 -1.43375,2.25 -1.43375,2.25 h -1.97695 -1.97695 v 1 1 h -2.34501 -2.34501 l -1.80998,2 -1.80997,2 h -1.49534 -1.49535 l -5.59967,2.57677 -5.59967,2.57678 -3,1.33788 -3,1.33788 -3.7664,0.52513 -3.76639,0.52514 z"
               id="path48" /></g></g></g></g></g></svg>
