<?xml version="1.0" encoding="UTF-8" standalone="no"?>
<svg
   viewBox="0 0 512 512"
   version="1.1"
   id="svg1"
   sodipodi:docname="family-baby-boy.svg"
   inkscape:version="1.3 (0e150ed, 2023-07-21)"
   xml:space="preserve"
   xmlns:inkscape="http://www.inkscape.org/namespaces/inkscape"
   xmlns:sodipodi="http://sodipodi.sourceforge.net/DTD/sodipodi-0.dtd"
   xmlns="http://www.w3.org/2000/svg"
   xmlns:svg="http://www.w3.org/2000/svg"><defs
     id="defs1" /><sodipodi:namedview
     id="namedview1"
     pagecolor="#ffffff"
     bordercolor="#666666"
     borderopacity="1.0"
     inkscape:showpageshadow="2"
     inkscape:pageopacity="0.0"
     inkscape:pagecheckerboard="0"
     inkscape:deskcolor="#d1d1d1"
     inkscape:zoom="0.54275969"
     inkscape:cx="479.95458"
     inkscape:cy="262.54713"
     inkscape:window-width="1366"
     inkscape:window-height="717"
     inkscape:window-x="0"
     inkscape:window-y="27"
     inkscape:window-maximized="1"
     inkscape:current-layer="svg1"
     showgrid="false" /><!--!Font Awesome Free 6.5.1 by @fontawesome - https://fontawesome.com License - https://fontawesome.com/license/free Copyright 2024 Fonticons, Inc.--><path
     style="fill:#f8cd9d;stroke-width:1.20219"
     d="m 215.5803,431.12076 c -14.08242,-1.53881 -22.61481,-3.18218 -37.26789,-7.17795 -7.9129,-2.15778 -27.98236,-11.83061 -35.87158,-17.28895 -14.00877,-9.6923 -27.68668,-26.0328 -32.43581,-38.74988 -2.85638,-7.64872 -2.85638,-7.64872 -17.165395,-8.389 -7.86996,-0.40714 -15.931969,-1.16077 -17.915582,-1.67471 -5.067268,-1.31291 -14.276696,-6.05165 -16.151734,-8.31094 -0.865934,-1.04338 -2.319664,-1.89707 -3.230509,-1.89707 -0.910845,0 -1.656083,-0.79244 -1.656083,-1.76098 0,-0.96854 -1.001691,-2.29708 -2.225979,-2.9523 -3.14781,-1.68466 -11.970873,-19.69938 -14.050082,-28.68712 -3.347911,-14.47192 -3.530844,-23.10362 -0.684546,-32.30019 5.066832,-16.37127 16.132255,-22.71206 31.848504,-18.25006 2.72153,0.77268 5.462175,1.85465 6.090319,2.40438 2.509812,2.19654 3.066475,0.58828 3.086948,-8.91854 0.01202,-5.45494 0.591562,-14.78694 1.288471,-20.73778 0.696923,-5.95084 1.437413,-12.44267 1.645533,-14.42628 0.884,-8.42526 7.66298,-33.84989 10.94682,-41.05615 0.94946,-2.08354 1.72629,-4.45102 1.72629,-5.26107 0,-1.72624 10.671795,-21.83796 16.371325,-30.85286 2.17012,-3.43248 9.24734,-11.54726 15.72716,-18.03285 11.70642,-11.7169 14.76348,-14.34571 21.09843,-18.14296 1.81832,-1.08992 3.30603,-2.40602 3.30603,-2.92467 0,-0.51863 1.05004,-0.94298 2.33342,-0.94298 1.2834,0 2.67414,-0.55128 3.09056,-1.22505 1.84724,-2.98888 21.31673,-10.73869 40.25924,-16.02517 12.8165,-3.57681 28.10799,-4.968 54.09856,-4.92175 38.25967,0.068 54.86316,2.70877 76.6905,12.19718 2.1769,0.9463 5.69331,2.36772 7.81424,3.15873 4.15513,1.54965 16.3061,7.98466 21.44114,11.35499 8.54247,5.60673 17.45977,11.87676 19.19123,13.49392 1.06189,0.99181 5.52911,4.968 9.92713,8.83599 4.39801,3.86797 7.99639,7.72791 7.99639,8.57761 0,0.8497 1.23812,2.35616 2.75139,3.34769 1.51327,0.99153 5.01857,5.2464 7.78956,9.45524 2.77099,4.20886 5.71433,8.43869 6.54077,9.39964 2.13131,2.47821 11.77084,22.42809 11.77084,24.36083 0,0.88466 0.7517,2.68167 1.67045,3.99335 3.46897,4.95267 9.14679,31.78448 10.38125,49.05897 0.66211,9.26528 1.37806,17.02018 1.591,17.23312 0.21294,0.21294 3.04604,-0.41942 6.29577,-1.40526 3.37914,-1.02509 10.6513,-1.79799 16.98706,-1.80543 10.6691,-0.0125 11.23436,0.12389 15.29872,3.69245 2.36745,2.07865 4.75797,5.64129 5.44499,8.11479 1.5589,5.61262 1.58927,20.86331 0.0576,28.93968 -2.43804,12.85571 -11.2236,29.00428 -21.3188,39.1857 -6.6953,6.75248 -18.27306,12.45133 -28.1253,13.84393 -8.22644,1.16281 -14.81774,5.40255 -17.77076,11.43075 -3.3592,6.85733 -23.71515,27.48549 -34.39193,34.85184 -3.30603,2.28097 -8.18408,5.64469 -10.84013,7.47496 -4.39635,3.02949 -21.1129,11.58568 -30.03434,15.37275 -31.79087,13.49495 -78.58099,19.02071 -121.42121,14.33946 z m 57.34541,-49.96492 c 7.74012,-1.62798 17.76314,-6.1952 22.68565,-10.33721 4.20916,-3.54179 9.53211,-13.36407 9.53211,-17.58934 0,-3.78084 -2.63521,-5.86655 -6.80163,-5.38335 -2.62786,0.30478 -3.58748,1.25373 -4.49841,4.44843 -3.16898,11.11385 -20.09916,19.38169 -39.68813,19.38169 -18.99874,0 -33.85672,-6.40382 -39.21162,-16.9003 -2.10142,-4.11911 -2.95439,-4.73912 -6.51993,-4.73912 -10.04068,0 -4.80498,14.6525 8.35757,23.38931 9.32691,6.19084 20.20381,8.88232 36.30825,8.98445 7.40601,0.047 16.33227,-0.5176 19.83614,-1.25456 z M 168.39434,306.621 c 3.25629,-3.92202 3.01403,-21.27445 -0.34738,-24.88251 -3.40123,-3.65079 -10.64938,-3.59607 -14.12792,0.10663 -5.68436,6.05072 -4.28108,23.65915 2.15285,27.01415 3.88557,2.02616 9.65138,0.97882 12.32245,-2.23831 z m 185.66317,1.59666 c 2.56047,-1.62809 3.98233,-7.46063 3.98233,-16.33573 0,-10.41864 -1.3535,-12.7011 -8.06558,-13.60138 -7.35458,-0.98645 -10.56844,2.63894 -11.69914,13.19725 -1.37262,12.8174 1.2324,17.69663 9.43188,17.66597 2.70764,-0.01 5.56537,-0.42687 6.35051,-0.92611 z M 231.65475,224.43858 c 26.72175,-6.53832 45.75355,-20.63788 55.48872,-41.10838 5.58707,-11.74816 7.15265,-18.68407 7.14515,-31.65494 -0.0145,-25.0874 -7.8912,-43.61348 -21.01043,-49.41682 -2.6488,-1.17171 -8.32914,-2.74321 -12.623,-3.49224 -33.19705,-5.79097 -49.68702,-2.4637 -63.711,12.85532 -7.56847,8.26739 -12.21651,17.63048 -15.70599,31.63841 -2.11145,8.47609 -2.45128,12.67866 -1.99276,24.6449 0.69644,18.17571 2.16405,23.3902 6.63717,23.58216 2.03511,0.0873 2.46327,0.34492 1.14567,0.68925 -2.99569,0.78286 -2.62094,3.47047 1.50274,10.77724 1.98362,3.51477 3.60657,8.04624 3.60657,10.06992 0,4.28351 -4.62279,9.58108 -8.36068,9.58108 -3.00032,0 -3.27839,3.1829 -0.3552,4.06544 4.32426,1.30553 40.64525,-0.37474 48.23304,-2.23134 z"
     id="path30" /><path
     style="fill:#6e3f1b;stroke-width:1.20219"
     d="m 231.3554,379.96811 c -9.94056,-2.83344 -19.77214,-9.08989 -23.9174,-15.22015 -6.12885,-9.06367 -5.75043,-14.71132 0.98575,-14.71132 3.56554,0 4.41851,0.62001 6.51993,4.73912 5.3549,10.49648 20.21288,16.9003 39.21162,16.9003 19.58897,0 36.51915,-8.26784 39.68813,-19.38169 0.91093,-3.1947 1.87055,-4.14365 4.49841,-4.44843 4.16642,-0.4832 6.80163,1.60251 6.80163,5.38335 0,4.22527 -5.32295,14.04755 -9.53211,17.58934 -4.92251,4.14201 -14.94553,8.70923 -22.68565,10.33721 -10.29429,2.16519 -31.98105,1.54557 -41.57031,-1.18773 z m -75.28351,-71.1088 c -6.43393,-3.355 -7.83721,-20.96343 -2.15285,-27.01415 3.47854,-3.70274 10.72669,-3.75746 14.12792,-0.10664 3.36141,3.60806 3.60367,20.9605 0.34738,24.88251 -2.67107,3.21714 -8.43688,4.26447 -12.32245,2.23831 z m 184.86471,-1.80097 c -2.94894,-3.35824 -3.57678,-7.03366 -2.66148,-15.58054 1.1307,-10.55831 4.34456,-14.1837 11.69914,-13.19725 6.71208,0.90028 8.06558,3.18274 8.06558,13.60138 0,8.8751 -1.42186,14.70764 -3.98233,16.33573 -2.77678,1.76563 -11.20649,1.02082 -13.12091,-1.15932 z M 183.42171,226.66992 c -2.92319,-0.88254 -2.64512,-4.06544 0.3552,-4.06544 3.73789,0 8.36068,-5.29757 8.36068,-9.58108 0,-2.02368 -1.62295,-6.55515 -3.60657,-10.06992 -4.12368,-7.30677 -4.49843,-9.99438 -1.50274,-10.77724 1.3176,-0.34433 0.88944,-0.60191 -1.14567,-0.68925 -4.47312,-0.19196 -5.94073,-5.40645 -6.63717,-23.58216 -0.45852,-11.96624 -0.11866,-16.16881 1.99276,-24.6449 3.48948,-14.00793 8.13752,-23.37102 15.70599,-31.63841 14.02398,-15.31902 30.51395,-18.64629 63.711,-12.85532 14.80112,2.58193 22.69978,8.33986 27.88327,20.3262 5.56401,12.86628 7.57957,37.25328 4.13363,50.01462 -7.61792,28.21148 -28.84352,47.45922 -61.01734,55.33156 -7.58779,1.8566 -43.90878,3.53687 -48.23304,2.23134 z"
     id="path29" /></svg>
