<?xml version="1.0" encoding="UTF-8" standalone="no"?>
<svg
   viewBox="0 0 512 512"
   version="1.1"
   id="svg1"
   sodipodi:docname="food.svg"
   inkscape:version="1.3 (0e150ed, 2023-07-21)"
   xml:space="preserve"
   xmlns:inkscape="http://www.inkscape.org/namespaces/inkscape"
   xmlns:sodipodi="http://sodipodi.sourceforge.net/DTD/sodipodi-0.dtd"
   xmlns="http://www.w3.org/2000/svg"
   xmlns:svg="http://www.w3.org/2000/svg"><defs
     id="defs1" /><sodipodi:namedview
     id="namedview1"
     pagecolor="#ffffff"
     bordercolor="#666666"
     borderopacity="1.0"
     inkscape:showpageshadow="2"
     inkscape:pageopacity="0.0"
     inkscape:pagecheckerboard="0"
     inkscape:deskcolor="#d1d1d1"
     inkscape:zoom="0.54275969"
     inkscape:cx="255.17739"
     inkscape:cy="314.13534"
     inkscape:window-width="1366"
     inkscape:window-height="717"
     inkscape:window-x="0"
     inkscape:window-y="27"
     inkscape:window-maximized="1"
     inkscape:current-layer="svg1"
     showgrid="false" /><!--!Font Awesome Free 6.5.1 by @fontawesome - https://fontawesome.com License - https://fontawesome.com/license/free Copyright 2024 Fonticons, Inc.--><path
     style="fill:#c8f396;stroke-width:1.995"
     d="m 166.61818,314.38827 c -1.42736,-2.57818 -4.52694,-8.72746 -6.88789,-13.66507 -13.87312,-29.0135 -42.59257,-54.28452 -70.114033,-61.6953 -10.760267,-2.89743 -20.117563,-10.84697 -24.736125,-21.01469 -4.680675,-10.30445 -4.6151,-15.93755 0.3119,-26.79672 l 3.974192,-8.75919 -5.912573,-9.21397 c -12.250326,-19.09046 -9.961658,-40.43195 6.053326,-56.44694 5.273518,-5.27352 10.838461,-9.58823 12.366527,-9.58823 4.964795,0 9.960016,-7.399165 8.614489,-12.760194 -3.592017,-14.311769 8.681261,-39.350286 24.073407,-49.111704 11.15492,-7.074227 13.11148,-7.204996 27.46263,-1.835561 16.93988,6.338017 34.0169,18.715417 41.27437,29.91559 5.00336,7.721508 7.52704,9.851871 11.67071,9.851871 9.55254,0 25.89165,6.045905 32.84993,12.155362 8.73797,7.672046 11.85366,17.191776 10.5027,32.090286 -0.93675,10.33076 -0.49356,12.42293 3.68319,17.38671 6.47562,7.69584 8.8503,14.67921 8.8503,26.0267 0,13.23894 -4.58716,25.04694 -14.89241,38.33526 -16.96203,21.872 -20.92937,35.93473 -21.01864,74.5032 -0.0331,14.26426 -0.71962,26.9209 -1.52576,28.12586 -0.80613,1.20496 -8.64769,2.79316 -17.42569,3.52934 -8.77801,0.73618 -18.34936,1.8597 -21.26966,2.49672 -4.18492,0.91287 -5.85942,0.16518 -7.90489,-3.52933 z m 28.26453,-34.71798 c 2.12387,-2.55913 1.64589,-7.02613 -2.74823,-25.68407 -2.9256,-12.42239 -5.31926,-23.96533 -5.31926,-25.65093 0,-1.68564 5.83538,-10.2079 12.9675,-18.9384 13.10028,-16.03616 15.35193,-21.91626 10.07075,-26.29926 -4.45326,-3.69587 -9.74039,-0.9135 -18.89538,9.94376 -4.60371,5.45974 -9.04113,9.92678 -9.86092,9.92678 -0.8198,0 -3.0168,-6.35938 -4.88221,-14.13196 -3.21729,-13.40532 -3.21148,-14.35827 0.11311,-18.53369 1.92759,-2.42095 11.45132,-14.04059 21.16384,-25.82141 14.32953,-17.38102 17.43604,-22.30851 16.47596,-26.13377 -1.4077,-5.6088 -6.13452,-7.86117 -11.01549,-5.24895 -1.9381,1.03723 -10.58572,10.4688 -19.21696,20.95902 -10.07479,12.24474 -16.16536,18.17366 -17.0122,16.5607 -0.72549,-1.38183 -2.87341,-8.98388 -4.77312,-16.89344 -3.59441,-14.96536 -6.52399,-19.3251 -12.23141,-18.20251 -7.12087,1.40061 -7.86132,6.61322 -3.48939,24.56496 l 4.16514,17.1028 -4.23333,-1.30559 c -2.32832,-0.71805 -13.00445,-4.78195 -23.72469,-9.03086 -22.20008,-8.79889 -26.391089,-9.33162 -29.386144,-3.7353 -3.897279,7.28211 0.853502,10.74339 32.386484,23.59592 l 30.73309,12.5265 3.39563,14.1484 c 1.86758,7.78161 3.02867,14.51532 2.58017,14.96381 -0.44847,0.44848 -6.5276,-1.51227 -13.50915,-4.35723 -13.25895,-5.40301 -20.35915,-5.32914 -22.49394,0.23399 -2.37092,6.17853 4.11792,11.61315 22.04322,18.46194 9.7251,3.71572 18.36375,7.36004 19.19701,8.09851 0.83327,0.73849 4.10231,11.94912 7.26457,24.91253 3.16225,12.96341 6.96926,24.34263 8.45997,25.28718 4.16285,2.63764 8.93516,2.10289 11.77543,-1.31943 z"
     id="path14" /><path
     style="fill:#afd187;stroke-width:1.995"
     d="m 248.28617,476.91541 c 1.44013,-0.57632 3.16082,-0.50543 3.82374,0.1574 0.66294,0.66292 -0.51537,1.13444 -2.61844,1.04782 -2.32406,-0.0957 -2.79679,-0.56845 -1.2053,-1.2053 z M 214.25308,287.83876 c 0.82797,-42.62739 4.67983,-56.87668 21.09713,-78.04497 10.69921,-13.79545 15.30502,-25.49173 15.30502,-38.86657 0,-11.34749 -2.37468,-18.33086 -8.8503,-26.0267 -4.17675,-4.96378 -4.61994,-7.05595 -3.68319,-17.38671 1.35096,-14.89851 -1.76473,-24.41824 -10.5027,-32.090286 -6.95828,-6.109457 -23.29739,-12.155362 -32.84993,-12.155362 -4.14367,0 -6.66735,-2.130363 -11.67071,-9.851871 -7.47784,-11.540276 -24.72735,-23.825824 -42.81418,-30.4934 l -12.32151,-4.542231 13.88681,-0.599502 c 22.52953,-0.972583 38.32704,9.253555 51.35666,33.244523 3.14275,5.786643 4.19351,6.260776 13.96501,6.301292 26.62111,0.110325 46.22306,21.044305 45.23903,48.313057 -0.42484,11.77248 -0.23396,12.2668 6.96755,18.04406 9.3232,7.47934 13.22247,14.95027 13.22247,25.33409 0,11.27923 -3.93081,19.16888 -15.90795,31.92938 -19.72384,21.01387 -28.43873,46.53602 -28.30325,82.88785 0.0492,13.20535 -0.53171,24.97653 -1.29092,26.15815 -0.75923,1.18163 -4.07364,2.53426 -7.36539,3.00585 l -5.985,0.85745 z m -75.57234,-16.54182 c -2.48153,-3.16419 -2.41097,-3.23475 0.75322,-0.75323 1.9202,1.50592 3.49126,3.07698 3.49126,3.49125 0,1.64196 -1.63828,0.58515 -4.24448,-2.73802 z m -9.97501,-9.97501 c -2.48152,-3.16419 -2.41095,-3.23475 0.75324,-0.75323 1.92018,1.50593 3.49125,3.07699 3.49125,3.49125 0,1.64197 -1.63828,0.58516 -4.24449,-2.73802 z m 345.89264,-29.42625 c 0.0221,-4.389 0.43069,-5.94958 0.90789,-3.46799 0.47718,2.4816 0.45906,6.0726 -0.0403,7.98001 -0.49933,1.90739 -0.88977,-0.1231 -0.86763,-4.51202 z m -289.77815,-4.86976 c 0,-1.03249 0.88746,-2.42575 1.97215,-3.09611 1.13087,-0.69894 1.46533,0.10195 0.78405,1.87725 -1.32626,3.45618 -2.7562,4.08853 -2.7562,1.21886 z m -5.98499,-22.8468 c 0,-0.43123 1.39324,-1.31869 3.09611,-1.97215 1.7754,-0.68128 2.57619,-0.34684 1.87726,0.78405 -1.17159,1.89567 -4.97337,2.80387 -4.97337,1.1881 z m 276.11799,-27.6447 -3.80046,-4.48875 4.48876,3.80046 c 4.2183,3.57149 5.39695,5.17704 3.80045,5.17704 -0.37858,0 -2.39851,-2.01993 -4.48875,-4.48875 z m 20.76298,-26.79906 c 1.44014,-0.57631 3.16082,-0.50543 3.82375,0.15741 0.66294,0.66292 -0.51537,1.13443 -2.61844,1.04781 -2.32406,-0.0958 -2.7968,-0.56845 -1.20531,-1.20529 z"
     id="path13" /><path
     style="fill:#fd7d83;stroke-width:1.995"
     d="m 374.34525,336.4089 c -26.41694,-8.00196 -71.95942,-17.31726 -101.63621,-20.78875 -13.76202,-1.60981 -25.70066,-2.92696 -26.53032,-2.92696 -0.82966,0 -1.49522,-10.54856 -1.479,-23.44125 0.0485,-38.60317 7.10883,-59.29963 27.79053,-81.46514 13.67343,-14.65445 19.30261,-29.28902 17.24172,-44.82468 -1.24934,-9.418 -1.09947,-9.81662 4.2529,-11.31173 9.3283,-2.60573 48.98599,-1.90786 49.91475,0.87835 0.44513,1.33546 3.00913,5.66966 5.69773,9.63155 l 4.88841,7.20346 -8.7582,9.74123 c -9.66656,10.75153 -15.87465,22.1781 -14.90464,27.43341 0.95828,5.19181 18.79958,13.07607 31.70173,14.00933 l 11.33922,0.8202 1.2009,8.76151 c 2.12657,15.51502 12.55525,32.68876 19.85011,32.68876 4.55962,0 16.23607,-8.03298 22.73333,-15.63971 2.42026,-2.83352 5.1135,-4.43883 5.985,-3.56734 0.87149,0.8715 1.53011,12.50718 1.46355,25.85704 -0.10237,20.54793 -0.83907,26.10929 -4.80066,36.24251 -7.33822,18.77012 -19.84124,37.22019 -24.85236,36.67331 -1.18029,-0.12887 -10.67461,-2.81762 -21.09849,-5.9751 z"
     id="path12" /><path
     style="fill:#f4a45e;stroke-width:1.995"
     d="m 189.30898,459.02563 c -1.78557,-0.73744 -2.49376,-7.38466 -2.49376,-23.40717 0,-23.71418 -1.18227,-27.16526 -9.30632,-27.16526 -6.79404,0 -8.64868,5.77616 -8.64868,26.9358 0,22.23954 0.83708,21.83576 -20.9475,10.10432 -20.23301,-10.8959 -28.89413,-25.91725 -28.91639,-50.15097 -0.0339,-36.94635 26.55399,-58.64017 78.29265,-63.88107 l 13.46625,-1.36409 v 19.98123 c 0,21.58507 1.61972,25.35376 10.36394,24.11417 4.34727,-0.61626 4.69372,-1.82381 6.33996,-22.09814 l 1.74141,-21.44625 h 7.24832 c 7.89242,0 51.63852,4.96736 66.07638,7.50297 l 8.9775,1.57665 0.99751,27.66718 c 0.84721,23.49919 1.52344,27.9981 4.48874,29.86374 2.54143,1.59897 4.44108,1.59841 6.98251,-0.002 2.98353,-1.87885 3.572,-5.98504 4.04663,-28.23622 l 0.55537,-26.03763 26.37714,6.79517 c 50.85271,13.10049 104.47793,34.12179 109.94059,43.09714 3.09766,5.08959 -3.11288,10.68796 -21.69564,19.55714 -30.08058,14.35687 -93.66082,33.19372 -137.67785,40.78968 -28.95018,4.9959 -26.9325,6.09726 -26.9325,-14.70127 0,-18.06384 -2.21823,-24.08251 -8.87573,-24.08251 -5.70319,0 -8.09195,6.76983 -9.07928,25.73098 l -0.99749,19.15653 -33.91501,0.36491 c -18.65325,0.20071 -35.03719,-0.0986 -36.40875,-0.66501 z"
     id="path11" /><path
     style="fill:#8ac176;stroke-width:1.995"
     d="m 210.25648,476.87029 c 2.46881,-0.47553 6.50869,-0.47553 8.9775,0 2.46882,0.47551 0.44887,0.86457 -4.48876,0.86457 -4.93761,0 -6.95756,-0.38906 -4.48874,-0.86457 z m 23.94,0 c 2.46882,-0.47553 6.50869,-0.47553 8.9775,0 2.46882,0.47551 0.44888,0.86457 -4.48875,0.86457 -4.93762,0 -6.95756,-0.38906 -4.48875,-0.86457 z m 32.04469,-1.94988 c 1.44014,-0.57632 3.16082,-0.50543 3.82374,0.15741 0.66294,0.66291 -0.51537,1.13443 -2.61843,1.04781 -2.32406,-0.0957 -2.7968,-0.56845 -1.20531,-1.20529 z m -159.22595,-15.5947 c 3.72222,-3.84037 7.21656,-6.9825 7.7652,-6.9825 0.54862,0 -2.04798,3.14213 -5.7702,6.9825 -3.72226,3.84038 -7.2166,6.98251 -7.76522,6.98251 -0.54863,0 2.04796,-3.14213 5.77022,-6.98251 z m -35.280845,0.88339 c -9.772766,-3.71289 -10.9593,-14.13617 -3.326488,-29.22217 5.886953,-11.63533 4.924777,-15.09029 -4.865765,-17.47192 -2.972432,-0.72308 -8.770974,-3.51713 -12.885665,-6.20905 -13.494558,-8.82839 -8.561269,-21.26311 11.092663,-27.95989 10.869851,-3.70373 11.982531,-7.90195 5.36609,-20.24682 -5.723979,-10.67967 -5.231965,-19.20453 1.409905,-24.42903 8.723175,-6.86165 20.917983,-1.12991 35.237265,16.56203 l 5.96783,7.37344 -3.68503,11.45751 c -5.049,15.6985 -4.82125,39.97407 0.50452,53.77224 l 4.01213,10.39473 -10.25207,11.06158 C 89.057683,457.43232 78.682143,462.84871 71.734375,460.2091 Z M 473.84078,379.02695 c -2.48152,-3.16419 -2.41095,-3.23475 0.75324,-0.75323 1.92019,1.50592 3.49125,3.07699 3.49125,3.49125 0,1.64197 -1.63828,0.58515 -4.24449,-2.73802 z m -366.97656,-47.88001 -4.83651,-5.48625 5.48625,4.83651 c 5.12773,4.52045 6.40114,6.13599 4.83651,6.13599 -0.35737,0 -2.82619,-2.46881 -5.48625,-5.48625 z m -53.714017,-5.24198 c 0,-0.41426 1.57107,-1.98532 3.491252,-3.49125 3.16417,-2.48152 3.234732,-2.41096 0.753213,0.75324 -2.606211,3.32317 -4.244465,4.37997 -4.244465,2.73801 z M 192.30147,315.36195 c 1.37156,-0.55344 3.61595,-0.55344 4.98751,0 1.37156,0.55343 0.24937,1.00623 -2.49375,1.00623 -2.74313,0 -3.86532,-0.4528 -2.49376,-1.00623 z m 27.42478,-2.15019 c 3.28817,-0.48324 6.64099,-1.91977 7.45069,-3.19232 0.95571,-1.50205 1.4829,-1.08896 1.50273,1.1775 0.0241,2.76224 -1.53161,3.42883 -7.45069,3.19234 -6.78502,-0.2711 -6.92487,-0.38068 -1.50273,-1.17752 z m 249.02256,-34.43357 c 0,-7.13213 0.36209,-10.04981 0.80462,-6.48375 0.44255,3.56606 0.44255,9.40144 0,12.9675 -0.44253,3.56607 -0.80462,0.64837 -0.80462,-6.48375 z m -241.57074,0 c 0,-3.84037 0.41057,-5.41144 0.91235,-3.49125 0.50181,1.92018 0.50181,5.06231 0,6.9825 -0.50178,1.92019 -0.91235,0.34913 -0.91235,-3.49125 z m -40.73691,2.6272 c 1.44013,-0.57632 3.16082,-0.50544 3.82374,0.1574 0.66294,0.66292 -0.51537,1.13444 -2.61844,1.04782 -2.32406,-0.0958 -2.79679,-0.56847 -1.2053,-1.20531 z m 42.42656,-21.74595 c 0.0957,-2.32407 0.56847,-2.79679 1.20532,-1.20532 0.57629,1.44013 0.50543,3.16082 -0.15741,3.82376 -0.66292,0.66292 -1.13444,-0.51538 -1.04781,-2.61844 z M 393.1979,233.90688 c -2.1944,-5.74594 -3.03553,-11.84537 -2.34424,-16.99926 1.52097,-11.33974 -1.66409,-13.94782 -15.31314,-12.53911 -12.97253,1.33888 -25.13527,-0.64113 -25.13527,-4.09189 0,-3.37307 11.31408,-13.99819 19.95,-18.73515 9.15606,-5.02227 9.95383,-10.8111 2.24627,-16.29937 -6.71065,-4.7784 -13.23124,-14.43586 -15.27454,-22.62269 -1.3013,-5.21385 -1.01673,-5.48625 5.73129,-5.48625 20.57672,0 38.78184,8.89685 46.12547,22.54151 l 3.91597,7.27603 -5.41222,5.64915 c -5.87072,6.1277 -6.76217,10.26539 -3.01823,14.00932 3.87012,3.87014 7.96923,2.80043 14.85934,-3.87774 5.95608,-5.77285 6.93295,-6.08032 12.28072,-3.8652 7.78212,3.22347 19.48194,15.48895 22.99043,24.10194 1.56435,3.84038 3.4587,11.24682 4.20964,16.45876 1.33045,9.234 1.23217,9.47625 -3.84347,9.47625 -6.40077,0 -16.22846,-4.80508 -23.24911,-11.36723 -7.60019,-7.10386 -13.61845,-5.56855 -17.03776,4.3465 -2.52665,7.3266 -13.4745,20.98573 -16.82015,20.98573 -0.79126,0 -2.97872,-4.03259 -4.861,-8.9613 z m -322.243692,-4.50495 -4.836503,-5.48625 5.486251,4.8365 c 3.017447,2.66009 5.486251,5.12891 5.486251,5.48625 0,1.56464 -1.615545,0.29123 -6.135999,-4.8365 z m 97.036772,2.08104 c -1.08264,-2.84327 -0.8535,-3.07241 1.1168,-1.1168 1.36341,1.35329 1.97639,2.96306 1.36215,3.5773 -0.61424,0.61423 -1.72977,-0.49298 -2.47895,-2.4605 z m 20.81924,-11.31303 c 0,-0.41426 1.57107,-1.98532 3.49125,-3.49125 3.16417,-2.48152 3.23474,-2.41095 0.75322,0.75324 -2.60621,3.32317 -4.24447,4.37998 -4.24447,2.73801 z m -26.93249,-11.21676 c 0.67813,-1.09725 1.62885,-1.99501 2.11272,-1.99501 0.48388,0 0.87977,0.89776 0.87977,1.99501 0,1.09725 -0.95073,1.995 -2.11275,1.995 -1.162,0 -1.55789,-0.89775 -0.87974,-1.995 z m 93.76501,-7.98001 c 1.98598,-2.19449 4.05976,-3.98999 4.60839,-3.98999 0.54862,0 -0.62741,1.7955 -2.61339,3.98999 -1.986,2.1945 -4.05979,3.99 -4.60841,3.99 -0.54863,0 0.6274,-1.7955 2.61341,-3.99 z m -123.06659,-1.3628 c 1.44013,-0.57632 3.16083,-0.50543 3.82375,0.1574 0.66293,0.66292 -0.51537,1.13444 -2.61844,1.04782 -2.32406,-0.0958 -2.7968,-0.56845 -1.20531,-1.20529 z m 52.24407,0.60957 c 0,-0.41425 1.57106,-1.98532 3.49126,-3.49125 3.16417,-2.48152 3.23473,-2.41096 0.75321,0.75323 -2.60621,3.32318 -4.24447,4.37999 -4.24447,2.73802 z m 77.80501,-5.985 c 0,-0.41426 1.57107,-1.98532 3.49125,-3.49125 3.16417,-2.48152 3.23474,-2.41096 0.75322,0.75323 -2.6062,3.32318 -4.24447,4.37999 -4.24447,2.73802 z m -67.83,-5.985 c 0,-0.41426 1.57106,-1.98532 3.49124,-3.49125 3.16417,-2.48152 3.23474,-2.41096 0.75321,0.75324 -2.6062,3.32317 -4.24445,4.37997 -4.24445,2.73801 z m 78.12,-19.19677 c 0,-2.74313 0.45282,-3.86531 1.00626,-2.49375 0.55343,1.37157 0.55343,3.61594 0,4.9875 -0.55344,1.37156 -1.00626,0.24937 -1.00626,-2.49375 z m -92.08501,-6.73823 c 0,-0.41426 1.57106,-1.98532 3.49126,-3.49125 3.16417,-2.48152 3.23473,-2.41096 0.75321,0.75323 -2.60621,3.32317 -4.24447,4.37998 -4.24447,2.73802 z m -14.75702,-8.88926 c -0.5651,-0.91439 0.24019,-1.66252 1.78952,-1.66252 1.54934,0 2.35462,0.74813 1.7895,1.66252 -0.5651,0.91437 -1.37038,1.66249 -1.7895,1.66249 -0.41911,0 -1.22439,-0.74812 -1.78952,-1.66249 z m 97.35999,-6.81626 -3.80045,-4.48875 4.48874,3.80046 c 4.21832,3.57149 5.39696,5.17704 3.80047,5.17704 -0.37858,0 -2.39852,-2.01994 -4.48876,-4.48875 z m -9.04243,-6.9825 c -2.48153,-3.16419 -2.41096,-3.23475 0.75322,-0.75323 3.32317,2.60621 4.37999,4.24448 2.73802,4.24448 -0.41426,0 -1.98533,-1.57107 -3.49124,-3.49125 z m -55.60553,0.74302 c 0,-0.41427 1.57106,-1.98533 3.49125,-3.49125 3.16417,-2.48152 3.23473,-2.41096 0.75321,0.75323 -2.60621,3.32316 -4.24446,4.37998 -4.24446,2.73802 z m 105.36095,-6.59458 c 1.44013,-0.5763 3.16082,-0.50543 3.82374,0.1574 0.66293,0.66292 -0.51537,1.13444 -2.61844,1.0478 -2.32405,-0.0958 -2.79679,-0.56845 -1.2053,-1.2053 z m 165.58503,0 c 1.44013,-0.5763 3.16081,-0.50543 3.82373,0.1574 0.66294,0.66292 -0.51537,1.13444 -2.61844,1.0478 -2.32405,-0.0958 -2.79679,-0.56845 -1.20529,-1.2053 z m -282.91599,-3.38043 c 0,-0.41425 1.57107,-1.98532 3.49125,-3.49125 3.16417,-2.48152 3.23474,-2.41096 0.75322,0.75323 -2.60621,3.32318 -4.24447,4.37999 -4.24447,2.73802 z m 65.9925,-8.39051 c 0.0957,-2.32407 0.56848,-2.79679 1.20532,-1.20532 0.57629,1.44013 0.50544,3.16082 -0.15741,3.82375 -0.66291,0.66292 -1.13443,-0.51537 -1.04781,-2.61843 z m -39.9,-1.995 c 0.0957,-2.32407 0.56847,-2.79679 1.20531,-1.20532 0.5763,1.44013 0.50544,3.16082 -0.15741,3.82376 -0.66291,0.66291 -1.13443,-0.51539 -1.04781,-2.61844 z m 142.98378,1.8375 c 1.37157,-0.55343 3.61594,-0.55343 4.9875,0 1.37156,0.55342 0.24937,1.00626 -2.49375,1.00626 -2.74313,0 -3.86531,-0.45284 -2.49375,-1.00626 z m 16.08469,-0.0415 c 1.44014,-0.57628 3.16082,-0.5054 3.82374,0.15741 0.66294,0.66293 -0.51537,1.13445 -2.61844,1.04782 -2.32405,-0.0958 -2.79679,-0.56846 -1.2053,-1.20532 z M 67.11521,116.18573 c 2.577023,-2.74313 5.134396,-4.98751 5.683018,-4.98751 0.548622,0 -1.110996,2.24438 -3.688019,4.98751 -2.577044,2.74312 -5.134396,4.98749 -5.683018,4.98749 -0.548622,0 1.110975,-2.24437 3.688019,-4.98749 z m 129.67502,2.23928 c 0,-0.41428 1.57106,-1.98535 3.49124,-3.49125 3.16417,-2.48152 3.23474,-2.41096 0.75321,0.75321 -2.6062,3.32317 -4.24445,4.37999 -4.24445,2.73804 z m 40.772,-29.670533 -5.85949,-6.483756 6.48374,5.859522 c 3.56607,3.222716 6.48376,6.140403 6.48376,6.483746 0,1.541257 -1.64614,0.184338 -7.10801,-5.859512 z M 89.217693,80.109476 c 0.09581,-2.32405 0.568483,-2.796785 1.205325,-1.205315 0.576296,1.440153 0.505428,3.160836 -0.157405,3.823754 -0.662918,0.662917 -1.134436,-0.515369 -1.047814,-2.618439 z M 201.30641,75.851651 c 3.03252,-0.458549 7.52127,-0.4463 9.975,0.0271 2.45371,0.473529 -0.0273,0.848728 -5.51369,0.833747 -5.48625,-0.01397 -7.49386,-0.402406 -4.46131,-0.860987 z m 2.64443,-16.235233 c -0.58019,-0.938748 1.16233,-1.282969 3.87226,-0.764922 2.70993,0.518015 4.92713,1.286093 4.92713,1.706804 0,1.543628 -7.77779,0.711098 -8.79939,-0.941882 z M 93.050212,40.375713 c 2.577023,-2.74312 5.134397,-4.987493 5.683019,-4.987493 0.548621,0 -1.110997,2.244373 -3.688019,4.987493 -2.577045,2.743131 -5.134386,4.987504 -5.683019,4.987504 -0.548622,0 1.110975,-2.244373 3.688019,-4.987504 z m 45.386258,-4.400431 c 2.46881,-0.475509 6.50869,-0.475509 8.9775,0 2.46882,0.47551 0.44887,0.864577 -4.48875,0.864577 -4.93762,0 -6.95756,-0.389067 -4.48875,-0.864577 z m 1.03546,-15.934578 c 1.94108,-0.50582 4.63432,-0.472553 5.98501,0.07392 1.35067,0.546477 -0.23748,0.960328 -3.52922,0.919671 -3.29175,-0.04065 -4.39686,-0.487775 -2.45579,-0.993593 z"
     id="path10" /><path
     style="fill:#cf6967;stroke-width:1.995"
     d="m 212.25148,460.84742 c 5.76057,-0.40299 15.18694,-0.40299 20.9475,0 5.76056,0.40299 1.04738,0.7327 -10.47375,0.7327 -11.52113,0 -16.23432,-0.32971 -10.47375,-0.7327 z m -26.56762,-3.14618 c -0.55339,-1.44206 -0.71587,-12.4395 -0.3611,-24.43875 l 0.64505,-21.81678 0.42372,23.27501 c 0.29891,16.42 1.15816,23.57137 2.91745,24.28125 1.95322,0.78814 1.93963,1.04039 -0.0627,1.16374 -1.40599,0.0866 -3.00912,-1.02238 -3.56249,-2.46447 z m 74.49944,-10.84009 c 0.96746,-23.67107 1.79414,-26.00359 2.12265,-5.98919 0.17556,10.69819 -0.35402,19.45313 -1.17696,19.45544 -0.82294,0.002 -1.24852,-6.05752 -0.94569,-13.46625 z m 16.82098,-7.98419 0.41404,-19.45125 0.65658,18.32154 c 0.54753,15.27866 1.22427,18.47075 4.0747,19.21984 2.48361,0.65268 2.19088,0.96155 -1.07061,1.1297 -4.39048,0.22636 -4.47969,-0.19451 -4.07471,-19.21983 z m 17.1669,16.09345 c 1.44013,-0.57631 3.16082,-0.50543 3.82374,0.1574 0.66294,0.66292 -0.51537,1.13445 -2.61844,1.04781 -2.32406,-0.0958 -2.7968,-0.56845 -1.2053,-1.20529 z m -124.57289,-20.5822 c 0,-11.52113 0.32974,-16.23431 0.73273,-10.47375 0.40299,5.76056 0.40299,15.18693 0,20.9475 -0.40299,5.76057 -0.73273,1.04738 -0.73273,-10.47375 z m 136.54289,18.5872 c 1.44013,-0.57632 3.16082,-0.50543 3.82374,0.1574 0.66293,0.66292 -0.51537,1.13444 -2.61844,1.04782 -2.32405,-0.0958 -2.79679,-0.56846 -1.2053,-1.2053 z m -37.90501,-37.905 c 1.44014,-0.57632 3.16082,-0.50544 3.82375,0.1574 0.66292,0.66292 -0.51537,1.13444 -2.61844,1.04782 -2.32406,-0.0958 -2.7968,-0.56847 -1.20531,-1.20531 z m 195.09797,-14.90056 c 2.07825,-2.90997 4.17762,-4.90497 4.66529,-4.43333 0.48767,0.47163 -1.21273,2.85251 -3.77863,5.29086 l -4.6653,4.43333 z m -345.80057,-5.68164 c 0,-4.93763 0.38907,-6.95757 0.86458,-4.48876 0.47551,2.46882 0.47551,6.50869 0,8.9775 -0.47551,2.46882 -0.86458,0.44888 -0.86458,-4.48874 z m 93.83984,-34.91251 c 0.012,-6.5835 0.38365,-9.03623 0.82765,-5.45052 0.44402,3.58571 0.43486,8.97221 -0.0203,11.97 -0.45521,2.99779 -0.81849,0.064 -0.80728,-6.51948 z m -74.43319,-7.73573 c 0,-0.41427 1.57106,-1.98533 3.49125,-3.49126 3.16417,-2.48151 3.23473,-2.41095 0.75321,0.75324 -2.60621,3.32317 -4.24446,4.37999 -4.24446,2.73802 z m 271.60298,-3.96514 c -11.63001,-4.04328 -12.39037,-4.6524 -9.14599,-7.32703 5.50127,-4.53514 15.76934,-21.63968 20.91315,-34.83711 3.95261,-10.1412 4.6839,-15.71491 4.7864,-36.48153 0.0819,-16.61873 -0.62725,-24.97395 -2.2027,-25.94764 -1.72968,-1.06899 -1.62429,-2.39259 0.41235,-5.17786 2.64024,-3.61077 3.14061,-3.53586 14.29368,2.13958 10.87271,5.53277 11.69412,6.46468 13.8599,15.7244 7.31225,31.26302 -1.14366,65.36418 -21.60768,87.13975 l -8.62455,9.1773 z m -181.59655,-6.63514 c -0.12728,-5.6958 0.45841,-10.78235 1.30154,-11.30345 0.84313,-0.52107 1.24452,2.7925 0.89196,7.36353 -1.03547,13.42509 -1.94503,15.05886 -2.1935,3.93992 z m 73.20952,-3.9743 c 1.44014,-0.57632 3.16083,-0.50543 3.82375,0.1574 0.66294,0.66292 -0.51537,1.13444 -2.61844,1.04782 -2.32406,-0.0957 -2.7968,-0.56845 -1.20531,-1.20529 z m -11.96999,-1.995 c 1.44013,-0.57632 3.16081,-0.50543 3.82373,0.15741 0.66294,0.66291 -0.51537,1.13443 -2.61844,1.04781 -2.32405,-0.0957 -2.79678,-0.56845 -1.20529,-1.20529 z m -16.08469,-1.95345 c 1.37156,-0.55342 3.61593,-0.55342 4.98749,0 1.37157,0.55344 0.24938,1.00624 -2.49374,1.00624 -2.74313,0 -3.86532,-0.4528 -2.49375,-1.00624 z m -81.67032,-2.03655 c 1.44013,-0.57632 3.16081,-0.50544 3.82373,0.15741 0.66294,0.66291 -0.51537,1.13443 -2.61844,1.04781 -2.32405,-0.0957 -2.79679,-0.56845 -1.20529,-1.2053 z m 62.75578,-0.0199 c 1.94108,-0.50582 4.63432,-0.47256 5.985,0.0738 1.35068,0.54649 -0.23747,0.96033 -3.52921,0.91967 -3.29175,-0.0406 -4.39686,-0.48778 -2.45579,-0.99359 z m 84.87423,-3.9703 c 1.44013,-0.57632 3.16082,-0.50543 3.82375,0.15741 0.66294,0.66291 -0.51537,1.13443 -2.61844,1.04781 -2.32406,-0.0957 -2.7968,-0.56845 -1.20531,-1.20529 z m -39.90001,-7.98 c 1.44014,-0.57631 3.16083,-0.50543 3.82375,0.15741 0.66294,0.66292 -0.51537,1.13443 -2.61844,1.04781 -2.32406,-0.0957 -2.7968,-0.56846 -1.20531,-1.2053 z m -14.08968,-1.95344 c 1.37156,-0.55343 3.61594,-0.55343 4.9875,0 1.37156,0.55343 0.24937,1.00624 -2.49375,1.00624 -2.74313,0 -3.86531,-0.45281 -2.49375,-1.00624 z m -15.96001,-1.995 c 1.37157,-0.55344 3.61595,-0.55344 4.98751,0 1.37156,0.55343 0.24937,1.00624 -2.49375,1.00624 -2.74313,0 -3.86532,-0.45281 -2.49376,-1.00624 z m -24.10626,-2.00376 c -0.73149,-0.73148 -1.31624,-2.30255 -1.29944,-3.49125 0.0203,-1.43668 0.52193,-1.39264 1.49624,0.13127 0.80615,1.26096 3.71008,2.70975 6.45321,3.21957 l 4.98751,0.92695 -5.15377,0.27168 c -2.83455,0.14943 -5.75225,-0.32681 -6.48375,-1.05832 z m -1.1725,-35.74374 c 0.0958,-2.32408 0.56847,-2.79679 1.20532,-1.20532 0.5763,1.44013 0.50543,3.16082 -0.1574,3.82376 -0.66293,0.66292 -1.13445,-0.51539 -1.04782,-2.61844 z m 1.995,-17.955 c 0.0958,-2.32409 0.56848,-2.7968 1.20532,-1.20533 0.5763,1.44013 0.50543,3.16083 -0.1574,3.82376 -0.66292,0.66292 -1.13444,-0.51539 -1.04782,-2.61843 z m 142.29549,-1.33001 -3.80046,-4.48876 4.48876,3.80046 c 4.2183,3.57149 5.39695,5.17705 3.80045,5.17705 -0.37858,0 -2.39851,-2.01994 -4.48875,-4.48875 z m 25.12705,-6.23949 c 0,-0.41426 1.57106,-1.98532 3.49125,-3.49125 3.16417,-2.48152 3.23473,-2.41095 0.75321,0.75324 -2.60621,3.32317 -4.24446,4.37998 -4.24446,2.73801 z M 265.61774,212.94298 c 1.98597,-2.1945 4.05976,-3.99 4.60838,-3.99 0.54864,0 -0.6274,1.7955 -2.61339,3.99 -1.986,2.1945 -4.05978,3.99 -4.6084,3.99 -0.54863,0 0.6274,-1.7955 2.61341,-3.99 z m 66.79248,-3.04072 c -1.38796,-1.67238 -2.1372,-3.42705 -1.665,-3.89927 0.47221,-0.47219 1.95438,0.89612 3.29371,3.04072 2.89635,4.63782 1.9304,5.14703 -1.62871,0.85855 z m -57.81498,-5.69251 c 0,-0.41427 1.57106,-1.98533 3.49125,-3.49125 3.16417,-2.48152 3.23473,-2.41096 0.75321,0.75323 -2.60621,3.32318 -4.24446,4.37999 -4.24446,2.73802 z m 72.81751,-27.17677 c 4.28573,-4.38901 8.24112,-7.98001 8.78975,-7.98001 0.54863,0 -2.50902,3.591 -6.79475,7.98001 -4.28574,4.389 -8.24115,7.98 -8.78978,7.98 -0.54862,0 2.50904,-3.591 6.79478,-7.98 z m -58.30916,-7.98001 c 0,-4.93762 0.38907,-6.95756 0.86458,-4.48874 0.47551,2.46881 0.47551,6.50868 0,8.9775 -0.47551,2.4688 -0.86458,0.44887 -0.86458,-4.48876 z m 25.8904,-21.37893 c 3.01744,-0.4571 7.95507,-0.4571 10.97251,0 3.01743,0.45711 0.54862,0.83111 -5.48626,0.83111 -6.03487,0 -8.50368,-0.374 -5.48625,-0.83111 z"
     id="path9" /><path
     id="path8"
     style="fill:#070705;stroke-width:1.995"
     d="m 140.11914,20.441406 c -7.49533,0.09581 -15.18945,0.196419 -22.3102,2.826462 -11.93236,4.324632 -22.17887,12.542361 -29.984721,22.450882 -8.559395,10.90292 -14.460392,24.060276 -16.00126,37.893 -0.458091,2.931851 -0.695262,6.075317 -2.387412,8.610906 -2.170982,2.926175 -5.632848,4.418931 -8.366932,6.720656 -6.460426,5.261868 -11.459245,12.122338 -15.383168,19.424528 -4.238787,7.98644 -7.250461,16.75335 -7.816318,25.82465 -0.78437,11.25961 1.593108,22.68738 6.640348,32.77196 0.859096,1.88021 1.852206,3.98799 2.334758,6.1062 0.790924,3.21054 -0.721421,6.31076 -1.59339,9.33027 -3.180175,10.95373 -1.805449,22.93869 2.888506,33.25145 4.930595,10.97221 13.57886,20.22053 24.210799,25.85321 3.601239,1.91662 7.251637,3.82937 11.167237,5.02281 1.199462,0.33521 2.472881,0.29617 3.637076,0.78696 1.256884,0.41249 2.575946,0.90894 3.685315,1.37253 5.672135,2.35424 11.293722,4.94835 16.341492,8.48187 1.098,0.75577 2.1732,1.54371 3.24061,2.34197 0.31865,0.24321 0.94814,0.73667 1.38577,1.07567 9.71642,7.75996 18.04598,17.19181 24.91779,27.53691 3.42266,5.12632 6.32196,10.57979 8.89256,16.17709 1.56426,3.35207 3.14015,6.70324 4.49723,10.14588 -3.58132,1.57215 -7.31851,2.81626 -10.70051,4.81271 -4.97382,2.75485 -9.65785,6.00003 -14.11989,9.51768 -1.49216,1.13857 -2.98431,2.27713 -4.47647,3.4157 -5.33193,-4.98376 -10.56875,-10.07076 -15.97204,-14.97718 -5.27669,-4.65773 -10.88243,-9.18809 -17.480071,-11.82327 -4.998086,-2.02652 -10.581472,-2.42612 -15.848678,-1.32766 -3.709205,0.65573 -7.260435,2.09137 -10.388665,4.18866 -5.875978,3.93971 -10.720928,9.51431 -13.539062,16.02343 -1.571562,3.59411 -2.131913,7.56627 -1.83953,11.46558 0.238905,4.28273 1.30747,8.46483 2.656996,12.5197 0.588801,2.08317 1.155849,4.20699 1.221596,6.38191 -4.247107,1.91023 -7.936242,4.84391 -11.447265,7.85938 -4.421916,3.96361 -8.733239,8.38083 -10.988642,13.97908 -2.421711,5.71089 -2.439725,12.33464 -0.190715,18.10229 2.754317,7.25262 8.36021,13.05998 14.661573,17.4038 2.804307,1.87859 5.682134,3.6462 8.517784,5.47772 -1.99887,5.84605 -4.632323,11.66825 -4.757273,17.94936 -0.108381,5.31172 1.712058,10.42548 3.793631,15.23354 3.281672,7.20042 9.550669,12.99173 17.051599,15.55424 6.887141,2.41387 14.623035,2.19727 21.423761,-0.40121 4.208517,-1.9476 7.944639,-4.7547 11.619672,-7.54923 5.074779,-3.88608 9.695939,-8.30906 14.325819,-12.7033 2.44851,-2.3097 4.89702,-4.6194 7.34553,-6.92911 3.75326,3.14908 7.42645,6.42389 11.57617,9.05469 10.38169,6.69829 22.06581,11.11406 33.94347,14.34007 14.36634,3.86436 29.18804,5.8304 44.03006,6.57103 7.406,0.38073 14.82697,0.7071 22.24353,0.49401 10.36438,-0.65349 20.72944,-1.3153 31.08974,-2.0306 19.8142,-1.56647 39.4542,-4.84751 58.9122,-8.83697 26.60664,-5.52083 52.91595,-12.48065 78.77045,-20.84581 16.58138,-5.42733 33.02839,-11.36915 48.87577,-18.69511 7.50608,-3.53911 14.96282,-7.31435 21.70401,-12.1888 3.49295,-2.57303 6.88935,-5.54058 8.84232,-9.49455 2.55005,-4.66245 3.80134,-10.21983 2.54131,-15.46315 -1.37282,-5.95697 -5.42777,-10.87649 -9.97246,-14.77812 -6.66732,-5.70982 -14.57394,-9.67897 -22.44544,-13.43791 -3.34357,-1.62679 -6.68467,-3.25858 -10.01348,-4.91534 2.14681,-3.57741 4.55266,-7.03992 6.91714,-10.39559 5.12989,-7.21233 9.62196,-14.87284 13.56679,-22.79255 2.05438,-4.281 3.90707,-8.68133 5.23288,-13.24648 1.96209,-7.00545 1.98189,-14.34645 2.14657,-21.5638 0.13785,-11.56589 0.14122,-23.14866 -0.64701,-34.69329 -0.17185,-2.32604 -0.38943,-4.66286 -1.04645,-6.90985 -0.18494,-0.87958 -0.38263,-2.06505 0.58042,-2.57942 1.96009,-1.34095 4.47553,-1.89219 6.02864,-3.8059 1.95548,-2.32322 2.02028,-5.53102 2.17075,-8.41293 0.36915,-10.9511 -0.65017,-22.05852 -4.15091,-32.48937 -3.53583,-10.79136 -9.85205,-20.69024 -18.3538,-28.24369 -2.43413,-2.22078 -5.13124,-4.12119 -7.6833,-6.19916 -0.61585,-0.50831 -1.4666,-1.19685 -2.15523,-1.79915 -1.0521,-0.90357 -2.09503,-1.82257 -3.0518,-2.8278 1.69514,-1.91055 4.04579,-3.06861 6.2704,-4.24811 5.99441,-2.94114 12.37979,-5.11612 18.93592,-6.38902 3.18882,-0.626 6.35355,-0.67108 9.56511,-1.24744 3.505,-0.62319 7.173,-1.37829 10.07623,-3.5627 1.84139,-1.35928 2.9058,-3.78312 2.31126,-6.04244 -0.5714,-2.23086 -2.00576,-4.20854 -3.78197,-5.64701 -2.65078,-1.97598 -6.12968,-2.00709 -9.29492,-2.03462 -8.16071,0.14364 -16.41856,0.77145 -24.23682,3.27079 -7.99471,2.48027 -15.26885,6.9193 -21.58783,12.36103 -1.25116,1.05288 -2.50232,2.10577 -3.75348,3.15866 -2.56271,-3.74188 -4.80251,-7.74703 -7.96049,-11.0404 -5.61595,-5.98125 -12.45158,-10.75109 -19.78365,-14.39124 -4.63091,-2.25691 -9.55215,-4.02891 -14.68928,-4.64636 -7.73547,-1.02891 -15.55889,-1.29184 -23.35618,-1.17724 -4.25248,0.13032 -8.55792,0.22087 -12.71358,1.2172 -3.2592,0.87063 -5.89591,3.55101 -7.06127,6.67476 -0.32639,0.95352 -0.37468,2.32761 -1.56474,2.61407 -2.54839,0.75893 -5.25103,0.67414 -7.88351,0.80301 -6.88095,0.14191 -13.77143,0.007 -20.6411,0.50552 -6.07987,0.42623 -12.18398,0.91599 -18.15788,2.17301 -3.02322,0.65543 -6.01511,1.67297 -9.13167,1.73642 -2.46374,-0.0288 -4.32398,-1.87435 -6.18555,-3.24805 -2.12265,-1.66115 -4.28767,-3.66907 -4.82737,-6.4326 -0.6994,-3.2299 -0.32311,-6.56407 -0.74086,-9.82861 -1.98509,-21.134145 -15.16381,-40.838054 -33.92152,-50.766644 -6.81562,-3.641032 -14.37371,-5.861017 -22.07391,-6.499819 -2.62872,-0.36521 -5.43177,-0.454699 -7.78618,-1.809449 -1.933,-1.233023 -3.11299,-3.477963 -4.25368,-5.260534 -2.97118,-5.28343 -6.66057,-10.186525 -11.14897,-14.277444 -6.3837,-5.863176 -13.93846,-10.284935 -21.68719,-14.085057 -4.07801,-2.009702 -8.54507,-3.168987 -13.07606,-3.488125 -5.4447,-0.453478 -10.91798,-0.386393 -16.37684,-0.385702 z m 2.94336,17.953125 c 13.70551,0.160584 27.39273,5.6212 37.06572,15.405101 0.22107,0.215111 0.74296,0.774848 1.09834,1.141774 3.97857,4.247414 7.09876,9.245199 9.39082,14.584349 1.1312,2.473039 2.54416,5.109134 5.14118,6.29005 2.99203,1.364921 6.35289,1.427328 9.56962,1.774385 1.89876,0.150085 4.00641,0.323408 5.76362,0.575826 1.62138,0.229291 3.23301,0.52425 4.83203,0.876953 0.40812,0.103265 1.18769,0.274566 1.73533,0.425036 9.09072,2.307652 17.65721,7.216176 23.61852,14.538936 6.02016,7.269009 9.16367,16.614549 9.70765,25.970849 0.35413,4.72863 -0.31778,9.53504 0.65216,14.21106 0.6949,3.45172 3.11108,6.17911 5.57676,8.54279 3.26248,3.118 6.70217,6.11406 9.30924,9.83373 3.0672,4.1831 4.89823,9.26408 5.06291,14.45804 0.22819,5.54817 -0.89192,11.05636 -2.37156,16.37503 -1.46763,2.84169 -3.54152,5.31504 -5.50995,7.81852 -2.37647,2.95723 -5.10152,5.92356 -7.73331,8.82592 -7.46745,8.37199 -14.24597,17.51373 -18.8207,27.81095 -5.40718,11.96326 -7.69562,25.05052 -8.8682,38.0466 -1.08292,11.99983 -1.19035,24.05616 -1.64439,36.08932 -0.11641,3.56787 -0.23282,7.13574 -0.34923,10.70361 -6.45031,0.0431 -12.90794,-0.0788 -19.34696,0.38677 -7.74423,0.49121 -15.47006,1.30244 -23.12765,2.56635 -4.20703,0.70408 -8.4445,1.31341 -12.57226,2.40235 -1.15449,0.16877 -1.84877,-1.02627 -2.48468,-1.79076 -2.29152,-3.27253 -4.02873,-6.97209 -5.82782,-10.47487 -2.64055,-5.32607 -5.15091,-10.73145 -8.29943,-15.78526 -9.59353,-15.6598 -22.64982,-29.20782 -37.99745,-39.29872 -7.8576,-5.15859 -16.37676,-9.32602 -25.332701,-12.19504 -6.251034,-2.19519 -12.635094,-4.68514 -17.597413,-9.21933 -2.721347,-2.48559 -4.828485,-5.56509 -6.552305,-8.80438 -0.212679,-0.40136 -0.499059,-0.94628 -0.723745,-1.4261 -2.530183,-5.30596 -3.184381,-11.3368 -2.72938,-17.14812 0.03103,-0.36245 0.104828,-1.15269 0.174576,-1.67556 0.266981,-2.21639 0.718927,-4.40919 1.319564,-6.55881 0.107385,-0.33529 0.320005,-1.09451 0.488181,-1.58688 0.934445,-3.23669 2.991653,-6.23413 2.855569,-9.71195 -0.200908,-3.26138 -2.179767,-6.0172 -3.843777,-8.70406 -2.426742,-3.59138 -4.748226,-7.3648 -5.776893,-11.62395 -1.135573,-4.60985 -1.412087,-9.38401 -1.5242,-14.11479 -0.08391,-8.60619 1.791418,-17.44344 6.604042,-24.68663 3.923789,-6.03383 9.742661,-10.64334 16.168899,-13.78104 3.159688,-1.68916 6.649173,-3.27349 8.723492,-6.33758 2.010144,-3.11393 2.00206,-6.967792 2.122875,-10.540788 0.02496,-3.506476 0.03819,-7.031121 0.678111,-10.492404 1.707146,-9.802501 6.113249,-19.130748 12.588525,-26.684287 7.14279,-8.295065 17.16892,-13.985805 27.90912,-16.035098 3.57973,-0.702553 7.23014,-1.017087 10.87715,-0.977892 z m 63.76953,73.160159 c -2.85029,0.18168 -5.14349,2.14316 -7.21904,3.91826 -4.96926,4.5361 -9.32387,9.68726 -13.73325,14.75473 -5.74615,6.67967 -11.46335,13.40276 -17.68821,19.64626 -0.51153,0.8292 -0.59254,-0.22084 -0.79012,-0.67216 -2.92471,-8.47076 -4.66791,-17.29445 -7.57157,-25.77019 -0.98493,-2.62407 -2.03222,-5.51818 -4.45163,-7.16056 -2.16431,-1.38403 -4.89963,-1.21269 -7.32743,-0.81205 -2.31556,0.42103 -4.40333,2.03913 -5.16016,4.30079 -1.11712,3.29206 -0.56791,6.84279 -0.051,10.19613 1.11088,6.41956 3.03144,12.66048 4.35959,19.03433 0.25271,1.24257 0.57588,2.72212 0.81668,4.06357 0.11917,0.60729 0.2259,1.21709 0.31808,1.82901 -6.24238,-1.69525 -12.29177,-4.02189 -18.33025,-6.32355 -7.82409,-3.0275 -15.55657,-6.34312 -23.60085,-8.75808 -2.91347,-0.79905 -6.01755,-1.68394 -9.035692,-0.9379 -4.134985,1.23284 -6.84089,5.78287 -6.125143,10.00982 0.400172,2.76263 2.265844,5.27812 4.865871,6.3426 6.459524,3.11457 13.107534,5.81955 19.720784,8.58694 12.9911,5.33374 26.06304,10.46888 39.09318,15.70713 2.19169,8.91294 4.64945,17.76525 6.48176,26.76236 0.10664,0.5704 0.22821,1.13815 0.32488,1.71029 -8.37218,-2.60682 -16.22049,-6.87206 -24.90043,-8.46827 -2.96667,-0.4945 -6.33608,-0.72232 -8.92184,1.09913 -2.13846,1.56714 -3.01606,4.41806 -2.78906,6.98047 0.40134,3.13839 2.88618,5.44612 5.36,7.14973 4.90568,3.29229 10.39238,5.57198 15.79115,7.91391 7.25892,3.0341 14.54236,6.00937 21.81174,9.01839 3.44333,14.47145 6.64248,29.00309 10.51202,43.36856 0.55325,1.95113 1.004,4.12358 2.67548,5.46152 2.80866,2.35476 6.90159,2.70241 10.30218,1.58872 2.54115,-0.81902 4.99964,-2.90135 5.20827,-5.71641 0.29249,-3.61794 -0.44626,-7.21912 -1.06302,-10.76729 -1.88328,-9.68175 -4.63742,-19.16329 -6.85617,-28.7689 -0.68593,-2.921 -1.39899,-5.83807 -1.95454,-8.78729 1.89363,-3.27117 4.26803,-6.23458 6.54758,-9.24094 5.60987,-7.35955 11.85527,-14.21812 17.2919,-21.71023 1.58254,-2.33318 3.37144,-4.78067 3.60024,-7.68217 0.19291,-2.47385 -1.5148,-4.54375 -3.27136,-6.07093 -1.89886,-1.75556 -4.65561,-2.6129 -7.18204,-1.88753 -3.53091,0.99971 -6.297,3.5906 -8.88812,6.06427 -4.56916,4.55737 -8.6135,9.60006 -12.88256,14.43185 -0.38037,0.35334 -0.87153,1.17636 -1.1838,1.24099 -2.14403,-8.56008 -4.57935,-17.07282 -5.94408,-25.80352 -0.31346,-0.94007 0.31792,-1.75233 0.74253,-2.53701 3.06597,-5.11814 6.70826,-9.86152 10.30926,-14.60915 7.70676,-10.11458 16.28386,-19.55839 23.53362,-30.02036 1.87723,-2.82428 3.8587,-5.7268 4.61784,-9.08348 0.4149,-2.31708 -0.17303,-4.80872 -1.5039,-6.74023 -1.32592,-1.84637 -3.61474,-2.86067 -5.85938,-2.85156 z m 156.20508,27.57812 c 10.96555,0.0255 22.10924,2.55243 31.50232,8.34824 5.57728,3.45324 10.47151,8.21301 13.4155,14.13014 0.89849,1.66932 1.79697,3.33863 2.69546,5.00795 -2.90049,3.16442 -6.21268,6.02416 -8.47461,9.71484 -1.52954,2.44986 -2.37112,5.60049 -1.1968,8.36782 1.05825,2.48068 3.13058,4.54014 5.60305,5.6107 2.75057,1.15036 5.86314,0.27595 8.2832,-1.24609 3.72145,-2.20571 6.48057,-5.61449 9.82346,-8.29594 0.98989,-0.85127 2.32779,-1.48684 3.64139,-1.02828 4.98859,1.37907 9.08441,4.75518 12.80446,8.21388 4.24085,4.09741 8.14662,8.64847 10.92966,13.87449 1.8398,3.64059 2.76522,7.6519 3.75221,11.58546 0.91004,3.9599 1.57056,7.98427 1.89694,12.03448 -0.004,0.42618 0.0932,0.96672 -0.0962,1.32684 -4.51892,0.62112 -8.97215,-0.97198 -12.98438,-2.90429 -4.52327,-2.20399 -8.63654,-5.18623 -12.28763,-8.63677 -2.6901,-2.30941 -6.05411,-4.37343 -9.73749,-4.06076 -3.31259,0.2563 -5.97365,2.7139 -7.55734,5.48485 -1.63566,2.65552 -2.25861,5.7735 -3.80901,8.4728 -0.48069,0.92172 -1.03792,1.88616 -1.51598,2.67027 -2.0706,3.44906 -4.58522,6.63331 -7.56231,9.34619 -1.2796,1.20969 -2.58624,2.39985 -4.01071,3.43826 -1.68646,-2.49813 -2.52748,-5.44904 -3.3789,-8.31055 -0.12124,-0.47461 -0.28594,-1.03587 -0.40894,-1.55871 -1.00203,-4.21118 -1.83403,-8.53875 -1.59692,-12.8866 0.40255,-3.55146 0.93343,-7.34079 -0.51516,-10.73251 -1.07524,-2.63262 -3.74778,-4.22656 -6.45945,-4.70108 -3.85329,-0.71237 -7.79072,-0.27251 -11.65625,0.0957 -1.05723,0.0908 -2.35052,0.17552 -3.50195,0.22656 -1.00466,0.0422 -2.27724,0.0694 -3.38672,0.0703 -2.63034,-0.006 -5.47085,-0.16733 -7.94727,-0.51563 -0.66661,-0.0991 -1.02401,-0.15051 -1.66601,-0.26953 -1.78288,-0.39208 -3.70505,-0.70931 -5.18555,-1.84766 0.98076,-2.17735 2.73502,-3.88712 4.34743,-5.60691 4.64544,-4.61907 9.84109,-8.73356 15.60088,-11.87772 3.01494,-1.82006 6.07167,-4.21731 7.1415,-7.71947 0.92885,-2.93257 -0.29348,-6.10457 -2.30872,-8.2841 -1.97175,-2.30388 -4.74022,-3.70323 -6.82513,-5.89034 -4.51679,-4.48779 -8.09095,-9.95531 -10.3055,-15.92928 -0.6207,-1.78492 -1.15175,-3.62038 -1.38288,-5.49882 1.42223,-0.25903 2.88084,-0.19837 4.32031,-0.21875 z m -43.14063,10.38477 c 5.66412,-0.0243 11.32062,0.55573 16.90374,1.47978 2.20859,0.36771 4.41883,1.24847 5.88743,3.00575 2.47971,2.86019 4.3602,6.17208 6.46752,9.30306 1.41117,2.17008 2.82233,4.34016 4.2335,6.51024 -5.46028,5.81651 -11.2515,11.37395 -15.92515,17.872 -2.99534,4.19654 -5.82879,8.68608 -7.05727,13.75104 -0.6552,2.75232 -0.52859,5.93184 1.36133,8.19141 2.54023,3.06814 6.14704,4.98523 9.67692,6.69188 7.50041,3.44076 15.6067,5.537 23.82622,6.23859 2.06823,0.29138 4.24493,0.34442 6.16483,1.2414 1.25633,0.80731 1.30892,2.48603 1.66347,3.79484 1.61371,9.11446 4.70447,18.05003 9.69684,25.87954 2.42361,3.67771 5.27425,7.30025 9.19047,9.4682 2.40344,1.34287 5.50144,1.7179 7.95703,0.29102 3.75782,-2.14157 7.012,-5.0384 10.26854,-7.85667 4.70436,-4.23202 9.31407,-8.61576 13.31154,-13.53396 1.07605,-1.26729 1.85319,-2.73841 2.72473,-4.14046 0.30476,-0.45776 0.9657,0.0339 1.37292,0.0565 3.59318,1.32156 6.93067,3.23373 10.35737,4.92335 2.79535,1.51659 5.79522,2.84167 8.0878,5.1029 2.11589,2.23187 2.60666,5.40245 3.35892,8.26503 3.52995,15.02325 3.26368,30.84451 -0.1694,45.8593 -1.08843,4.72225 -2.51666,9.36623 -4.27922,13.88067 -0.15312,0.3621 -0.45239,1.11224 -0.66145,1.62288 -1.73628,4.22715 -3.80975,8.32448 -6.40609,12.09266 -2.3795,3.55503 -4.95774,6.97954 -7.74691,10.22391 -0.51642,0.58429 -1.2315,1.39312 -1.84797,2.04145 -2.55458,2.70428 -5.10917,5.40856 -7.66375,8.11285 -13.23408,-4.36646 -26.40209,-8.94872 -39.79996,-12.79745 -24.77154,-7.17943 -49.92266,-13.04198 -75.29771,-17.6463 -16.30859,-2.94383 -32.73199,-5.31 -49.25354,-6.66075 -3.42264,-0.30632 -6.84529,-0.61263 -10.26793,-0.91894 0.10173,-9.92557 0.0949,-19.85276 0.27553,-29.7772 0.0548,-2.23012 0.1315,-4.44567 0.24995,-6.60552 0.0968,-1.96252 0.23021,-3.97046 0.38216,-5.84036 0.53336,-6.63158 1.44104,-13.37101 2.93806,-19.77692 1.73888,-7.5001 4.46372,-15.01701 8.31828,-21.79585 2.31902,-4.12105 5.12866,-8.11818 8.08016,-11.69634 0.9747,-1.17601 1.98191,-2.34967 2.95534,-3.40979 3.7913,-4.11727 7.83365,-8.02366 11.21052,-12.50475 3.74506,-4.79457 6.6089,-10.34666 7.82491,-16.33583 1.72335,-8.12477 1.20536,-16.47916 1.29634,-24.72463 0,-1.62096 0,-3.24192 0,-4.86289 7.76203,-2.02238 15.58489,-3.98639 23.59813,-4.68155 2.23961,-0.20246 4.48724,-0.3102 6.73585,-0.33407 z M 209.86719,351.06836 c 0.43629,5.8878 0.67296,11.81317 1.71484,17.63476 0.47807,2.42177 1.341,5.14385 3.69336,6.35547 2.01038,0.91756 4.32791,1.43931 6.52149,0.96485 2.56431,-0.55747 4.23243,-2.90013 5.0332,-5.25586 1.46971,-4.36815 1.7108,-9.02148 2.02638,-13.58448 0.40968,-8.39794 0.52879,-16.80703 0.79979,-25.21044 5.6448,0.22081 11.29445,0.33882 16.93359,0.68554 2.35982,0.15731 4.90255,0.33589 7.33021,0.5388 7.18407,0.6018 14.46452,1.36204 21.6197,2.23289 10.39885,1.2347 20.7539,2.81091 31.06582,4.63097 1.29814,0.22125 2.59629,0.4425 3.89443,0.66375 0.0336,11.24051 -0.0803,22.48214 0.087,33.72179 0.16606,5.78379 0.27578,11.61698 1.43312,17.30589 0.63448,2.89623 1.70963,6.06813 4.37632,7.69498 2.27126,1.31161 5.19251,1.34537 7.57813,0.32031 2.71935,-1.2783 4.05928,-4.22573 4.75449,-6.99174 1.27843,-5.23239 1.414,-10.65462 1.61188,-16.012 0.21459,-8.99771 0.0161,-18.00334 0.45004,-26.99626 0.0762,-1.38683 0.15065,-3.00353 0.29708,-4.47619 -0.0405,-0.71962 0.98708,0.0477 1.41688,-0.0165 10.11715,2.40869 20.35106,4.98093 30.38036,7.73138 10.44451,2.85743 20.86867,5.94709 31.10868,9.23251 16.16773,5.21576 32.21661,10.88332 47.76105,17.75974 4.24363,1.90692 8.57073,3.97069 12.56915,6.18122 3.32857,1.9113 6.74953,3.83177 9.44224,6.61219 1.19412,1.19306 1.88774,3.1507 0.93367,4.69437 -1.47325,2.50985 -4.00147,4.14103 -6.36718,5.72382 -5.0483,3.19018 -10.40603,5.74421 -15.83629,8.28243 -14.85412,6.74195 -30.23587,12.24595 -45.7312,17.31127 -13.55581,4.40689 -27.2477,8.39078 -41.03304,12.01459 -11.99111,3.13987 -24.24114,6.04961 -36.38318,8.521 -12.02846,2.47366 -24.16039,4.39821 -36.28407,6.33566 -1.13082,0.1682 -2.26022,0.34616 -3.39329,0.49881 -0.36197,-1.72512 -0.55006,-3.48367 -0.72719,-5.15464 -0.82207,-8.22501 -0.83056,-16.49194 -1.106,-24.79241 -0.10058,-3.59838 -0.20024,-7.19678 -0.30158,-10.79514 -5.28711,0 -10.57422,0 -15.86133,0 -0.37967,14.15815 -0.75569,28.31639 -1.13281,42.47461 -8.98149,0.73558 -17.95433,1.65014 -26.9668,1.91406 -1.97757,0.0549 -4.15902,0.11679 -6.21519,0.1438 -4.88669,0.0704 -9.77499,0.0319 -14.65981,-0.12231 -1.2089,-0.0483 -2.66053,-0.0916 -3.86092,-0.15596 -5.9766,-0.25817 -11.9365,-0.82399 -17.85564,-1.68924 -1.06844,-0.1421 -2.13687,-0.28419 -3.20531,-0.42629 -0.29366,-11.47564 -0.46014,-22.95552 -0.87143,-34.42742 -0.20827,-3.67516 -0.23841,-7.41198 -1.17945,-10.99301 -0.48983,-1.98735 -1.86936,-3.80593 -3.86419,-4.4505 -2.53939,-0.90936 -5.59609,-1.51041 -8.02634,0.0155 -2.51953,1.6213 -3.39842,4.71673 -3.94727,7.49219 -1.04622,6.07778 -0.97516,12.27316 -1.03515,18.41992 -0.008,3.69308 0.0145,7.44933 -0.11328,11.07032 -0.0395,0.75829 -0.0888,1.81959 -0.17277,2.69122 -0.21736,1.54856 -0.23479,3.28575 -1.22176,4.57635 -0.94151,0.60701 -2.13836,0.096 -3.13232,-0.12991 -4.06255,-1.32337 -7.85742,-3.32829 -11.72886,-5.11151 -8.47756,-4.14038 -15.96697,-10.21709 -22.01382,-17.44022 -3.12743,-3.84279 -5.96826,-8.02614 -7.66871,-12.70844 -1.35503,-4.1609 -1.85501,-8.54061 -2.22387,-12.88335 -0.0697,-0.96728 -0.1494,-2.20613 -0.19727,-3.27735 -0.0594,-1.41046 -0.11043,-3.05625 -0.1134,-4.55933 -0.0121,-2.21501 0.0384,-4.47836 0.15258,-6.6018 0.32062,-5.17289 0.78345,-10.42045 2.47449,-15.35254 3.86339,-9.48941 10.83647,-17.50647 19.16695,-23.3754 1.40172,-1.00875 3.02238,-2.04173 4.38774,-2.87851 11.7752,-7.06219 25.17204,-10.94052 38.63477,-13.20312 6.09238,-1.03386 12.17967,-1.57674 18.3419,-2.24324 1.72718,-0.18324 3.45436,-0.36649 5.18154,-0.54973 0.41927,6.47266 0.83854,12.94531 1.25781,19.41797 z M 76.664062,333.85547 c 4.435249,0.13688 8.438831,2.45836 11.939454,5 6.473324,4.822 11.628474,11.1122 16.633854,17.37887 0.75225,0.92905 1.50451,1.8581 2.25677,2.78714 -1.42991,4.5996 -3.05318,9.14197 -4.32189,13.78975 -2.3927,9.45035 -3.06064,19.27776 -2.64759,28.99643 0.42404,8.33898 1.63201,16.76077 4.84338,24.52142 0.96,2.48601 1.92,4.97202 2.88001,7.45803 -3.61147,3.87833 -7.18619,7.79111 -10.824222,11.64453 -0.290952,0.28525 -0.845537,0.85248 -1.237399,1.24566 -4.379675,4.29414 -9.201414,8.34109 -14.896416,10.7584 -3.172712,1.30466 -6.959511,2.08373 -10.173595,0.48103 -2.975435,-1.54154 -4.675718,-4.74031 -5.495531,-7.87005 -1.01513,-4.31296 0.41164,-8.7106 2.030407,-12.68436 2.019613,-5.04117 5.202387,-9.6626 6.230768,-15.06632 0.512881,-2.5333 -0.02898,-5.41456 -2.014401,-7.19752 -2.43479,-2.27341 -5.80545,-2.94745 -8.902817,-3.83676 -4.109699,-1.4725 -8.000642,-3.53387 -11.648765,-5.92237 -2.792332,-1.92351 -5.548983,-4.51897 -6.166447,-8.00471 -0.549949,-3.22542 1.304717,-6.26988 3.530056,-8.43816 4.171763,-4.02202 9.644352,-6.29397 15.05009,-8.13358 3.182177,-1.214 6.575851,-2.77001 8.378537,-5.82146 1.685507,-2.85654 1.185906,-6.37819 0.146705,-9.36707 -1.201547,-3.66358 -3.266129,-6.94463 -4.847425,-10.43986 -1.733917,-4.01099 -2.966173,-8.57686 -1.772339,-12.91211 1.091508,-3.83792 4.337225,-6.97375 8.169432,-8.0349 0.931983,-0.24178 1.897011,-0.3504 2.859374,-0.33203 z" /></svg>
