<?xml version="1.0" encoding="UTF-8" standalone="no"?>
<svg
   viewBox="0 0 512 512"
   version="1.1"
   id="svg1"
   sodipodi:docname="handshake.svg"
   inkscape:version="1.3 (0e150ed, 2023-07-21)"
   xml:space="preserve"
   xmlns:inkscape="http://www.inkscape.org/namespaces/inkscape"
   xmlns:sodipodi="http://sodipodi.sourceforge.net/DTD/sodipodi-0.dtd"
   xmlns="http://www.w3.org/2000/svg"
   xmlns:svg="http://www.w3.org/2000/svg"><defs
     id="defs1" /><sodipodi:namedview
     id="namedview1"
     pagecolor="#ffffff"
     bordercolor="#666666"
     borderopacity="1.0"
     inkscape:showpageshadow="2"
     inkscape:pageopacity="0.0"
     inkscape:pagecheckerboard="0"
     inkscape:deskcolor="#d1d1d1"
     inkscape:zoom="0.76757812"
     inkscape:cx="256"
     inkscape:cy="256"
     inkscape:window-width="1366"
     inkscape:window-height="717"
     inkscape:window-x="0"
     inkscape:window-y="27"
     inkscape:window-maximized="1"
     inkscape:current-layer="svg1" /><path
     id="path1"
     style="fill:#000000;stroke-width:1.78725"
     d="m 351.19531,20.931641 c -17.396,0.286886 -34.9627,2.642841 -51.24986,8.987933 -15.03436,5.733433 -29.32273,13.43582 -42.33998,22.896832 C 245.98456,44.375649 233.22095,37.603226 220.0332,31.962891 208.21035,27.018687 195.76124,23.37596 182.97616,22.120459 169.59998,20.677552 156.0919,20.963704 142.70128,22.056505 129.03959,23.287093 115.45273,26.16229 102.75575,31.4313 88.522378,37.071267 75.032709,44.746743 63.316822,54.639346 53.037208,63.171321 43.701206,72.794893 35.053683,82.963442 27.052753,92.559032 20.187546,103.15278 15.185057,114.62004 9.1202074,128.27022 5.0586895,142.77953 2.7845969,157.53127 c -3.59185461,23.94187 -1.7425152,48.75682 5.9139223,71.75542 7.4837048,22.8159 20.1988698,43.76797 36.2552148,61.56398 0.949252,1.08101 1.913581,2.14834 2.88025,3.21378 -0.645995,10.0871 -0.04532,20.4866 3.678662,29.98356 5.394935,13.98107 15.989522,25.64506 28.760792,33.32308 3.899894,2.31579 8.028477,4.24819 12.314453,5.73438 3.982593,15.45567 13.780879,29.38977 27.177029,38.11553 4.82473,3.19593 10.08646,5.73552 15.60031,7.4958 5.3465,19.71528 20.37102,36.47964 39.31621,44.07905 1.07217,0.43924 2.15749,0.84764 3.25411,1.22173 1.98264,8.31469 5.91961,16.15164 11.42757,22.69091 5.94482,7.39275 13.15054,13.84133 21.40398,18.55349 8.10633,4.4432 17.35373,6.55478 26.56186,6.72932 10.53029,0.43403 21.23728,-1.00436 31.04497,-4.95771 7.09235,-3.0046 13.13976,-7.90305 18.93791,-12.87485 12.92267,-10.74921 24.77554,-22.68479 37.15496,-34.03765 14.31017,1.72054 29.04789,-1.98855 41.20345,-9.63038 13.18076,-8.16314 23.62757,-20.78933 28.82584,-35.42626 20.22642,-5.77998 37.45771,-21.44233 44.75759,-41.21945 0.24131,-0.66557 0.47042,-1.33577 0.68968,-2.00906 14.85297,-4.10787 28.19354,-13.51203 36.9464,-26.20917 8.50529,-12.16026 12.86084,-27.26426 11.65211,-42.09242 -0.49439,-6.83737 -2.08983,-13.5891 -4.65906,-19.94255 8.62978,-11.89607 15.25312,-25.1425 20.5739,-38.8104 4.21354,-11.03703 7.07671,-22.62083 8.0666,-34.40643 1.11438,-12.08401 1.05431,-24.25799 0.24863,-36.35923 -1.04545,-13.95898 -3.96075,-27.83147 -9.24259,-40.81859 -16.93548,-43.282577 -53.28973,-78.480334 -97.09532,-94.012508 -15.3067,-5.388134 -31.52469,-8.026408 -47.73514,-8.212144 -2.50077,-0.05329 -5.00236,-0.06407 -7.50358,-0.04086 z" /><!--!Font Awesome Free 6.5.1 by @fontawesome - https://fontawesome.com License - https://fontawesome.com/license/free Copyright 2024 Fonticons, Inc.--><path
     style="fill:#ff0066;stroke-width:1.78725"
     d="m 344.64667,403.07924 c 4.28809,-2.29493 8.4597,-8.41787 9.99863,-14.67569 2.6468,-10.76291 -0.78064,-15.28503 -55.92852,-73.79125 -29.50965,-31.30669 -53.65389,-58.35208 -53.65389,-60.10086 0,-4.979 4.87381,-8.09063 9.64666,-6.1588 2.23924,0.90636 27.16767,26.17792 55.39649,56.15904 55.86188,59.32953 59.69093,62.44862 72.44642,59.01391 7.50895,-2.02195 15.49178,-9.93936 17.3048,-17.16303 2.93812,-11.7064 0.94523,-14.3933 -53.19487,-71.71952 -28.58209,-30.26417 -53.09962,-56.72201 -54.4834,-58.79525 -3.24847,-4.86698 -1.45661,-9.36374 4.30778,-10.8105 3.8405,-0.96389 5.84687,0.23863 12.69885,7.61124 55.76979,60.00716 100.09338,105.21493 105.28313,107.38335 10.22447,4.27206 23.05704,-0.4349 28.17664,-10.3351 3.12517,-6.04342 3.27038,-17.17462 0.29213,-22.39281 -4.65645,-8.15854 -129.04811,-138.28307 -132.19078,-138.28307 -1.78487,0 -17.82504,13.77475 -35.64483,30.61056 -37.55309,35.47949 -41.99364,38.1594 -61.16801,36.91537 -14.34711,-0.93084 -21.41259,-3.98845 -30.25463,-13.09281 -9.84195,-10.13395 -11.92543,-23.92001 -5.53608,-36.63127 1.25477,-2.49632 16.82503,-18.17399 34.60056,-34.83926 17.77553,-16.66527 32.31914,-31.19263 32.31914,-32.283027 0,-3.01177 -19.1782,-17.415833 -31.37033,-23.561108 -18.46567,-9.307412 -29.87004,-11.882114 -52.63045,-11.882114 -34.73853,0 -57.04779,9.386234 -82.314197,34.632292 -16.791708,16.778147 -25.682253,32.062017 -31.240499,53.705857 -4.472698,17.41678 -2.915716,50.34411 3.14731,66.55998 5.985379,16.00817 14.333126,29.47333 26.352919,42.50802 l 9.883587,10.71809 20.55338,-19.76823 c 27.80784,-26.74555 39.08321,-31.95496 57.33089,-26.48782 14.93101,4.47344 26.66022,20.1284 26.67997,35.6097 l 0.0107,7.92517 7.27747,0.27669 c 18.24027,0.69352 33.62751,16.2194 35.23037,35.54779 0.80801,9.74368 0.81279,9.7504 6.90006,9.7504 18.66716,0 36.21916,17.81031 36.32064,36.8552 l 0.0393,7.36556 8.61653,1.14301 c 18.4957,2.45355 31.68454,16.34902 34.0757,35.90143 1.00349,8.20543 1.54527,9.04204 6.45716,9.97113 5.61615,1.06228 12.23891,-0.16782 18.26389,-3.39227 z"
     id="path4" /><path
     id="path2"
     style="fill:#f4d7d7;stroke-width:1.78725"
     d="m 253.2637,456.62306 c 3.03598,-1.85131 15.71546,-13.30905 28.17662,-25.46164 l 22.65667,-22.0956 -0.0274,-8.66049 c -0.0314,-9.95387 -3.72728,-17.28949 -10.82212,-21.48051 -5.74946,-3.3963 -16.32846,-3.8187 -21.94012,-0.87603 -6.37527,3.3431 -47.66751,42.76536 -50.46962,48.18405 -5.49647,10.62901 -0.88391,24.64667 10.03738,30.50383 7.78944,4.17754 15.41506,4.13882 22.38862,-0.11366 z m -46.41886,-43.95438 c 7.43214,-3.10535 48.08375,-40.54748 51.77673,-47.68891 1.38961,-2.6872 2.52657,-8.23743 2.52657,-12.33384 0,-6.26876 -1.09864,-8.54668 -6.93875,-14.38677 -6.26021,-6.26019 -7.83706,-6.93873 -16.12519,-6.93873 -10.44226,0 -11.72232,0.94247 -43.5069,32.03289 -17.94906,17.55705 -21.0299,23.05513 -18.52078,33.05225 1.66531,6.63513 9.67079,15.12677 15.98385,16.95448 7.83764,2.26913 7.70403,2.27536 14.80447,-0.69137 z m -38.37478,-46.9573 c 2.59987,-1.71475 14.73934,-12.77708 26.97659,-24.58293 25.40737,-24.51169 27.48952,-28.66349 21.3432,-42.55826 -5.51885,-12.47626 -19.90612,-17.24362 -31.9611,-10.59057 -3.11696,1.72022 -15.7108,12.85034 -27.9863,24.73359 -24.6993,23.91007 -27.19754,28.55449 -22.29212,41.44302 4.90402,12.88485 22.70789,18.94995 33.91973,11.55515 z m -46.22325,-43.94831 c 8.71556,-3.64971 50.69473,-44.77444 53.07889,-51.99851 4.92612,-14.92627 -6.31672,-29.60329 -22.66427,-29.58721 -9.21206,0.009 -13.98537,3.40564 -39.329,27.98553 -18.095258,17.54998 -22.01184,22.28661 -22.971759,27.78163 -1.501076,8.59283 3.328093,18.71262 11.539669,24.18202 6.962,4.6371 12.17904,5.05674 20.34647,1.63654 z M 447.65048,250.42021 C 482.50445,203.04869 477.98729,139.46204 436.8222,97.994309 401.8057,62.720387 349.22734,53.529512 304.35604,74.838788 c -17.00151,8.07399 -21.25743,11.494681 -61.97404,49.811502 -51.51919,48.48272 -52.72387,49.78833 -52.72387,57.1401 0,7.79283 7.84631,16.30619 17.49955,18.98718 16.88576,4.68972 21.15958,2.30627 57.24507,-31.92468 17.37822,-16.4851 33.35348,-30.90826 35.50057,-32.05146 2.14711,-1.1432 7.72766,-2.07854 12.40125,-2.07854 9.7919,0 4.24559,-5.25361 83.46139,79.05704 23.76746,25.29608 43.61572,45.99364 44.10721,45.99453 0.49149,9.1e-4 3.99127,-4.20851 7.77731,-9.35425 z" /></svg>
