<?xml version="1.0" encoding="UTF-8" standalone="no"?>
<!-- Created with Inkscape (http://www.inkscape.org/) -->

<svg
   width="48"
   height="48"
   viewBox="0 0 12.7 12.7"
   version="1.1"
   id="svg1"
   xml:space="preserve"
   inkscape:version="1.3 (0e150ed, 2023-07-21)"
   sodipodi:docname="limpeza.svg"
   xmlns:inkscape="http://www.inkscape.org/namespaces/inkscape"
   xmlns:sodipodi="http://sodipodi.sourceforge.net/DTD/sodipodi-0.dtd"
   xmlns="http://www.w3.org/2000/svg"
   xmlns:svg="http://www.w3.org/2000/svg"><sodipodi:namedview
     id="namedview1"
     pagecolor="#ffffff"
     bordercolor="#666666"
     borderopacity="1.0"
     inkscape:showpageshadow="2"
     inkscape:pageopacity="0.0"
     inkscape:pagecheckerboard="0"
     inkscape:deskcolor="#d1d1d1"
     inkscape:document-units="mm"
     inkscape:zoom="29.362514"
     inkscape:cx="14.593437"
     inkscape:cy="5.8407805"
     inkscape:window-width="1366"
     inkscape:window-height="717"
     inkscape:window-x="0"
     inkscape:window-y="27"
     inkscape:window-maximized="1"
     inkscape:current-layer="layer1" /><defs
     id="defs1" /><g
     inkscape:label="Camada 1"
     inkscape:groupmode="layer"
     id="layer1"><path
       style="fill:#ffd42a;stroke:#000000;stroke-width:0.264583px;stroke-linecap:butt;stroke-linejoin:miter;stroke-opacity:1"
       d="M 2.4007827,0.47193964 7.0343844,0.48665762 8.0020455,3.3986192 6.7220538,2.9502724 7.0842634,4.7187286 5.2309079,7.2628293 3.7775189,10.916248 3.4933355,12.068664 1.4794602,12.11689 1.26032,11.898875 1.282396,4.7452025 0.85323819,4.7989307 0.51675471,3.986372 0.914514,3.4829398 1.4337857,3.4108522 2.0590557,0.81555171 Z"
       id="path5" /><path
       style="fill:#000000;stroke-width:1.17461"
       d="M 1.2403413,12.225495 1.0941546,12.077772 V 8.5615799 5.045388 H 0.92320557 c -0.39480394,0 -0.47919733,-0.1515465 -0.47919733,-0.8605024 0,-0.4982524 0.003856,-0.5156651 0.14618674,-0.6594876 C 0.70350424,3.4108981 0.7818041,3.3776752 0.93834612,3.3776752 1.1338029,3.3776752 1.1421197,3.3707601 1.1964585,3.162894 1.7043284,1.2201564 1.9043472,0.56623183 2.0234565,0.45917771 L 2.1499684,0.34547019 h 2.5010613 c 1.6197406,0 2.5349662,0.0183361 2.5972784,0.0520351 0.1483073,0.0802058 0.209898,0.24508483 0.523306,1.40089691 0.2222739,0.8197194 0.3098909,1.0739853 0.3701709,1.0742414 0.043435,1.845e-4 0.2870288,-0.059147 0.54132,-0.1318481 0.4969398,-0.1420734 0.6128941,-0.1354497 0.6128941,0.035011 0,0.05985 -0.146283,0.4987197 -0.3250731,0.9752675 -0.1787902,0.4765477 -0.3250731,0.879892 -0.3250731,0.8963209 0,0.016429 0.1350511,0.1141037 0.3001137,0.2170577 1.2076464,0.7532344 2.3175474,2.8482254 3.0677454,5.7905154 0.278876,1.093759 0.357883,1.55122 0.283544,1.641737 -0.05541,0.06747 -0.704216,0.07652 -5.4867842,0.07652 H 1.386528 Z m 1.9713096,-0.294474 c 0.01261,-0.02084 0.030817,-0.106124 0.04046,-0.189513 l 0.017533,-0.15161 -0.5501237,-0.01376 c -0.4446375,-0.01112 -0.5621108,-0.02993 -0.6126378,-0.0981 -0.048291,-0.06515 -0.062514,-0.734953 -0.062514,-2.9440332 0,-2.5064518 0.00962,-2.8735651 0.077852,-2.9720094 0.072262,-0.1042535 0.1162526,-0.112262 0.6126378,-0.1115439 0.2941318,4.257e-4 0.5685427,0.022329 0.609802,0.048671 0.06456,0.041221 0.078502,0.4113945 0.1000228,2.6555602 L 3.4696889,10.762354 3.7083303,9.9127051 3.9469717,9.06306 3.9458837,7.3686894 C 3.9449506,5.9157258 3.9558904,5.658316 4.0226483,5.5620004 4.0947009,5.4580492 4.1396556,5.4496828 4.6260711,5.4496828 c 0.6673268,0 0.7185401,0.026163 0.7207163,0.3681696 L 5.3484754,6.0813922 5.508472,5.8792453 C 5.5964589,5.7680636 5.8018171,5.5349629 5.9648123,5.3612428 L 6.2611673,5.045388 H 3.8777059 1.4942445 v 3.4617677 3.4617673 h 0.8472398 c 0.4659817,0 0.8575567,-0.01706 0.8701666,-0.0379 z m 1.1332348,0.002 c 0,-0.01974 -0.061175,-0.210421 -0.1359445,-0.423727 -0.1172651,-0.334539 -0.1264559,-0.39938 -0.06689,-0.471907 0.037979,-0.04624 0.115243,-0.07729 0.1716971,-0.069 0.079591,0.01169 0.14279,0.122896 0.281404,0.495172 L 4.3448857,11.933023 Z M 3.0445932,8.5324242 V 5.8539762 H 2.7445257 2.4444582 v 2.678448 2.6784478 H 2.7445257 3.0445932 Z M 4.9450206,6.3034483 V 5.8539762 H 4.6449531 4.3448857 l 2.342e-4,1.073906 2.343e-4,1.073906 0.2998331,-0.6244339 C 4.9428304,6.7574817 4.9450206,6.749637 4.9450206,6.3034483 Z M 6.8954591,4.6761338 c 0,-0.00853 -0.07405,-0.2075118 -0.164554,-0.4421967 L 6.566351,3.8072377 3.7052247,3.7941896 0.84409833,3.7811415 V 4.2363862 4.6916309 H 3.8697787 c 1.6641243,0 3.0256804,-0.00697 3.0256804,-0.015497 z M 6.3953467,3.3542779 c 0,-0.012869 -0.045704,-0.1405674 -0.101564,-0.2837747 -0.1158494,-0.2970019 -0.09276,-0.4511809 0.067425,-0.4502341 0.060036,3.548e-4 0.2779431,0.054257 0.4842395,0.119783 0.4735475,0.1504124 0.80018,0.1960203 0.80018,0.1117292 0,-0.033795 -0.099057,-0.4239223 -0.2201264,-0.86695 C 7.3044321,1.5418036 7.1797868,1.082675 7.1485121,0.96454517 7.0937437,0.7576766 7.0843503,0.74976409 6.8935315,0.74976409 c -0.1243026,0 -0.1987114,0.0235357 -0.1997118,0.0631706 C 6.6843315,1.1890707 6.5445781,2.2179991 6.4912706,2.304255 6.4533986,2.3655341 6.3567025,2.4388192 6.2763891,2.4671108 6.1899266,2.4975685 5.52042,2.5185501 4.6350066,2.5185501 c -1.5767795,0 -1.7262602,-0.019616 -1.8150065,-0.2381804 -0.033128,-0.081588 -0.1716854,-1.2274605 -0.1743849,-1.44216673 -0.0016,-0.12737332 -0.3828291,-0.12737332 -0.4208852,0 C 2.1570817,1.0646198 1.5442558,3.3277605 1.5442558,3.351165 c 0,0.01458 1.0914954,0.02651 2.4255455,0.02651 1.33405,0 2.4255454,-0.010529 2.4255454,-0.023397 z M 6.2127678,1.82367 C 6.2294795,1.6638476 6.2579964,1.3568367 6.2761372,1.1414239 L 6.3091195,0.74976409 H 4.6699789 3.0308382 l 0.033672,0.44219651 c 0.018521,0.2432082 0.04702,0.5502189 0.063332,0.6822462 l 0.029658,0.2400496 H 4.6699417 6.182382 Z"
       id="path1"
       sodipodi:nodetypes="ccccsscscscsssssssscsssccsscssscscscccscscccscccccsssssscccscccccccccscccccsssscccccssccsssssssscsssscssssssccccscccs" /><path
       id="path2"
       style="fill:#ffffff;stroke:none;stroke-width:0.264583px;stroke-linecap:butt;stroke-linejoin:miter;stroke-opacity:1"
       d="M 7.2941284,4.4942993 6.9375615,5.3423072 6.7189697,5.8151489 C 6.6645081,5.9668385 6.6182578,6.1228604 6.5928792,6.2719686 6.5277397,6.6546867 6.5678525,6.7634115 6.77323,6.7634115 c 0.1267324,0 0.1473136,-0.045403 0.1953369,-0.4294312 0.042758,-0.3419278 0.2795649,-0.819953 0.5643066,-1.1399821 L 7.7674845,4.9299316 7.9840088,5.1774618 C 8.2694641,5.5036494 8.4850659,5.9543582 8.549349,6.3593018 8.608729,6.7333597 8.637796,6.7787007 8.8025635,6.7551432 8.9033452,6.7407339 8.923068,6.7058069 8.9364054,6.5179484 8.9580173,6.2135446 8.7934404,5.6803042 8.5498657,5.3107869 8.3351186,4.9850029 8.3213175,4.9132397 8.1597087,4.6829183 L 8.1380046,4.5232381 H 7.7623169 c -0.2686855,0 -0.3978607,-0.00763 -0.4681885,-0.028939 z"
       sodipodi:nodetypes="cccssscccssssccsc" /><path
       id="path3"
       style="fill:#ffffff;stroke:none;stroke-width:0.264583px;stroke-linecap:butt;stroke-linejoin:miter;stroke-opacity:1"
       d="M 4.3139486 10.968323 C 4.2574945 10.960033 4.179845 10.991329 4.141866 11.037569 C 4.0823002 11.110096 4.0917804 11.174836 4.2090454 11.509375 C 4.2838148 11.722681 4.3449544 11.913382 4.3449544 11.933122 C 4.3449544 11.934068 4.3400272 11.934778 4.33927 11.935706 L 4.7656006 11.921753 L 4.5950684 11.463383 C 4.4564545 11.091107 4.3935395 10.980013 4.3139486 10.968323 z " /><path
       id="path4"
       style="fill:#ffffff;stroke:none;stroke-width:0.264583px;stroke-linecap:butt;stroke-linejoin:miter;stroke-opacity:1"
       d="M 11.249443 10.961088 C 11.195532 10.958768 11.142929 10.97864 11.109399 11.021549 C 11.082253 11.056292 10.986462 11.283521 10.896493 11.526945 L 10.734229 11.965678 L 11.30887 11.965678 C 11.162196 11.959156 11.147219 11.939248 11.170378 11.880412 C 11.414643 11.260078 11.455774 11.106482 11.396204 11.033952 C 11.358439 10.987972 11.303353 10.963408 11.249443 10.961088 z " /></g></svg>
