<?xml version="1.0" encoding="UTF-8" standalone="no"?>
<svg
   viewBox="0 0 512 512"
   version="1.1"
   id="svg1"
   sodipodi:docname="marmitex.svg"
   inkscape:version="1.3 (0e150ed, 2023-07-21)"
   xml:space="preserve"
   xmlns:inkscape="http://www.inkscape.org/namespaces/inkscape"
   xmlns:sodipodi="http://sodipodi.sourceforge.net/DTD/sodipodi-0.dtd"
   xmlns="http://www.w3.org/2000/svg"
   xmlns:svg="http://www.w3.org/2000/svg"><defs
     id="defs1" /><sodipodi:namedview
     id="namedview1"
     pagecolor="#ffffff"
     bordercolor="#666666"
     borderopacity="1.0"
     inkscape:showpageshadow="2"
     inkscape:pageopacity="0.0"
     inkscape:pagecheckerboard="0"
     inkscape:deskcolor="#d1d1d1"
     inkscape:zoom="0.54275969"
     inkscape:cx="146.47366"
     inkscape:cy="41.45481"
     inkscape:window-width="1366"
     inkscape:window-height="717"
     inkscape:window-x="0"
     inkscape:window-y="27"
     inkscape:window-maximized="1"
     inkscape:current-layer="svg1"
     showgrid="false" /><!--!Font Awesome Free 6.5.1 by @fontawesome - https://fontawesome.com License - https://fontawesome.com/license/free Copyright 2024 Fonticons, Inc.--><path
     style="fill:#e9324c;stroke-width:1.59707"
     d="m 242.47446,350.72803 c -33.22873,-19.38113 -52.06725,-41.12223 -56.52475,-65.2339 -5.69735,-30.81838 23.97279,-54.70936 51.83222,-41.73633 8.98318,4.18311 15.48375,10.98508 18.51825,19.37685 1.1118,3.07465 2.4514,5.59029 2.97687,5.59029 0.52546,0 1.86507,-2.51564 2.97688,-5.59029 3.03451,-8.39177 9.53507,-15.19374 18.51825,-19.37685 22.21471,-10.34452 47.53058,2.94871 52.11014,27.36273 3.66276,19.52648 -10.99928,46.85217 -35.0055,65.23988 -13.17683,10.09286 -33.90603,21.80022 -38.59977,21.80022 -2.2327,0 -9.79387,-3.34467 -16.80259,-7.4326 z"
     id="path12" /><path
     id="path8"
     style="fill:#1f1d1d;stroke-width:1.59707"
     d="m 63.794922,179.11133 c -4.20203,2.21996 -8.483707,4.29363 -12.627074,6.6216 -4.919376,2.9261 -9.622695,6.4194 -13.179567,10.95066 -3.407338,4.66446 -5.893,9.91743 -8.290334,15.14977 -3.098345,7.03745 -5.9169,14.23381 -7.82055,21.69472 -0.752643,2.93757 -1.221059,5.99049 -0.811961,9.02033 1.0238,9.64988 7.354277,18.3598 15.869671,22.86247 2.63277,1.37224 5.265856,2.74537 7.918409,4.07935 3.602642,10.93649 6.958406,21.95308 10.393127,32.94329 6.57265,21.30141 13.093071,42.62712 20.511169,63.65242 1.360949,3.66616 2.568653,7.40946 4.320639,10.91375 4.858696,9.25789 12.060608,17.10395 20.077459,23.73104 8.79512,7.16008 18.77228,13.01592 29.61282,16.45623 3.4698,1.05343 7.01543,2.0122 10.66203,2.11215 11.22397,0.57694 22.46576,0.68937 33.70166,0.87421 35.60139,0.47267 71.20687,0.54195 106.81093,0.49948 27.15127,-0.0786 54.30489,-0.15862 81.45109,-0.73154 5.69905,-0.16801 11.40961,-0.22343 17.09189,-0.72446 7.30424,-1.17172 14.34409,-3.69899 20.98006,-6.93038 10.64423,-5.26169 20.37207,-12.46222 28.30887,-21.30912 4.20118,-4.73693 7.94736,-9.95286 10.57826,-15.73121 2.9219,-7.17906 5.33643,-14.55173 7.82553,-21.88816 6.05806,-18.05487 11.59883,-36.27683 17.22329,-54.47121 3.08141,-9.81011 6.08173,-19.68432 9.29297,-29.45703 3.0818,-1.43589 6.30092,-2.59018 9.27536,-4.24651 7.24708,-4.15325 12.23526,-11.70779 13.7925,-19.85495 0.92446,-4.57763 0.82926,-9.36528 -0.43584,-13.87003 -1.56067,-5.73672 -3.87164,-11.23213 -6.12505,-16.72254 -3.24755,-7.58404 -6.88856,-15.22543 -12.65062,-21.25333 -4.12722,-4.38163 -9.34608,-7.52324 -14.69687,-10.1811 -2.84285,-1.47155 -5.6859,-2.94272 -8.52862,-4.41451 -130.03255,0 -260.0651,0 -390.097654,0 -0.144532,0.0749 -0.289063,0.14974 -0.433594,0.22461 z m 257.478518,16.5625 c 32.44337,0.0369 64.88763,0.001 97.32989,0.30585 8.31486,0.0991 16.64833,0.18769 24.91423,0.52329 4.01587,0.22205 8.07992,0.28066 12.01955,1.165 2.23748,0.63016 4.20928,1.93653 6.15346,3.17119 4.15939,2.72906 7.13514,6.86682 9.41124,11.2194 2.67181,5.15862 4.96442,10.51575 6.92109,15.98505 1.5773,4.68981 3.03017,9.59846 2.66851,14.60092 -0.21202,3.01073 -1.64011,5.96622 -4.13031,7.737 -0.91671,0.75018 -1.98032,1.3141 -3.17329,1.43641 -2.89393,0.50015 -5.83117,0.67253 -8.75695,0.88128 -1.66645,0.0997 -3.55309,0.2038 -5.3052,0.28146 -16.73906,0.72382 -33.53121,0.86616 -50.30829,1.17758 -10.30957,0.20962 -20.62742,0.3054 -30.92205,0.93381 -2.90879,0.26173 -5.92057,0.34627 -8.66041,1.45637 -1.96963,0.82335 -3.1587,2.92485 -3.38803,4.97695 -0.12437,2.33222 1.57635,4.24674 3.25195,5.65039 2.35519,1.69044 5.3635,1.91174 8.15223,2.24357 7.72526,0.69277 15.48774,0.78352 23.23669,1.00065 18.3539,0.39246 36.70948,0.70258 55.0642,1.05461 -5.88481,18.87994 -11.6791,37.78828 -17.63921,56.64455 -3.24453,10.18414 -6.55121,20.33556 -10.04589,30.40732 -1.33262,3.70677 -2.57166,7.49559 -4.20533,11.12738 -6.44199,12.29073 -17.35992,21.89764 -29.80853,27.82852 -4.45099,2.051 -9.06553,3.86597 -13.89456,4.78822 -5.69817,0.96001 -11.5466,1.06233 -17.27562,1.27042 -18.19247,0.44696 -36.39237,0.40078 -54.58906,0.4507 -36.71678,0.008 -73.43371,0.004 -110.15033,-0.11294 -14.3232,-0.0706 -28.64838,-0.11395 -42.96764,-0.4862 -3.51983,-0.10536 -7.2151,-0.23922 -10.69538,-0.4895 -4.26277,-0.28095 -8.55739,-0.80859 -12.58116,-2.31687 C 118.71792,396.0099 106.81306,387.49988 98.664062,376.125 96.545345,373.08534 94.555186,369.90563 93.333546,366.3871 89.441827,355.98825 86.049824,345.41125 82.595703,334.86133 76.410744,315.58154 70.515371,296.21037 64.48382,276.8822 c -0.557107,-1.79472 -1.114213,-3.58943 -1.67132,-5.38415 19.804074,-0.20886 39.60955,-0.30822 59.41238,-0.61925 8.75934,-0.19558 17.53066,-0.31649 26.26494,-1.05414 1.95761,-0.25793 4.03638,-0.28277 5.83049,-1.18794 1.8928,-1.29293 2.60175,-3.70357 2.83789,-5.87891 0.15866,-2.25999 -0.38119,-4.49374 -0.55924,-6.73889 -0.13284,-0.54598 0.12611,-1.52519 -0.74382,-1.25611 -24.78347,-0.38443 -49.56851,-0.67674 -74.350578,-1.1454 -10.37598,-0.25369 -20.731815,-0.42376 -31.095029,-1.19851 -0.894737,-0.069 -1.51772,-0.127 -2.419215,-0.2266 -1.542837,-0.2106 -3.160818,-0.2698 -4.607071,-0.88478 -2.624584,-1.44817 -4.681345,-3.97165 -5.255934,-6.94754 -0.888541,-4.45461 0.184697,-9.00546 1.423205,-13.28542 1.834619,-5.99641 4.341364,-11.76827 7.070118,-17.40624 2.361534,-4.75986 5.326177,-9.44034 9.776981,-12.50453 1.453013,-1.03543 3.042869,-1.93847 4.549592,-2.70977 2.692804,-1.3291 5.77442,-1.37417 8.70594,-1.65585 8.29242,-0.54151 16.535039,-0.62365 24.857581,-0.75221 27.68263,-0.33267 55.36796,-0.31253 83.05216,-0.35844 47.9035,-0.0326 95.80704,-0.0248 143.71055,-0.0137 z" /></svg>
