<?xml version="1.0" encoding="UTF-8" standalone="no"?>
<svg
   viewBox="0 0 512 512"
   version="1.1"
   id="svg1"
   sodipodi:docname="medicine.svg"
   inkscape:version="1.3 (0e150ed, 2023-07-21)"
   xml:space="preserve"
   xmlns:inkscape="http://www.inkscape.org/namespaces/inkscape"
   xmlns:sodipodi="http://sodipodi.sourceforge.net/DTD/sodipodi-0.dtd"
   xmlns="http://www.w3.org/2000/svg"
   xmlns:svg="http://www.w3.org/2000/svg"><defs
     id="defs1" /><sodipodi:namedview
     id="namedview1"
     pagecolor="#ffffff"
     bordercolor="#666666"
     borderopacity="1.0"
     inkscape:showpageshadow="2"
     inkscape:pageopacity="0.0"
     inkscape:pagecheckerboard="0"
     inkscape:deskcolor="#d1d1d1"
     inkscape:zoom="0.5427597"
     inkscape:cx="194.377"
     inkscape:cy="282.81392"
     inkscape:window-width="1366"
     inkscape:window-height="717"
     inkscape:window-x="0"
     inkscape:window-y="27"
     inkscape:window-maximized="1"
     inkscape:current-layer="svg1" /><!--!Font Awesome Free 6.5.1 by @fontawesome - https://fontawesome.com License - https://fontawesome.com/license/free Copyright 2024 Fonticons, Inc.--><ellipse
     style="fill:none;stroke:#000000;stroke-width:66.93;stroke-dasharray:none;paint-order:markers stroke fill"
     id="path9"
     cx="256"
     cy="256"
     rx="205.5625"
     ry="207.60114" /><path
     style="fill:#e6e6e6;stroke:none;stroke-width:1.57288px;stroke-linecap:butt;stroke-linejoin:miter;stroke-opacity:1"
     d="m 238.34551,101.94671 24.58691,345.06614 135.68603,-142.70577 9.71,-148.15541 z"
     id="path8" /><path
     style="fill:#f02652;stroke:none;stroke-width:1.57288"
     d="m 238.25227,55.919427 c -38.0145,5.005992 -72.32191,15.492126 -103.81051,38.254145 -20.37339,14.727218 -37.979217,34.156608 -51.236536,55.451558 -12.96147,20.81974 -21.863736,43.5893 -26.701449,67.63411 -27.413713,136.25398 93.100595,257.89741 228.935085,238.62969 27.58821,-3.91331 55.44929,-14.60801 78.64432,-29.99528 117.91934,-78.22615 120.15416,-251.56771 6.29154,-334.22624 -19.18009,-13.9238 -41.52495,-24.157402 -64.48834,-29.924876 -21.81291,-5.47851 -45.143,-8.784844 -67.63411,-5.823107 m -26.70873,80.498793 c 18.59476,-7.16597 50.79829,-0.95034 70.74954,-0.94908 7.10259,4.7e-4 17.41019,-1.54228 20.85289,6.46267 4.9556,11.52271 1.16674,31.42363 1.16752,43.8697 3.7e-4,5.71425 -1.27957,13.77579 3.6458,17.92557 13.84503,11.66484 44.36307,-3.32429 60.67143,3.68947 8.00492,3.44271 6.46224,13.7503 6.46266,20.8529 9.1e-4,19.80424 6.65468,53.99353 -1.16752,72.18166 -3.0576,7.10952 -11.2311,6.45183 -17.70711,6.46266 -10.91692,0.0182 -41.86037,-5.2832 -49.38329,3.64579 -11.82884,14.03968 10.02633,56.88202 -8.98463,65.54664 -18.05646,8.2296 -52.39832,1.59508 -72.18166,1.58745 -7.80461,-0.003 -17.31231,0.75485 -20.85288,-7.93359 -4.82218,-11.83342 -1.16671,-31.28799 -1.16753,-43.97166 -3.1e-4,-4.87718 1.29362,-12.5371 -2.52194,-16.35268 -3.81558,-3.81557 -11.47548,-2.52164 -16.3527,-2.52195 -12.63235,-7.9e-4 -32.16217,3.69567 -43.97162,-0.94907 -8.70387,-3.42329 -7.93064,-13.37287 -7.93363,-21.07134 -0.008,-19.91689 -6.22193,-52.24294 1.16754,-70.74955 5.54616,-13.89013 38.50321,-7.89007 50.73771,-7.89477 5.30613,-0.002 13.75567,1.26088 17.25806,-3.82784 10.09883,-14.67294 -11.07683,-58.06878 9.51136,-66.00298"
     id="path7"
     sodipodi:nodetypes="csssssssccssssscsssscssssscscsc" /></svg>
