<?xml version="1.0" encoding="UTF-8" standalone="no"?>
<svg
   viewBox="0 0 512 512"
   version="1.1"
   id="svg1"
   sodipodi:docname="sneakers.svg"
   inkscape:version="1.3 (0e150ed, 2023-07-21)"
   xml:space="preserve"
   xmlns:inkscape="http://www.inkscape.org/namespaces/inkscape"
   xmlns:sodipodi="http://sodipodi.sourceforge.net/DTD/sodipodi-0.dtd"
   xmlns="http://www.w3.org/2000/svg"
   xmlns:svg="http://www.w3.org/2000/svg"><defs
     id="defs1" /><sodipodi:namedview
     id="namedview1"
     pagecolor="#ffffff"
     bordercolor="#666666"
     borderopacity="1.0"
     inkscape:showpageshadow="2"
     inkscape:pageopacity="0.0"
     inkscape:pagecheckerboard="0"
     inkscape:deskcolor="#d1d1d1"
     inkscape:zoom="0.76757812"
     inkscape:cx="384.9771"
     inkscape:cy="257.3028"
     inkscape:window-width="1366"
     inkscape:window-height="717"
     inkscape:window-x="0"
     inkscape:window-y="27"
     inkscape:window-maximized="1"
     inkscape:current-layer="svg1"
     showgrid="false" /><!--!Font Awesome Free 6.5.1 by @fontawesome - https://fontawesome.com License - https://fontawesome.com/license/free Copyright 2024 Fonticons, Inc.--><path
     style="fill:#eac072;stroke-width:1.76405"
     d="m 150.28463,443.60596 c -9.79388,-1.804 -19.13811,-7.9301 -27.02963,-17.7207 -6.80502,-8.44264 -15.45847,-22.79136 -15.45847,-25.6325 0,-2.85045 15.57299,-8.86017 29.03348,-11.20422 21.73913,-3.78572 48.33249,0.54648 62.9572,10.25606 l 4.67033,3.1007 -4.82841,10.63682 c -10.93725,24.09427 -27.79161,34.53381 -49.3445,30.56384 z m 206.24252,0.2633 C 342.16061,441.1889 331.0676,431.0171 322.90812,413.04212 l -4.82841,-10.63682 4.67034,-3.1007 c 14.6247,-9.70958 41.21806,-14.04178 62.95717,-10.25606 13.56254,2.36181 29.03348,8.36006 29.03348,11.25659 0,1.03687 -3.13335,7.15944 -6.96299,13.60569 -13.76283,23.16626 -31.64108,33.61697 -51.25056,29.95844 z"
     id="path7" /><path
     style="fill:#978d84;stroke-width:1.76405"
     d="m 97.078746,456.64002 -4.276615,-4.85112 4.851125,4.27659 c 4.534124,3.99714 5.660114,5.42566 4.276624,5.42566 -0.316,0 -2.499004,-2.183 -4.851134,-4.85113 z m 66.836534,3.64608 c 1.27343,-0.50958 2.79492,-0.44691 3.38109,0.13936 0.58618,0.58617 -0.4557,1.0031 -2.31531,0.92651 -2.05501,-0.0847 -2.47302,-0.50265 -1.06578,-1.06578 z m 192.28111,0 c 1.27343,-0.50958 2.79492,-0.44691 3.3811,0.13936 0.58617,0.58617 -0.45571,1.0031 -2.31531,0.92651 -2.05501,-0.0847 -2.47302,-0.50265 -1.06579,-1.06578 z m 67.36455,-3.20506 c 2.2787,-2.42557 4.54,-4.41012 5.02511,-4.41012 0.48512,0 -0.98236,1.98455 -3.26107,4.41012 -2.27869,2.42556 -4.53998,4.41011 -5.0251,4.41011 -0.48511,0 0.98237,-1.98455 3.26106,-4.41011 z m -206.3935,0.21599 c 0,-0.36633 1.38919,-1.75551 3.08709,-3.08709 2.79788,-2.19424 2.86027,-2.13185 0.66603,0.66604 -2.3045,2.93844 -3.75312,3.87291 -3.75312,2.42105 z M 153.331,444.40968 c 1.27343,-0.50959 2.79492,-0.44691 3.38109,0.13935 0.58618,0.58618 -0.4557,1.00311 -2.31531,0.92652 -2.05501,-0.0847 -2.47302,-0.50265 -1.06578,-1.06579 z m 213.44967,0 c 1.27343,-0.50959 2.79493,-0.44691 3.3811,0.13935 0.58618,0.58618 -0.45571,1.00311 -2.31531,0.92652 -2.05501,-0.0847 -2.47302,-0.50265 -1.06579,-1.06579 z M 252.58765,361.67549 c 0.0847,-2.05501 0.50265,-2.47302 1.06579,-1.06577 0.50958,1.27341 0.4469,2.7949 -0.13918,3.38108 -0.58618,0.58617 -1.00311,-0.45571 -0.92652,-2.31531 z m 15.87643,0 c 0.0847,-2.05501 0.50264,-2.47302 1.06578,-1.06577 0.50958,1.27341 0.4469,2.7949 -0.13918,3.38108 -0.58618,0.58617 -1.00311,-0.45571 -0.92652,-2.31531 z m -91.52581,-3.38108 c 0.036,-2.91068 0.43131,-3.88786 0.87856,-2.17149 0.44728,1.71636 0.41785,4.09783 -0.0653,5.29214 -0.48321,1.19431 -0.84916,-0.20997 -0.81321,-3.12065 z m 59.77296,1.61703 c 0.0847,-2.05501 0.50265,-2.47302 1.06579,-1.06577 0.50958,1.27341 0.4469,2.79491 -0.13919,3.38108 -0.58617,0.58618 -1.0031,-0.45571 -0.92651,-2.31531 z m 47.62927,0 c 0.0847,-2.05501 0.50265,-2.47302 1.06578,-1.06577 0.50958,1.27341 0.44691,2.79491 -0.13918,3.38108 -0.58618,0.58618 -1.00311,-0.45571 -0.92651,-2.31531 z m 60.18222,-1.61703 c 0.036,-2.91068 0.43131,-3.88786 0.87857,-2.17149 0.44727,1.71636 0.41785,4.09783 -0.0653,5.29214 -0.48321,1.19431 -0.84916,-0.20997 -0.81321,-3.12065 z m -177.07935,-3.85113 c 1.27343,-0.50958 2.79492,-0.4469 3.3811,0.13936 0.58617,0.58618 -0.45571,1.00311 -2.31531,0.92651 -2.05501,-0.0847 -2.47302,-0.50264 -1.06579,-1.06578 z m 185.22493,0 c 1.27343,-0.50958 2.79492,-0.4469 3.38109,0.13936 0.58618,0.58618 -0.4557,1.00311 -2.31531,0.92651 -2.05501,-0.0847 -2.47301,-0.50264 -1.06578,-1.06578 z m 17.64047,-14.11237 c 1.27343,-0.50958 2.79492,-0.44691 3.38109,0.13936 0.58618,0.58617 -0.4557,1.0031 -2.31531,0.92651 -2.05501,-0.0847 -2.47301,-0.50265 -1.06578,-1.06579 z m -204.62945,-1.76405 c 1.27343,-0.50958 2.79492,-0.4469 3.3811,0.13936 0.58618,0.58617 -0.45571,1.00311 -2.31531,0.92651 -2.05501,-0.0847 -2.47302,-0.50265 -1.06579,-1.06578 z m 69.26786,-1.58803 c 0.0847,-2.05501 0.50265,-2.47302 1.06579,-1.06577 0.50958,1.27341 0.4469,2.79491 -0.13918,3.38108 -0.58618,0.58618 -1.00311,-0.45571 -0.92652,-2.31531 z m 51.15737,0 c 0.0847,-2.05501 0.50264,-2.47302 1.06578,-1.06577 0.50958,1.27341 0.4469,2.79491 -0.13918,3.38108 -0.58618,0.58618 -1.00311,-0.45571 -0.92652,-2.31531 z m 68.3278,1.58803 c 1.27343,-0.50958 2.79492,-0.4469 3.38109,0.13936 0.58618,0.58617 -0.4557,1.00311 -2.31531,0.92651 -2.05501,-0.0847 -2.47302,-0.50265 -1.06578,-1.06578 z M 51.4863,331.68669 c 0.08467,-2.05501 0.502648,-2.47302 1.065784,-1.06577 0.509581,1.27341 0.446904,2.7949 -0.139183,3.38108 -0.586175,0.58617 -1.003108,-0.45571 -0.926513,-2.31531 z m 418.07913,0 c 0.0847,-2.05501 0.50264,-2.47302 1.06578,-1.06577 0.50958,1.27341 0.4469,2.7949 -0.13936,3.38108 -0.58617,0.58617 -1.00311,-0.45571 -0.92651,-2.31531 z M 67.362722,329.92264 c 0.08467,-2.05501 0.502648,-2.47302 1.065785,-1.06577 0.50958,1.27342 0.446903,2.79491 -0.139184,3.38108 -0.586175,0.58618 -1.003107,-0.4557 -0.926512,-2.31531 z m 386.326278,0 c 0.0847,-2.05501 0.50265,-2.47302 1.06579,-1.06577 0.50958,1.27342 0.4469,2.79491 -0.13936,3.38108 -0.58618,0.58618 -1.00311,-0.4557 -0.92651,-2.31531 z M 236.8505,320.3674 c 0,-2.42557 0.40039,-3.41784 0.88975,-2.20506 0.48939,1.21278 0.48939,3.19734 0,4.41012 -0.48936,1.21278 -0.88975,0.2205 -0.88975,-2.20506 z m 47.62927,0 c 0,-2.42557 0.40039,-3.41784 0.88975,-2.20506 0.48938,1.21278 0.48938,3.19734 0,4.41012 -0.48936,1.21278 -0.88975,0.2205 -0.88975,-2.20506 z M 145.32199,308.01907 c 0,-4.36602 0.34401,-6.15211 0.76449,-3.96911 0.42046,2.18301 0.42046,5.75521 0,7.93822 -0.42048,2.183 -0.76449,0.39691 -0.76449,-3.96911 z m 231.09015,0 c 0,-4.36602 0.34401,-6.15211 0.76449,-3.96911 0.42046,2.18301 0.42046,5.75521 0,7.93822 -0.42048,2.183 -0.76449,0.39691 -0.76449,-3.96911 z M 50.187715,296.55277 c 0.0071,-7.76181 0.316558,-10.71767 0.689195,-6.56856 0.372655,4.14911 0.367398,10.49968 -0.01235,14.11238 -0.379059,3.6127 -0.683957,0.21798 -0.677553,-7.54382 z m 421.595575,0.88202 c 0,-7.2767 0.31139,-10.25352 0.69197,-6.61518 0.38059,3.63835 0.38059,9.59201 0,13.23035 -0.38058,3.63835 -0.69197,0.66152 -0.69197,-6.61517 z m -406.076955,0.88202 0.139713,-10.58428 1.520767,7.74316 c 0.911148,4.63922 0.855175,8.88207 -0.139713,10.58428 -1.160778,1.9862 -1.618389,-0.34377 -1.520767,-7.74316 z m 186.881315,6.90917 c 0.0847,-2.055 0.50265,-2.47301 1.06579,-1.06576 0.50958,1.27341 0.4469,2.7949 -0.13918,3.38108 -0.58618,0.58617 -1.00311,-0.45571 -0.92652,-2.31532 z m 15.87643,0 c 0.0847,-2.055 0.50264,-2.47301 1.06578,-1.06576 0.50958,1.27341 0.4469,2.7949 -0.13918,3.38108 -0.58618,0.58617 -1.00311,-0.45571 -0.92652,-2.31532 z m 186.20334,-0.29399 c -0.48626,-1.6979 -0.23413,-6.26237 0.56029,-10.14327 1.42581,-6.96539 1.44701,-6.92567 1.64725,3.08708 0.2046,10.22955 -0.58025,12.73822 -2.20754,7.05619 z m -288.65734,-9.26125 -9.70226,-1.18898 11.12941,-0.28754 c 7.03753,-0.18182 10.72857,0.36104 10.03916,1.47652 -0.59962,0.97023 -1.24184,1.63466 -1.42713,1.47651 -0.1853,-0.15824 -4.70293,-0.82258 -10.03918,-1.47651 z m 178.81479,-0.38183 c -0.46984,-0.76021 4.15398,-1.29013 10.27515,-1.17759 11.69897,0.21509 11.01081,0.97028 -1.79181,1.9663 -4.19598,0.32644 -8.01349,-0.0284 -8.48334,-0.78871 z M 155.03143,278.50039 c 4.14911,-0.37265 10.49968,-0.3674 14.11238,0.0124 3.61269,0.37906 0.21796,0.68396 -7.54384,0.67755 -7.76181,-0.007 -10.71765,-0.31656 -6.56854,-0.68919 z m 199.3373,0 c 4.14911,-0.37265 10.49968,-0.3674 14.11238,0.0124 3.6127,0.37906 0.21797,0.68396 -7.54384,0.67755 -7.76181,-0.007 -10.71764,-0.31656 -6.56854,-0.68919 z m -177.36509,-5.76226 c 0,-3.39579 0.36302,-4.78498 0.80674,-3.08708 0.44371,1.69789 0.44371,4.47627 0,6.17416 -0.44372,1.6979 -0.80674,0.30871 -0.80674,-3.08708 z m 167.58446,0 c 0,-3.39579 0.36302,-4.78498 0.80673,-3.08708 0.44371,1.69789 0.44371,4.47627 0,6.17416 -0.44371,1.6979 -0.80673,0.30871 -0.80673,-3.08708 z M 51.4863,262.88886 c 0.08467,-2.05501 0.502648,-2.47302 1.065784,-1.06577 0.509581,1.27341 0.446904,2.7949 -0.139183,3.38108 -0.586175,0.58617 -1.003108,-0.45571 -0.926513,-2.31531 z m 418.07913,0 c 0.0847,-2.05501 0.50264,-2.47302 1.06578,-1.06577 0.50958,1.27341 0.4469,2.7949 -0.13936,3.38108 -0.58617,0.58617 -1.00311,-0.45571 -0.92651,-2.31531 z m -311.90098,-28.4182 c 1.71634,-0.44726 4.09781,-0.41783 5.29214,0.0654 1.19431,0.48321 -0.20999,0.84916 -3.12067,0.81321 -2.91068,-0.036 -3.88784,-0.43131 -2.17147,-0.87859 z m 202.86539,0 c 1.71635,-0.44726 4.09782,-0.41783 5.29215,0.0654 1.19431,0.48321 -0.21,0.84916 -3.12067,0.81321 -2.91068,-0.036 -3.88784,-0.43131 -2.17148,-0.87859 z M 234.94718,224.07983 c 0.0847,-2.05501 0.50265,-2.47302 1.06579,-1.06577 0.50958,1.27341 0.4469,2.7949 -0.13918,3.38108 -0.58618,0.58617 -1.00311,-0.45571 -0.92652,-2.31531 z m 51.15737,0 c 0.0847,-2.05501 0.50264,-2.47302 1.06578,-1.06577 0.50958,1.27341 0.4469,2.7949 -0.13918,3.38108 -0.58618,0.58617 -1.00311,-0.45571 -0.92652,-2.31531 z m -124.91201,-5.48559 c 1.71635,-0.44726 4.09781,-0.41783 5.29214,0.0654 1.19431,0.4832 -0.20999,0.84915 -3.12067,0.8132 -2.91067,-0.036 -3.88783,-0.43131 -2.17147,-0.87858 z m 195.80921,0 c 1.71635,-0.44726 4.09781,-0.41783 5.29214,0.0654 1.19431,0.4832 -0.20999,0.84915 -3.12067,0.8132 -2.91068,-0.036 -3.88783,-0.43131 -2.17147,-0.87858 z m -208.35359,-4.06966 c 0,-2.42556 0.40038,-3.41784 0.88975,-2.20506 0.48938,1.21279 0.48938,3.19734 0,4.41012 -0.48937,1.21278 -0.88975,0.22051 -0.88975,-2.20506 z m 24.82739,-1.76404 c 0,-3.39579 0.36302,-4.78498 0.80673,-3.08709 0.44371,1.6979 0.44371,4.47627 0,6.17417 -0.44371,1.69789 -0.80673,0.30871 -0.80673,-3.08708 z m 174.73592,-2.64607 c 0.0141,-4.85113 0.35583,-6.62633 0.76131,-3.94485 0.40547,2.68145 0.39463,6.65056 -0.024,8.82023 -0.41873,2.16965 -0.75048,-0.0242 -0.73723,-4.87538 z m 24.47065,4.41011 c 0,-2.42556 0.40038,-3.41784 0.88975,-2.20506 0.48938,1.21279 0.48938,3.19734 0,4.41012 -0.48937,1.21278 -0.88975,0.22051 -0.88975,-2.20506 z m -197.8518,-14.77841 c 0,-0.36632 1.38918,-1.75551 3.08708,-3.08708 2.79788,-2.19424 2.86028,-2.13185 0.66603,0.66604 -2.30449,2.93844 -3.75311,3.87291 -3.75311,2.42104 z m 169.1235,-2.42104 c -2.19425,-2.79789 -2.13185,-2.86028 0.66601,-0.66604 1.6979,1.33157 3.08709,2.72076 3.08709,3.08708 0,1.45187 -1.4486,0.5174 -3.7531,-2.42104 z M 185.4146,191.03998 c 0,-0.30359 2.57992,-2.88351 5.73315,-5.73315 l 5.73315,-5.18116 -5.18116,5.73315 c -4.82957,5.34409 -6.28514,6.544 -6.28514,5.18116 z m 145.42291,-5.18116 -5.18118,-5.73315 5.73315,5.18116 c 5.34411,4.82957 6.54402,6.28514 5.18119,6.28514 -0.3036,0 -2.88352,-2.57992 -5.73316,-5.73315 z M 65.737947,177.4796 c 0,-2.42557 0.400386,-3.41784 0.88975,-2.20506 0.489382,1.21278 0.489382,3.19733 0,4.41012 -0.489364,1.21278 -0.88975,0.2205 -0.88975,-2.20506 z m 73.429573,2.2255 c 5.12619,-0.35747 13.0644,-0.35371 17.64047,0.009 4.57604,0.36205 0.38186,0.65453 -9.3204,0.64995 -9.70226,-0.005 -13.44629,-0.30084 -8.32007,-0.65831 z m 227.56205,0 c 5.1262,-0.35747 13.06441,-0.35371 17.64047,0.009 4.57604,0.36205 0.38186,0.65453 -9.3204,0.64995 -9.70225,-0.005 -13.44628,-0.30084 -8.32007,-0.65831 z m 88.86275,-2.2255 c 0,-2.42557 0.40039,-3.41784 0.88975,-2.20506 0.48938,1.21278 0.48938,3.19733 0,4.41012 -0.48936,1.21278 -0.88975,0.2205 -0.88975,-2.20506 z m -311.95799,-13.66664 -25.02184,-0.54121 -2.11765,-9.46261 c -3.44566,-15.39685 -1.43777,-35.44882 4.90744,-49.0082 13.91425,-29.734066 37.6271,-40.692908 61.88989,-28.602253 10.96533,5.464259 14.25293,9.787814 20.67586,27.190943 4.094,11.09279 4.89506,16.08043 4.95817,30.87082 0.0416,9.75548 -0.9206,20.59733 -2.15271,24.25564 l -2.22798,6.61518 -17.94468,-0.38857 c -9.86956,-0.21369 -29.2045,-0.63209 -42.9665,-0.92974 z m 172.21752,-5.02997 c -1.32621,-3.94075 -2.28392,-14.42142 -2.2408,-24.52254 0.0632,-14.79039 0.86417,-19.77803 4.95817,-30.87082 6.42293,-17.403129 9.71053,-21.726684 20.67586,-27.190943 24.26279,-12.090655 47.97564,-1.131813 61.8899,28.602253 6.35399,13.57818 8.35352,33.60948 4.89674,49.05593 l -2.12832,9.51035 -15.30889,0.005 c -8.4199,0.004 -27.71039,0.52024 -42.86775,1.14893 l -27.55886,1.14303 z m -248.489128,0.0272 c 0.08467,-2.05501 0.502648,-2.47302 1.065785,-1.06577 0.50958,1.27342 0.446903,2.79491 -0.139184,3.38108 -0.586175,0.58618 -1.003107,-0.45571 -0.926512,-2.31531 z m 386.326278,0 c 0.0847,-2.05501 0.50265,-2.47302 1.06579,-1.06577 0.50958,1.27342 0.4469,2.79491 -0.13936,3.38108 -0.58618,0.58618 -1.00311,-0.45571 -0.92651,-2.31531 z M 247.43478,140.43461 c 0,-2.42556 0.40039,-3.41784 0.88975,-2.20505 0.48939,1.21278 0.48939,3.19733 0,4.41011 -0.48936,1.21278 -0.88975,0.22051 -0.88975,-2.20506 z m 26.32144,0.73501 c 0.0847,-2.05501 0.50265,-2.47302 1.06578,-1.06577 0.50958,1.27342 0.44691,2.79491 -0.13918,3.38108 -0.58618,0.58618 -1.00311,-0.45571 -0.92651,-2.31531 z m 0,-29.98879 c 0.0847,-2.05501 0.50265,-2.47302 1.06578,-1.06577 0.50958,1.27341 0.44691,2.7949 -0.13918,3.38108 -0.58618,0.58617 -1.00311,-0.45571 -0.92651,-2.31531 z M 106.03249,55.094335 c 0,-0.366322 1.38918,-1.755509 3.08708,-3.087082 2.79788,-2.194245 2.86028,-2.131851 0.66603,0.666033 -2.30449,2.938444 -3.75311,3.872912 -3.75311,2.421049 z m 306.71916,-2.421049 c -2.19425,-2.797884 -2.13185,-2.860278 0.66602,-0.666033 2.93846,2.304498 3.87293,3.753115 2.42106,3.753115 -0.36632,0 -1.75551,-1.389187 -3.08708,-3.087082 z M 218.70649,50.909239 c -2.19425,-2.797884 -2.13185,-2.860278 0.66601,-0.666033 2.93846,2.304498 3.87293,3.753115 2.42107,3.753115 -0.36632,0 -1.75551,-1.389187 -3.08708,-3.087082 z m 81.37116,2.421049 c 0,-0.366322 1.38919,-1.755509 3.08708,-3.087082 2.79789,-2.194245 2.86028,-2.131851 0.66604,0.666033 -2.3045,2.938444 -3.75312,3.872912 -3.75312,2.421049 z"
     id="path6" /><path
     style="fill:#007cba;stroke-width:1.76405"
     d="m 200.409,381.80966 c -3.8809,-2.01933 -7.33992,-3.92179 -7.68673,-4.22767 -0.34679,-0.30587 -0.0736,-6.10276 0.60731,-12.88198 l 1.23783,-12.32585 6.91289,-1.16792 c 8.90793,-1.50498 11.84807,-6.30788 7.71907,-12.60952 -2.39074,-3.64873 -4.02891,-4.33802 -8.94561,-3.76403 l -6.01893,0.70267 v -16.19485 -16.19485 l 6.61518,-4.88272 c 7.70663,-5.68835 11.02529,-9.45261 11.02529,-12.50563 0,-3.9988 -5.47465,-7.72704 -11.34658,-7.72704 -5.68248,0 -5.82544,-0.19147 -6.91485,-9.26124 -2.39866,-19.9699 -1.93369,-21.87955 6.53599,-26.84312 11.64313,-6.82333 14.48434,-10.58439 12.04317,-15.9422 -1.32664,-2.91163 -3.43801,-4.40294 -6.23356,-4.40294 -2.32509,0 -6.70813,-0.49614 -9.74008,-1.10253 -4.71752,-0.94352 -5.51265,-1.87287 -5.51265,-6.44336 0,-4.17414 2.21573,-7.51064 10.14327,-15.274 17.27905,-16.92119 25.03908,-36.90591 25.10704,-64.65926 0.0596,-24.35722 -11.25788,-55.204753 -24.15747,-65.844637 -15.34592,-12.657672 -42.05264,-16.941519 -58.93803,-9.453828 -17.37716,7.705745 -33.86594,28.209704 -40.76156,50.687375 -10.017748,32.65487 0.32673,73.30927 23.90673,93.95485 3.73244,3.26795 6.48647,7.30342 6.48647,9.50458 0,3.68416 -0.47864,3.78192 -12.97268,2.64974 -14.27618,-1.29367 -17.80539,0.40538 -16.71051,8.04486 0.77415,5.40175 7.46056,8.46298 18.5538,8.49447 5.03643,0.0141 9.68091,0.87352 10.32111,1.90935 0.64017,1.03583 0.60423,8.95517 -0.0799,17.59851 l -1.24381,15.71518 -10.87605,6.86885 c -14.34507,9.05974 -16.299,11.48717 -13.74987,17.08194 1.82092,3.99646 2.95531,4.35788 13.67844,4.35788 9.93762,0 11.53212,0.41886 10.6221,2.79034 -0.58891,1.5347 -1.07076,9.46405 -1.07076,17.62081 v 14.83049 l -12.34832,8.98141 c -9.09866,6.61781 -12.34833,10.04793 -12.34833,13.034 0,6.18699 4.10396,8.43465 14.14203,7.74536 l 8.95183,-0.6147 -0.52165,6.75652 c -0.51224,6.63505 -0.7513,6.84568 -13.29909,11.71715 l -12.77747,4.96066 -2.715914,-9.0711 C 93.970868,360.80364 87.122908,325.39952 84.521962,304.49098 80.853732,275.00276 81.402933,176.52809 85.375584,151.43389 93.786595,98.303654 111.4188,65.000146 137.7853,52.442919 c 8.23932,-3.924034 12.09619,-4.620762 25.57868,-4.620762 24.32723,0 39.48283,6.886998 52.09592,23.673457 19.19546,25.54675 21.8929,59.961356 8.65757,110.455646 l -5.53245,21.10702 2.21119,32.85894 c 2.56454,38.10957 1.38053,86.21271 -2.72656,110.77352 -3.35338,20.05347 -7.97616,38.97531 -9.49592,38.86842 -0.6097,-0.0429 -4.28386,-1.73016 -8.16476,-3.7495 z m 109.64194,-7.33518 c -8.95909,-35.66633 -11.91605,-84.96963 -8.30993,-138.55726 l 2.21119,-32.85894 -5.53247,-21.10702 c -13.23531,-50.49429 -10.53787,-84.908896 8.65759,-110.455646 12.61309,-16.786459 27.76867,-23.673457 52.0959,-23.673457 13.48251,0 17.33938,0.696728 25.57868,4.620762 26.36652,12.557227 43.9987,45.860735 52.40973,98.990971 3.97265,25.0942 4.52185,123.56887 0.85362,153.05709 -2.60094,20.90854 -9.44892,56.31266 -13.5262,69.9307 l -2.71591,9.0711 -12.77746,-4.96066 c -12.54778,-4.87147 -12.78684,-5.0821 -13.2991,-11.71715 l -0.52163,-6.75652 8.95183,0.6147 c 10.03807,0.68929 14.14201,-1.55837 14.14201,-7.74536 0,-2.98607 -3.24965,-6.41619 -12.34832,-13.034 l -12.34833,-8.98141 v -14.83049 c 0,-8.15676 -0.48183,-16.08611 -1.07074,-17.62081 -0.91004,-2.37148 0.68448,-2.79034 10.62208,-2.79034 10.72315,0 11.85754,-0.36142 13.67844,-4.35788 2.54915,-5.59477 0.59522,-8.0222 -13.74985,-17.08194 l -10.87607,-6.86885 -1.24381,-15.71518 c -0.6841,-8.64334 -0.72002,-16.56268 -0.0799,-17.59851 0.64019,-1.03583 5.28468,-1.89504 10.3211,-1.90935 11.09324,-0.0316 17.77964,-3.09272 18.5538,-8.49447 1.09486,-7.63948 -2.43433,-9.33853 -16.71051,-8.04486 -12.49404,1.13218 -12.9727,1.03442 -12.9727,-2.64974 0,-2.20116 2.75405,-6.23663 6.48647,-9.50458 23.58002,-20.64558 33.9245,-61.29998 23.90676,-93.95485 C 413.54156,87.012859 397.05279,66.5089 379.67564,58.803155 362.79025,51.315464 336.08353,55.599311 320.73761,68.256983 307.838,78.896867 296.52048,109.7444 296.58014,134.10162 c 0.0679,27.75335 7.82797,47.73807 25.10702,64.65926 7.92756,7.76336 10.14327,11.09986 10.14327,15.274 0,4.57049 -0.79512,5.49984 -5.51264,6.44336 -3.03196,0.60639 -7.41498,1.10253 -9.74006,1.10253 -2.79558,0 -4.90693,1.49131 -6.23356,4.40294 -2.44118,5.35781 0.40003,9.11887 12.04316,15.9422 8.46969,4.96357 8.93465,6.87322 6.53599,26.84312 l -1.11241,9.26124 h -6.74839 c -4.98469,0 -7.25123,0.9395 -8.67225,3.59472 -2.85076,5.32667 -0.81185,9.31093 8.00491,15.64266 l 7.90716,5.6785 v 16.2946 16.29461 l -6.01891,-0.70267 c -4.9167,-0.57399 -6.55486,0.11537 -8.94561,3.76403 -4.1167,6.28287 -1.18746,11.10477 7.65336,12.5984 6.73439,1.13778 6.86528,1.30748 7.94586,10.30221 1.89359,15.76215 1.79351,16.05791 -6.85605,20.26019 -4.39197,2.13379 -8.26456,3.87962 -8.60576,3.87962 -0.34122,0 -1.88217,-5.0232 -3.42435,-11.16266 z"
     id="path5" /><path
     style="fill:#5f5d5c;stroke-width:1.76405"
     d="m 159.42849,467.32486 c 1.71635,-0.44726 4.09782,-0.41784 5.29215,0.0654 1.19431,0.48321 -0.21,0.84916 -3.12067,0.81321 -2.91068,-0.036 -3.88784,-0.43131 -2.17148,-0.87858 z m 199.33731,0 c 1.71635,-0.44726 4.09781,-0.41784 5.29214,0.0654 1.19431,0.48321 -0.20999,0.84916 -3.12067,0.81321 -2.91068,-0.036 -3.88784,-0.43131 -2.17147,-0.87858 z m -146.00847,-5.83371 c 1.75609,-1.94045 3.5898,-3.52809 4.07491,-3.52809 0.48511,0 -0.55478,1.58764 -2.31087,3.52809 -1.75607,1.94045 -3.58978,3.5281 -4.07489,3.5281 -0.48511,0 0.55477,-1.58765 2.31085,-3.5281 z m 95.09093,-0.44101 -3.36049,-3.9691 3.9691,3.36047 c 3.72999,3.15803 4.77217,4.57774 3.36049,4.57774 -0.33474,0 -2.12084,-1.7861 -3.9691,-3.96911 z M 155.9004,460.26867 c 1.71635,-0.44726 4.09781,-0.41783 5.29214,0.0654 1.19431,0.48321 -0.20999,0.84916 -3.12067,0.81321 -2.91068,-0.036 -3.88783,-0.43131 -2.17147,-0.87858 z m 206.39349,0 c 1.71635,-0.44726 4.09781,-0.41783 5.29214,0.0654 1.19432,0.48321 -0.20999,0.84916 -3.12067,0.81321 -2.91067,-0.036 -3.88783,-0.43131 -2.17147,-0.87858 z m -161.00287,-8.26379 c 0,-0.36632 1.38919,-1.7555 3.08708,-3.08708 2.79789,-2.19424 2.86028,-2.13185 0.66604,0.66604 -2.3045,2.93844 -3.75312,3.87291 -3.75312,2.42104 z m 116.2021,-2.42104 c -2.19425,-2.79789 -2.13186,-2.86028 0.66601,-0.66604 1.6979,1.33158 3.08708,2.72076 3.08708,3.08708 0,1.45187 -1.4486,0.5174 -3.75309,-2.42104 z M 186.29662,433.2664 c 1.75609,-1.94045 3.5898,-3.52809 4.07492,-3.52809 0.48511,0 -0.55478,1.58764 -2.31087,3.52809 -1.75607,1.94045 -3.58978,3.5281 -4.0749,3.5281 -0.48511,0 0.55478,-1.58765 2.31085,-3.5281 z m 148.01234,-0.44101 -3.36049,-3.96911 3.96911,3.36048 c 3.72999,3.15803 4.77217,4.57774 3.36049,4.57774 -0.33475,0 -2.12084,-1.7861 -3.96911,-3.96911 z m 55.73508,3.41712 c 0,-0.30359 2.57992,-2.88351 5.73316,-5.73315 l 5.73315,-5.18117 -5.18117,5.73315 c -4.82957,5.3441 -6.28514,6.544 -6.28514,5.18117 z m -263.89261,-5.18117 -3.3605,-3.9691 3.96911,3.36047 c 3.72999,3.15803 4.77217,4.57774 3.36049,4.57774 -0.33474,0 -2.12084,-1.7861 -3.9691,-3.96911 z m 24.42324,-44.87617 c 1.6979,-0.44371 4.47627,-0.44371 6.17417,0 1.69789,0.44371 0.3087,0.80674 -3.08709,0.80674 -3.39579,0 -4.78497,-0.36303 -3.08708,-0.80674 z m 215.21373,0 c 1.69789,-0.44371 4.47627,-0.44371 6.17416,0 1.6979,0.44371 0.30871,0.80674 -3.08708,0.80674 -3.39579,0 -4.78498,-0.36303 -3.08708,-0.80674 z M 252.58765,356.38335 c 0.0847,-2.05501 0.50265,-2.47302 1.06579,-1.06577 0.50958,1.27341 0.4469,2.7949 -0.13918,3.38108 -0.58618,0.58617 -1.00311,-0.45571 -0.92652,-2.31531 z m 15.87643,0 c 0.0847,-2.05501 0.50264,-2.47302 1.06578,-1.06577 0.50958,1.27341 0.4469,2.7949 -0.13918,3.38108 -0.58618,0.58617 -1.00311,-0.45571 -0.92652,-2.31531 z m -120.42523,-0.17606 c 1.27344,-0.50958 2.79493,-0.4469 3.3811,0.13936 0.58618,0.58618 -0.45571,1.00311 -2.31531,0.92652 -2.05501,-0.0847 -2.47302,-0.50265 -1.06579,-1.06579 z m 224.03397,0 c 1.27343,-0.50958 2.79492,-0.4469 3.38109,0.13936 0.58618,0.58618 -0.45571,1.00311 -2.31531,0.92652 -2.05501,-0.0847 -2.47302,-0.50265 -1.06578,-1.06579 z M 238.94074,333.59772 c 0.007,-7.76181 0.31656,-10.71767 0.6892,-6.56856 0.37265,4.14911 0.36739,10.49968 -0.0123,14.11238 -0.37906,3.6127 -0.68396,0.21798 -0.67756,-7.54382 z m 44.10117,0 c 0.007,-7.76181 0.31656,-10.71767 0.6892,-6.56856 0.37265,4.14911 0.3674,10.49968 -0.0124,14.11238 -0.37906,3.6127 -0.68396,0.21798 -0.67755,-7.54382 z m -215.679188,1.61703 c 0.08467,-2.05501 0.502648,-2.47302 1.065785,-1.06577 0.50958,1.27341 0.446903,2.7949 -0.139184,3.38108 -0.586175,0.58617 -1.003107,-0.45571 -0.926512,-2.31531 z m 386.326278,0 c 0.0847,-2.05501 0.50265,-2.47302 1.06579,-1.06577 0.50958,1.27341 0.4469,2.7949 -0.13936,3.38108 -0.58618,0.58617 -1.00311,-0.45571 -0.92651,-2.31531 z M 178.92305,325.6595 c 0,-6.30646 0.32015,-8.88638 0.71147,-5.73315 0.39132,3.15324 0.39132,8.31307 0,11.46631 -0.39132,3.15323 -0.71147,0.57331 -0.71147,-5.73316 z m 164.05636,0 c 0,-6.30646 0.32016,-8.88638 0.71148,-5.73315 0.39132,3.15324 0.39132,8.31307 0,11.46631 -0.39132,3.15323 -0.71148,0.57331 -0.71148,-5.73316 z M 51.4863,326.39451 c 0.08467,-2.05501 0.502648,-2.47302 1.065784,-1.06576 0.509581,1.27341 0.446904,2.7949 -0.139183,3.38107 -0.586175,0.58618 -1.003108,-0.4557 -0.926513,-2.31531 z m 418.07913,0 c 0.0847,-2.05501 0.50264,-2.47302 1.06578,-1.06576 0.50958,1.27341 0.4469,2.7949 -0.13936,3.38107 -0.58617,0.58618 -1.00311,-0.4557 -0.92651,-2.31531 z M 65.868681,313.31118 c 0,-3.39579 0.363023,-4.78498 0.806733,-3.08709 0.443711,1.6979 0.443711,4.47627 0,6.17417 -0.44371,1.69789 -0.806733,0.30871 -0.806733,-3.08708 z m 389.854379,0 c 0,-3.39579 0.36302,-4.78498 0.80673,-3.08709 0.44371,1.6979 0.44371,4.47627 0,6.17417 -0.44371,1.69789 -0.80673,0.30871 -0.80673,-3.08708 z m -219.01183,0.735 c 0.0847,-2.05501 0.50265,-2.47301 1.06579,-1.06576 0.50958,1.27341 0.4469,2.7949 -0.13919,3.38108 -0.58617,0.58617 -1.0031,-0.45571 -0.92651,-2.31532 z m 47.62927,0 c 0.0847,-2.05501 0.50265,-2.47301 1.06578,-1.06576 0.50958,1.27341 0.44691,2.7949 -0.13918,3.38108 -0.58618,0.58617 -1.00311,-0.45571 -0.92651,-2.31532 z M 69.126769,312.28214 c 0.08467,-2.05501 0.502648,-2.47302 1.065785,-1.06577 0.50958,1.27341 0.446903,2.7949 -0.139184,3.38108 -0.586175,0.58617 -1.003107,-0.45571 -0.926512,-2.31531 z m 382.798191,0 c 0.0847,-2.05501 0.50265,-2.47302 1.06578,-1.06577 0.50958,1.27341 0.44691,2.7949 -0.13936,3.38108 -0.58617,0.58617 -1.00311,-0.45571 -0.92651,-2.31531 z m -199.33731,-1.76405 c 0.0847,-2.05501 0.50265,-2.47302 1.06579,-1.06577 0.50958,1.27342 0.4469,2.79491 -0.13918,3.38108 -0.58618,0.58618 -1.00311,-0.45571 -0.92652,-2.31531 z m 15.87643,0 c 0.0847,-2.05501 0.50264,-2.47302 1.06578,-1.06577 0.50958,1.27342 0.4469,2.79491 -0.13918,3.38108 -0.58618,0.58618 -1.00311,-0.45571 -0.92652,-2.31531 z M 145.56813,297.43475 c 0.12278,-1.76313 2.23971,-2.72291 6.34403,-2.87631 5.96239,-0.22287 5.97955,-0.20542 0.53597,0.54461 -3.09308,0.42618 -5.94789,1.72051 -6.34403,2.87632 -0.39615,1.1558 -0.63733,0.91072 -0.53597,-0.54462 z m 230.36354,1.28779 c 0,-1.86893 -1.9447,-3.06965 -5.73315,-3.53979 l -5.73316,-0.71147 5.78853,-0.28232 c 5.50028,-0.26826 9.55852,3.48115 6.77773,6.26194 -0.60496,0.60498 -1.09995,-0.17287 -1.09995,-1.72836 z M 67.362722,296.40571 c 0.08467,-2.055 0.502648,-2.47301 1.065785,-1.06576 0.50958,1.27341 0.446903,2.7949 -0.139184,3.38108 -0.586175,0.58617 -1.003107,-0.45571 -0.926512,-2.31532 z m 386.326278,0 c 0.0847,-2.055 0.50265,-2.47301 1.06579,-1.06576 0.50958,1.27341 0.4469,2.7949 -0.13936,3.38108 -0.58618,0.58617 -1.00311,-0.45571 -0.92651,-2.31532 z M 65.598675,285.82143 c 0.08468,-2.05501 0.502648,-2.47301 1.065785,-1.06576 0.50958,1.27341 0.446903,2.7949 -0.139184,3.38107 -0.586175,0.58618 -1.003107,-0.4557 -0.926512,-2.31531 z m 389.854375,0 c 0.0847,-2.05501 0.50265,-2.47301 1.06579,-1.06576 0.50958,1.27341 0.4469,2.7949 -0.13936,3.38107 -0.58618,0.58618 -1.00311,-0.4557 -0.92652,-2.31531 z m 14.11238,-17.64047 c 0.0847,-2.05501 0.50264,-2.47301 1.06578,-1.06576 0.50958,1.27341 0.4469,2.7949 -0.13936,3.38107 -0.58617,0.58618 -1.00311,-0.4557 -0.92651,-2.31531 z m -292.62716,-5.14512 c 0.036,-2.91068 0.43131,-3.88786 0.87856,-2.17149 0.44728,1.71636 0.41785,4.09783 -0.0653,5.29214 -0.48321,1.19431 -0.84916,-0.20997 -0.81321,-3.12065 z m 167.58445,0 c 0.036,-2.91068 0.43131,-3.88786 0.87857,-2.17149 0.44727,1.71636 0.41785,4.09783 -0.0653,5.29214 -0.48321,1.19431 -0.84916,-0.20997 -0.81321,-3.12065 z M 147.05044,247.15942 c 0.0196,-3.88091 0.38082,-5.26085 0.80277,-3.06654 0.42196,2.19434 0.40594,5.36962 -0.0356,7.05619 -0.44152,1.68659 -0.78674,-0.10884 -0.76716,-3.98965 z m 227.56206,0 c 0.0196,-3.88091 0.38082,-5.26085 0.80276,-3.06654 0.42196,2.19434 0.40594,5.36962 -0.0356,7.05619 -0.44153,1.68659 -0.78675,-0.10884 -0.76717,-3.98965 z M 166.48468,234.47063 c 1.71635,-0.44726 4.09781,-0.41784 5.29214,0.0654 1.19432,0.48321 -0.20999,0.84916 -3.12067,0.81321 -2.91067,-0.036 -3.88783,-0.43131 -2.17147,-0.87858 z m 185.22493,0 c 1.71635,-0.44726 4.09781,-0.41784 5.29214,0.0654 1.19431,0.48321 -0.20999,0.84916 -3.12067,0.81321 -2.91068,-0.036 -3.88783,-0.43131 -2.17147,-0.87858 z m -116.76243,-5.0987 c 0.0847,-2.05501 0.50265,-2.47302 1.06579,-1.06577 0.50958,1.27342 0.4469,2.79491 -0.13918,3.38108 -0.58618,0.58618 -1.00311,-0.4557 -0.92652,-2.31531 z m 51.15737,0 c 0.0847,-2.05501 0.50264,-2.47302 1.06578,-1.06577 0.50958,1.27342 0.4469,2.79491 -0.13918,3.38108 -0.58618,0.58618 -1.00311,-0.4557 -0.92652,-2.31531 z M 152.37231,218.5942 c 1.71634,-0.44725 4.09781,-0.41783 5.29214,0.0654 1.19431,0.48321 -0.20999,0.84916 -3.12067,0.81321 -2.91068,-0.036 -3.88784,-0.43131 -2.17147,-0.87859 z m 213.44968,0 c 1.71634,-0.44725 4.09781,-0.41783 5.29214,0.0654 1.19431,0.48321 -0.21,0.84916 -3.12067,0.81321 -2.91068,-0.036 -3.88784,-0.43131 -2.17147,-0.87859 z m -132.49958,-9.36179 c 0,-2.42557 0.40039,-3.41784 0.88975,-2.20506 0.48938,1.21278 0.48938,3.19733 0,4.41012 -0.48936,1.21278 -0.88975,0.2205 -0.88975,-2.20506 z m 54.54618,0.735 c 0.0847,-2.055 0.50265,-2.47301 1.06579,-1.06576 0.50958,1.27341 0.4469,2.7949 -0.13919,3.38108 -0.58617,0.58617 -1.0031,-0.45571 -0.92651,-2.31532 z m -139.15508,-3.38107 c 0.036,-2.91068 0.43131,-3.88786 0.87857,-2.17149 0.44727,1.71636 0.41785,4.09783 -0.0653,5.29214 -0.48321,1.19431 -0.84916,-0.20998 -0.81321,-3.12065 z m 224.03397,0 c 0.036,-2.91068 0.4313,-3.88786 0.87856,-2.17149 0.44728,1.71636 0.41785,4.09783 -0.0653,5.29214 -0.48321,1.19431 -0.84916,-0.20998 -0.81321,-3.12065 z m -239.53987,-17.19946 -3.36049,-3.96911 3.96911,3.36048 c 3.72999,3.15803 4.77217,4.57773 3.36049,4.57773 -0.33475,0 -2.12084,-1.78609 -3.96911,-3.9691 z m 254.19036,0.44101 c 1.75609,-1.94045 3.5898,-3.52809 4.07492,-3.52809 0.48511,0 -0.55478,1.58764 -2.31087,3.52809 -1.75607,1.94045 -3.58978,3.52809 -4.0749,3.52809 -0.48511,0 0.55478,-1.58764 2.31085,-3.52809 z M 65.737947,184.53575 c 0,-2.42556 0.400386,-3.41784 0.88975,-2.20506 0.489382,1.21278 0.489382,3.19734 0,4.41012 -0.489364,1.21278 -0.88975,0.2205 -0.88975,-2.20506 z m 389.854373,0 c 0,-2.42556 0.40039,-3.41784 0.88975,-2.20506 0.48938,1.21278 0.48938,3.19734 0,4.41012 -0.48936,1.21278 -0.88975,0.2205 -0.88975,-2.20506 z m -287.37718,-4.79161 c 2.66812,-0.40418 7.03414,-0.40418 9.70226,0 2.66812,0.4042 0.48511,0.73488 -4.85113,0.73488 -5.33624,0 -7.51925,-0.33068 -4.85113,-0.73488 z m 176.40469,0 c 2.66813,-0.40418 7.03414,-0.40418 9.70226,0 2.66812,0.4042 0.48512,0.73488 -4.85113,0.73488 -5.33624,0 -7.51925,-0.33068 -4.85113,-0.73488 z M 199.52697,165.67422 c 2.42557,-0.49426 5.06592,-1.81093 5.86745,-2.9259 0.97418,-1.35512 1.2215,-1.14994 0.746,0.61887 -0.4013,1.49275 -2.95868,2.76803 -5.86747,2.9259 -4.4404,0.24098 -4.54395,0.15506 -0.74598,-0.61887 z m 117.60314,0.045 c -0.64682,-0.64683 -1.16388,-2.03601 -1.14901,-3.08708 0.018,-1.27037 0.46151,-1.23143 1.32303,0.11625 0.7128,1.11496 3.28057,2.39605 5.70613,2.84685 l 4.41012,0.81963 -4.55712,0.24023 c -2.50641,0.13212 -5.08633,-0.28897 -5.73315,-0.93579 z m -177.0753,-1.89355 c 5.61422,-0.35113 14.34626,-0.34789 19.40452,0.007 5.05825,0.35512 0.46479,0.64241 -10.20769,0.63842 -10.67249,-0.004 -14.81106,-0.29452 -9.19683,-0.64565 z m 224.03396,0 c 5.61422,-0.35113 14.34626,-0.34789 19.40452,0.007 5.05825,0.35512 0.46479,0.64241 -10.20769,0.63842 -10.67249,-0.004 -14.81106,-0.29452 -9.19683,-0.64565 z M 208.62575,145.72668 c 0,-2.42556 0.40039,-3.41784 0.88975,-2.20506 0.48938,1.21279 0.48938,3.19734 0,4.41012 -0.48936,1.21278 -0.88975,0.22051 -0.88975,-2.20506 z m 104.07877,0 c 0,-2.42556 0.40039,-3.41784 0.88975,-2.20506 0.48938,1.21279 0.48938,3.19734 0,4.41012 -0.48936,1.21278 -0.88975,0.22051 -0.88975,-2.20506 z m -199.13537,-8.82023 c 0,-4.36602 0.34401,-6.15211 0.76448,-3.9691 0.42046,2.183 0.42046,5.75519 0,7.9382 -0.42047,2.18301 -0.76448,0.39691 -0.76448,-3.9691 z m 294.59584,0 c 0,-4.36602 0.344,-6.15211 0.76448,-3.9691 0.42046,2.183 0.42046,5.75519 0,7.9382 -0.42048,2.18301 -0.76448,0.39691 -0.76448,-3.9691 z M 274.21004,126.32217 c 0,-7.27669 0.31139,-10.25352 0.69196,-6.61518 0.38059,3.63835 0.38059,9.59201 0,13.23036 -0.38057,3.63834 -0.69196,0.66151 -0.69196,-6.61518 z m -26.47494,-0.88202 c 0.007,-6.79159 0.32668,-9.35381 0.70854,-5.69382 0.38188,3.65999 0.37548,9.21674 -0.0141,12.34833 -0.38971,3.13159 -0.70214,0.13707 -0.69433,-6.65451 z m -39.10935,-2.64607 c 0,-2.42557 0.40039,-3.41785 0.88975,-2.20506 0.48938,1.21278 0.48938,3.19733 0,4.41011 -0.48936,1.21279 -0.88975,0.22051 -0.88975,-2.20505 z m 104.07877,0 c 0,-2.42557 0.40039,-3.41785 0.88975,-2.20506 0.48938,1.21278 0.48938,3.19733 0,4.41011 -0.48936,1.21279 -0.88975,0.22051 -0.88975,-2.20505 z M 134.25724,83.103025 c 2.27871,-2.425564 4.54,-4.410117 5.02512,-4.410117 0.48511,0 -0.98237,1.984553 -3.26107,4.410117 -2.27869,2.425565 -4.53999,4.410118 -5.0251,4.410118 -0.48512,0 0.98236,-1.984553 3.26105,-4.410118 z m 252.12521,-0.441012 -4.27662,-4.851129 4.85113,4.276597 c 2.66812,2.352127 4.85113,4.535135 4.85113,4.851129 0,1.383489 -1.42852,0.257498 -5.42564,-4.276597 z M 161.19254,70.414236 c 1.71635,-0.447257 4.09781,-0.417833 5.29214,0.06545 1.19431,0.483208 -0.20999,0.849159 -3.12067,0.813208 -2.91067,-0.03599 -3.88783,-0.43131 -2.17147,-0.878584 z m 195.80921,0 c 1.71635,-0.447257 4.09781,-0.417833 5.29214,0.06545 1.19431,0.483208 -0.20999,0.849159 -3.12067,0.813208 -2.91068,-0.03599 -3.88783,-0.43131 -2.17147,-0.878584 z"
     id="path4" /><path
     style="fill:#004a70;stroke-width:1.76405"
     d="m 192.74933,360.94048 c 0,-2.42557 0.40039,-3.41784 0.88975,-2.20506 0.48938,1.21278 0.48938,3.19733 0,4.41012 -0.48936,1.21278 -0.88975,0.2205 -0.88975,-2.20506 z m 135.83161,0 c 0,-2.42557 0.40039,-3.41784 0.88975,-2.20506 0.48939,1.21278 0.48939,3.19733 0,4.41012 -0.48936,1.21278 -0.88975,0.2205 -0.88975,-2.20506 z m -207.00279,-1.20506 c 1.27343,-0.50958 2.79492,-0.4469 3.3811,0.13936 0.58617,0.58618 -0.45571,1.00311 -2.31531,0.92651 -2.05501,-0.0847 -2.47302,-0.50264 -1.06579,-1.06578 z m 276.95537,0 c 1.27343,-0.50958 2.79492,-0.4469 3.3811,0.13936 0.58617,0.58618 -0.45571,1.00311 -2.31532,0.92651 -2.05501,-0.0847 -2.47301,-0.50264 -1.06578,-1.06578 z M 104.26844,349.69016 c 0,-0.36632 1.38919,-1.75551 3.08708,-3.08708 2.79789,-2.19424 2.86028,-2.13185 0.66604,0.66603 -2.3045,2.93845 -3.75312,3.87292 -3.75312,2.42105 z m 310.24726,-2.42105 c -2.19425,-2.79788 -2.13185,-2.86027 0.66601,-0.66603 2.93846,2.3045 3.87293,3.75312 2.42107,3.75312 -0.36632,0 -1.75551,-1.38919 -3.08708,-3.08709 z M 220.97408,318.60335 c 0,-2.42556 0.40039,-3.41784 0.88975,-2.20506 0.48938,1.21279 0.48938,3.19734 0,4.41012 -0.48936,1.21278 -0.88975,0.22051 -0.88975,-2.20506 z m 79.38211,0 c 0,-2.42556 0.40039,-3.41784 0.88975,-2.20506 0.48938,1.21279 0.48938,3.19734 0,4.41012 -0.48936,1.21278 -0.88975,0.22051 -0.88975,-2.20506 z M 129.40997,305.373 c 0.0196,-3.8809 0.38082,-5.26085 0.80277,-3.06653 0.42196,2.19433 0.40594,5.36962 -0.0356,7.05619 -0.44152,1.68658 -0.78674,-0.10867 -0.76716,-3.98966 z m 262.843,0 c 0.0196,-3.8809 0.38082,-5.26085 0.80276,-3.06653 0.42196,2.19433 0.40594,5.36962 -0.0356,7.05619 -0.44153,1.68658 -0.78675,-0.10867 -0.76717,-3.98966 z M 83.239145,299.93384 c 0.08467,-2.05501 0.502647,-2.47301 1.065784,-1.06576 0.50958,1.27341 0.446904,2.7949 -0.139183,3.38107 -0.586175,0.58618 -1.003108,-0.4557 -0.926513,-2.31531 z m 354.573435,0 c 0.0847,-2.05501 0.50265,-2.47301 1.06579,-1.06576 0.50958,1.27341 0.4469,2.7949 -0.13936,3.38107 -0.58618,0.58618 -1.00311,-0.4557 -0.92652,-2.31531 z M 104.40771,287.58551 c 0.0847,-2.055 0.50265,-2.47301 1.06579,-1.06576 0.50958,1.27341 0.4469,2.7949 -0.13919,3.38108 -0.58617,0.58617 -1.00311,-0.45571 -0.92651,-2.31532 z m 312.23631,0 c 0.0847,-2.055 0.50265,-2.47301 1.06578,-1.06576 0.50958,1.27341 0.44691,2.7949 -0.13936,3.38108 -0.58617,0.58617 -1.0031,-0.45571 -0.92651,-2.31532 z M 81.614369,279.79432 c 0,-2.42557 0.400386,-3.41784 0.88975,-2.20506 0.489382,1.21278 0.489382,3.19734 0,4.41012 -0.489364,1.21278 -0.88975,0.2205 -0.88975,-2.20506 z m 358.101531,0 c 0,-2.42557 0.40039,-3.41784 0.88975,-2.20506 0.48938,1.21278 0.48938,3.19734 0,4.41012 -0.48936,1.21278 -0.88975,0.2205 -0.88975,-2.20506 z m -246.83584,-8.82024 c 0,-3.39579 0.36303,-4.78497 0.80674,-3.08708 0.44371,1.6979 0.44371,4.47627 0,6.17417 -0.44371,1.69789 -0.80674,0.3087 -0.80674,-3.08709 z m 135.83162,0 c 0,-3.39579 0.36302,-4.78497 0.80673,-3.08708 0.44371,1.6979 0.44371,4.47627 0,6.17417 -0.44371,1.69789 -0.80673,0.3087 -0.80673,-3.08709 z M 131.17402,257.74373 c 0.0196,-3.8809 0.38082,-5.26084 0.80276,-3.06653 0.42196,2.19433 0.40595,5.36962 -0.0356,7.05619 -0.44152,1.68659 -0.78675,-0.10884 -0.76717,-3.98966 z m 259.3149,0 c 0.0196,-3.8809 0.38082,-5.26084 0.80276,-3.06653 0.42196,2.19433 0.40595,5.36962 -0.0356,7.05619 -0.44152,1.68659 -0.78675,-0.10884 -0.76717,-3.98966 z m -169.51484,-14.9944 c 0,-2.42556 0.40039,-3.41784 0.88975,-2.20506 0.48938,1.21279 0.48938,3.19734 0,4.41012 -0.48936,1.21278 -0.88975,0.22051 -0.88975,-2.20506 z m 79.38211,0 c 0,-2.42556 0.40039,-3.41784 0.88975,-2.20506 0.48938,1.21279 0.48938,3.19734 0,4.41012 -0.48936,1.21278 -0.88975,0.22051 -0.88975,-2.20506 z M 112.75792,230.96 c 1.27343,-0.50958 2.79492,-0.44691 3.38109,0.13918 0.58618,0.58617 -0.4557,1.00311 -2.31531,0.92651 -2.05501,-0.0847 -2.47302,-0.50265 -1.06578,-1.06578 z m 99.25665,-1.58803 c 0.0847,-2.05501 0.50265,-2.47302 1.06579,-1.06577 0.50958,1.27341 0.4469,2.7949 -0.13918,3.38108 -0.58618,0.58617 -1.00311,-0.45571 -0.92652,-2.31531 z m 97.02259,0 c 0.0847,-2.05501 0.50264,-2.47302 1.06578,-1.06577 0.50958,1.27341 0.4469,2.7949 -0.13936,3.38108 -0.58617,0.58617 -1.00311,-0.45571 -0.92651,-2.31531 z m 98.31659,1.58803 c 1.27343,-0.50958 2.79492,-0.44691 3.3811,0.13918 0.58618,0.58617 -0.45571,1.00311 -2.31531,0.92651 -2.05501,-0.0847 -2.47302,-0.50265 -1.06579,-1.06578 z M 192.02978,220.41246 c 1.21278,-0.48936 3.19733,-0.48936 4.41011,0 1.21278,0.48938 0.22051,0.88977 -2.20506,0.88977 -2.42556,0 -3.41784,-0.40039 -2.20505,-0.88977 z m 134.06756,0 c 1.21278,-0.48936 3.19734,-0.48936 4.41012,0 1.21278,0.48938 0.22051,0.88977 -2.20506,0.88977 -2.42556,0 -3.41784,-0.40039 -2.20506,-0.88977 z M 132.18362,213.3353 c 0.75277,-3.69208 1.19636,-4.13567 1.71042,-1.71042 0.38174,1.80095 -0.0757,4.04415 -1.01636,4.98488 -1.10454,1.10452 -1.35039,-0.0554 -0.69406,-3.27446 z m 256.75664,2.12948 c -0.54618,-1.42332 -0.65263,-3.60632 -0.23654,-4.85112 0.41609,-1.24479 1.1747,-0.0803 1.68581,2.58789 0.99799,5.20962 0.17464,6.49529 -1.44927,2.26323 z m -199.99757,-4.36419 c 0,-1.8832 0.67916,-3.84372 1.50923,-4.35674 0.83008,-0.513 1.13444,1.02778 0.67637,3.424 -0.99495,5.20475 -2.1856,5.71288 -2.1856,0.93274 z m 142.57823,-0.67888 c -0.65633,-3.21907 -0.41047,-4.37898 0.69407,-3.27446 0.94073,0.94073 1.39809,3.18395 1.01635,4.9849 -0.51406,2.42523 -0.95765,1.98164 -1.71042,-1.71044 z m -129.34787,-13.5376 c 1.75609,-1.94045 3.5898,-3.52809 4.07491,-3.52809 0.48511,0 -0.55478,1.58764 -2.31087,3.52809 -1.75607,1.94046 -3.58978,3.5281 -4.07489,3.5281 -0.48512,0 0.55477,-1.58764 2.31085,-3.5281 z m 116.25949,-0.44101 -3.36049,-3.9691 3.9691,3.36047 c 3.72999,3.15803 4.77217,4.57774 3.3605,4.57774 -0.33475,0 -2.12085,-1.7861 -3.96911,-3.96911 z M 81.475098,179.97865 c 0.08467,-2.05501 0.502647,-2.47302 1.065784,-1.06576 0.50958,1.27341 0.446904,2.7949 -0.139183,3.38107 -0.586175,0.58618 -1.003108,-0.4557 -0.926513,-2.31531 z m 358.101532,0 c 0.0847,-2.05501 0.50265,-2.47302 1.06578,-1.06576 0.50958,1.27341 0.44691,2.7949 -0.13936,3.38107 -0.58617,0.58618 -1.0031,-0.4557 -0.92651,-2.31531 z M 97.692726,136.90652 c 0,-4.36601 0.344,-6.15211 0.76448,-3.9691 0.42046,2.183 0.42046,5.7552 0,7.9382 -0.42048,2.18301 -0.76448,0.39691 -0.76448,-3.9691 z m 133.865634,3.52809 c 0,-2.42556 0.40039,-3.41784 0.88975,-2.20505 0.48938,1.21278 0.48938,3.19733 0,4.41011 -0.48936,1.21278 -0.88975,0.22051 -0.88975,-2.20506 z m 58.21355,0 c 0,-2.42556 0.40039,-3.41784 0.88975,-2.20505 0.48938,1.21278 0.48938,3.19733 0,4.41011 -0.48936,1.21278 -0.88975,0.22051 -0.88975,-2.20506 z m 134.2695,-3.52809 c 0,-4.36601 0.34401,-6.15211 0.76448,-3.9691 0.42046,2.183 0.42046,5.7552 0,7.9382 -0.42047,2.18301 -0.76448,0.39691 -0.76448,-3.9691 z M 224.3629,121.76511 c 0.0847,-2.05501 0.50265,-2.47302 1.06579,-1.06577 0.50958,1.27341 0.4469,2.7949 -0.13919,3.38108 -0.58617,0.58617 -1.0031,-0.45571 -0.92651,-2.31531 z m 72.32593,0 c 0.0847,-2.05501 0.50265,-2.47302 1.06578,-1.06577 0.50958,1.27341 0.44691,2.7949 -0.13918,3.38108 -0.58618,0.58617 -1.00311,-0.45571 -0.92651,-2.31531 z m -65.26974,-8.82024 c 0.0847,-2.05501 0.50265,-2.47302 1.06579,-1.06576 0.50958,1.27341 0.4469,2.7949 -0.13919,3.38107 -0.58617,0.58618 -1.00311,-0.4557 -0.92651,-2.31531 z m 58.21355,0 c 0.0847,-2.05501 0.50265,-2.47302 1.06578,-1.06576 0.50958,1.27341 0.44691,2.7949 -0.13918,3.38107 -0.58617,0.58618 -1.00311,-0.4557 -0.92651,-2.31531 z M 201.06602,68.549709 c -2.19425,-2.797885 -2.13185,-2.860279 0.66601,-0.666034 2.93846,2.304498 3.87293,3.753116 2.42107,3.753116 -0.36632,0 -1.75551,-1.389187 -3.08708,-3.087082 z m 116.6521,2.421048 c 0,-0.366322 1.38919,-1.755509 3.08708,-3.087082 2.79789,-2.194245 2.86028,-2.131851 0.66603,0.666034 -2.30449,2.938443 -3.75311,3.872912 -3.75311,2.421048 z M 120.14486,63.914569 c 0,-0.366322 1.38919,-1.755509 3.08709,-3.087082 2.79788,-2.194245 2.86027,-2.13185 0.66603,0.666034 -2.3045,2.938443 -3.75312,3.872912 -3.75312,2.421048 z m 278.49441,-2.421048 c -2.19424,-2.797884 -2.13185,-2.860279 0.66602,-0.666034 2.93846,2.304498 3.87293,3.753116 2.42107,3.753116 -0.36633,0 -1.75551,-1.389187 -3.08709,-3.087082 z M 161.19254,54.537884 c 1.71635,-0.447257 4.09781,-0.417832 5.29214,0.06545 1.19431,0.483208 -0.20999,0.849159 -3.12067,0.813208 -2.91067,-0.03599 -3.88783,-0.43131 -2.17147,-0.878584 z m 195.80921,0 c 1.71635,-0.447257 4.09781,-0.417832 5.29214,0.06545 1.19431,0.483208 -0.20999,0.849159 -3.12067,0.813208 -2.91068,-0.03599 -3.88783,-0.43131 -2.17147,-0.878584 z"
     id="path3" /><path
     style="fill:#00334e;stroke-width:1.76405"
     d="m 194.23483,446.71274 c 0,-0.36632 1.38919,-1.7555 3.08709,-3.08708 2.79788,-2.19424 2.86027,-2.13185 0.66603,0.66604 -2.3045,2.93844 -3.75312,3.87291 -3.75312,2.42104 z M 324.5493,444.2917 c -2.19424,-2.79789 -2.13185,-2.86028 0.66602,-0.66604 1.69789,1.33158 3.08708,2.72076 3.08708,3.08708 0,1.45187 -1.4486,0.5174 -3.7531,-2.42104 z m -208.98216,-2.64607 -3.36049,-3.96911 3.96911,3.36047 c 3.72999,3.15804 4.77217,4.57774 3.36049,4.57774 -0.33475,0 -2.12084,-1.7861 -3.96911,-3.9691 z m 286.82523,3.30307 c 0,-0.36632 1.38919,-1.75551 3.08708,-3.08708 2.79789,-2.19425 2.86028,-2.13186 0.66604,0.66603 -2.3045,2.93844 -3.75312,3.87291 -3.75312,2.42105 z M 116.28601,359.73542 c 1.27343,-0.50958 2.79492,-0.4469 3.3811,0.13936 0.58617,0.58618 -0.45571,1.00311 -2.31532,0.92651 -2.055,-0.0847 -2.47301,-0.50264 -1.06578,-1.06578 z m 76.65691,-4.82294 c 0.22544,-1.86004 1.60062,-3.70658 3.05596,-4.1034 1.70192,-0.46405 1.95367,-0.20149 0.70553,0.73584 -1.0673,0.80154 -2.4425,2.64808 -3.05598,4.10342 -0.78373,1.85921 -0.99353,1.6404 -0.70551,-0.73586 z m 135.35948,0.29485 c 0,-1.53621 -0.99228,-3.19348 -2.20506,-3.68284 -1.72711,-0.6969 -1.71509,-0.91995 0.0554,-1.02904 2.51541,-0.15506 4.97056,4.68407 3.24964,6.40499 -0.60496,0.60498 -1.09995,-0.157 -1.09995,-1.69311 z M 200.96026,335.03877 c 1.27343,-0.50958 2.79492,-0.44691 3.3811,0.13935 0.58617,0.58618 -0.45571,1.00311 -2.31531,0.92652 -2.05501,-0.0847 -2.47302,-0.50265 -1.06579,-1.06579 z m 118.19115,0 c 1.27343,-0.50958 2.79492,-0.44691 3.38109,0.13935 0.58618,0.58618 -0.4557,1.00311 -2.31531,0.92652 -2.05501,-0.0847 -2.47302,-0.50265 -1.06578,-1.06579 z m -98.3166,-10.40827 c 0.0847,-2.05501 0.50265,-2.47302 1.06578,-1.06577 0.50958,1.27342 0.44691,2.79491 -0.13918,3.38108 -0.58617,0.58618 -1.00311,-0.4557 -0.92651,-2.31531 z m 79.38211,0 c 0.0847,-2.05501 0.50265,-2.47302 1.06579,-1.06577 0.50958,1.27342 0.4469,2.79491 -0.13936,3.38108 -0.58618,0.58618 -1.00311,-0.4557 -0.92652,-2.31531 z m -170.77135,-6.02715 c 0,-4.36601 0.34401,-6.15211 0.76449,-3.9691 0.42046,2.183 0.42046,5.7552 0,7.93821 -0.42048,2.18301 -0.76449,0.39691 -0.76449,-3.96911 z m 262.84299,0 c 0,-4.36601 0.34401,-6.15211 0.76449,-3.9691 0.42046,2.183 0.42046,5.7552 0,7.93821 -0.42048,2.18301 -0.76449,0.39691 -0.76449,-3.96911 z M 83.239145,305.22598 c 0.08467,-2.055 0.502647,-2.47301 1.065784,-1.06576 0.50958,1.27341 0.446904,2.7949 -0.139183,3.38108 -0.586175,0.58617 -1.003108,-0.45571 -0.926513,-2.31532 z m 354.573435,0 c 0.0847,-2.055 0.50265,-2.47301 1.06579,-1.06576 0.50958,1.27341 0.4469,2.7949 -0.13936,3.38108 -0.58618,0.58617 -1.00311,-0.45571 -0.92652,-2.31532 z m -214.6732,-23.66761 c 0,-12.12783 0.28184,-17.08921 0.62631,-11.0253 0.34446,6.06391 0.34446,15.98668 0,22.05059 -0.34447,6.06391 -0.62631,1.10253 -0.62631,-11.02529 z m 75.85402,0 c 0,-12.12783 0.28184,-17.08921 0.6263,-11.0253 0.34447,6.06391 0.34447,15.98668 0,22.05059 -0.34446,6.06391 -0.6263,1.10253 -0.6263,-11.02529 z m -217.379031,5.29214 c 0,-2.42557 0.400386,-3.41784 0.88975,-2.20506 0.489382,1.21278 0.489382,3.19733 0,4.41012 -0.489364,1.21278 -0.88975,0.2205 -0.88975,-2.20506 z m 358.101531,0 c 0,-2.42557 0.40039,-3.41784 0.88975,-2.20506 0.48938,1.21278 0.48938,3.19733 0,4.41012 -0.48936,1.21278 -0.88975,0.2205 -0.88975,-2.20506 z m -229.46537,-1.02904 c 0.0847,-2.05501 0.50265,-2.47302 1.06578,-1.06577 0.50958,1.27341 0.44691,2.7949 -0.13918,3.38108 -0.58618,0.58617 -1.00311,-0.45571 -0.92651,-2.31531 z m 100.55067,0 c 0.0847,-2.05501 0.50265,-2.47302 1.06579,-1.06577 0.50958,1.27341 0.4469,2.7949 -0.13936,3.38108 -0.58618,0.58617 -1.00311,-0.45571 -0.92652,-2.31531 z m -117.34671,-7.6267 c -0.54371,-0.87973 0.60016,-1.18406 2.54196,-0.67627 4.11903,1.07715 4.6397,2.27582 0.98857,2.27582 -1.39808,0 -2.98682,-0.7198 -3.53053,-1.59955 z m 129.55577,0.92327 c 0,-0.37197 1.58874,-1.09175 3.53053,-1.59954 1.94179,-0.50779 3.08569,-0.20346 2.54197,0.67627 -0.9495,1.53633 -6.0725,2.31522 -6.0725,0.92327 z M 129.96055,266.9289 c 0.66245,-1.73974 1.64884,-2.71879 2.19197,-2.17567 0.54311,0.54313 10e-4,1.96656 -1.20447,3.16316 -1.7422,1.72924 -1.94483,1.52663 -0.9875,-0.98749 z m 260.893,0.39971 c -0.63954,-1.03477 -0.78446,-2.25974 -0.32205,-2.72214 0.46241,-0.4624 1.31081,0.38423 1.88533,1.88141 1.19281,3.10843 0.17623,3.65521 -1.56328,0.84073 z M 80.297279,228.63696 c 0,-16.97895 0.264589,-23.92489 0.587957,-15.43541 0.323385,8.48947 0.323385,22.38134 0,30.87082 -0.323368,8.48947 -0.587957,1.54354 -0.587957,-15.43541 z m 361.629621,0 c 0,-16.97895 0.26459,-23.92489 0.58796,-15.43541 0.32339,8.48947 0.32339,22.38134 0,30.87082 -0.32337,8.48947 -0.58796,1.54354 -0.58796,-15.43541 z m -251.22016,20.39063 c 0,-1.39807 0.7198,-2.98681 1.59955,-3.53052 0.87973,-0.54372 1.18406,0.60018 0.67626,2.54197 -1.07714,4.11901 -2.27581,4.63969 -2.27581,0.98855 z m 138.88557,-0.84473 c -0.76733,-2.93421 -0.53774,-3.62294 0.77129,-2.3139 1.02511,1.02509 1.51673,2.90505 1.09251,4.17772 -0.44039,1.32117 -1.24002,0.52154 -1.8638,-1.86382 z M 146.74484,238.1922 c 0.0847,-2.05501 0.50265,-2.47302 1.06578,-1.06577 0.50958,1.27342 0.44691,2.79491 -0.13918,3.38108 -0.58618,0.58618 -1.00311,-0.4557 -0.92651,-2.31531 z m 227.56205,0 c 0.0847,-2.05501 0.50265,-2.47302 1.06579,-1.06577 0.50958,1.27342 0.4469,2.79491 -0.13936,3.38108 -0.58618,0.58618 -1.00311,-0.4557 -0.92652,-2.31531 z m -153.47208,-1.76405 c 0.0847,-2.05501 0.50265,-2.47301 1.06578,-1.06576 0.50958,1.27341 0.44691,2.7949 -0.13918,3.38108 -0.58617,0.58617 -1.00311,-0.45571 -0.92651,-2.31532 z m 79.38211,0 c 0.0847,-2.05501 0.50265,-2.47301 1.06579,-1.06576 0.50958,1.27341 0.4469,2.7949 -0.13936,3.38108 -0.58618,0.58617 -1.00311,-0.45571 -0.92652,-2.31532 z M 118.05006,230.96 c 1.27343,-0.50958 2.79492,-0.44691 3.38109,0.13918 0.58618,0.58617 -0.4557,1.00311 -2.31531,0.92651 -2.05501,-0.0847 -2.47302,-0.50265 -1.06578,-1.06578 z m 284.01155,0 c 1.27343,-0.50958 2.79492,-0.44691 3.3811,0.13918 0.58617,0.58617 -0.45571,1.00311 -2.31531,0.92651 -2.05501,-0.0847 -2.47302,-0.50265 -1.06579,-1.06578 z M 219.07076,218.78768 c 0.0847,-2.055 0.50265,-2.47301 1.06579,-1.06576 0.50958,1.27341 0.4469,2.7949 -0.13919,3.38108 -0.58617,0.58617 -1.0031,-0.45571 -0.92651,-2.31532 z m 82.91021,0 c 0.0847,-2.055 0.50265,-2.47301 1.06578,-1.06576 0.50958,1.27341 0.44691,2.7949 -0.13936,3.38108 -0.58617,0.58617 -1.0031,-0.45571 -0.92651,-2.31532 z m -112.89901,-1.76404 c 0.0847,-2.05501 0.50265,-2.47302 1.06579,-1.06577 0.50958,1.27341 0.4469,2.7949 -0.13918,3.38108 -0.58618,0.58617 -1.00311,-0.45571 -0.92652,-2.31531 z m 142.88781,0 c 0.0847,-2.05501 0.50264,-2.47302 1.06578,-1.06577 0.50958,1.27341 0.4469,2.7949 -0.13936,3.38108 -0.58617,0.58617 -1.00311,-0.45571 -0.92651,-2.31531 z m -205.09948,-0.17605 c 1.27343,-0.50958 2.79492,-0.44691 3.3811,0.13918 0.58617,0.58617 -0.45571,1.00311 -2.31531,0.92651 -2.05501,-0.0847 -2.47302,-0.50265 -1.06579,-1.06578 z m 266.37109,0 c 1.27343,-0.50958 2.79492,-0.44691 3.38109,0.13918 0.58618,0.58617 -0.4557,1.00311 -2.31531,0.92651 -2.05501,-0.0847 -2.47301,-0.50265 -1.06578,-1.06578 z m -284.01156,-1.76405 c 1.27343,-0.50958 2.79492,-0.44691 3.3811,0.13918 0.58617,0.58618 -0.45571,1.00311 -2.31531,0.92651 -2.05501,-0.0847 -2.47302,-0.50264 -1.06579,-1.06578 z m 301.65203,0 c 1.27343,-0.50958 2.79492,-0.44691 3.38109,0.13918 0.58618,0.58618 -0.4557,1.00311 -2.31531,0.92651 -2.05501,-0.0847 -2.47302,-0.50264 -1.06578,-1.06578 z m -12.01757,-15.3374 c 0,-0.36632 1.38919,-1.75551 3.08708,-3.08708 2.79788,-2.19425 2.86028,-2.13185 0.66603,0.66603 -2.30449,2.93844 -3.75311,3.87291 -3.75311,2.42105 z M 183.31979,179.8026 c 1.27343,-0.50958 2.79492,-0.4469 3.3811,0.13918 0.58617,0.58618 -0.45571,1.00311 -2.31531,0.92652 -2.05501,-0.0847 -2.47302,-0.50265 -1.06579,-1.06579 z m 153.47209,0 c 1.27343,-0.50958 2.79492,-0.4469 3.38109,0.13918 0.58618,0.58618 -0.4557,1.00311 -2.31531,0.92652 -2.05501,-0.0847 -2.47302,-0.50265 -1.06578,-1.06579 z M 81.614369,173.95147 c 0,-2.42557 0.400386,-3.41784 0.88975,-2.20506 0.489382,1.21278 0.489382,3.19733 0,4.41012 -0.489364,1.21278 -0.88975,0.2205 -0.88975,-2.20506 z m 358.101531,0 c 0,-2.42557 0.40039,-3.41784 0.88975,-2.20506 0.48938,1.21278 0.48938,3.19733 0,4.41012 -0.48936,1.21278 -0.88975,0.2205 -0.88975,-2.20506 z m -247.57587,-8.26125 c 1.27343,-0.50958 2.79492,-0.4469 3.38109,0.13919 0.58618,0.58617 -0.4557,1.00311 -2.31531,0.92651 -2.05501,-0.0847 -2.47301,-0.50265 -1.06578,-1.06578 z m 135.83161,0 c 1.27343,-0.50958 2.79492,-0.4469 3.3811,0.13919 0.58617,0.58617 -0.45571,1.00311 -2.31531,0.92651 -2.05501,-0.0847 -2.47302,-0.50265 -1.06579,-1.06578 z m -206.48317,-1.80661 c 2.19433,-0.42194 5.36961,-0.40592 7.05618,0.0356 1.68659,0.44153 -0.10884,0.78675 -3.98967,0.76717 -3.8809,-0.0196 -5.26083,-0.38082 -3.06651,-0.80278 z m 273.42727,0 c 2.19433,-0.42194 5.36962,-0.40592 7.05619,0.0356 1.68659,0.44153 -0.10884,0.78675 -3.98968,0.76717 -3.8809,-0.0196 -5.26082,-0.38082 -3.06651,-0.80278 z M 83.239145,157.04604 c 0.08467,-2.05501 0.502647,-2.47302 1.065784,-1.06576 0.50958,1.27341 0.446904,2.7949 -0.139183,3.38107 -0.586175,0.58618 -1.003108,-0.4557 -0.926513,-2.31531 z m 354.573435,0 c 0.0847,-2.05501 0.50265,-2.47302 1.06579,-1.06576 0.50958,1.27341 0.4469,2.7949 -0.13936,3.38107 -0.58618,0.58618 -1.00311,-0.4557 -0.92652,-2.31531 z M 224.78827,135.14247 c 0,-6.30646 0.32015,-8.88638 0.71147,-5.73315 0.39132,3.15324 0.39132,8.31307 0,11.4663 -0.39132,3.15324 -0.71147,0.57332 -0.71147,-5.73315 z m 72.32592,0 c 0,-6.30646 0.32016,-8.88638 0.71148,-5.73315 0.39132,3.15324 0.39132,8.31307 0,11.4663 -0.39132,3.15324 -0.71148,0.57332 -0.71148,-5.73315 z M 159.39491,45.724123 c 1.69789,-0.443711 4.47627,-0.443711 6.17416,0 1.6979,0.443711 0.30871,0.806734 -3.08708,0.806734 -3.39579,0 -4.78498,-0.363023 -3.08708,-0.806734 z m 197.57325,0 c 1.6979,-0.443711 4.47627,-0.443711 6.17417,0 1.69789,0.443711 0.30871,0.806734 -3.08708,0.806734 -3.39579,0 -4.78498,-0.363023 -3.08709,-0.806734 z"
     id="path2" /><path
     id="path1"
     style="fill:#010102;stroke-width:1.76405"
     d="m 161.67875,29.853257 c -13.34566,0.240682 -26.6487,3.884207 -38.12034,10.741352 -10.91569,6.45613 -20.06799,15.648393 -27.098414,26.159039 -10.636952,15.665189 -17.520808,33.578882 -22.161603,51.854372 -4.95633,19.55511 -7.505297,39.63114 -9.09436,59.71447 -0.742583,8.08889 -1.801341,15.99749 -3.147285,24.00044 -0.72842,4.40424 -1.65188,8.75888 -2.721247,13.05845 -8.276003,35.4575 -11.245457,72.14857 -8.817666,108.47787 1.695953,24.89856 5.925418,49.67122 13.231291,73.5517 5.247696,16.89191 12.23388,33.45853 22.648044,47.85542 7.523346,10.40441 17.00432,19.48438 28.12981,25.95849 10.63175,6.2526 22.58406,10.03387 34.74714,11.86026 6.23451,1.01971 12.60118,1.63691 18.90054,0.85013 4.85463,-0.58385 9.66524,-1.53054 14.41139,-2.69994 10.6643,-2.7686 20.49822,-8.3546 28.6543,-15.72362 11.49436,-10.36904 19.82166,-23.7707 26.11028,-37.80492 6.98054,-15.71245 11.59404,-32.38136 14.86729,-49.23018 1.47769,-8.35412 2.02405,-16.83919 2.4717,-25.30046 0.6901,-14.95662 0.7409,-29.95276 -0.0831,-44.90491 -0.40475,-6.93896 -1.04399,-13.8828 -2.47484,-20.69439 -2.48588,-12.46145 -5.45497,-24.82656 -8.79213,-37.08654 -1.0257,-3.53041 -1.93985,-7.11259 -3.35684,-10.51155 -0.89301,-1.97746 -1.15832,-4.16277 -1.61838,-6.26611 -0.0657,-0.40303 -0.20716,-1.18267 -0.30185,-1.72986 -0.65535,-3.79869 -1.14571,-7.63273 -1.55083,-11.40752 -0.14782,-1.41869 -0.27979,-2.83889 -0.38951,-4.26106 -0.0224,-0.36124 -0.0664,-1.19889 -0.097,-1.74259 -0.37331,-7.0734 1.49932,-13.98539 3.16497,-20.79139 2.95053,-11.68299 6.42373,-23.40976 7.91755,-35.44596 1.16967,-9.57345 1.44366,-19.22785 1.71121,-28.86019 0.20974,-11.71632 0.0538,-23.62136 -3.03785,-35.006154 -2.40391,-8.873425 -6.489,-17.191659 -11.06967,-25.126171 -5.58429,-9.512287 -12.67869,-18.319175 -21.7209,-24.748139 -6.2784,-4.534377 -13.41271,-7.751883 -20.77954,-10.068352 -9.84196,-3.159854 -20.18206,-4.883689 -30.53208,-4.671987 z m 195.73438,0.0039 c -12.18413,0.270962 -24.2557,3.082438 -35.48438,7.767579 -8.94638,3.811753 -16.98811,9.663965 -23.44039,16.932801 -7.27169,8.13506 -12.76466,17.697553 -17.2744,27.589148 -3.42529,7.510888 -5.70627,15.542033 -6.65311,23.746005 -1.3317,11.24266 -0.93405,22.5947 -0.51,33.88029 0.37401,9.53709 1.05802,19.0991 3.01374,28.45914 2.31809,11.61105 5.94176,22.91241 8.36277,34.49913 0.96403,4.47175 1.3647,9.07221 0.98577,13.63763 -0.0357,0.36032 -0.0995,1.19662 -0.14595,1.73922 -0.38768,4.11741 -0.8655,8.13433 -1.52315,12.24223 -0.16083,1.09863 -0.41436,2.41448 -0.57114,3.3623 -0.48993,2.36956 -0.84211,4.81247 -1.93101,7.00008 -1.92636,5.25262 -3.28872,10.69091 -4.73334,16.09039 -2.87545,11.20641 -5.56507,22.47033 -7.67954,33.84765 -1.4135,7.79879 -1.83586,15.73409 -2.19026,23.63903 -0.56003,15.30403 -0.38282,30.6406 0.61618,45.92285 0.54108,7.67756 1.28476,15.36803 2.99195,22.8866 3.70163,17.45926 8.89909,34.71702 16.89223,50.72153 6.33933,12.63466 14.56037,24.55296 25.43223,33.71218 8.38387,7.08227 18.42631,12.27427 29.18411,14.57011 9.70443,2.0409 19.74496,2.01774 29.56394,0.89083 11.35604,-1.33987 22.57917,-4.46437 32.6625,-9.92761 11.96348,-6.40281 22.14303,-15.82883 30.17675,-26.70955 10.58527,-14.28018 17.79844,-30.76889 23.15098,-47.64019 6.62131,-21.11312 10.4242,-43.0097 12.82059,-64.97447 4.19324,-40.21379 1.03483,-81.09029 -8.40888,-120.36996 -1.62395,-6.64564 -2.67717,-13.41337 -3.65585,-20.179 -0.81927,-5.89731 -1.52439,-11.94395 -1.9955,-17.96137 -1.70022,-20.48061 -4.52062,-40.9487 -9.93599,-60.80479 -4.97234,-18.176852 -12.35081,-35.912432 -23.53124,-51.184982 -8.1809,-11.193315 -19.0177,-20.566055 -31.66596,-26.352661 -10.76356,-4.982342 -22.68292,-7.2894 -34.52365,-7.03214 z m -193.86328,18.21485 c 7.89681,0.08834 15.76063,1.547816 23.24042,4.055095 2.87804,0.98249 5.68819,2.16614 8.39434,3.55428 0.50915,0.259476 1.30917,0.685505 1.91591,1.029238 2.36692,1.327753 4.81343,2.951822 6.84972,4.533262 4.03392,3.114614 7.61607,6.796523 10.70312,10.847656 0.34432,0.469253 0.89833,1.202767 1.30779,1.783597 2.76467,3.89305 5.16685,8.221477 7.10823,12.474216 2.52361,5.584876 4.59393,11.384953 6.10156,17.326169 1.11127,4.87508 1.58632,9.86996 1.8125,14.85742 0.0229,0.67298 0.0601,1.66437 0.0795,2.46169 0.28047,14.49199 -1.37611,28.9604 -3.9536,43.20296 -0.71996,3.87174 -1.51002,7.70914 -2.37437,11.50129 -2.03621,8.66069 -4.32989,17.25863 -6.48265,25.89087 -0.47871,1.98899 -1.05696,3.97113 -1.47397,5.96438 0.85124,7.59678 1.82285,15.18083 2.58497,22.7871 0.86479,9.8438 1.20114,19.73689 1.44095,29.58038 0.35895,16.41569 0.33003,32.8419 -0.188,49.25391 -0.16545,4.83249 -0.37674,9.83457 -0.70735,14.63738 -0.23642,3.47744 -0.52249,6.95411 -1.00163,10.40754 -0.0883,0.55588 -0.21913,1.4506 -0.32375,2.1364 -2.10226,13.46468 -4.58157,26.87458 -7.56079,40.17355 -0.59396,2.24432 -1.01296,4.62472 -2.29906,6.59825 -0.57567,0.805 -1.67655,0.23468 -2.41993,0.0222 -3.33951,-1.35365 -6.4993,-3.10928 -9.75321,-4.652 -1.18252,-0.5824 -2.36504,-1.16479 -3.54756,-1.74718 0.55919,-6.42325 0.93192,-12.86554 1.68272,-19.27023 0.28025,-1.58889 0.33266,-3.3405 1.26455,-4.71219 0.96519,-0.60602 2.20035,-0.32873 3.28899,-0.42044 3.87837,-0.12322 7.98331,-1.19475 10.79914,-4.00664 1.62543,-1.57734 2.38479,-3.93426 1.9773,-6.16346 -0.32457,-2.97385 -2.42617,-5.56318 -5.16309,-6.69852 -3.33129,-1.50476 -7.06071,-1.21755 -10.61719,-1.23633 0,-10.52149 0,-21.04297 0,-31.56446 3.47432,-2.51705 7.09547,-4.83924 10.43595,-7.53566 2.54958,-2.09114 5.06422,-4.76959 5.38663,-8.21037 0.42403,-3.21823 -1.30161,-6.4657 -4.01927,-8.1648 -3.27725,-2.16446 -7.50797,-2.40349 -11.21122,-1.32513 -0.45399,0.10649 -1.11502,0.28794 -1.20052,-0.37069 -0.85938,-2.56679 -0.89733,-5.31671 -1.15065,-7.98941 -0.46472,-7.17671 -0.74601,-14.37942 -1.12178,-21.58948 4.52447,-2.8485 9.16366,-5.52029 13.58514,-8.52874 2.51732,-1.80638 5.22981,-3.76635 6.4383,-6.73298 0.75999,-2.05159 0.60365,-4.36829 -0.041,-6.42774 -0.82259,-2.51647 -3.26324,-4.02869 -5.69727,-4.70312 -4.55074,-1.34312 -9.34763,-1.31157 -13.98461,-2.17876 -0.81315,-0.16205 -1.87838,-0.4224 -1.99428,-1.41005 -0.35001,-1.83519 -0.63353,-3.74387 -0.36016,-5.60745 0.5981,-2.61022 2.61295,-4.55146 4.32597,-6.48944 4.27643,-4.52284 8.99469,-8.62504 12.97742,-13.42452 5.82418,-6.76993 10.47623,-14.60203 13.21037,-23.12463 3.65852,-11.27069 4.38841,-23.2292 4.40813,-35.00226 -0.0372,-14.9248 -2.17985,-30.07817 -8.22289,-43.823263 -4.47026,-10.179521 -11.33759,-19.465973 -20.46775,-25.92063 -5.1976,-3.680465 -11.01964,-6.600679 -17.27975,-7.927517 -8.28681,-1.831189 -16.88966,-2.086677 -25.30813,-1.121452 -6.40215,0.774433 -12.84658,2.336697 -18.39657,5.735409 -8.08048,4.806084 -14.8732,11.539255 -20.57271,18.964303 -4.67363,6.09891 -8.46255,12.85073 -11.36277,19.961804 -5.383244,12.870206 -8.220904,26.881696 -7.603904,40.850916 0.59851,14.74281 4.944464,29.1969 11.771144,42.22769 3.4729,6.23041 7.79522,11.95213 12.42885,17.36016 2.65208,2.97539 5.33281,6.01332 8.64258,8.27735 0.60618,0.38942 1.27231,0.71815 1.95312,0.92187 0.6701,2.06902 0.39176,4.27588 0.45313,6.41211 -6.60619,-0.46988 -13.20236,-1.11771 -19.81946,-1.40922 -2.56863,-0.0209 -5.43738,-0.19859 -7.61525,1.41358 -1.67564,1.36678 -2.62619,3.44305 -3.1957,5.4876 -0.83207,3.07029 0.0291,6.71021 2.66556,8.65257 2.1165,1.64546 4.90801,1.72374 7.44008,2.18566 6.22872,0.93079 12.50252,1.50551 18.76109,2.1952 0,10.55404 10e-6,21.10807 0,31.66211 -5.90362,3.72761 -11.90265,7.30696 -17.72209,11.16565 -2.70327,1.90246 -5.57722,3.77876 -7.47908,6.54529 -1.8729,2.74829 -1.59416,6.64527 0.33203,9.28711 2.13172,2.79631 5.74195,3.78801 9.06663,4.2702 4.65024,0.6512 9.35962,0.36805 14.03884,0.43292 -0.0354,6.93017 0.0988,13.86376 -0.15039,20.79102 -0.0288,0.43422 -0.0559,1.13632 -0.0874,1.56489 -0.0499,0.80037 -0.10394,1.3579 -0.18569,2.18485 -0.32777,3.4301 -1.20966,6.98052 -3.57651,9.60182 -3.25059,3.61617 -7.46544,6.14423 -11.27389,9.10876 -3.03121,2.35449 -6.21059,4.66993 -8.48487,7.8097 -1.46003,1.95501 -2.00138,4.64631 -0.99605,6.92593 0.8645,1.95172 2.11121,3.82349 3.85052,5.09702 2.47796,1.67024 5.62526,1.3709 8.45812,1.20276 3.38874,-0.22642 6.75819,-0.77944 10.15906,-0.79651 -1.00753,3.04982 -1.20485,6.28924 -1.2913,9.47655 -0.0143,1.68941 -1.64864,2.59198 -2.94659,3.29669 -3.47106,1.80323 -7.1262,3.13127 -10.71693,4.59338 -3.12535,1.23978 -6.2547,2.47153 -9.41432,3.62166 -1.53113,-2.80859 -2.366524,-5.92989 -3.301154,-8.97222 -2.20907,-7.67152 -3.99968,-15.55263 -5.692988,-23.29145 -1.551682,-7.30528 -2.890088,-14.66184 -4.047024,-21.99638 -2.579257,-16.38255 -4.327671,-32.80476 -5.496161,-49.34222 -0.363702,-5.22698 -0.677728,-10.55641 -0.9211,-15.79956 -0.76281,-16.40034 -0.957138,-32.87341 -0.555595,-49.31958 0.595375,-22.69343 2.210932,-45.41739 5.77901,-67.91088 0.735389,-4.60077 1.568596,-9.22179 2.49681,-13.723 1.202072,-5.85175 2.637724,-11.79983 4.288978,-17.45135 3.78706,-12.85209 9.020294,-25.393521 16.599614,-36.494139 0.28932,-0.399218 0.76587,-1.100658 1.1351,-1.612044 6.83533,-9.568626 15.73637,-17.895087 26.47623,-22.876237 7.70523,-3.604515 16.2176,-5.360093 24.71485,-5.289063 z m 196.78906,0.234375 c 5.52689,0.0068 11.2104,0.04686 16.44726,2.044922 4.31871,1.651354 8.49813,3.680252 12.48468,6.021385 9.64838,5.727954 17.59207,14.037846 23.59776,23.464117 7.84145,12.278275 12.81387,26.142424 16.49024,40.171224 1.85047,7.13982 3.35834,14.424 4.60522,21.63193 1.38251,8.03538 2.47654,16.12621 3.35583,24.26778 1.33471,12.32817 2.20597,24.71184 2.75926,37.13919 0.62013,14.48073 0.7494,29.089 0.41324,43.63285 -0.2041,8.3534 -0.54889,16.74025 -1.06579,25.12034 -0.50618,8.26684 -1.17993,16.725 -2.02554,24.97058 -0.57504,5.70785 -1.23873,11.41046 -1.98303,17.05128 -0.92803,7.06705 -2.0224,14.22744 -3.23929,21.17776 -1.44132,8.17138 -3.11616,16.37406 -5.07168,24.49942 -1.65513,6.77641 -3.15564,13.60316 -5.28118,20.25251 -0.33491,0.96858 -0.67975,1.94221 -1.18425,2.83791 -2.4713,-1.57547 -5.2449,-2.60291 -7.93337,-3.74294 -4.19038,-1.76792 -8.58684,-3.02596 -12.69667,-4.98415 -1.16295,-0.57364 -2.58065,-1.36049 -2.61031,-2.83846 -0.0926,-2.6662 -0.18815,-5.35152 -0.78674,-7.9644 -0.1377,-0.62854 -0.29319,-1.25548 -0.50806,-1.86263 1.51604,0.0167 3.0433,0.18478 4.4608,0.34248 3.58797,0.33359 7.1945,1.03694 10.80555,0.65463 2.18137,-0.22145 4.08973,-1.56963 5.30406,-3.35541 1.57703,-2.04782 2.90552,-4.67342 2.19942,-7.31563 -0.81807,-3.04173 -3.28825,-5.22436 -5.56302,-7.2363 -4.20441,-3.63397 -8.94921,-6.57569 -13.18188,-10.1719 -2.41913,-2.03019 -4.44827,-4.66022 -5.17914,-7.78278 -0.47406,-1.76263 -0.68679,-3.58201 -0.84189,-5.39681 -0.0277,-0.38547 -0.0851,-1.1183 -0.10318,-1.57131 -0.2152,-3.99482 -0.19069,-8.20147 -0.19955,-12.28845 0,-3.13464 0,-6.26927 0,-9.40391 5.55557,-0.0939 11.2096,0.37048 16.66406,-0.9375 2.98488,-0.70539 6.07027,-2.32277 7.32248,-5.28284 1.10607,-2.59841 0.98346,-5.81109 -0.77505,-8.1021 -2.08069,-2.76825 -5.04764,-4.67806 -7.8615,-6.62092 -5.63619,-3.69292 -11.41308,-7.16564 -17.11366,-10.75781 0,-10.5931 0,-21.1862 0,-31.7793 5.36789,-0.58396 10.76671,-0.92321 16.10435,-1.75556 3.79229,-0.6882 7.76019,-1.51959 10.88881,-3.90767 2.12918,-1.58912 3.31247,-4.31771 2.94107,-6.95747 -0.18232,-2.53111 -1.97255,-4.73561 -4.29752,-5.66641 -3.52406,-1.45005 -7.42807,-1.39916 -11.17391,-1.32082 -5.42108,0.22955 -10.81777,0.83329 -16.22648,1.24856 0.0649,-2.16321 -0.22052,-4.4134 0.44727,-6.50195 2.34243,-0.81842 4.12747,-2.65949 5.90598,-4.31477 5.05087,-5.02961 9.51197,-10.63255 13.55696,-16.49432 2.42421,-3.48139 4.49083,-7.19996 6.21047,-11.07706 6.01452,-13.08246 9.44467,-27.44946 9.19326,-41.88529 -0.20555,-15.27754 -4.45189,-30.35229 -11.42136,-43.896529 -5.06225,-9.472074 -11.89039,-18.01932 -20.07709,-24.9768 -4.34014,-3.610994 -9.06591,-6.90343 -14.37922,-8.904769 -6.79132,-2.433617 -14.06665,-3.193177 -21.24407,-3.2459 -7.38906,0.03066 -14.87436,0.829875 -21.86934,3.317422 -9.67395,3.711378 -18.08155,10.421532 -24.25208,18.707343 -7.80151,10.442951 -12.18937,23.067097 -14.32491,35.831763 -1.9528,11.64281 -2.05067,23.52381 -1.23334,35.27682 0.79141,10.36477 2.86513,20.79644 7.59664,30.12843 4.3327,8.71167 10.77516,16.16821 17.78015,22.83969 2.74376,2.74368 5.64422,5.39059 7.88031,8.58245 1.11191,1.51594 1.49992,3.43968 1.24406,5.286 -0.1672,1.23834 -0.11344,2.58199 -0.71876,3.70638 -0.93121,0.78513 -2.26478,0.78019 -3.41202,1.00866 -4.51277,0.62818 -9.17581,0.71823 -13.49423,2.30774 -2.26155,0.81837 -4.22151,2.66939 -4.70728,5.085 -0.55951,2.44627 -0.43923,5.2071 1.08824,7.29812 2.16073,2.99893 5.3897,4.96201 8.42568,6.96454 3.55899,2.22245 7.13924,4.41079 10.70703,6.61914 -0.32706,6.48131 -0.62428,13.09099 -0.97852,19.47656 -0.25361,3.20307 -0.2888,6.46425 -1.11187,9.587 -0.15595,0.41184 -0.284,1.14716 -0.90571,0.92277 -1.84747,-0.27943 -3.65772,-0.90423 -5.55234,-0.80519 -3.75707,-0.0116 -7.67654,1.91493 -9.32266,5.41066 -1.43515,2.94203 -1.09274,6.62475 0.87305,9.24609 2.75798,3.74088 6.84632,6.13398 10.54184,8.82718 1.19178,0.84016 2.38356,1.68032 3.57535,2.52047 0,10.52149 0,21.04297 0,31.56446 -3.65098,0.0169 -7.50574,-0.28083 -10.89109,1.36617 -2.71395,1.20491 -4.69053,3.89254 -4.92727,6.86625 -0.35929,2.32168 0.63333,4.69337 2.381,6.22391 3.14061,2.81808 7.53213,3.71949 11.64513,3.66446 0.89411,0.0323 2.16766,-0.052 2.46215,1.04132 0.90567,2.5642 0.99461,5.32428 1.3052,8.00425 0.45188,5.10906 0.83786,10.22374 1.2573,15.33559 -5.22555,2.56257 -10.45088,5.12558 -15.67578,7.68945 -2.28051,-6.7357 -3.71121,-13.71342 -5.12717,-20.67015 -1.99779,-10.05783 -3.76801,-20.27407 -5.21695,-30.47214 -0.9836,-7.98899 -1.29098,-16.10519 -1.59143,-24.1038 -0.57137,-18.20008 -0.56001,-36.47016 -0.0527,-54.63867 0.34113,-10.79294 0.8106,-21.59935 2.18776,-32.31776 0.5711,-4.92596 1.14045,-9.85212 1.71263,-14.77794 -2.51622,-10.03486 -5.13313,-20.04495 -7.58154,-30.09648 -3.23366,-13.81825 -5.51217,-28.01936 -6.40802,-42.25275 -0.33905,-5.52864 -0.45125,-11.07406 -0.22724,-16.60976 0.0412,-0.66102 0.0804,-1.6435 0.13154,-2.428 0.33301,-4.97408 0.9282,-9.96215 2.3001,-14.76731 0.33614,-1.14636 0.7525,-2.524496 1.15865,-3.750196 3.75712,-11.503404 9.44089,-22.614088 17.9957,-31.300552 7.05864,-7.239537 16.0993,-12.455778 25.82905,-15.158201 6.93724,-1.972228 14.17076,-2.770683 21.37012,-2.785189 z m -0.35156,24.572266 c 4.32277,-0.01273 8.78822,0.273996 12.74352,2.184636 6.60688,3.049198 12.38477,7.72947 17.02162,13.313653 7.69209,9.242517 12.73548,20.508343 15.39736,32.186783 1.06054,4.68419 1.71241,9.46192 1.93125,14.26024 0.0205,0.55965 0.0569,1.45868 0.0619,2.14913 0.14987,8.0685 -1.06993,16.19054 -3.9163,23.75751 -0.27899,0.8 -0.55798,1.6 -0.83697,2.4 -15.25587,0.0348 -30.5128,-0.0909 -45.76776,0.11544 -8.9786,0.15721 -17.96441,0.30059 -26.9256,0.90604 -3.15497,0.22696 -6.30397,0.81323 -9.47461,0.64453 -0.89897,0.024 -1.58491,-0.62004 -1.89145,-1.41895 -0.98102,-1.77268 -1.47627,-3.74923 -1.72652,-5.74784 -0.72388,-5.13198 -0.92763,-10.35769 -1.07181,-15.47652 -0.13093,-7.19595 -0.15604,-14.3995 0.15321,-21.59125 0.12737,-2.16799 0.29689,-4.3369 0.64399,-6.48223 0.0742,-0.4711 0.17382,-1.01414 0.29102,-1.59961 1.01691,-4.90893 2.93634,-9.5719 4.87689,-14.174386 2.7458,-6.210178 6.29375,-12.228288 11.38873,-16.806082 0.29624,-0.254439 0.87294,-0.765162 1.29628,-1.09621 5.25018,-4.305218 11.9261,-6.535421 18.62126,-7.200073 2.38492,-0.261445 4.78621,-0.327101 7.18403,-0.324811 z m -195.76563,0.06445 c 7.18845,0.04092 14.59418,1.29993 20.80466,5.105691 6.19451,3.721637 10.70245,9.675979 13.93,16.041186 2.67269,5.234126 4.70932,10.792705 5.96485,16.536845 0.33891,1.51675 0.66144,3.06008 0.91387,4.50072 0.71528,3.91809 1.25161,8.10425 1.59678,12.17277 0.25923,3.08058 0.42225,6.22874 0.4657,9.23978 0.0914,7.16306 -0.27423,14.40676 -2.12047,21.36021 -0.40474,1.49873 -0.41392,3.15052 -1.20578,4.51545 -1.03123,1.03749 -2.63133,1.0859 -3.99358,1.31683 -5.50456,0.54867 -11.0489,0.3709 -16.57224,0.34294 -16.97561,-0.24771 -33.95034,-0.5584 -50.92615,-0.79674 -4.31648,-0.0657 -8.63296,-0.13134 -12.94944,-0.19701 -1.40678,-3.91777 -2.77853,-7.86933 -3.47656,-11.98633 -1.84401,-10.41112 -1.33571,-21.17054 0.90688,-31.478 1.48322,-6.82544 3.91012,-13.44922 7.3141,-19.55375 4.11886,-7.599392 9.21552,-14.925743 16.25084,-20.100842 5.64062,-4.19343 12.55598,-6.511506 19.55057,-6.912784 1.18078,-0.07536 2.36289,-0.104784 3.54597,-0.106966 z m -8.60156,108.509762 c 7.49986,0.0611 15.00432,0.19049 22.45856,0.45299 4.35991,0.20727 8.74297,0.2494 13.07269,0.83998 0.38651,0.18169 1.80474,0.094 0.91962,0.60772 -4.65978,4.1577 -9.44386,8.17686 -13.97822,12.47236 -2.26013,2.17639 -4.39508,4.76206 -4.90577,7.95638 -0.56338,3.44341 -0.28254,6.95217 -0.35594,10.42526 0,1.20286 0,2.40573 0,3.60859 -6.83008,-0.0756 -13.69043,0.2602 -20.49119,-0.52862 -0.40651,-0.17201 -1.24708,0.0791 -1.3524,-0.43779 -0.83152,-4.03019 -0.45905,-8.16478 -0.75885,-12.24047 -0.13561,-2.51157 -1.10982,-5.00985 -2.98526,-6.73203 -2.70402,-2.54139 -6.04097,-4.27193 -8.82582,-6.7187 -3.28473,-2.74913 -6.39944,-5.74639 -8.88261,-9.25446 -0.80859,-0.71444 -0.11732,-0.68057 0.6168,-0.62533 8.48946,0.058 16.97893,0.11608 25.46839,0.17412 z m 235.97656,2.28125 c -2.79544,3.48093 -6.14167,6.49574 -9.67909,9.20521 -2.913,2.13043 -6.30986,4.04641 -7.92247,7.43932 -1.498,3.26489 -1.56764,6.93343 -1.96013,10.44465 -0.19298,2.06142 -0.38595,4.12284 -0.57893,6.18426 -7.25,0.29381 -14.5,0.58744 -21.75,0.88086 -0.0512,-4.1673 0.12174,-8.34217 -0.13672,-12.50391 -0.17044,-2.71686 -1.2625,-5.33588 -3.07032,-7.37109 -2.88666,-3.28735 -6.3183,-6.03467 -9.55559,-8.95793 -2.2842,-2.01077 -4.56841,-4.02154 -6.85261,-6.0323 3.17477,-0.73758 6.45949,-0.7183 9.69681,-0.92561 16.83116,-0.75808 33.74227,-0.6461 50.62881,-0.80539 1.02167,-0.007 2.04334,-0.014 3.06501,-0.021 -0.62826,0.82097 -1.25651,1.64193 -1.88477,2.46289 z m -230.15625,53.07617 c 3.89995,0.0424 7.83381,0.0487 11.68164,0.75782 -4.65265,4.24816 -10.01874,7.61071 -15.32637,10.96733 -2.92933,1.83629 -5.86706,3.66193 -8.87089,5.37446 -0.27263,-5.70337 0.26148,-11.40271 0.4707,-17.09961 4.01497,0 8.02995,0 12.04492,0 z m 199.50391,0 c 4.06575,0 8.13151,0 12.19726,0 0.18609,5.43609 0.73984,10.8761 0.41953,16.31701 -0.10956,0.28788 0.16541,1.40059 -0.47652,0.85197 -5.17115,-2.84868 -10.00367,-6.26604 -14.80434,-9.69046 -2.95195,-2.19405 -5.95536,-4.3702 -8.65234,-6.86328 2.57927,-0.48845 5.22486,-0.51426 7.77344,-0.58594 1.18094,-0.0187 2.36189,-0.0266 3.54297,-0.0293 z M 175.76664,259.8513 c 0.88732,5.45174 0.50553,10.99678 0.5918,16.49414 -0.14999,0.46642 0.3675,1.60032 -0.4,1.44922 -6.4807,-0.0226 -13.09943,0.0548 -19.49453,-0.0605 -2.41556,-0.0982 -4.85993,-0.10423 -7.23242,-0.61719 3.66573,-3.35642 7.78546,-6.16861 11.85193,-9.00981 4.59221,-3.08456 9.20121,-6.19142 14.15783,-8.66792 0.57435,-0.35586 0.38875,-0.0522 0.52539,0.41211 z m 171.5293,-0.41211 c 4.94819,2.47154 9.54893,5.57322 14.13373,8.65127 4.0684,2.84205 8.18994,5.65516 11.85922,9.01059 -1.82271,0.45636 -3.87483,0.48728 -5.80222,0.58686 -6.11885,0.1882 -12.4343,0.0757 -18.63682,0.10675 -0.89037,0 -1.78073,0 -2.6711,0 0.0612,-4.91213 -0.15838,-9.83425 0.19922,-14.73828 0.1083,-1.27331 0.24466,-2.54733 0.50977,-3.79883 0.13606,0.0605 0.27213,0.12109 0.4082,0.18164 z m -175.25,36.61328 c 0.61307,0.016 1.3313,-0.027 1.88086,0.0312 -4.9464,4.19491 -10.20522,8.08445 -15.37579,11.92721 -3.89303,2.86294 -7.80384,5.70215 -11.70429,8.55521 0.26618,-6.61133 0.53249,-13.22265 0.79883,-19.83398 8.13341,-0.22363 16.26498,-0.54156 24.40039,-0.67969 z m 191.70117,0.14063 c 2.10765,0.002 4.22138,0.0391 6.20098,0.15025 1.51293,0.0929 3.27159,0.1867 4.86933,0.53334 0.29313,1.17113 0.39456,2.48861 0.47593,3.56131 0.1003,1.47492 0.13418,2.90952 0.13345,4.44455 -0.0355,3.68049 -0.29317,7.35421 -0.4375,11.03125 -8.63802,-6.43903 -17.27651,-12.87742 -25.91602,-19.31445 4.90427,-0.13623 9.78106,-0.37882 14.67383,-0.40625 z m 90.25977,17.2539 c -0.30319,7.63609 -0.77784,15.22996 -1.52539,22.85352 -0.58764,5.94911 -1.36182,12.0642 -2.30897,17.96115 -1.91164,11.89703 -4.55133,23.5973 -7.81017,35.18143 -1.09573,3.78745 -2.36079,7.73117 -3.74281,11.50504 -2.04766,5.644 -4.48769,11.35554 -7.26808,16.76565 -0.88743,1.73003 -1.73715,3.30257 -2.71298,5.00763 -2.17443,3.81245 -4.56987,7.49933 -7.18238,11.02636 -0.47177,0.61499 -1.11509,1.48333 -1.67345,2.1797 -8.00259,10.22112 -18.28383,18.82563 -30.25721,23.98602 -8.99018,3.93777 -18.7953,5.80004 -28.57633,6.11831 -7.98968,0.23507 -16.08948,-1.17514 -23.32637,-4.6375 -7.55803,-3.59555 -14.29281,-8.85341 -19.74204,-15.19679 -8.19489,-9.50461 -14.04676,-20.78448 -18.68146,-32.38282 -3.72499,-9.49003 -6.70173,-19.27524 -8.9339,-29.22182 -1.29526,-5.94956 -2.28966,-11.98671 -3.10965,-18.07621 -0.80012,-5.99193 -1.40919,-11.96695 -1.83971,-18.00413 -0.23519,-3.30033 -0.41005,-6.57912 -0.51839,-9.92694 -0.10584,-3.29957 -0.14112,-6.77997 -0.07,-10.15618 1.52679,13.26074 3.64446,26.4519 6.21912,39.54878 2.72378,13.64977 6.26382,27.16951 11.1823,40.20219 4.48131,11.74178 10.16259,23.2047 18.28999,32.87599 6.20796,7.38636 14.07302,13.53664 23.15726,16.94132 9.9619,3.8162 20.95237,4.22805 31.40401,2.53109 7.82055,-1.24551 15.35073,-4.28265 21.79191,-8.89889 6.00405,-4.26381 11.25144,-9.51981 15.95894,-15.16215 8.71863,-10.666 15.16548,-22.99567 20.41153,-35.68077 7.72521,-18.86099 12.82706,-38.69918 16.52932,-58.71097 1.79312,-9.70971 3.2015,-19.49068 4.35835,-29.29307 -0.008,0.22135 -0.0156,0.44271 -0.0234,0.66406 z m -385.298835,0.98828 c 1.878679,15.37615 4.702569,30.63758 8.139697,45.74206 3.090081,13.38133 6.634828,26.71413 11.883337,39.43165 5.534898,13.50941 12.588561,26.51327 21.899661,37.80931 6.15258,7.37781 13.35904,14.10892 21.99899,18.4616 7.27253,3.57396 15.37379,5.19364 23.42462,5.63434 8.87789,0.42048 18.0269,-0.65036 26.11095,-4.53512 9.34482,-4.39601 16.95295,-11.79918 22.96202,-20.08675 8.15715,-11.31619 13.76999,-24.24315 18.20378,-37.40826 6.22504,-18.76763 10.06049,-38.24417 12.78475,-57.80128 0.63347,-4.52439 1.17912,-9.06043 1.68204,-13.60106 0.0991,3.93839 0.0407,7.91371 -0.10298,11.78394 -0.15596,4.12986 -0.40889,8.1306 -0.75303,12.25562 -0.32897,3.95257 -0.75415,8.01347 -1.24273,11.9486 -0.35559,2.84734 -0.76559,5.74822 -1.19032,8.47473 -0.51175,3.21473 -1.07728,6.4337 -1.71299,9.56065 -1.87971,9.16251 -4.50139,18.16821 -7.65404,26.97144 -4.49038,12.31054 -10.25783,24.31679 -18.4583,34.61124 -6.4027,8.03473 -14.54077,14.96414 -24.22459,18.65345 -4.38202,1.6794 -9.0121,2.60136 -13.63146,3.34789 -6.24389,0.99797 -12.59743,0.37173 -18.79356,-0.65365 -5.64867,-0.83652 -11.38173,-2.38386 -16.70867,-4.66933 -11.36319,-4.80404 -21.13313,-12.86663 -28.86912,-22.39982 -3.75482,-4.60856 -7.112714,-9.61327 -10.036694,-14.7098 -8.391759,-14.68986 -13.920778,-30.84726 -17.830169,-47.25795 -4.892366,-20.69991 -7.209892,-41.93451 -8.076505,-63.1631 0.0651,0.5332 0.130209,1.0664 0.195313,1.5996 z m 109.134765,2.57618 c 0.34413,5.10667 0.35357,10.23582 0.14856,15.34829 -0.14237,1.24127 -0.0539,2.6497 -0.80676,3.70639 -1.35553,0.76598 -2.9906,0.80856 -4.4924,1.11276 -1.64208,0.24693 -3.08792,0.41751 -4.74002,0.61185 -5.51813,0.60732 -11.07976,1.05327 -16.56926,1.33511 -1.17578,0.0525 -2.35162,0.10341 -3.5284,0.12778 8.37794,-6.84935 16.98848,-13.41208 25.71161,-19.81451 1.33956,-0.97448 2.79415,-2.01924 4.22199,-2.98822 0.0182,0.18685 0.0365,0.3737 0.0547,0.56055 z m 168.20118,0.36914 c 9.15799,6.56226 18.12293,13.39523 26.95996,20.38378 0.66573,0.53734 1.33119,1.07535 1.99707,1.61231 -1.47938,-0.01 -2.99484,-0.0546 -4.37503,-0.13464 -2.52917,-0.12972 -5.07846,-0.33107 -7.52457,-0.56405 -6.26169,-0.57841 -12.48889,-1.47404 -18.68634,-2.53178 0.0659,-6.55281 -0.19916,-13.12124 0.33398,-19.66015 0.43164,0.29817 0.86329,0.59635 1.29493,0.89453 z M 176.335,359.02513 c -0.0829,3.38437 -0.27083,6.80868 -1.11566,10.09891 -0.10188,0.70047 -0.61132,1.23974 -1.32574,1.3132 -3.02515,0.56509 -6.12776,0.37166 -9.18983,0.3909 -3.88687,-0.0586 -7.77402,-0.1249 -11.65783,-0.29715 -1.41485,-0.0791 -3.06726,-0.15403 -4.57095,-0.27163 -1.51896,-0.11615 -3.04121,-0.22849 -4.54819,-0.45689 0.0747,-2.95167 0.4785,-5.90448 1.16992,-8.77344 0.27395,-1.34222 1.56596,-2.04302 2.78276,-2.36958 3.81592,-1.06115 7.79182,-1.3385 11.7077,-1.83182 5.58623,-0.61912 11.17568,-1.21037 16.76345,-1.81617 -0.005,1.33789 -0.0104,2.67578 -0.0156,4.01367 z m 184.28125,-2.32422 c 4.85188,0.5836 9.73415,1.19337 14.58868,2.06309 0.53511,0.16783 1.27734,0.1144 1.68643,0.43019 0.81867,3.40555 0.94196,6.92379 1.27958,10.39734 -7.04799,0.31669 -14.21988,0.69177 -21.19141,0.96094 -2.77994,0.0254 -5.63814,0.26712 -8.34522,-0.49712 -1.36614,-0.30276 -1.93457,-1.72636 -2.08949,-2.97457 -0.48974,-3.52027 -0.27814,-7.09068 -0.3527,-10.63415 0.14803,-0.44272 -0.37288,-1.63423 0.39174,-1.38676 4.67746,0.54701 9.35493,1.09403 14.03239,1.64104 z m -206.60742,31.82031 c 11.39864,0.0866 22.83581,2.00113 33.50495,6.06255 5.08351,2.00113 10.06508,4.47587 14.28003,7.99308 0.83101,0.51737 0.36204,1.54696 0.14708,2.27181 -1.04298,2.94526 -2.45327,5.77796 -3.71762,8.56931 -3.78903,7.98344 -8.62112,15.75119 -15.65322,21.27492 -5.50082,4.2982 -12.06614,7.27206 -18.94886,8.47159 -7.64208,1.3499 -15.66347,-0.008 -22.54119,-3.56178 -3.07055,-1.55804 -5.93562,-3.50313 -8.58484,-5.69867 -0.42357,-0.3579 -1.10267,-0.93707 -1.60742,-1.39453 -0.66663,-0.598 -1.52374,-1.4101 -2.23253,-2.12424 -4.14977,-4.10981 -7.55244,-8.88527 -10.72144,-13.77025 -2.85471,-4.38936 -5.80722,-8.75747 -7.99521,-13.52929 -0.43243,-1.13235 -1.06927,-2.34469 -0.85746,-3.58012 3.10742,-1.9559 6.60949,-3.17894 10.04287,-4.43352 6.78922,-2.33212 13.74944,-4.18839 20.82236,-5.42781 0.67731,-0.10929 1.65034,-0.27047 2.44794,-0.37229 3.84717,-0.53045 7.73241,-0.74817 11.61456,-0.75076 z m 214.32031,0.17774 c 12.14409,0.0278 24.34772,2.06615 35.6435,6.59746 2.85045,1.15119 5.8451,2.05417 8.45888,3.70603 0.70083,0.3903 1.19428,1.16299 0.88004,1.96994 -0.81776,2.74175 -2.44337,5.14533 -3.77821,7.65182 -2.18195,3.92788 -4.58457,7.91755 -7.10069,11.52201 -5.11795,7.36302 -11.41248,14.17388 -19.40201,18.44193 -6.64508,3.60431 -14.29326,5.68483 -21.88096,4.88671 -6.9262,-0.71158 -13.55528,-3.45551 -19.27953,-7.36379 -6.78632,-4.69456 -11.7671,-11.52035 -15.57823,-18.74643 -1.8103,-3.42257 -3.34229,-6.85131 -4.88378,-10.39668 -0.45479,-1.23778 -1.1545,-2.48053 -1.12393,-3.8276 0.73911,-1.04208 1.93784,-1.6738 2.92881,-2.4618 3.88679,-2.73517 8.1838,-4.84436 12.62197,-6.52257 0.77496,-0.28077 1.81729,-0.66522 2.71019,-0.95464 2.41124,-0.79836 4.85637,-1.4732 7.26602,-2.02948 6.4797,-1.49686 13.11705,-2.26924 19.76207,-2.44166 0.79767,-0.015 1.86766,-0.031 2.75586,-0.0312 z" /></svg>
