<?xml version="1.0" encoding="UTF-8" standalone="no"?>
<svg
   viewBox="0 0 448 512"
   version="1.1"
   id="svg1"
   sodipodi:docname="utensils-solid.svg"
   inkscape:version="1.3 (0e150ed, 2023-07-21)"
   xmlns:inkscape="http://www.inkscape.org/namespaces/inkscape"
   xmlns:sodipodi="http://sodipodi.sourceforge.net/DTD/sodipodi-0.dtd"
   xmlns:xlink="http://www.w3.org/1999/xlink"
   xmlns="http://www.w3.org/2000/svg"
   xmlns:svg="http://www.w3.org/2000/svg">
  <defs
     id="defs1">
    <linearGradient
       id="linearGradient2"
       inkscape:collect="always">
      <stop
         style="stop-color:#666666;stop-opacity:1;"
         offset="0"
         id="stop2" />
      <stop
         style="stop-color:#ffffff;stop-opacity:1"
         offset="0.52081198"
         id="stop4" />
      <stop
         style="stop-color:#666666;stop-opacity:0;"
         offset="1"
         id="stop3" />
    </linearGradient>
    <linearGradient
       inkscape:collect="always"
       xlink:href="#linearGradient2"
       id="linearGradient3"
       x1="102.98394"
       y1="165.17743"
       x2="335.72461"
       y2="480.89197"
       gradientUnits="userSpaceOnUse" />
  </defs>
  <sodipodi:namedview
     id="namedview1"
     pagecolor="#ffffff"
     bordercolor="#666666"
     borderopacity="1.0"
     inkscape:showpageshadow="2"
     inkscape:pageopacity="0.0"
     inkscape:pagecheckerboard="0"
     inkscape:deskcolor="#d1d1d1"
     inkscape:zoom="0.87723214"
     inkscape:cx="151.04326"
     inkscape:cy="245.65903"
     inkscape:window-width="1366"
     inkscape:window-height="717"
     inkscape:window-x="0"
     inkscape:window-y="27"
     inkscape:window-maximized="1"
     inkscape:current-layer="svg1" />
  <path
     d="m 346.82058,75.601597 c -12.49465,0 -99.95718,24.989293 -99.95718,137.441123 v 87.46254 c 0,27.56631 22.41227,49.97859 49.97859,49.97859 h 24.9893 v 99.95718 c 0,13.8222 11.16709,24.98929 24.98929,24.98929 13.8222,0 24.9893,-11.16709 24.9893,-24.98929 V 350.48385 263.02131 100.59089 c 0,-13.822201 -11.1671,-24.989293 -24.9893,-24.989293 z M 71.938336,88.096245 c 0,-6.403507 -4.763585,-11.713732 -11.167092,-12.416556 -6.403507,-0.702824 -12.10419,3.514119 -13.509837,9.683352 L 23.599668,191.80182 c -1.093282,4.91977 -1.639923,9.91763 -1.639923,14.91549 0,35.84402 27.410133,65.28453 62.473236,68.48628 v 175.23744 c 0,13.8222 11.16709,24.98929 24.989299,24.98929 13.8222,0 24.98929,-11.16709 24.98929,-24.98929 V 275.20359 c 35.06311,-3.20175 62.47324,-32.64226 62.47324,-68.48628 0,-4.99786 -0.54664,-9.99572 -1.63992,-14.91549 L 171.58315,85.363041 c -1.40565,-6.247324 -7.26252,-10.386176 -13.58793,-9.683352 -6.32542,0.702824 -11.089,6.013049 -11.089,12.416556 V 192.8951 c 0,4.21695 -3.43603,7.65297 -7.65297,7.65297 -3.98267,0 -7.26252,-3.04557 -7.65297,-7.02823 L 121.83883,87.002963 c -0.54664,-6.481598 -5.93495,-11.401366 -12.41655,-11.401366 -6.4816,0 -11.869919,4.919768 -12.416559,11.401366 l -9.68335,106.516877 c -0.39046,3.98266 -3.6703,7.02823 -7.65297,7.02823 -4.21695,0 -7.652974,-3.43602 -7.652974,-7.65297 V 88.096245 Z M 109.65655,206.7954 h -0.23427 -0.23428 l 0.23428,-0.54664 z"
     id="path2"
     style="fill:#000000;stroke-width:0.780915" />
  <!--!Font Awesome Free 6.5.1 by @fontawesome - https://fontawesome.com License - https://fontawesome.com/license/free Copyright 2024 Fonticons, Inc.-->
  <path
     d="m 373.93577,56.085639 c -12.49465,0 -99.95718,24.989295 -99.95718,137.441121 v 87.46254 c 0,27.56631 22.41227,49.97859 49.97859,49.97859 h 24.9893 v 99.95718 c 0,13.8222 11.16709,24.98929 24.98929,24.98929 13.8222,0 24.9893,-11.16709 24.9893,-24.98929 V 330.96789 243.50535 81.074934 c 0,-13.822203 -11.1671,-24.989295 -24.9893,-24.989295 z M 99.053525,68.580287 c 0,-6.403507 -4.763585,-11.713732 -11.167092,-12.416556 -6.403507,-0.702824 -12.10419,3.514119 -13.509837,9.683352 L 50.714857,172.28586 c -1.093282,4.91977 -1.639923,9.91763 -1.639923,14.91549 0,35.84402 27.410133,65.28453 62.473236,68.48628 v 175.23744 c 0,13.8222 11.16709,24.98929 24.9893,24.98929 13.8222,0 24.98929,-11.16709 24.98929,-24.98929 V 255.68763 C 196.58987,252.48588 224,223.04537 224,187.20135 c 0,-4.99786 -0.54664,-9.99572 -1.63992,-14.91549 L 198.69834,65.847083 c -1.40565,-6.247324 -7.26252,-10.386176 -13.58793,-9.683352 -6.32542,0.702824 -11.089,6.013049 -11.089,12.416556 V 173.37914 c 0,4.21695 -3.43603,7.65297 -7.65297,7.65297 -3.98267,0 -7.26252,-3.04557 -7.65297,-7.02823 L 148.95402,67.487005 c -0.54664,-6.481598 -5.93495,-11.401366 -12.41655,-11.401366 -6.4816,0 -11.86992,4.919768 -12.41656,11.401366 l -9.68335,106.516875 c -0.39046,3.98266 -3.6703,7.02823 -7.65297,7.02823 -4.21695,0 -7.652974,-3.43602 -7.652974,-7.65297 V 68.580287 Z M 136.77174,187.27944 h -0.23427 -0.23428 l 0.23428,-0.54664 z"
     id="path1"
     style="stroke-width:0.780915;fill:url(#linearGradient3);fill-opacity:1" />
</svg>
