<?xml version="1.0" encoding="UTF-8" standalone="no"?>
<svg
   viewBox="0 0 512 512"
   version="1.1"
   id="svg1"
   sodipodi:docname="winter-hat.svg"
   inkscape:version="1.3 (0e150ed, 2023-07-21)"
   xml:space="preserve"
   xmlns:inkscape="http://www.inkscape.org/namespaces/inkscape"
   xmlns:sodipodi="http://sodipodi.sourceforge.net/DTD/sodipodi-0.dtd"
   xmlns="http://www.w3.org/2000/svg"
   xmlns:svg="http://www.w3.org/2000/svg"><defs
     id="defs1" /><sodipodi:namedview
     id="namedview1"
     pagecolor="#ffffff"
     bordercolor="#666666"
     borderopacity="1.0"
     inkscape:showpageshadow="2"
     inkscape:pageopacity="0.0"
     inkscape:pagecheckerboard="0"
     inkscape:deskcolor="#d1d1d1"
     inkscape:zoom="0.76757813"
     inkscape:cx="259.9084"
     inkscape:cy="198.67684"
     inkscape:window-width="1366"
     inkscape:window-height="717"
     inkscape:window-x="0"
     inkscape:window-y="27"
     inkscape:window-maximized="1"
     inkscape:current-layer="svg1"
     showgrid="false" /><!--!Font Awesome Free 6.5.1 by @fontawesome - https://fontawesome.com License - https://fontawesome.com/license/free Copyright 2024 Fonticons, Inc.--><path
     style="fill:#e6e3d8;stroke-width:1.72084"
     d="m 65.302263,337.40044 c 1.71308,-1.89293 3.501877,-3.44169 3.975109,-3.44169 0.473231,0 -0.541188,1.54876 -2.254268,3.44169 -1.713062,1.89292 -3.501859,3.44168 -3.975091,3.44168 -0.473231,0 0.541188,-1.54876 2.25425,-3.44168 z m 364.654777,-0.43021 -3.27819,-3.8719 3.8719,3.27819 c 3.63863,3.08068 4.65528,4.4656 3.27818,4.4656 -0.32655,0 -2.0689,-1.74235 -3.87189,-3.87189 z M 133.27548,207.79892 c 0,-0.29616 2.51673,-2.81289 5.59273,-5.59274 l 5.59274,-5.05428 -5.05427,5.59273 c -4.71128,5.21322 -6.1312,6.38374 -6.1312,5.05429 z m 224.46148,-5.05429 -5.05427,-5.59273 5.59274,5.05428 c 5.21322,4.71129 6.38373,6.13119 5.05426,6.13119 -0.29616,0 -2.81289,-2.51673 -5.59273,-5.59274 z M 245.13013,189.83148 c -1.41969,-0.54523 -4.71145,-3.26927 -7.31501,-6.05342 -3.37917,-3.61353 -5.59513,-4.6937 -7.74379,-3.77474 -11.48207,4.91075 -18.84589,2.028 -20.45037,-8.0058 -1.14999,-7.1917 -3.01276,-8.73567 -13.16545,-10.91224 -6.31889,-1.35467 -8.33797,-6.90181 -5.87325,-16.13595 1.85851,-6.96294 1.73635,-7.37878 -3.59972,-12.25251 -6.99577,-6.38965 -6.99825,-11.29737 -0.009,-18.50807 5.3318,-5.50103 5.44787,-5.93055 3.50927,-12.98823 -1.74082,-6.337653 -1.59472,-7.865713 1.10917,-11.601173 1.79186,-2.47545 5.2338,-4.549408 8.10642,-4.884576 6.4546,-0.753092 9.29443,-3.197529 9.29443,-8.000362 0,-4.822777 6.2052,-12.927679 9.89757,-12.927679 1.52042,0 5.33335,0.928961 8.4732,2.064338 5.36116,1.93863 6.05473,1.729032 11.38956,-3.441682 7.22264,-7.00045 12.42158,-6.994462 19.66142,0.02271 5.32722,5.163349 6.06586,5.392117 11.17856,3.462297 6.32731,-2.388286 8.16374,-0.838307 8.20698,6.926798 0.0198,3.555671 0.87111,4.732313 3.42384,4.732313 5.0633,0 8.95918,8.954791 8.48476,19.502463 -0.26234,5.832553 0.65094,10.913513 2.65469,14.769143 3.51182,6.75753 3.00256,20.55152 -0.93388,25.29463 -1.62919,1.96305 -2.21324,6.14697 -1.8174,13.01894 0.63742,11.0657 -2.10547,17.4998 -8.29814,19.46528 -2.08569,0.66197 -3.4981,2.6166 -3.51387,4.86282 -0.0477,6.79696 -2.57517,8.99328 -7.67517,6.66956 -5.96578,-2.71819 -5.72551,-2.78081 -11.00209,2.86778 -4.98292,5.33422 -9.92131,7.39091 -13.99237,5.82741 z"
     id="path7" /><path
     style="fill:#cac7be;stroke-width:1.72084"
     d="m 148.76305,193.92094 c 0,-0.35735 1.35516,-1.71252 3.01147,-3.01148 2.72935,-2.1405 2.79022,-2.07963 0.64971,0.64971 -2.24804,2.86649 -3.66118,3.77807 -3.66118,2.36177 z m 195.95637,-2.36177 c -2.14051,-2.72934 -2.07964,-2.79021 0.6497,-0.64971 2.86649,2.24806 3.77807,3.66118 2.36177,3.66118 -0.35735,0 -1.71251,-1.35516 -3.01147,-3.01147 z m -67.55726,-13.91469 c 0.63654,-3.46785 1.97029,-6.61317 2.96393,-6.98961 0.99361,-0.37643 3.66172,-2.53956 5.92912,-4.80696 3.63445,-3.63447 4.05631,-5.41003 3.56326,-14.99756 -0.38292,-7.4462 0.19282,-11.78124 1.82607,-13.74917 3.92305,-4.727 4.42462,-18.5296 0.91851,-25.27612 -2.00374,-3.85563 -2.91703,-8.93659 -2.65469,-14.769143 0.46515,-10.341684 -3.4319,-19.50246 -8.29648,-19.50246 -2.41819,0 -3.40751,-1.590608 -4.01369,-6.453153 -0.96446,-7.736643 -0.83894,-7.947584 3.84482,-6.461018 3.74204,1.18769 5.87379,4.886483 7.67569,13.31819 0.71391,3.3406 2.37122,5.009764 5.71182,5.752668 9.46342,2.104537 10.76766,2.745912 12.61934,6.205833 1.39034,2.59785 1.32245,5.5403 -0.25802,11.185193 -2.10977,7.53539 -2.05653,7.7405 3.27405,12.60924 7.1763,6.55453 7.26434,13.25493 0.2562,19.49921 -5.76757,5.13894 -6.01756,6.26644 -3.14854,14.2006 2.63103,7.27599 -1.21245,13.65083 -9.26924,15.37404 -7.30461,1.56234 -9.95315,3.79301 -9.95315,8.38284 0,4.91746 -4.19849,10.70416 -8.60178,11.85565 -3.24188,0.84777 -3.44571,0.38853 -2.38722,-5.37827 z m -78.92494,-15.18866 c 1.18308,-0.47738 3.11902,-0.47738 4.3021,0 1.18308,0.4774 0.21511,0.86798 -2.15105,0.86798 -2.36616,0 -3.33413,-0.39058 -2.15105,-0.86798 z m -25.11068,-10.9062 c 0,-2.36616 0.39058,-3.33413 0.86795,-2.15106 0.4774,1.18308 0.4774,3.11903 0,4.30211 -0.47737,1.18307 -0.86795,0.2151 -0.86795,-2.15105 z m 149.71316,0 c 0,-2.36616 0.39058,-3.33413 0.86796,-2.15106 0.47739,1.18308 0.47739,3.11903 0,4.30211 -0.47738,1.18307 -0.86796,0.2151 -0.86796,-2.15105 z M 181.45902,118.20394 c 0,-0.35735 1.35516,-1.71251 3.01147,-3.01147 2.72936,-2.1405 2.79022,-2.07964 0.64972,0.6497 -2.24805,2.86649 -3.66119,3.77807 -3.66119,2.36177 z m -8.46834,-22.725053 c 0.0826,-2.00467 0.49033,-2.41244 1.03968,-1.03968 0.4971,1.24224 0.43595,2.72647 -0.13578,3.29829 -0.57182,0.57181 -0.97854,-0.44455 -0.90382,-2.25861 z m 149.71316,0 c 0.0826,-2.00467 0.49033,-2.41244 1.03968,-1.03968 0.4971,1.24224 0.43596,2.72647 -0.13578,3.29829 -0.57181,0.57181 -0.97854,-0.44455 -0.90382,-2.25861 z m -132.64062,-6.52925 c 0,-0.357347 1.35517,-1.712509 3.01148,-3.011468 2.72935,-2.140503 2.79022,-2.079637 0.64972,0.649703 -2.24806,2.866495 -3.6612,3.778075 -3.6612,2.361765 z m 20.6501,-20.650088 c 0,-0.35735 1.35516,-1.712512 3.01147,-3.011472 2.72935,-2.140502 2.79022,-2.079636 0.64972,0.649704 -2.24806,2.866491 -3.66119,3.778072 -3.66119,2.361768 z m 27.53345,-6.883364 c 0,-0.35735 1.35516,-1.712512 3.01147,-3.011471 2.72936,-2.140503 2.79023,-2.079637 0.64972,0.649703 -2.24805,2.866491 -3.66119,3.778072 -3.66119,2.361768 z m 16.98892,-2.361768 c -2.14051,-2.72934 -2.07964,-2.790206 0.6497,-0.649703 2.86649,2.248054 3.77807,3.661175 2.36177,3.661175 -0.35735,0 -1.71251,-1.355163 -3.01147,-3.011472 z"
     id="path6" /><path
     style="fill:#e35a5a;stroke-width:1.72084"
     d="m 80.30249,463.77779 c -8.462477,-5.92733 -8.977283,-9.32591 -8.977283,-59.26456 0,-51.25538 0.527283,-54.30237 10.268722,-59.33988 3.004675,-1.55378 9.610088,-2.61039 16.318855,-2.61039 h 11.270926 v 53.86232 c 0,39.59848 0.54686,54.40919 2.06501,55.92733 3.20095,3.20095 7.7964,2.44833 10.74372,-1.75956 2.28137,-3.2571 2.67884,-11.55539 2.67884,-55.92733 v -52.10276 h 18.06883 18.06882 l 0.0236,15.91778 c 0.0291,19.64311 0.97887,23.41567 6.22742,24.73297 7.7799,1.95264 9.23665,-1.50639 9.23665,-21.9322 v -18.71855 h 18.92925 18.92925 v 53.22317 c 0,46.09023 0.36241,53.58555 2.70418,55.92733 3.22059,3.22058 7.86028,3.49726 10.71838,0.63915 1.51816,-1.51814 2.06501,-16.32885 2.06501,-55.92733 v -53.86232 h 18.92925 18.92925 v 53.86232 c 0,39.59848 0.54686,54.40919 2.065,55.92733 2.85812,2.85811 7.49781,2.58143 10.71838,-0.63915 2.34178,-2.34178 2.70418,-9.8371 2.70418,-55.92733 v -53.22317 h 18.92925 18.92925 v 53.86232 c 0,39.59848 0.54687,54.40919 2.06501,55.92733 3.20096,3.20095 7.79641,2.44833 10.74373,-1.75956 2.28137,-3.2571 2.67883,-11.55539 2.67883,-55.92733 0,-45.84742 0.31931,-52.10276 2.65949,-52.10276 1.46272,0 4.59542,-1.93595 6.96158,-4.3021 5.47305,-5.47305 11.42248,-5.47305 16.89553,0 2.36615,2.36615 5.49887,4.3021 6.96159,4.3021 2.34019,0 2.65947,6.25534 2.65947,52.10276 0,44.37194 0.39748,52.67023 2.67885,55.92733 2.9473,4.20789 7.54278,4.96051 10.74371,1.75956 1.51833,-1.51831 2.06501,-16.35308 2.06501,-56.03634 v -53.97136 l 5.4015,0.53924 c 4.13948,0.41325 6.16052,1.94645 8.65018,6.56217 3.00891,5.57835 3.21357,9.7762 2.77252,56.8675 -0.42407,45.27801 -0.81024,51.3539 -3.52735,55.49712 l -3.05113,4.65257 H 241.17134 c -139.51562,0 -157.462136,-0.29962 -160.868781,-2.68572 z m 93.929,-11.42518 c 2.87759,-2.87757 2.87759,-49.78014 0,-52.65773 -1.13576,-1.13576 -3.86523,-2.06501 -6.06554,-2.06501 -5.86338,0 -7.35702,5.88428 -7.35702,28.98344 0,15.45686 0.62446,21.04669 2.67885,23.97974 2.9473,4.20789 7.54277,4.96051 10.74371,1.75956 z"
     id="path5" /><path
     style="fill:#b54848;stroke-width:1.72084"
     d="m 165.67104,466.89408 c 42.89881,-0.2562 112.59287,-0.25611 154.87569,1.9e-4 42.2828,0.2563 7.18377,0.46592 -77.99786,0.46581 -85.18162,-10e-5 -119.77665,-0.2098 -76.87783,-0.466 z m -41.89873,-71.84547 0.0386,-53.34607 h 18.92925 18.92924 l 0.0902,17.20841 0.0902,17.20841 -0.58066,-16.7782 -0.58065,-16.7782 h -17.98376 -17.98375 l -0.49362,52.91586 -0.49364,52.91586 z m 37.70523,30.97514 c 0.003,-12.30402 0.27711,-17.11167 0.60911,-10.68369 0.332,6.42799 0.32954,16.49491 -0.005,22.37093 -0.33501,5.87604 -0.60665,0.61677 -0.60364,-11.68724 z m 173.9582,-30.95213 c 0.036,-49.741 0.24312,-53.34175 3.08376,-53.60112 2.08131,-0.19005 2.22531,-0.0227 0.45491,0.52863 -2.21837,0.69086 -2.66116,8.38719 -3.08377,53.60113 l -0.49345,52.79442 z m 37.44025,0.53339 c -0.37182,-48.63164 -0.64083,-52.85167 -3.4151,-53.57666 -2.82233,-0.73756 -2.81892,-0.79952 0.054,-0.9866 1.68601,-0.10979 3.44016,0.77681 3.89813,1.97023 0.45795,1.19342 0.61527,25.39274 0.34959,53.77628 l -0.48304,51.60642 z m -277.0288,-54.2746 c 2.602772,-0.39428 6.86185,-0.39428 9.46462,0 2.60278,0.39429 0.47324,0.71688 -4.73231,0.71688 -5.205541,0 -7.335082,-0.32259 -4.73231,-0.71688 z m 89.48372,-0.0391 c 5.44216,-0.3415 14.34751,-0.3415 19.78967,0 5.44216,0.34151 0.98949,0.62092 -9.89483,0.62092 -10.88432,0 -15.337,-0.27941 -9.89484,-0.62092 z m 53.34607,0 c 5.44216,-0.3415 14.34751,-0.3415 19.78967,0 5.44216,0.34151 0.98949,0.62092 -9.89483,0.62092 -10.88432,0 -15.337,-0.27941 -9.89484,-0.62092 z m 53.34607,0 c 5.44216,-0.3415 14.34751,-0.3415 19.78967,0 5.44216,0.34151 0.98948,0.62092 -9.89483,0.62092 -10.88432,0 -15.337,-0.27941 -9.89484,-0.62092 z m 97.22751,0.13199 c 1.18308,-0.47738 3.11903,-0.47738 4.30211,0 1.18307,0.4774 0.2151,0.86798 -2.15106,0.86798 -2.36615,0 -3.33412,-0.39058 -2.15105,-0.86798 z M 200.06561,83.261297 c 1.24224,-0.497099 2.72647,-0.435958 3.29829,0.135775 0.57182,0.571818 -0.44455,0.978539 -2.25861,0.90382 -2.00467,-0.0826 -2.41244,-0.490337 -1.03968,-1.039681 z m 18.8217,-34.380973 c 1.18308,-0.477379 3.11902,-0.477379 4.3021,0 1.18308,0.477395 0.21511,0.867974 -2.15105,0.867974 -2.36615,0 -3.33413,-0.390579 -2.15105,-0.867974 z m 55.9601,-0.05283 c 1.67431,-0.436302 3.99744,-0.407599 5.16252,0.06384 1.16506,0.471373 -0.20485,0.828361 -3.04424,0.79329 -2.83939,-0.0351 -3.79261,-0.420745 -2.11828,-0.857064 z"
     id="path4" /><path
     style="fill:#dd3232;stroke-width:1.72084"
     d="m 401.91217,460.07671 c 2.9692,-5.82389 3.25617,-10.71733 3.25617,-55.52261 0,-45.86399 -0.22939,-49.5638 -3.44502,-55.56346 l -3.44502,-6.42768 h 7.51505 c 8.61759,0 15.02029,4.11773 18.14956,11.67243 1.44244,3.48238 1.88449,19.01848 1.52356,53.54792 l -0.50846,48.64224 -5.61987,5.01899 c -4.39394,3.92412 -7.26277,5.01897 -13.15101,5.01897 h -7.53114 z M 346.65975,330.51707 c -1.81554,-3.39234 -3.60313,-3.44168 -124.74044,-3.44168 H 99.020817 l 0.946083,-9.03441 c 5.31557,-50.75996 33.70579,-97.95793 75.12296,-124.88993 18.0768,-11.75464 19.19746,-12.00562 24.65365,-5.5213 6.12185,7.27542 12.74749,10.38257 22.13951,10.38257 5.34359,0 9.49174,1.17764 12.8226,3.64025 6.80545,5.03148 20.92696,5.03148 27.73241,0 3.33086,-2.46261 7.47899,-3.64025 12.8226,-3.64025 9.46884,0 16.02112,-3.11128 22.32192,-10.59936 l 4.67883,-5.56049 7.64286,4.05453 c 8.66108,4.59469 23.24672,19.64892 33.09112,34.15423 18.82743,27.74144 29.38917,58.11175 33.77472,97.11933 l 1.11247,9.89483 h -6.94666 c -5.18542,0 -7.41362,0.87259 -8.78857,3.44168 -1.29227,2.41464 -3.60313,3.44168 -7.74379,3.44168 -4.14063,0 -6.4515,-1.02704 -7.74378,-3.44168 z"
     id="path3" /><path
     style="fill:#992b2b;stroke-width:1.72084"
     d="m 399.57561,466.9699 c 2.12954,-0.41016 5.61424,-0.41016 7.74378,0 2.12954,0.41016 0.38719,0.74576 -3.87189,0.74576 -4.25908,0 -6.00143,-0.3356 -3.87189,-0.74576 z M 76.268236,461.73119 c -2.140502,-2.72934 -2.079636,-2.7902 0.649704,-0.6497 1.656309,1.29896 3.011471,2.65412 3.011471,3.01147 0,1.41631 -1.41312,0.50473 -3.661175,-2.36177 z m 340.945994,2.36177 c 0,-0.35735 1.35516,-1.71251 3.01147,-3.01147 2.72936,-2.1405 2.79022,-2.07964 0.64972,0.6497 -2.24805,2.8665 -3.66119,3.77808 -3.66119,2.36177 z M 115.74441,453.2421 c 1.24224,-0.4971 2.72647,-0.43596 3.29829,0.13594 0.57182,0.57182 -0.44455,0.97854 -2.25861,0.90382 -2.00467,-0.0826 -2.41244,-0.49033 -1.03968,-1.03968 z m 51.62522,0 c 1.24225,-0.4971 2.72647,-0.43596 3.29829,0.13594 0.57182,0.57182 -0.44455,0.97854 -2.2586,0.90382 -2.00468,-0.0826 -2.41245,-0.49033 -1.03969,-1.03968 z m 53.34607,0 c 1.24224,-0.4971 2.72647,-0.43596 3.29829,0.13594 0.57182,0.57182 -0.44455,0.97854 -2.25861,0.90382 -2.00467,-0.0826 -2.41244,-0.49033 -1.03968,-1.03968 z m 53.34607,0 c 1.24224,-0.4971 2.72647,-0.43596 3.29829,0.13594 0.57182,0.57182 -0.44455,0.97854 -2.25861,0.90382 -2.00467,-0.0826 -2.41244,-0.49033 -1.03968,-1.03968 z m 53.34607,0 c 1.24224,-0.4971 2.72647,-0.43596 3.29829,0.13594 0.57181,0.57182 -0.44455,0.97854 -2.25861,0.90382 -2.00467,-0.0826 -2.41244,-0.49033 -1.03968,-1.03968 z m 51.62523,0 c 1.24224,-0.4971 2.72647,-0.43596 3.29828,0.13594 0.57182,0.57182 -0.44454,0.97854 -2.2586,0.90382 -2.00468,-0.0826 -2.41245,-0.49033 -1.03968,-1.03968 z M 70.355943,404.51323 c 0,-25.08125 0.240556,-35.34177 0.534579,-22.80114 0.294023,12.54063 0.294023,33.06166 0,45.60229 -0.294023,12.54062 -0.534579,2.28011 -0.534579,-22.80115 z m 356.214067,0 c 0,-25.08125 0.24056,-35.34177 0.53458,-22.80114 0.29402,12.54063 0.29402,33.06166 0,45.60229 -0.29402,12.54062 -0.53458,2.28011 -0.53458,-22.80115 z m -369.984379,0 c 0,-24.13479 0.242029,-34.00812 0.53784,-21.94072 0.295813,12.0674 0.295813,31.81405 0,43.88145 -0.295811,12.06739 -0.53784,2.19407 -0.53784,-21.94073 z M 214.92149,394.18819 c 0,-29.81357 0.2344,-42.01003 0.52087,-27.10325 0.28648,14.90679 0.28648,39.29971 0,54.20649 -0.28647,14.90679 -0.52087,2.71033 -0.52087,-27.10324 z m 67.1128,0 c 0,-29.81357 0.2344,-42.01003 0.52087,-27.10325 0.28648,14.90679 0.28648,39.29971 0,54.20649 -0.28647,14.90679 -0.52087,2.71033 -0.52087,-27.10324 z m 158.29887,10.32504 c 0,-24.13479 0.24202,-34.00812 0.53783,-21.94072 0.29581,12.0674 0.29581,31.81405 0,43.88145 -0.29581,12.06739 -0.53783,2.19407 -0.53783,-21.94073 z M 88.210958,341.38744 c 1.242241,-0.4971 2.726466,-0.43596 3.298285,0.13594 0.571818,0.57182 -0.444545,0.97854 -2.258604,0.90382 -2.004677,-0.0826 -2.412447,-0.49033 -1.039681,-1.03968 z m 310.527892,-0.0594 c 2.6158,-0.39554 6.48769,-0.38497 8.6042,0.0234 2.11654,0.40848 -0.0237,0.7321 -4.75597,0.71917 -4.73231,-0.0138 -6.46401,-0.34711 -3.84823,-0.74266 z m -21.96877,-24.14757 c -5.52745,-49.16428 -21.37245,-86.21504 -50.32087,-117.66654 -10.70425,-11.62982 -9.89518,-11.72135 4.72297,-0.53435 11.75247,8.99392 30.19868,28.15655 37.70153,39.16575 14.04388,20.6071 25.8757,52.87046 28.66869,78.17472 l 1.18714,10.75526 h -10.42349 -10.4235 z m -277.57594,0.43021 c 0.03511,-2.83938 0.420745,-3.79261 0.85705,-2.11828 0.43632,1.67431 0.40761,3.99744 -0.06367,5.16252 -0.471373,1.16506 -0.828361,-0.20485 -0.79329,-3.04424 z m 34.08134,-87.55217 c 0,-0.35735 1.35516,-1.71251 3.01147,-3.01147 2.72936,-2.1405 2.79023,-2.07963 0.64972,0.64971 -2.24805,2.86649 -3.66119,3.77807 -3.66119,2.36176 z m 13.76673,-15.69828 c 2.22289,-2.36616 4.42881,-4.3021 4.90204,-4.3021 0.47322,0 -0.9583,1.93594 -3.1812,4.3021 -2.22288,2.36615 -4.42879,4.3021 -4.90202,4.3021 -0.47323,0 0.9583,-1.93595 3.18118,-4.3021 z m 12.04588,-10.11433 c 0,-0.35735 1.35516,-1.71251 3.01147,-3.01147 2.72936,-2.1405 2.79022,-2.07964 0.64972,0.6497 -2.24805,2.86649 -3.66119,3.77807 -3.66119,2.36177 z m 156.73238,-81.23364 c 0.0826,-2.00467 0.49034,-2.41244 1.03968,-1.03967 0.4971,1.24223 0.43596,2.72646 -0.13577,3.29827 -0.57182,0.57182 -0.97854,-0.44454 -0.90382,-2.2586 z M 218.99486,62.611154 c 1.24224,-0.497099 2.72647,-0.435958 3.29829,0.135775 0.57182,0.571818 -0.44455,0.978539 -2.25861,0.90382 -2.00467,-0.0826 -2.41244,-0.490337 -1.03968,-1.039681 z"
     id="path2" /><path
     id="path1"
     style="fill:#070404;stroke-width:1.72084"
     d="m 247.59766,40.392578 c -4.95476,0.169875 -10.07751,1.310854 -14.08985,4.363281 -3.81522,2.370483 -8.37969,3.032439 -12.76959,3.478818 -5.64998,0.365409 -11.52465,1.303978 -16.30824,4.539601 -3.9836,2.621244 -6.71054,6.733608 -8.54048,11.064438 -1.46825,2.62863 -3.77283,4.697585 -6.1842,6.450914 -2.20757,1.439098 -4.56374,2.661356 -6.62522,4.321698 -3.9712,3.006947 -7.16281,7.155199 -8.55697,11.977265 -1.06434,3.381089 -1.22353,6.945581 -1.31858,10.461848 -0.2631,4.557999 -1.463,9.127929 -3.98187,12.974949 -4.97284,8.92806 -4.61279,20.5693 0.9414,29.15625 2.08452,3.54729 2.99695,7.7236 2.69344,11.81812 -0.20972,5.45134 1.60974,10.80082 4.43766,15.40653 0.82544,1.43293 1.65088,2.86586 2.47632,4.29879 -6.08866,4.06153 -12.26925,7.98807 -18.28119,12.16269 -33.54326,23.69539 -58.48236,58.98844 -70.533669,98.1753 -3.759221,12.18022 -6.200805,24.75673 -7.355855,37.44961 -0.276427,2.70752 -0.552854,5.41504 -0.829282,8.12255 -3.461039,1.71787 -7.04037,3.20881 -10.397066,5.1289 -4.753599,2.77322 -8.867497,6.6627 -11.756766,11.35868 -1.397992,2.11088 -2.795553,4.22204 -4.193824,6.33274 -0.233995,26.42474 -0.538212,52.84898 -0.710539,79.27421 0.0078,7.53249 -0.114037,15.07729 0.397122,22.59697 0.25529,3.81051 0.929924,7.67347 2.779011,11.06196 2.514629,5.07807 5.785167,9.93924 10.403987,13.33124 3.554708,2.63454 7.633307,4.51244 11.833196,5.85632 3.957311,0.89291 8.039391,0.97239 12.07411,1.20534 12.998825,0.52838 26.011945,0.58354 39.019885,0.68637 42.34486,0.23109 84.69053,0.0648 127.03563,-0.004 51.95951,-0.11911 103.91903,-0.23605 155.87854,-0.35652 3.09726,-1.70276 6.28391,-3.24945 9.31735,-5.06417 4.07846,-2.70317 7.72525,-6.09239 10.66116,-10.01005 1.90467,-2.79043 3.73576,-5.63109 5.61133,-8.4414 0,-36.70638 0,-73.41276 0,-110.11915 -2.10861,-3.10477 -4.06326,-6.31755 -6.28711,-9.34179 -3.66891,-4.7313 -8.69936,-8.25353 -14.14144,-10.66626 -1.97499,-0.94328 -3.94998,-1.88656 -5.92497,-2.82984 -0.87086,-8.35901 -1.54935,-16.75385 -3.143,-25.01652 -7.22942,-39.09918 -27.29368,-75.66919 -56.22811,-102.92041 -8.08451,-7.62221 -16.90036,-14.45409 -26.24307,-20.46451 -3.79462,-2.5029 -7.58924,-5.00581 -11.38386,-7.50871 2.21789,-3.96168 4.84257,-7.79236 5.99805,-12.24126 0.86336,-2.94433 1.03577,-6.03774 0.8718,-9.08608 -0.0623,-4.05534 1.27418,-8.03611 3.46522,-11.42132 4.73221,-8.19488 4.9328,-18.80458 0.60194,-27.2066 -1.17002,-2.04613 -2.3958,-4.08854 -3.05483,-6.37179 -1.13763,-3.46019 -1.37908,-7.122268 -1.45148,-10.738885 -0.24406,-5.150796 -1.74117,-10.371267 -5.02376,-14.428167 -2.81524,-3.595866 -6.66389,-6.179986 -10.58853,-8.421191 -2.64241,-1.745972 -5.0965,-3.918975 -6.76707,-6.634794 -1.20562,-2.629071 -2.51096,-5.253602 -4.39884,-7.471909 -3.16779,-3.914846 -7.84935,-6.342064 -12.71791,-7.392784 -4.61373,-1.118602 -9.42888,-0.858641 -14.04337,-1.976742 -2.83283,-0.609043 -5.60781,-1.660813 -7.91466,-3.448324 -4.36169,-2.734025 -9.6796,-3.576779 -14.75195,-3.472656 z m 1.40429,16.914063 c 3.32793,0.291754 5.93295,2.695331 8.13503,4.996618 2.09787,2.155789 4.53623,4.437034 7.6931,4.673303 2.78427,0.211276 5.45214,-0.84277 8.21094,-1.021484 3.37977,-0.304677 7.06471,-0.319626 10.04882,1.523438 2.22422,1.376926 3.12707,4.098624 3.06055,6.605468 -0.0348,3.329563 1.09061,6.94179 3.93773,8.913059 1.82414,1.338826 4.13059,1.728757 6.34264,1.757183 2.65657,0.532566 5.11413,1.891135 7.20352,3.590423 1.65969,1.294722 2.83755,3.266829 2.80363,5.413846 0.0547,3.81417 -1.35606,7.429905 -2.34592,11.054485 -0.61657,2.41972 0.41434,4.92559 2.02747,6.72273 2.18257,2.56978 5.06139,4.46766 6.94491,7.30925 1.39406,1.91846 2.17818,4.47786 1.28802,6.77688 -1.23794,3.28611 -3.90137,5.74857 -6.46686,8.03043 -1.78806,1.59798 -3.98101,3.27979 -4.2742,5.83601 -0.2557,2.84849 1.70665,5.21624 2.3162,7.88983 1.07101,3.77073 0.6998,8.25339 -2.06768,11.22889 -2.01513,2.21978 -5.10764,3.09247 -8.03173,2.99847 -2.50137,0.0224 -5.04354,1.08081 -6.52665,3.1523 -2.07163,2.84313 -2.82125,6.37125 -3.61401,9.73253 -0.37283,2.35312 -1.47883,4.7602 -3.64503,5.95516 -3.08505,1.74126 -6.86194,1.28625 -10.11396,0.29132 -2.49185,-0.72275 -5.01027,-1.91075 -7.66349,-1.57123 -2.71108,0.41686 -4.50928,2.70811 -6.29254,4.57194 -2.17263,2.42233 -4.75171,4.95435 -8.153,5.31736 -2.6507,0.36535 -5.38775,-0.46103 -7.42637,-2.18559 -2.7768,-2.11796 -4.59262,-5.33012 -7.65479,-7.09192 -2.21543,-1.22527 -4.81853,-0.54994 -7.0751,0.17445 -3.43678,1.15363 -7.12894,2.33991 -10.77171,1.45833 -2.39658,-0.52125 -4.30434,-2.48157 -4.92665,-4.83044 -0.9738,-3.8263 -1.58934,-7.87623 -3.72459,-11.27695 -1.31487,-2.11697 -3.66751,-3.44447 -6.13671,-3.625 -1.98017,-0.13239 -4.03272,-0.0281 -5.89238,-0.85192 -3.12052,-1.18108 -5.19449,-4.29714 -5.53289,-7.55769 -0.45037,-3.40508 0.59775,-6.78845 2.04352,-9.83454 0.83931,-1.84293 1.27774,-4.1165 0.15244,-5.94228 -1.53995,-2.51607 -4.19954,-4.0235 -6.08114,-6.2491 -2.07614,-2.33731 -4.04997,-4.92597 -4.9376,-7.96681 -0.36663,-0.88095 0.45289,-1.59149 0.84202,-2.30349 2.31102,-3.52912 5.41523,-6.42633 7.97052,-9.76285 1.46267,-1.87087 2.58348,-4.26204 2.06426,-6.68614 -0.40261,-2.11525 -1.42321,-4.06031 -1.78617,-6.191095 -0.31725,-1.731643 -0.79742,-3.523003 -0.48687,-5.285337 0.81661,-2.690865 2.98624,-4.736203 5.24878,-6.281738 1.8885,-1.267835 4.10605,-2.135702 6.40712,-2.081331 3.60777,-0.275394 6.52064,-3.115264 7.79686,-6.366132 0.82676,-1.93358 1.06049,-4.046232 1.12687,-6.126181 0.57338,-2.305069 2.44127,-4.022527 4.28612,-5.386574 1.66063,-1.114149 3.60355,-2.205215 5.67111,-1.974444 3.62179,1.048325 7.31632,2.454924 11.15176,2.086007 3.30212,-0.308895 5.94119,-2.57957 8.12648,-4.890681 2.15101,-2.222009 4.73697,-4.499217 7.9682,-4.721944 0.25326,-0.01557 0.50617,-0.0069 0.75942,0.0032 z m 53.19727,125.908199 c 4.31416,1.93228 8.34236,4.43722 12.38062,6.87932 7.49303,4.66144 14.89127,9.56066 21.46491,15.47796 8.10909,7.21413 15.7241,14.98245 22.85459,23.16332 4.17621,4.77557 8.09601,9.79617 11.36101,15.24539 7.23694,11.85173 12.81647,24.65956 17.25801,37.79856 4.07487,12.19438 7.12594,24.77964 8.34847,37.59726 0.20715,1.87771 0.4143,3.75541 0.62145,5.63312 -7.78703,0.27219 -15.58108,0.35318 -23.35947,0.81619 -3.03369,0.27215 -6.19801,0.39253 -9.00098,1.70408 -3.53304,1.70217 -4.89523,6.56283 -2.95909,9.92942 1.70163,3.18517 5.31851,4.84779 8.80004,5.12169 0.73046,0.0875 1.46092,0.17507 2.19138,0.2626 0.30236,36.91015 0.60538,73.8203 0.90625,110.73047 2.85732,0.35086 5.69283,0.93334 8.56981,1.08957 2.14762,0.15287 4.37211,-0.87347 5.42002,-2.80053 1.56368,-2.791 1.79524,-6.07087 2.14213,-9.18764 0.68811,-8.61601 0.64758,-17.2688 0.7236,-25.90639 0.0768,-24.11033 0.019,-48.22091 0.037,-72.33134 0.14624,-0.48579 -0.32471,-1.58877 0.3,-1.59609 6.50827,0.0971 13.13461,-0.43196 19.51452,1.1622 4.00529,0.95699 7.82253,3.09524 10.27564,6.46633 2.10259,2.90502 3.57176,6.27997 4.30406,9.78882 0.95,5.19425 0.9129,10.50147 1.02366,15.76257 0.11031,13.87721 -0.14134,27.75416 -0.29574,41.63018 -0.10119,7.73435 -0.21097,15.50132 -0.49599,23.18059 -0.24501,4.41608 -0.28487,8.89652 -1.35075,13.21243 -0.9756,3.64742 -3.94138,6.3015 -6.91797,8.40235 -1.44396,0.99791 -3.03779,1.87038 -4.82483,1.99222 -5.65853,0.70352 -11.38304,0.78297 -17.04822,0.98043 -22.54613,0.53673 -45.10038,0.54992 -67.65156,0.63978 -46.70695,0.10164 -93.41408,0.0483 -140.12109,0.0228 -23.19733,-0.057 -46.39683,-0.0273 -69.59112,-0.45468 -8.35637,-0.18779 -16.64079,-0.37584 -24.991888,-1.06064 -1.935275,-0.16852 -3.867751,-0.37685 -5.788874,-0.66682 -0.593974,-0.0994 -1.493436,-0.24236 -2.201401,-0.39551 -2.576022,-0.53527 -5.418557,-1.32418 -6.960708,-3.6455 -1.344369,-2.00578 -2.930432,-3.97226 -3.378907,-6.41211 -0.361582,-1.61444 -0.540064,-3.35051 -0.669172,-4.88706 -0.211139,-2.53279 -0.306725,-5.47934 -0.387468,-8.09537 -0.310025,-14.11529 -0.212233,-28.23543 -0.228774,-42.35312 0.01134,-9.65861 0.0094,-19.31843 0.23268,-28.975 0.05649,-1.96206 0.130433,-4.12735 0.241191,-6.16563 0.228171,-3.11728 0.306083,-6.32495 1.387338,-9.29182 1.278917,-2.87271 3.681608,-5.1249 6.316784,-6.76911 5.379812,-3.22393 11.805268,-4.03162 17.970661,-4.06774 2.854178,-0.001 5.708358,-2e-4 8.562538,-6.2e-4 0.0178,24.67744 -0.0398,49.35504 0.0383,74.03237 0.0782,8.52396 0.037,17.06258 0.70612,25.56589 0.33031,3.11958 0.55798,6.38391 2.03777,9.21204 0.96856,1.92885 3.08892,3.0939 5.22755,3.01782 2.84519,-0.0888 5.64331,-0.69887 8.46482,-1.03633 0.78388,0.0743 0.27981,-0.97836 0.4291,-1.45933 0.29889,-36.44415 0.59752,-72.8883 0.89514,-109.33246 11.84896,0 23.69792,0 35.54688,0 0.0336,9.47508 -0.0831,18.9521 0.10156,28.42578 0.1587,3.08609 0.10234,6.27798 1.18119,9.21724 0.64278,1.80044 2.22336,3.02702 3.91512,3.78586 1.75247,0.95017 3.87296,1.98873 5.85472,1.06825 1.5921,-0.77462 2.81654,-2.12779 3.99428,-3.4151 1.80762,-2.43318 2.05733,-5.5876 2.35077,-8.50433 0.54623,-7.61015 0.31484,-15.24778 0.36994,-22.87106 -10e-6,-2.56888 0,-5.13776 0,-7.70664 11.84895,0 23.69791,0 35.54687,0 0.30339,36.91144 0.60625,73.8229 0.90625,110.73437 2.77777,0.3332 5.53229,0.91281 8.33008,1.04492 2.13414,0.0943 4.30027,-0.95166 5.3644,-2.83915 1.56152,-2.67375 1.87173,-5.84185 2.24031,-8.8569 0.74887,-7.74455 0.76715,-15.53609 0.87525,-23.30978 0.14949,-21.01824 0.056,-42.03729 0.0825,-63.05589 0,-4.57252 0,-9.14505 0,-13.71757 11.28646,0 22.57291,0 33.85937,0 0.0193,23.87249 -0.0438,47.74517 0.0433,71.61753 0.0943,9.18996 0.0585,18.39698 0.81799,27.56215 0.36912,3.24545 0.63923,6.64094 2.21484,9.56836 1.01859,1.90913 3.13044,3.09517 5.28676,3.02265 2.62636,-0.0467 5.2086,-0.63506 7.81286,-0.93544 0.88247,0.16098 0.74492,-0.57168 0.72551,-1.20084 0.2976,-36.54482 0.597,-73.08962 0.89753,-109.63441 11.84896,0 23.69792,0 35.54688,0 0.0222,23.7946 -0.0536,47.58947 0.0592,71.38388 0.10729,9.87852 0.12163,19.7675 0.76508,29.62898 0.23469,2.43302 0.27955,4.95849 1.19131,7.25667 0.85719,1.62406 2.64229,2.52019 4.32854,3.06275 2.96605,0.85658 6.52278,0.5941 8.90771,-1.52844 1.10021,-0.95852 1.6392,-2.38934 1.64295,-3.8287 0.45768,-6.86509 0.49491,-13.75073 0.63176,-20.62813 0.36721,-24.30711 0.20009,-48.61782 0.23904,-72.9267 0,-4.1388 0,-8.2776 0,-12.41641 2.59611,-0.29032 5.3216,-0.48722 7.59795,-1.90841 2.7677,-1.55156 4.75014,-4.72741 4.2458,-7.95877 -0.3153,-2.03362 -1.39524,-4.22027 -3.47557,-4.90816 -2.90553,-1.02055 -6.03362,-1.07644 -9.07401,-1.33248 -11.0026,-0.59782 -22.02628,-0.65067 -33.0421,-0.8003 -33.72443,-0.32012 -67.45068,-0.3708 -101.17616,-0.51401 -33.60733,-0.12101 -67.21467,-0.24202 -100.822,-0.36302 -0.0357,-3.20679 0.0355,-6.42081 0.52411,-9.5965 0.59998,-4.50175 1.5343,-9.10137 2.47003,-13.44647 2.25263,-9.97308 4.88924,-19.88252 8.4149,-29.48756 5.37058,-14.15405 13.20492,-27.27751 22.3092,-39.33408 9.20507,-12.08687 19.78755,-23.19233 31.8363,-32.47674 6.74777,-4.97788 13.86654,-9.43779 21.12105,-13.63528 2.42988,-1.36508 4.85468,-2.76198 7.42206,-3.8554 1.72277,2.32815 3.16548,4.87448 5.11914,7.02343 3.82219,3.92518 8.80657,6.5707 13.99043,8.22337 3.51733,1.08539 7.28733,1.65751 10.93502,0.9196 3.09388,-0.38097 5.94939,1.23821 8.36693,2.98315 4.54639,2.8509 10.02962,3.7947 15.32519,3.81769 5.22838,-0.059 10.63629,-1.01505 15.11301,-3.8501 2.42319,-1.75297 5.30304,-3.35194 8.40168,-2.94317 4.62119,0.91554 9.36541,-0.23414 13.66925,-1.92675 4.63437,-1.9102 9.12403,-4.58489 12.30006,-8.53629 1.37316,-1.87983 2.6538,-3.85033 4.01367,-5.72461 z M 168.5957,395.73828 c -2.29015,0.0147 -4.46812,1.30683 -5.836,3.09025 -0.91896,1.87391 -0.98937,4.0238 -1.27063,6.05968 -0.81013,8.42022 -0.99353,16.88804 -1.04782,25.34303 0.0209,5.94569 -0.002,11.91442 0.68973,17.82791 0.19272,1.78427 0.68803,3.70033 2.19498,4.83361 2.59647,2.02644 6.28393,2.1509 9.29513,1.05646 1.8269,-0.69328 3.66105,-1.95937 4.15272,-3.96268 1.01498,-3.68363 1.08854,-7.54051 1.30339,-11.33268 0.30085,-8.31292 0.27276,-16.63746 0.0827,-24.95275 -0.16592,-3.82513 -0.19456,-7.72331 -1.24522,-11.43292 -0.49384,-1.82139 -1.68131,-3.36356 -3.17737,-4.4858 -1.45369,-1.17767 -3.23456,-2.05663 -5.14157,-2.04411 z" /></svg>
