<?xml version="1.0" encoding="UTF-8" standalone="no"?>
<svg
   xmlns:dc="http://purl.org/dc/elements/1.1/"
   xmlns:cc="http://creativecommons.org/ns#"
   xmlns:rdf="http://www.w3.org/1999/02/22-rdf-syntax-ns#"
   xmlns:svg="http://www.w3.org/2000/svg"
   xmlns="http://www.w3.org/2000/svg"
   xmlns:sodipodi="http://sodipodi.sourceforge.net/DTD/sodipodi-0.dtd"
   xmlns:inkscape="http://www.inkscape.org/namespaces/inkscape"
   width="73"
   height="50"
   viewBox="0 0 19.314595 13.229167"
   version="1.1"
   id="svg63"
   inkscape:version="1.0.2 (e86c870879, 2021-01-15)"
   sodipodi:docname="logoNSH.svg">
  <defs
     id="defs57" />
  <sodipodi:namedview
     id="base"
     pagecolor="#ffffff"
     bordercolor="#666666"
     borderopacity="1.0"
     inkscape:pageopacity="0.0"
     inkscape:pageshadow="2"
     inkscape:zoom="1.979899"
     inkscape:cx="-62.397946"
     inkscape:cy="7.3612139"
     inkscape:document-units="mm"
     inkscape:current-layer="layer1"
     inkscape:document-rotation="0"
     showgrid="false"
     units="px"
     inkscape:window-width="1366"
     inkscape:window-height="717"
     inkscape:window-x="0"
     inkscape:window-y="27"
     inkscape:window-maximized="1" />
  <metadata
     id="metadata60">
    <rdf:RDF>
      <cc:Work
         rdf:about="">
        <dc:format>image/svg+xml</dc:format>
        <dc:type
           rdf:resource="http://purl.org/dc/dcmitype/StillImage" />
        <dc:title></dc:title>
      </cc:Work>
    </rdf:RDF>
  </metadata>
  <g
     inkscape:label="Layer 1"
     inkscape:groupmode="layer"
     id="layer1">
    <ellipse
       style="fill:none;stroke:none;stroke-width:0.0153802;stroke-linecap:round;stroke-linejoin:round;stroke-miterlimit:4;stroke-dasharray:none;paint-order:stroke markers fill"
       id="circle1313"
       cx="5.47609"
       cy="2.1031685"
       rx="1.1998242"
       ry="1.1998112" />
    <ellipse
       style="fill:none;stroke:none;stroke-width:0.0153802;stroke-linecap:round;stroke-linejoin:round;stroke-miterlimit:4;stroke-dasharray:none;paint-order:stroke markers fill"
       id="circle1315"
       cx="2.5286708"
       cy="5.0004854"
       rx="1.1998242"
       ry="1.1998112" />
    <ellipse
       style="fill:none;stroke:none;stroke-width:0.0153802;stroke-linecap:round;stroke-linejoin:round;stroke-miterlimit:4;stroke-dasharray:none;paint-order:stroke markers fill"
       id="circle1317"
       cx="5.4655938"
       cy="7.8909121"
       rx="1.1998242"
       ry="1.1998112" />
    <path
       style="color:#000000;font-style:normal;font-variant:normal;font-weight:normal;font-stretch:normal;font-size:medium;line-height:normal;font-family:sans-serif;font-variant-ligatures:normal;font-variant-position:normal;font-variant-caps:normal;font-variant-numeric:normal;font-variant-alternates:normal;font-variant-east-asian:normal;font-feature-settings:normal;font-variation-settings:normal;text-indent:0;text-align:start;text-decoration:none;text-decoration-line:none;text-decoration-style:solid;text-decoration-color:#000000;letter-spacing:normal;word-spacing:normal;text-transform:none;writing-mode:lr-tb;direction:ltr;text-orientation:mixed;dominant-baseline:auto;baseline-shift:baseline;text-anchor:start;white-space:normal;shape-padding:0;shape-margin:0;inline-size:0;clip-rule:nonzero;display:inline;overflow:visible;visibility:visible;isolation:auto;mix-blend-mode:normal;color-interpolation:sRGB;color-interpolation-filters:linearRGB;solid-color:#000000;solid-opacity:1;vector-effect:none;fill:#620087;fill-opacity:1;fill-rule:nonzero;stroke:none;stroke-width:0.178198;stroke-linecap:round;stroke-linejoin:round;stroke-miterlimit:4;stroke-dasharray:none;stroke-dashoffset:0;stroke-opacity:1;color-rendering:auto;image-rendering:auto;shape-rendering:auto;text-rendering:auto;enable-background:accumulate;stop-color:#000000"
       d="M 5.4780731,0.84843817 C 5.1483359,0.84789395 4.8316379,0.97717237 4.5964776,1.2083117 L 4.1461866,1.6380893 C 3.2393659,2.8648406 3.8630781,4.1060468 4.5545362,4.7572109 L 6.3554703,2.9979332 C 6.8496582,2.5121961 6.8565116,1.7178162 6.3707772,1.2236257 6.1353958,0.98414207 5.8138394,0.84900199 5.4780446,0.84843817 Z"
       id="path1319"
       sodipodi:nodetypes="cccccccc" />
    <path
       id="path1321"
       style="color:#000000;font-style:normal;font-variant:normal;font-weight:normal;font-stretch:normal;font-size:medium;line-height:normal;font-family:sans-serif;font-variant-ligatures:normal;font-variant-position:normal;font-variant-caps:normal;font-variant-numeric:normal;font-variant-alternates:normal;font-variant-east-asian:normal;font-feature-settings:normal;font-variation-settings:normal;text-indent:0;text-align:start;text-decoration:none;text-decoration-line:none;text-decoration-style:solid;text-decoration-color:#000000;letter-spacing:normal;word-spacing:normal;text-transform:none;writing-mode:lr-tb;direction:ltr;text-orientation:mixed;dominant-baseline:auto;baseline-shift:baseline;text-anchor:start;white-space:normal;shape-padding:0;shape-margin:0;inline-size:0;clip-rule:nonzero;display:inline;overflow:visible;visibility:visible;isolation:auto;mix-blend-mode:normal;color-interpolation:sRGB;color-interpolation-filters:linearRGB;solid-color:#000000;solid-opacity:1;vector-effect:none;fill:#6200ee;fill-opacity:1;fill-rule:nonzero;stroke:none;stroke-width:0.178198;stroke-linecap:round;stroke-linejoin:round;stroke-miterlimit:4;stroke-dasharray:none;stroke-dashoffset:0;stroke-opacity:1;color-rendering:auto;image-rendering:auto;shape-rendering:auto;text-rendering:auto;enable-background:accumulate;stop-color:#000000"
       d="M 4.0244411,1.7706612 1.6492529,4.1057652 C 1.1493458,4.5971921 1.1490139,5.4028753 1.6485342,5.8947118 l 2.9368233,2.8903829 c 0.4939285,0.48628 1.288597,0.479931 1.774692,-0.014184 C 6.8460642,8.2770054 6.839674,7.4826293 6.3457743,6.9966055 L 4.4440925,5.1249695 C 3.8814204,4.6530339 3.5564186,3.9563107 3.5563776,3.2219304 3.5563848,2.7010652 3.7201277,2.1933777 4.0244531,1.7706612 Z"
       sodipodi:nodetypes="ccccccccc" />
    <path
       id="path1321-6"
       style="color:#000000;font-style:normal;font-variant:normal;font-weight:normal;font-stretch:normal;font-size:medium;line-height:normal;font-family:sans-serif;font-variant-ligatures:normal;font-variant-position:normal;font-variant-caps:normal;font-variant-numeric:normal;font-variant-alternates:normal;font-variant-east-asian:normal;font-feature-settings:normal;font-variation-settings:normal;text-indent:0;text-align:start;text-decoration:none;text-decoration-line:none;text-decoration-style:solid;text-decoration-color:#000000;letter-spacing:normal;word-spacing:normal;text-transform:none;writing-mode:lr-tb;direction:ltr;text-orientation:mixed;dominant-baseline:auto;baseline-shift:baseline;text-anchor:start;white-space:normal;shape-padding:0;shape-margin:0;inline-size:0;clip-rule:nonzero;display:inline;overflow:visible;visibility:visible;isolation:auto;mix-blend-mode:normal;color-interpolation:sRGB;color-interpolation-filters:linearRGB;solid-color:#000000;solid-opacity:1;vector-effect:none;fill:#6200ee;fill-opacity:1;fill-rule:nonzero;stroke:none;stroke-width:0.178198;stroke-linecap:round;stroke-linejoin:round;stroke-miterlimit:4;stroke-dasharray:none;stroke-dashoffset:0;stroke-opacity:1;color-rendering:auto;image-rendering:auto;shape-rendering:auto;text-rendering:auto;enable-background:accumulate;stop-color:#000000"
       d="m 15.274239,8.1591889 2.375188,-2.3351044 c 0.499907,-0.4914269 0.500239,-1.2971101 7.19e-4,-1.7889466 L 14.713322,1.1447554 C 14.219394,0.65847543 13.424725,0.66482446 12.938631,1.1589391 12.45261,1.6528447 12.459,2.4472201 12.952899,2.933244 l 1.901683,1.8716363 c 0.562672,0.4719355 0.887674,1.1686587 0.887715,1.9030397 -7e-6,0.5208642 -0.16375,1.0285518 -0.468076,1.4512689 z"
       sodipodi:nodetypes="ccccccccc" />
    <path
       id="path259"
       style="fill:#800080;stroke:none;stroke-width:0.172851px;stroke-linecap:butt;stroke-linejoin:miter;stroke-opacity:1"
       d="m 5.5952223,0.83275178 c -0.045308,-0.001111 -0.084464,0.003789 -0.1171528,0.0155296 0,0 -0.724738,1.37248242 0.3663136,2.66480432 0.7595425,-1.4641705 7.0909519,5.2053657 7.0909519,5.2053657 2.25e-4,-0.0015 7.84e-4,-0.00287 10e-4,-0.00438 0.234628,0.2343753 0.552266,0.3667688 0.884217,0.3673261 0.329737,5.357e-4 0.646355,-0.1287597 0.881515,-0.359899 l 0.45038,-0.4297849 C 16.059306,7.0649644 15.46075,5.8023744 14.769292,5.151211 L 13.890139,6.0084182 C 12.758455,5.6608291 6.8489029,0.86398279 5.5952216,0.83276224 Z" />
    <g
       aria-label="NISHINO"
       id="text287"
       style="font-style:normal;font-weight:normal;font-size:2.95352px;line-height:1.25;font-family:sans-serif;letter-spacing:0.342262px;fill:#ffffff;fill-opacity:1;stroke:none;stroke-width:0.0738384">
      <path
         d="M 4.1173376,12.507688 Q 3.9194518,12.156219 3.6890772,11.81361 3.4587027,11.471002 3.1987929,11.166789 v 1.340899 H 2.7439508 v -2.04679 h 0.3750971 q 0.097466,0.09747 0.2156069,0.239235 0.1181408,0.141769 0.2392352,0.304213 0.1240478,0.15949 0.2451421,0.333748 0.1210943,0.171304 0.2274211,0.330794 v -1.20799 h 0.4577956 v 2.04679 z"
         style="font-style:normal;font-variant:normal;font-weight:bold;font-stretch:normal;font-family:ubuntu;-inkscape-font-specification:'ubuntu Bold';fill:#ffffff;stroke-width:0.0738384"
         id="path136" />
      <path
         d="M 5.3190698,10.460898 H 5.779819 v 2.04679 H 5.3190698 Z"
         style="font-style:normal;font-variant:normal;font-weight:bold;font-stretch:normal;font-family:ubuntu;-inkscape-font-specification:'ubuntu Bold';fill:#ffffff;stroke-width:0.0738384"
         id="path138" />
      <path
         d="m 7.1528593,12.156219 q 0.097466,0 0.1594901,-0.01477 0.064977,-0.01772 0.1033732,-0.0443 0.038396,-0.02954 0.053163,-0.06793 0.014768,-0.03839 0.014768,-0.08565 0,-0.100419 -0.094513,-0.165397 -0.094513,-0.06793 -0.3248872,-0.144722 -0.1004197,-0.03544 -0.2008393,-0.07974 -0.1004197,-0.04726 -0.1801648,-0.115188 -0.079745,-0.07088 -0.1299548,-0.16835 -0.05021,-0.10042 -0.05021,-0.242189 0,-0.141769 0.053163,-0.254003 0.053163,-0.115187 0.1506295,-0.194932 0.097466,-0.07974 0.2362816,-0.121094 0.1388155,-0.0443 0.3130731,-0.0443 0.2067464,0 0.357376,0.0443 0.1506295,0.0443 0.2480956,0.09747 l -0.1329084,0.363283 q -0.085652,-0.0443 -0.1919788,-0.07679 -0.1033732,-0.03544 -0.2510492,-0.03544 -0.1653971,0 -0.2392351,0.04726 -0.070885,0.0443 -0.070885,0.138816 0,0.05612 0.026582,0.09451 0.026582,0.0384 0.073838,0.07088 0.05021,0.02954 0.1122338,0.05612 0.064977,0.02363 0.1417689,0.05021 0.1594901,0.05907 0.2776309,0.11814 0.1181408,0.05612 0.1949323,0.132909 0.079745,0.07679 0.1181408,0.180165 0.038396,0.103373 0.038396,0.251049 0,0.286491 -0.2008394,0.445981 -0.2008393,0.156537 -0.6054716,0.156537 -0.1358619,0 -0.2451421,-0.01772 -0.1092803,-0.01477 -0.1949324,-0.0384 -0.082698,-0.02363 -0.1447224,-0.05021 -0.05907,-0.02658 -0.1004197,-0.05021 l 0.1299549,-0.366236 q 0.091559,0.05021 0.2244675,0.09156 0.1358619,0.0384 0.3307942,0.0384 z"
         style="font-style:normal;font-variant:normal;font-weight:bold;font-stretch:normal;font-family:ubuntu;-inkscape-font-specification:'ubuntu Bold';fill:#ffffff;stroke-width:0.0738384"
         id="path140" />
      <path
         d="m 9.8904227,10.460898 h 0.4607493 v 2.04679 H 9.8904227 V 11.639353 H 9.1166005 v 0.868335 H 8.6558513 v -2.04679 h 0.4607492 v 0.782683 h 0.7738222 z"
         style="font-style:normal;font-variant:normal;font-weight:bold;font-stretch:normal;font-family:ubuntu;-inkscape-font-specification:'ubuntu Bold';fill:#ffffff;stroke-width:0.0738384"
         id="path142" />
      <path
         d="m 11.165995,10.460898 h 0.460749 v 2.04679 h -0.460749 z"
         style="font-style:normal;font-variant:normal;font-weight:bold;font-stretch:normal;font-family:ubuntu;-inkscape-font-specification:'ubuntu Bold';fill:#ffffff;stroke-width:0.0738384"
         id="path144" />
      <path
         d="M 13.814956,12.507688 Q 13.61707,12.156219 13.386696,11.81361 13.156321,11.471002 12.896411,11.166789 v 1.340899 h -0.454842 v -2.04679 h 0.375097 q 0.09747,0.09747 0.215607,0.239235 0.118141,0.141769 0.239235,0.304213 0.124048,0.15949 0.245143,0.333748 0.121094,0.171304 0.227421,0.330794 v -1.20799 h 0.457795 v 2.04679 z"
         style="font-style:normal;font-variant:normal;font-weight:bold;font-stretch:normal;font-family:ubuntu;-inkscape-font-specification:'ubuntu Bold';fill:#ffffff;stroke-width:0.0738384"
         id="path146" />
      <path
         d="m 15.403599,11.482816 q 0,0.15063 0.03544,0.271724 0.03839,0.121094 0.106326,0.2097 0.07089,0.08565 0.171305,0.132908 0.100419,0.04726 0.230374,0.04726 0.127001,0 0.227421,-0.04726 0.103373,-0.04726 0.171304,-0.132908 0.07089,-0.08861 0.106327,-0.2097 0.0384,-0.121094 0.0384,-0.271724 0,-0.150629 -0.0384,-0.271724 -0.03544,-0.124048 -0.106327,-0.2097 -0.06793,-0.0886 -0.171304,-0.135862 -0.10042,-0.04726 -0.227421,-0.04726 -0.129955,0 -0.230374,0.05021 -0.10042,0.04726 -0.171305,0.135862 -0.06793,0.08565 -0.106326,0.2097 -0.03544,0.121094 -0.03544,0.26877 z m 1.562413,0 q 0,0.262863 -0.07974,0.463703 -0.07679,0.197886 -0.212654,0.333748 -0.135862,0.132908 -0.324887,0.200839 -0.186072,0.06793 -0.401679,0.06793 -0.2097,0 -0.395772,-0.06793 -0.186071,-0.06793 -0.324887,-0.200839 -0.138815,-0.135862 -0.21856,-0.333748 -0.07974,-0.20084 -0.07974,-0.463703 0,-0.262863 0.0827,-0.460749 0.0827,-0.200839 0.221514,-0.336701 0.141769,-0.135862 0.324887,-0.203793 0.186072,-0.06793 0.389865,-0.06793 0.2097,0 0.395772,0.06793 0.186072,0.06793 0.324887,0.203793 0.138815,0.135862 0.218561,0.336701 0.07974,0.197886 0.07974,0.460749 z"
         style="font-style:normal;font-variant:normal;font-weight:bold;font-stretch:normal;font-family:ubuntu;-inkscape-font-specification:'ubuntu Bold';fill:#ffffff;stroke-width:0.0738384"
         id="path148" />
    </g>
  </g>
</svg>
